%TF.GenerationSoftware,KiCad,Pcbnew,5.1.9-73d0e3b20d~88~ubuntu20.04.1*%
%TF.CreationDate,2020-12-28T10:08:40-05:00*%
%TF.ProjectId,mfosish_ww_supply,6d666f73-6973-4685-9f77-775f73757070,rev?*%
%TF.SameCoordinates,Original*%
%TF.FileFunction,Copper,L2,Bot*%
%TF.FilePolarity,Positive*%
%FSLAX46Y46*%
G04 Gerber Fmt 4.6, Leading zero omitted, Abs format (unit mm)*
G04 Created by KiCad (PCBNEW 5.1.9-73d0e3b20d~88~ubuntu20.04.1) date 2020-12-28 10:08:40*
%MOMM*%
%LPD*%
G01*
G04 APERTURE LIST*
%TA.AperFunction,ComponentPad*%
%ADD10O,1.600000X3.800000*%
%TD*%
%TA.AperFunction,ComponentPad*%
%ADD11O,4.300000X1.600000*%
%TD*%
%TA.AperFunction,ComponentPad*%
%ADD12O,3.800000X1.600000*%
%TD*%
%TA.AperFunction,ComponentPad*%
%ADD13C,1.600000*%
%TD*%
%TA.AperFunction,ComponentPad*%
%ADD14R,1.600000X1.600000*%
%TD*%
%TA.AperFunction,ComponentPad*%
%ADD15C,3.000000*%
%TD*%
%TA.AperFunction,ComponentPad*%
%ADD16R,3.000000X3.000000*%
%TD*%
%TA.AperFunction,ComponentPad*%
%ADD17O,2.000000X1.905000*%
%TD*%
%TA.AperFunction,ComponentPad*%
%ADD18R,2.000000X1.905000*%
%TD*%
%TA.AperFunction,ComponentPad*%
%ADD19O,2.200000X2.200000*%
%TD*%
%TA.AperFunction,ComponentPad*%
%ADD20R,2.200000X2.200000*%
%TD*%
%TA.AperFunction,ComponentPad*%
%ADD21C,2.400000*%
%TD*%
%TA.AperFunction,ComponentPad*%
%ADD22R,2.400000X2.400000*%
%TD*%
%TA.AperFunction,ComponentPad*%
%ADD23O,1.600000X1.600000*%
%TD*%
%TA.AperFunction,ComponentPad*%
%ADD24C,2.500000*%
%TD*%
%TA.AperFunction,ComponentPad*%
%ADD25R,2.500000X2.500000*%
%TD*%
%TA.AperFunction,ComponentPad*%
%ADD26C,1.270000*%
%TD*%
%TA.AperFunction,ComponentPad*%
%ADD27C,1.800000*%
%TD*%
%TA.AperFunction,ComponentPad*%
%ADD28R,1.800000X1.800000*%
%TD*%
%TA.AperFunction,Conductor*%
%ADD29C,0.254000*%
%TD*%
%TA.AperFunction,Conductor*%
%ADD30C,0.100000*%
%TD*%
G04 APERTURE END LIST*
D10*
%TO.P,J4,1*%
%TO.N,Net-(J4-Pad1)*%
X81700000Y-72250000D03*
D11*
%TO.P,J4,3*%
%TO.N,Net-(D1-Pad2)*%
X86500000Y-74750000D03*
D12*
%TO.P,J4,2*%
%TO.N,GND*%
X86500000Y-68750000D03*
%TD*%
D13*
%TO.P,C7,2*%
%TO.N,GND*%
X111000000Y-83000000D03*
D14*
%TO.P,C7,1*%
%TO.N,Net-(C1-Pad1)*%
X111000000Y-80500000D03*
%TD*%
D15*
%TO.P,J3,2*%
%TO.N,Net-(D1-Pad2)*%
X98000000Y-72500000D03*
D16*
%TO.P,J3,1*%
%TO.N,GND*%
X98000000Y-67500000D03*
%TD*%
D15*
%TO.P,J1,2*%
%TO.N,Net-(D1-Pad2)*%
X74000000Y-72500000D03*
D16*
%TO.P,J1,1*%
%TO.N,GND*%
X74000000Y-67500000D03*
%TD*%
D13*
%TO.P,C8,2*%
%TO.N,Net-(C2-Pad2)*%
X111000000Y-102500000D03*
D14*
%TO.P,C8,1*%
%TO.N,GND*%
X111000000Y-100000000D03*
%TD*%
D17*
%TO.P,U2,3*%
%TO.N,Net-(C10-Pad2)*%
X117000000Y-110040000D03*
%TO.P,U2,2*%
%TO.N,Net-(C2-Pad2)*%
X117000000Y-107500000D03*
D18*
%TO.P,U2,1*%
%TO.N,GND*%
X117000000Y-104960000D03*
%TD*%
D19*
%TO.P,D4,2*%
%TO.N,Net-(C2-Pad2)*%
X127160000Y-118500000D03*
D20*
%TO.P,D4,1*%
%TO.N,Net-(C10-Pad2)*%
X117000000Y-118500000D03*
%TD*%
D21*
%TO.P,C1,2*%
%TO.N,GND*%
X60080000Y-90500000D03*
D22*
%TO.P,C1,1*%
%TO.N,Net-(C1-Pad1)*%
X60080000Y-83000000D03*
%TD*%
D17*
%TO.P,U1,3*%
%TO.N,Net-(C9-Pad1)*%
X117000000Y-82040000D03*
%TO.P,U1,2*%
%TO.N,GND*%
X117000000Y-79500000D03*
D18*
%TO.P,U1,1*%
%TO.N,Net-(C1-Pad1)*%
X117000000Y-76960000D03*
%TD*%
D23*
%TO.P,R2,2*%
%TO.N,-12V*%
X147260000Y-114000000D03*
D13*
%TO.P,R2,1*%
%TO.N,Net-(D8-Pad1)*%
X139640000Y-114000000D03*
%TD*%
D23*
%TO.P,R1,2*%
%TO.N,+12V*%
X147160000Y-76200000D03*
D13*
%TO.P,R1,1*%
%TO.N,Net-(D7-Pad2)*%
X139540000Y-76200000D03*
%TD*%
D24*
%TO.P,J2,3*%
%TO.N,-12V*%
X145250000Y-100000000D03*
%TO.P,J2,2*%
%TO.N,GND*%
X145250000Y-95000000D03*
D25*
%TO.P,J2,1*%
%TO.N,+12V*%
X145250000Y-90000000D03*
%TD*%
D26*
%TO.P,F2,1*%
%TO.N,-12V*%
X146000000Y-109500000D03*
%TO.P,F2,2*%
%TO.N,Net-(C10-Pad2)*%
X140900000Y-107900000D03*
%TD*%
%TO.P,F1,1*%
%TO.N,+12V*%
X145900000Y-82200000D03*
%TO.P,F1,2*%
%TO.N,Net-(C9-Pad1)*%
X140800000Y-80600000D03*
%TD*%
D27*
%TO.P,D8,2*%
%TO.N,GND*%
X141000000Y-121540000D03*
D28*
%TO.P,D8,1*%
%TO.N,Net-(D8-Pad1)*%
X141000000Y-119000000D03*
%TD*%
D27*
%TO.P,D7,2*%
%TO.N,Net-(D7-Pad2)*%
X141000000Y-71240000D03*
D28*
%TO.P,D7,1*%
%TO.N,GND*%
X141000000Y-68700000D03*
%TD*%
D19*
%TO.P,D6,2*%
%TO.N,Net-(C10-Pad2)*%
X134160000Y-95777712D03*
D20*
%TO.P,D6,1*%
%TO.N,GND*%
X124000000Y-95777712D03*
%TD*%
D19*
%TO.P,D5,2*%
%TO.N,GND*%
X134160000Y-91180000D03*
D20*
%TO.P,D5,1*%
%TO.N,Net-(C9-Pad1)*%
X124000000Y-91180000D03*
%TD*%
D19*
%TO.P,D3,2*%
%TO.N,Net-(C9-Pad1)*%
X127160000Y-68500000D03*
D20*
%TO.P,D3,1*%
%TO.N,Net-(C1-Pad1)*%
X117000000Y-68500000D03*
%TD*%
D19*
%TO.P,D2,2*%
%TO.N,Net-(C2-Pad2)*%
X68160000Y-121000000D03*
D20*
%TO.P,D2,1*%
%TO.N,Net-(D1-Pad2)*%
X58000000Y-121000000D03*
%TD*%
D19*
%TO.P,D1,2*%
%TO.N,Net-(D1-Pad2)*%
X68160000Y-72000000D03*
D20*
%TO.P,D1,1*%
%TO.N,Net-(C1-Pad1)*%
X58000000Y-72000000D03*
%TD*%
D13*
%TO.P,C10,2*%
%TO.N,Net-(C10-Pad2)*%
X117000000Y-98000000D03*
D14*
%TO.P,C10,1*%
%TO.N,GND*%
X117000000Y-95500000D03*
%TD*%
D13*
%TO.P,C9,2*%
%TO.N,GND*%
X117000000Y-91500000D03*
D14*
%TO.P,C9,1*%
%TO.N,Net-(C9-Pad1)*%
X117000000Y-89000000D03*
%TD*%
D21*
%TO.P,C6,2*%
%TO.N,Net-(C2-Pad2)*%
X100000000Y-111000000D03*
D22*
%TO.P,C6,1*%
%TO.N,GND*%
X100000000Y-103500000D03*
%TD*%
D21*
%TO.P,C5,2*%
%TO.N,GND*%
X100000000Y-90500000D03*
D22*
%TO.P,C5,1*%
%TO.N,Net-(C1-Pad1)*%
X100000000Y-83000000D03*
%TD*%
D21*
%TO.P,C4,2*%
%TO.N,Net-(C2-Pad2)*%
X80000000Y-111000000D03*
D22*
%TO.P,C4,1*%
%TO.N,GND*%
X80000000Y-103500000D03*
%TD*%
D21*
%TO.P,C3,2*%
%TO.N,GND*%
X80000000Y-90500000D03*
D22*
%TO.P,C3,1*%
%TO.N,Net-(C1-Pad1)*%
X80000000Y-83000000D03*
%TD*%
D21*
%TO.P,C2,2*%
%TO.N,Net-(C2-Pad2)*%
X60080000Y-111000000D03*
D22*
%TO.P,C2,1*%
%TO.N,GND*%
X60080000Y-103500000D03*
%TD*%
D29*
%TO.N,GND*%
X149340001Y-124340000D02*
X50660000Y-124340000D01*
X50660000Y-121779872D01*
X50765000Y-121779872D01*
X50765000Y-122220128D01*
X50850890Y-122651925D01*
X51019369Y-123058669D01*
X51263962Y-123424729D01*
X51575271Y-123736038D01*
X51941331Y-123980631D01*
X52348075Y-124149110D01*
X52779872Y-124235000D01*
X53220128Y-124235000D01*
X53651925Y-124149110D01*
X54058669Y-123980631D01*
X54424729Y-123736038D01*
X54736038Y-123424729D01*
X54980631Y-123058669D01*
X55149110Y-122651925D01*
X55235000Y-122220128D01*
X55235000Y-121779872D01*
X55149110Y-121348075D01*
X54980631Y-120941331D01*
X54736038Y-120575271D01*
X54424729Y-120263962D01*
X54058669Y-120019369D01*
X53770487Y-119900000D01*
X56261928Y-119900000D01*
X56261928Y-122100000D01*
X56274188Y-122224482D01*
X56310498Y-122344180D01*
X56369463Y-122454494D01*
X56448815Y-122551185D01*
X56545506Y-122630537D01*
X56655820Y-122689502D01*
X56775518Y-122725812D01*
X56900000Y-122738072D01*
X59100000Y-122738072D01*
X59224482Y-122725812D01*
X59344180Y-122689502D01*
X59454494Y-122630537D01*
X59551185Y-122551185D01*
X59630537Y-122454494D01*
X59689502Y-122344180D01*
X59725812Y-122224482D01*
X59738072Y-122100000D01*
X59738072Y-120829117D01*
X66425000Y-120829117D01*
X66425000Y-121170883D01*
X66491675Y-121506081D01*
X66622463Y-121821831D01*
X66812337Y-122105998D01*
X67054002Y-122347663D01*
X67338169Y-122537537D01*
X67653919Y-122668325D01*
X67989117Y-122735000D01*
X68330883Y-122735000D01*
X68666081Y-122668325D01*
X68821182Y-122604080D01*
X140115525Y-122604080D01*
X140199208Y-122858261D01*
X140471775Y-122989158D01*
X140764642Y-123064365D01*
X141066553Y-123080991D01*
X141365907Y-123038397D01*
X141651199Y-122938222D01*
X141800792Y-122858261D01*
X141884475Y-122604080D01*
X141000000Y-121719605D01*
X140115525Y-122604080D01*
X68821182Y-122604080D01*
X68981831Y-122537537D01*
X69265998Y-122347663D01*
X69507663Y-122105998D01*
X69697537Y-121821831D01*
X69786708Y-121606553D01*
X139459009Y-121606553D01*
X139501603Y-121905907D01*
X139601778Y-122191199D01*
X139681739Y-122340792D01*
X139935920Y-122424475D01*
X140820395Y-121540000D01*
X140806253Y-121525858D01*
X140985858Y-121346253D01*
X141000000Y-121360395D01*
X141014143Y-121346253D01*
X141193748Y-121525858D01*
X141179605Y-121540000D01*
X142064080Y-122424475D01*
X142318261Y-122340792D01*
X142449158Y-122068225D01*
X142523205Y-121779872D01*
X144765000Y-121779872D01*
X144765000Y-122220128D01*
X144850890Y-122651925D01*
X145019369Y-123058669D01*
X145263962Y-123424729D01*
X145575271Y-123736038D01*
X145941331Y-123980631D01*
X146348075Y-124149110D01*
X146779872Y-124235000D01*
X147220128Y-124235000D01*
X147651925Y-124149110D01*
X148058669Y-123980631D01*
X148424729Y-123736038D01*
X148736038Y-123424729D01*
X148980631Y-123058669D01*
X149149110Y-122651925D01*
X149235000Y-122220128D01*
X149235000Y-121779872D01*
X149149110Y-121348075D01*
X148980631Y-120941331D01*
X148736038Y-120575271D01*
X148424729Y-120263962D01*
X148058669Y-120019369D01*
X147651925Y-119850890D01*
X147220128Y-119765000D01*
X146779872Y-119765000D01*
X146348075Y-119850890D01*
X145941331Y-120019369D01*
X145575271Y-120263962D01*
X145263962Y-120575271D01*
X145019369Y-120941331D01*
X144850890Y-121348075D01*
X144765000Y-121779872D01*
X142523205Y-121779872D01*
X142524365Y-121775358D01*
X142540991Y-121473447D01*
X142498397Y-121174093D01*
X142398222Y-120888801D01*
X142318261Y-120739208D01*
X142064082Y-120655526D01*
X142180030Y-120539578D01*
X142133265Y-120492813D01*
X142144180Y-120489502D01*
X142254494Y-120430537D01*
X142351185Y-120351185D01*
X142430537Y-120254494D01*
X142489502Y-120144180D01*
X142525812Y-120024482D01*
X142538072Y-119900000D01*
X142538072Y-118100000D01*
X142525812Y-117975518D01*
X142489502Y-117855820D01*
X142430537Y-117745506D01*
X142351185Y-117648815D01*
X142254494Y-117569463D01*
X142144180Y-117510498D01*
X142024482Y-117474188D01*
X141900000Y-117461928D01*
X140100000Y-117461928D01*
X139975518Y-117474188D01*
X139855820Y-117510498D01*
X139745506Y-117569463D01*
X139648815Y-117648815D01*
X139569463Y-117745506D01*
X139510498Y-117855820D01*
X139474188Y-117975518D01*
X139461928Y-118100000D01*
X139461928Y-119900000D01*
X139474188Y-120024482D01*
X139510498Y-120144180D01*
X139569463Y-120254494D01*
X139648815Y-120351185D01*
X139745506Y-120430537D01*
X139855820Y-120489502D01*
X139866735Y-120492813D01*
X139819970Y-120539578D01*
X139935918Y-120655526D01*
X139681739Y-120739208D01*
X139550842Y-121011775D01*
X139475635Y-121304642D01*
X139459009Y-121606553D01*
X69786708Y-121606553D01*
X69828325Y-121506081D01*
X69895000Y-121170883D01*
X69895000Y-120829117D01*
X69828325Y-120493919D01*
X69697537Y-120178169D01*
X69507663Y-119894002D01*
X69265998Y-119652337D01*
X68981831Y-119462463D01*
X68666081Y-119331675D01*
X68330883Y-119265000D01*
X67989117Y-119265000D01*
X67653919Y-119331675D01*
X67338169Y-119462463D01*
X67054002Y-119652337D01*
X66812337Y-119894002D01*
X66622463Y-120178169D01*
X66491675Y-120493919D01*
X66425000Y-120829117D01*
X59738072Y-120829117D01*
X59738072Y-119900000D01*
X59725812Y-119775518D01*
X59689502Y-119655820D01*
X59630537Y-119545506D01*
X59551185Y-119448815D01*
X59454494Y-119369463D01*
X59344180Y-119310498D01*
X59224482Y-119274188D01*
X59100000Y-119261928D01*
X56900000Y-119261928D01*
X56775518Y-119274188D01*
X56655820Y-119310498D01*
X56545506Y-119369463D01*
X56448815Y-119448815D01*
X56369463Y-119545506D01*
X56310498Y-119655820D01*
X56274188Y-119775518D01*
X56261928Y-119900000D01*
X53770487Y-119900000D01*
X53651925Y-119850890D01*
X53220128Y-119765000D01*
X52779872Y-119765000D01*
X52348075Y-119850890D01*
X51941331Y-120019369D01*
X51575271Y-120263962D01*
X51263962Y-120575271D01*
X51019369Y-120941331D01*
X50850890Y-121348075D01*
X50765000Y-121779872D01*
X50660000Y-121779872D01*
X50660000Y-117400000D01*
X115261928Y-117400000D01*
X115261928Y-119600000D01*
X115274188Y-119724482D01*
X115310498Y-119844180D01*
X115369463Y-119954494D01*
X115448815Y-120051185D01*
X115545506Y-120130537D01*
X115655820Y-120189502D01*
X115775518Y-120225812D01*
X115900000Y-120238072D01*
X118100000Y-120238072D01*
X118224482Y-120225812D01*
X118344180Y-120189502D01*
X118454494Y-120130537D01*
X118551185Y-120051185D01*
X118630537Y-119954494D01*
X118689502Y-119844180D01*
X118725812Y-119724482D01*
X118738072Y-119600000D01*
X118738072Y-118329117D01*
X125425000Y-118329117D01*
X125425000Y-118670883D01*
X125491675Y-119006081D01*
X125622463Y-119321831D01*
X125812337Y-119605998D01*
X126054002Y-119847663D01*
X126338169Y-120037537D01*
X126653919Y-120168325D01*
X126989117Y-120235000D01*
X127330883Y-120235000D01*
X127666081Y-120168325D01*
X127981831Y-120037537D01*
X128265998Y-119847663D01*
X128507663Y-119605998D01*
X128697537Y-119321831D01*
X128828325Y-119006081D01*
X128895000Y-118670883D01*
X128895000Y-118329117D01*
X128828325Y-117993919D01*
X128697537Y-117678169D01*
X128507663Y-117394002D01*
X128265998Y-117152337D01*
X127981831Y-116962463D01*
X127666081Y-116831675D01*
X127330883Y-116765000D01*
X126989117Y-116765000D01*
X126653919Y-116831675D01*
X126338169Y-116962463D01*
X126054002Y-117152337D01*
X125812337Y-117394002D01*
X125622463Y-117678169D01*
X125491675Y-117993919D01*
X125425000Y-118329117D01*
X118738072Y-118329117D01*
X118738072Y-117400000D01*
X118725812Y-117275518D01*
X118689502Y-117155820D01*
X118630537Y-117045506D01*
X118551185Y-116948815D01*
X118454494Y-116869463D01*
X118344180Y-116810498D01*
X118224482Y-116774188D01*
X118100000Y-116761928D01*
X115900000Y-116761928D01*
X115775518Y-116774188D01*
X115655820Y-116810498D01*
X115545506Y-116869463D01*
X115448815Y-116948815D01*
X115369463Y-117045506D01*
X115310498Y-117155820D01*
X115274188Y-117275518D01*
X115261928Y-117400000D01*
X50660000Y-117400000D01*
X50660000Y-113858665D01*
X138205000Y-113858665D01*
X138205000Y-114141335D01*
X138260147Y-114418574D01*
X138368320Y-114679727D01*
X138525363Y-114914759D01*
X138725241Y-115114637D01*
X138960273Y-115271680D01*
X139221426Y-115379853D01*
X139498665Y-115435000D01*
X139781335Y-115435000D01*
X140058574Y-115379853D01*
X140319727Y-115271680D01*
X140554759Y-115114637D01*
X140754637Y-114914759D01*
X140911680Y-114679727D01*
X141019853Y-114418574D01*
X141075000Y-114141335D01*
X141075000Y-113858665D01*
X145825000Y-113858665D01*
X145825000Y-114141335D01*
X145880147Y-114418574D01*
X145988320Y-114679727D01*
X146145363Y-114914759D01*
X146345241Y-115114637D01*
X146580273Y-115271680D01*
X146841426Y-115379853D01*
X147118665Y-115435000D01*
X147401335Y-115435000D01*
X147678574Y-115379853D01*
X147939727Y-115271680D01*
X148174759Y-115114637D01*
X148374637Y-114914759D01*
X148531680Y-114679727D01*
X148639853Y-114418574D01*
X148695000Y-114141335D01*
X148695000Y-113858665D01*
X148639853Y-113581426D01*
X148531680Y-113320273D01*
X148374637Y-113085241D01*
X148174759Y-112885363D01*
X147939727Y-112728320D01*
X147678574Y-112620147D01*
X147401335Y-112565000D01*
X147118665Y-112565000D01*
X146841426Y-112620147D01*
X146580273Y-112728320D01*
X146345241Y-112885363D01*
X146145363Y-113085241D01*
X145988320Y-113320273D01*
X145880147Y-113581426D01*
X145825000Y-113858665D01*
X141075000Y-113858665D01*
X141019853Y-113581426D01*
X140911680Y-113320273D01*
X140754637Y-113085241D01*
X140554759Y-112885363D01*
X140319727Y-112728320D01*
X140058574Y-112620147D01*
X139781335Y-112565000D01*
X139498665Y-112565000D01*
X139221426Y-112620147D01*
X138960273Y-112728320D01*
X138725241Y-112885363D01*
X138525363Y-113085241D01*
X138368320Y-113320273D01*
X138260147Y-113581426D01*
X138205000Y-113858665D01*
X50660000Y-113858665D01*
X50660000Y-110819268D01*
X58245000Y-110819268D01*
X58245000Y-111180732D01*
X58315518Y-111535250D01*
X58453844Y-111869199D01*
X58654662Y-112169744D01*
X58910256Y-112425338D01*
X59210801Y-112626156D01*
X59544750Y-112764482D01*
X59899268Y-112835000D01*
X60260732Y-112835000D01*
X60615250Y-112764482D01*
X60949199Y-112626156D01*
X61249744Y-112425338D01*
X61505338Y-112169744D01*
X61706156Y-111869199D01*
X61844482Y-111535250D01*
X61915000Y-111180732D01*
X61915000Y-110819268D01*
X78165000Y-110819268D01*
X78165000Y-111180732D01*
X78235518Y-111535250D01*
X78373844Y-111869199D01*
X78574662Y-112169744D01*
X78830256Y-112425338D01*
X79130801Y-112626156D01*
X79464750Y-112764482D01*
X79819268Y-112835000D01*
X80180732Y-112835000D01*
X80535250Y-112764482D01*
X80869199Y-112626156D01*
X81169744Y-112425338D01*
X81425338Y-112169744D01*
X81626156Y-111869199D01*
X81764482Y-111535250D01*
X81835000Y-111180732D01*
X81835000Y-110819268D01*
X98165000Y-110819268D01*
X98165000Y-111180732D01*
X98235518Y-111535250D01*
X98373844Y-111869199D01*
X98574662Y-112169744D01*
X98830256Y-112425338D01*
X99130801Y-112626156D01*
X99464750Y-112764482D01*
X99819268Y-112835000D01*
X100180732Y-112835000D01*
X100535250Y-112764482D01*
X100869199Y-112626156D01*
X101169744Y-112425338D01*
X101425338Y-112169744D01*
X101626156Y-111869199D01*
X101764482Y-111535250D01*
X101835000Y-111180732D01*
X101835000Y-110819268D01*
X101764482Y-110464750D01*
X101626156Y-110130801D01*
X101425338Y-109830256D01*
X101169744Y-109574662D01*
X100869199Y-109373844D01*
X100535250Y-109235518D01*
X100180732Y-109165000D01*
X99819268Y-109165000D01*
X99464750Y-109235518D01*
X99130801Y-109373844D01*
X98830256Y-109574662D01*
X98574662Y-109830256D01*
X98373844Y-110130801D01*
X98235518Y-110464750D01*
X98165000Y-110819268D01*
X81835000Y-110819268D01*
X81764482Y-110464750D01*
X81626156Y-110130801D01*
X81425338Y-109830256D01*
X81169744Y-109574662D01*
X80869199Y-109373844D01*
X80535250Y-109235518D01*
X80180732Y-109165000D01*
X79819268Y-109165000D01*
X79464750Y-109235518D01*
X79130801Y-109373844D01*
X78830256Y-109574662D01*
X78574662Y-109830256D01*
X78373844Y-110130801D01*
X78235518Y-110464750D01*
X78165000Y-110819268D01*
X61915000Y-110819268D01*
X61844482Y-110464750D01*
X61706156Y-110130801D01*
X61505338Y-109830256D01*
X61249744Y-109574662D01*
X60949199Y-109373844D01*
X60615250Y-109235518D01*
X60260732Y-109165000D01*
X59899268Y-109165000D01*
X59544750Y-109235518D01*
X59210801Y-109373844D01*
X58910256Y-109574662D01*
X58654662Y-109830256D01*
X58453844Y-110130801D01*
X58315518Y-110464750D01*
X58245000Y-110819268D01*
X50660000Y-110819268D01*
X50660000Y-107500000D01*
X115357319Y-107500000D01*
X115387970Y-107811204D01*
X115478745Y-108110449D01*
X115626155Y-108386235D01*
X115824537Y-108627963D01*
X115997609Y-108770000D01*
X115824537Y-108912037D01*
X115626155Y-109153765D01*
X115478745Y-109429551D01*
X115387970Y-109728796D01*
X115357319Y-110040000D01*
X115387970Y-110351204D01*
X115478745Y-110650449D01*
X115626155Y-110926235D01*
X115824537Y-111167963D01*
X116066265Y-111366345D01*
X116342051Y-111513755D01*
X116641296Y-111604530D01*
X116874514Y-111627500D01*
X117125486Y-111627500D01*
X117358704Y-111604530D01*
X117657949Y-111513755D01*
X117933735Y-111366345D01*
X118175463Y-111167963D01*
X118373845Y-110926235D01*
X118521255Y-110650449D01*
X118612030Y-110351204D01*
X118642681Y-110040000D01*
X118612030Y-109728796D01*
X118521255Y-109429551D01*
X118492053Y-109374916D01*
X144730000Y-109374916D01*
X144730000Y-109625084D01*
X144778805Y-109870445D01*
X144874541Y-110101571D01*
X145013527Y-110309578D01*
X145190422Y-110486473D01*
X145398429Y-110625459D01*
X145629555Y-110721195D01*
X145874916Y-110770000D01*
X146125084Y-110770000D01*
X146370445Y-110721195D01*
X146601571Y-110625459D01*
X146809578Y-110486473D01*
X146986473Y-110309578D01*
X147125459Y-110101571D01*
X147221195Y-109870445D01*
X147270000Y-109625084D01*
X147270000Y-109374916D01*
X147221195Y-109129555D01*
X147125459Y-108898429D01*
X146986473Y-108690422D01*
X146809578Y-108513527D01*
X146601571Y-108374541D01*
X146370445Y-108278805D01*
X146125084Y-108230000D01*
X145874916Y-108230000D01*
X145629555Y-108278805D01*
X145398429Y-108374541D01*
X145190422Y-108513527D01*
X145013527Y-108690422D01*
X144874541Y-108898429D01*
X144778805Y-109129555D01*
X144730000Y-109374916D01*
X118492053Y-109374916D01*
X118373845Y-109153765D01*
X118175463Y-108912037D01*
X118002391Y-108770000D01*
X118175463Y-108627963D01*
X118373845Y-108386235D01*
X118521255Y-108110449D01*
X118612030Y-107811204D01*
X118615604Y-107774916D01*
X139630000Y-107774916D01*
X139630000Y-108025084D01*
X139678805Y-108270445D01*
X139774541Y-108501571D01*
X139913527Y-108709578D01*
X140090422Y-108886473D01*
X140298429Y-109025459D01*
X140529555Y-109121195D01*
X140774916Y-109170000D01*
X141025084Y-109170000D01*
X141270445Y-109121195D01*
X141501571Y-109025459D01*
X141709578Y-108886473D01*
X141886473Y-108709578D01*
X142025459Y-108501571D01*
X142121195Y-108270445D01*
X142170000Y-108025084D01*
X142170000Y-107774916D01*
X142121195Y-107529555D01*
X142025459Y-107298429D01*
X141886473Y-107090422D01*
X141709578Y-106913527D01*
X141501571Y-106774541D01*
X141270445Y-106678805D01*
X141025084Y-106630000D01*
X140774916Y-106630000D01*
X140529555Y-106678805D01*
X140298429Y-106774541D01*
X140090422Y-106913527D01*
X139913527Y-107090422D01*
X139774541Y-107298429D01*
X139678805Y-107529555D01*
X139630000Y-107774916D01*
X118615604Y-107774916D01*
X118642681Y-107500000D01*
X118612030Y-107188796D01*
X118521255Y-106889551D01*
X118373845Y-106613765D01*
X118270554Y-106487905D01*
X118354494Y-106443037D01*
X118451185Y-106363685D01*
X118530537Y-106266994D01*
X118589502Y-106156680D01*
X118625812Y-106036982D01*
X118638072Y-105912500D01*
X118635000Y-105245750D01*
X118476250Y-105087000D01*
X117127000Y-105087000D01*
X117127000Y-105107000D01*
X116873000Y-105107000D01*
X116873000Y-105087000D01*
X115523750Y-105087000D01*
X115365000Y-105245750D01*
X115361928Y-105912500D01*
X115374188Y-106036982D01*
X115410498Y-106156680D01*
X115469463Y-106266994D01*
X115548815Y-106363685D01*
X115645506Y-106443037D01*
X115729446Y-106487905D01*
X115626155Y-106613765D01*
X115478745Y-106889551D01*
X115387970Y-107188796D01*
X115357319Y-107500000D01*
X50660000Y-107500000D01*
X50660000Y-104700000D01*
X58241928Y-104700000D01*
X58254188Y-104824482D01*
X58290498Y-104944180D01*
X58349463Y-105054494D01*
X58428815Y-105151185D01*
X58525506Y-105230537D01*
X58635820Y-105289502D01*
X58755518Y-105325812D01*
X58880000Y-105338072D01*
X59794250Y-105335000D01*
X59953000Y-105176250D01*
X59953000Y-103627000D01*
X60207000Y-103627000D01*
X60207000Y-105176250D01*
X60365750Y-105335000D01*
X61280000Y-105338072D01*
X61404482Y-105325812D01*
X61524180Y-105289502D01*
X61634494Y-105230537D01*
X61731185Y-105151185D01*
X61810537Y-105054494D01*
X61869502Y-104944180D01*
X61905812Y-104824482D01*
X61918072Y-104700000D01*
X78161928Y-104700000D01*
X78174188Y-104824482D01*
X78210498Y-104944180D01*
X78269463Y-105054494D01*
X78348815Y-105151185D01*
X78445506Y-105230537D01*
X78555820Y-105289502D01*
X78675518Y-105325812D01*
X78800000Y-105338072D01*
X79714250Y-105335000D01*
X79873000Y-105176250D01*
X79873000Y-103627000D01*
X80127000Y-103627000D01*
X80127000Y-105176250D01*
X80285750Y-105335000D01*
X81200000Y-105338072D01*
X81324482Y-105325812D01*
X81444180Y-105289502D01*
X81554494Y-105230537D01*
X81651185Y-105151185D01*
X81730537Y-105054494D01*
X81789502Y-104944180D01*
X81825812Y-104824482D01*
X81838072Y-104700000D01*
X98161928Y-104700000D01*
X98174188Y-104824482D01*
X98210498Y-104944180D01*
X98269463Y-105054494D01*
X98348815Y-105151185D01*
X98445506Y-105230537D01*
X98555820Y-105289502D01*
X98675518Y-105325812D01*
X98800000Y-105338072D01*
X99714250Y-105335000D01*
X99873000Y-105176250D01*
X99873000Y-103627000D01*
X100127000Y-103627000D01*
X100127000Y-105176250D01*
X100285750Y-105335000D01*
X101200000Y-105338072D01*
X101324482Y-105325812D01*
X101444180Y-105289502D01*
X101554494Y-105230537D01*
X101651185Y-105151185D01*
X101730537Y-105054494D01*
X101789502Y-104944180D01*
X101825812Y-104824482D01*
X101838072Y-104700000D01*
X101835746Y-104007500D01*
X115361928Y-104007500D01*
X115365000Y-104674250D01*
X115523750Y-104833000D01*
X116873000Y-104833000D01*
X116873000Y-103531250D01*
X117127000Y-103531250D01*
X117127000Y-104833000D01*
X118476250Y-104833000D01*
X118635000Y-104674250D01*
X118638072Y-104007500D01*
X118625812Y-103883018D01*
X118589502Y-103763320D01*
X118530537Y-103653006D01*
X118451185Y-103556315D01*
X118354494Y-103476963D01*
X118244180Y-103417998D01*
X118124482Y-103381688D01*
X118000000Y-103369428D01*
X117285750Y-103372500D01*
X117127000Y-103531250D01*
X116873000Y-103531250D01*
X116714250Y-103372500D01*
X116000000Y-103369428D01*
X115875518Y-103381688D01*
X115755820Y-103417998D01*
X115645506Y-103476963D01*
X115548815Y-103556315D01*
X115469463Y-103653006D01*
X115410498Y-103763320D01*
X115374188Y-103883018D01*
X115361928Y-104007500D01*
X101835746Y-104007500D01*
X101835000Y-103785750D01*
X101676250Y-103627000D01*
X100127000Y-103627000D01*
X99873000Y-103627000D01*
X98323750Y-103627000D01*
X98165000Y-103785750D01*
X98161928Y-104700000D01*
X81838072Y-104700000D01*
X81835000Y-103785750D01*
X81676250Y-103627000D01*
X80127000Y-103627000D01*
X79873000Y-103627000D01*
X78323750Y-103627000D01*
X78165000Y-103785750D01*
X78161928Y-104700000D01*
X61918072Y-104700000D01*
X61915000Y-103785750D01*
X61756250Y-103627000D01*
X60207000Y-103627000D01*
X59953000Y-103627000D01*
X58403750Y-103627000D01*
X58245000Y-103785750D01*
X58241928Y-104700000D01*
X50660000Y-104700000D01*
X50660000Y-102300000D01*
X58241928Y-102300000D01*
X58245000Y-103214250D01*
X58403750Y-103373000D01*
X59953000Y-103373000D01*
X59953000Y-101823750D01*
X60207000Y-101823750D01*
X60207000Y-103373000D01*
X61756250Y-103373000D01*
X61915000Y-103214250D01*
X61918072Y-102300000D01*
X78161928Y-102300000D01*
X78165000Y-103214250D01*
X78323750Y-103373000D01*
X79873000Y-103373000D01*
X79873000Y-101823750D01*
X80127000Y-101823750D01*
X80127000Y-103373000D01*
X81676250Y-103373000D01*
X81835000Y-103214250D01*
X81838072Y-102300000D01*
X98161928Y-102300000D01*
X98165000Y-103214250D01*
X98323750Y-103373000D01*
X99873000Y-103373000D01*
X99873000Y-101823750D01*
X100127000Y-101823750D01*
X100127000Y-103373000D01*
X101676250Y-103373000D01*
X101835000Y-103214250D01*
X101838072Y-102300000D01*
X101825812Y-102175518D01*
X101789502Y-102055820D01*
X101730537Y-101945506D01*
X101651185Y-101848815D01*
X101554494Y-101769463D01*
X101444180Y-101710498D01*
X101324482Y-101674188D01*
X101200000Y-101661928D01*
X100285750Y-101665000D01*
X100127000Y-101823750D01*
X99873000Y-101823750D01*
X99714250Y-101665000D01*
X98800000Y-101661928D01*
X98675518Y-101674188D01*
X98555820Y-101710498D01*
X98445506Y-101769463D01*
X98348815Y-101848815D01*
X98269463Y-101945506D01*
X98210498Y-102055820D01*
X98174188Y-102175518D01*
X98161928Y-102300000D01*
X81838072Y-102300000D01*
X81825812Y-102175518D01*
X81789502Y-102055820D01*
X81730537Y-101945506D01*
X81651185Y-101848815D01*
X81554494Y-101769463D01*
X81444180Y-101710498D01*
X81324482Y-101674188D01*
X81200000Y-101661928D01*
X80285750Y-101665000D01*
X80127000Y-101823750D01*
X79873000Y-101823750D01*
X79714250Y-101665000D01*
X78800000Y-101661928D01*
X78675518Y-101674188D01*
X78555820Y-101710498D01*
X78445506Y-101769463D01*
X78348815Y-101848815D01*
X78269463Y-101945506D01*
X78210498Y-102055820D01*
X78174188Y-102175518D01*
X78161928Y-102300000D01*
X61918072Y-102300000D01*
X61905812Y-102175518D01*
X61869502Y-102055820D01*
X61810537Y-101945506D01*
X61731185Y-101848815D01*
X61634494Y-101769463D01*
X61524180Y-101710498D01*
X61404482Y-101674188D01*
X61280000Y-101661928D01*
X60365750Y-101665000D01*
X60207000Y-101823750D01*
X59953000Y-101823750D01*
X59794250Y-101665000D01*
X58880000Y-101661928D01*
X58755518Y-101674188D01*
X58635820Y-101710498D01*
X58525506Y-101769463D01*
X58428815Y-101848815D01*
X58349463Y-101945506D01*
X58290498Y-102055820D01*
X58254188Y-102175518D01*
X58241928Y-102300000D01*
X50660000Y-102300000D01*
X50660000Y-100800000D01*
X109561928Y-100800000D01*
X109574188Y-100924482D01*
X109610498Y-101044180D01*
X109669463Y-101154494D01*
X109748815Y-101251185D01*
X109845506Y-101330537D01*
X109955820Y-101389502D01*
X110051943Y-101418661D01*
X109885363Y-101585241D01*
X109728320Y-101820273D01*
X109620147Y-102081426D01*
X109565000Y-102358665D01*
X109565000Y-102641335D01*
X109620147Y-102918574D01*
X109728320Y-103179727D01*
X109885363Y-103414759D01*
X110085241Y-103614637D01*
X110320273Y-103771680D01*
X110581426Y-103879853D01*
X110858665Y-103935000D01*
X111141335Y-103935000D01*
X111418574Y-103879853D01*
X111679727Y-103771680D01*
X111914759Y-103614637D01*
X112114637Y-103414759D01*
X112271680Y-103179727D01*
X112379853Y-102918574D01*
X112435000Y-102641335D01*
X112435000Y-102358665D01*
X112379853Y-102081426D01*
X112271680Y-101820273D01*
X112114637Y-101585241D01*
X111948057Y-101418661D01*
X112044180Y-101389502D01*
X112154494Y-101330537D01*
X112251185Y-101251185D01*
X112330537Y-101154494D01*
X112389502Y-101044180D01*
X112425812Y-100924482D01*
X112438072Y-100800000D01*
X112435000Y-100285750D01*
X112276250Y-100127000D01*
X111127000Y-100127000D01*
X111127000Y-100147000D01*
X110873000Y-100147000D01*
X110873000Y-100127000D01*
X109723750Y-100127000D01*
X109565000Y-100285750D01*
X109561928Y-100800000D01*
X50660000Y-100800000D01*
X50660000Y-99200000D01*
X109561928Y-99200000D01*
X109565000Y-99714250D01*
X109723750Y-99873000D01*
X110873000Y-99873000D01*
X110873000Y-98723750D01*
X111127000Y-98723750D01*
X111127000Y-99873000D01*
X112276250Y-99873000D01*
X112334906Y-99814344D01*
X143365000Y-99814344D01*
X143365000Y-100185656D01*
X143437439Y-100549834D01*
X143579534Y-100892882D01*
X143785825Y-101201618D01*
X144048382Y-101464175D01*
X144357118Y-101670466D01*
X144700166Y-101812561D01*
X145064344Y-101885000D01*
X145435656Y-101885000D01*
X145799834Y-101812561D01*
X146142882Y-101670466D01*
X146451618Y-101464175D01*
X146714175Y-101201618D01*
X146920466Y-100892882D01*
X147062561Y-100549834D01*
X147135000Y-100185656D01*
X147135000Y-99814344D01*
X147062561Y-99450166D01*
X146920466Y-99107118D01*
X146714175Y-98798382D01*
X146451618Y-98535825D01*
X146142882Y-98329534D01*
X145799834Y-98187439D01*
X145435656Y-98115000D01*
X145064344Y-98115000D01*
X144700166Y-98187439D01*
X144357118Y-98329534D01*
X144048382Y-98535825D01*
X143785825Y-98798382D01*
X143579534Y-99107118D01*
X143437439Y-99450166D01*
X143365000Y-99814344D01*
X112334906Y-99814344D01*
X112435000Y-99714250D01*
X112438072Y-99200000D01*
X112425812Y-99075518D01*
X112389502Y-98955820D01*
X112330537Y-98845506D01*
X112251185Y-98748815D01*
X112154494Y-98669463D01*
X112044180Y-98610498D01*
X111924482Y-98574188D01*
X111800000Y-98561928D01*
X111285750Y-98565000D01*
X111127000Y-98723750D01*
X110873000Y-98723750D01*
X110714250Y-98565000D01*
X110200000Y-98561928D01*
X110075518Y-98574188D01*
X109955820Y-98610498D01*
X109845506Y-98669463D01*
X109748815Y-98748815D01*
X109669463Y-98845506D01*
X109610498Y-98955820D01*
X109574188Y-99075518D01*
X109561928Y-99200000D01*
X50660000Y-99200000D01*
X50660000Y-96300000D01*
X115561928Y-96300000D01*
X115574188Y-96424482D01*
X115610498Y-96544180D01*
X115669463Y-96654494D01*
X115748815Y-96751185D01*
X115845506Y-96830537D01*
X115955820Y-96889502D01*
X116051943Y-96918661D01*
X115885363Y-97085241D01*
X115728320Y-97320273D01*
X115620147Y-97581426D01*
X115565000Y-97858665D01*
X115565000Y-98141335D01*
X115620147Y-98418574D01*
X115728320Y-98679727D01*
X115885363Y-98914759D01*
X116085241Y-99114637D01*
X116320273Y-99271680D01*
X116581426Y-99379853D01*
X116858665Y-99435000D01*
X117141335Y-99435000D01*
X117418574Y-99379853D01*
X117679727Y-99271680D01*
X117914759Y-99114637D01*
X118114637Y-98914759D01*
X118271680Y-98679727D01*
X118379853Y-98418574D01*
X118435000Y-98141335D01*
X118435000Y-97858665D01*
X118379853Y-97581426D01*
X118271680Y-97320273D01*
X118114637Y-97085241D01*
X117948057Y-96918661D01*
X118044180Y-96889502D01*
X118066237Y-96877712D01*
X122261928Y-96877712D01*
X122274188Y-97002194D01*
X122310498Y-97121892D01*
X122369463Y-97232206D01*
X122448815Y-97328897D01*
X122545506Y-97408249D01*
X122655820Y-97467214D01*
X122775518Y-97503524D01*
X122900000Y-97515784D01*
X123714250Y-97512712D01*
X123873000Y-97353962D01*
X123873000Y-95904712D01*
X124127000Y-95904712D01*
X124127000Y-97353962D01*
X124285750Y-97512712D01*
X125100000Y-97515784D01*
X125224482Y-97503524D01*
X125344180Y-97467214D01*
X125454494Y-97408249D01*
X125551185Y-97328897D01*
X125630537Y-97232206D01*
X125689502Y-97121892D01*
X125725812Y-97002194D01*
X125738072Y-96877712D01*
X125735000Y-96063462D01*
X125576250Y-95904712D01*
X124127000Y-95904712D01*
X123873000Y-95904712D01*
X122423750Y-95904712D01*
X122265000Y-96063462D01*
X122261928Y-96877712D01*
X118066237Y-96877712D01*
X118154494Y-96830537D01*
X118251185Y-96751185D01*
X118330537Y-96654494D01*
X118389502Y-96544180D01*
X118425812Y-96424482D01*
X118438072Y-96300000D01*
X118435000Y-95785750D01*
X118276250Y-95627000D01*
X117127000Y-95627000D01*
X117127000Y-95647000D01*
X116873000Y-95647000D01*
X116873000Y-95627000D01*
X115723750Y-95627000D01*
X115565000Y-95785750D01*
X115561928Y-96300000D01*
X50660000Y-96300000D01*
X50660000Y-94700000D01*
X115561928Y-94700000D01*
X115565000Y-95214250D01*
X115723750Y-95373000D01*
X116873000Y-95373000D01*
X116873000Y-94223750D01*
X117127000Y-94223750D01*
X117127000Y-95373000D01*
X118276250Y-95373000D01*
X118435000Y-95214250D01*
X118438072Y-94700000D01*
X118435877Y-94677712D01*
X122261928Y-94677712D01*
X122265000Y-95491962D01*
X122423750Y-95650712D01*
X123873000Y-95650712D01*
X123873000Y-94201462D01*
X124127000Y-94201462D01*
X124127000Y-95650712D01*
X125576250Y-95650712D01*
X125620133Y-95606829D01*
X132425000Y-95606829D01*
X132425000Y-95948595D01*
X132491675Y-96283793D01*
X132622463Y-96599543D01*
X132812337Y-96883710D01*
X133054002Y-97125375D01*
X133338169Y-97315249D01*
X133653919Y-97446037D01*
X133989117Y-97512712D01*
X134330883Y-97512712D01*
X134666081Y-97446037D01*
X134981831Y-97315249D01*
X135265998Y-97125375D01*
X135507663Y-96883710D01*
X135697537Y-96599543D01*
X135815976Y-96313605D01*
X144116000Y-96313605D01*
X144241914Y-96603577D01*
X144574126Y-96769433D01*
X144932312Y-96867290D01*
X145302706Y-96893389D01*
X145671075Y-96846725D01*
X146023262Y-96729094D01*
X146258086Y-96603577D01*
X146384000Y-96313605D01*
X145250000Y-95179605D01*
X144116000Y-96313605D01*
X135815976Y-96313605D01*
X135828325Y-96283793D01*
X135895000Y-95948595D01*
X135895000Y-95606829D01*
X135828325Y-95271631D01*
X135737644Y-95052706D01*
X143356611Y-95052706D01*
X143403275Y-95421075D01*
X143520906Y-95773262D01*
X143646423Y-96008086D01*
X143936395Y-96134000D01*
X145070395Y-95000000D01*
X145429605Y-95000000D01*
X146563605Y-96134000D01*
X146853577Y-96008086D01*
X147019433Y-95675874D01*
X147117290Y-95317688D01*
X147143389Y-94947294D01*
X147096725Y-94578925D01*
X146979094Y-94226738D01*
X146853577Y-93991914D01*
X146563605Y-93866000D01*
X145429605Y-95000000D01*
X145070395Y-95000000D01*
X143936395Y-93866000D01*
X143646423Y-93991914D01*
X143480567Y-94324126D01*
X143382710Y-94682312D01*
X143356611Y-95052706D01*
X135737644Y-95052706D01*
X135697537Y-94955881D01*
X135507663Y-94671714D01*
X135265998Y-94430049D01*
X134981831Y-94240175D01*
X134666081Y-94109387D01*
X134330883Y-94042712D01*
X133989117Y-94042712D01*
X133653919Y-94109387D01*
X133338169Y-94240175D01*
X133054002Y-94430049D01*
X132812337Y-94671714D01*
X132622463Y-94955881D01*
X132491675Y-95271631D01*
X132425000Y-95606829D01*
X125620133Y-95606829D01*
X125735000Y-95491962D01*
X125738072Y-94677712D01*
X125725812Y-94553230D01*
X125689502Y-94433532D01*
X125630537Y-94323218D01*
X125551185Y-94226527D01*
X125454494Y-94147175D01*
X125344180Y-94088210D01*
X125224482Y-94051900D01*
X125100000Y-94039640D01*
X124285750Y-94042712D01*
X124127000Y-94201462D01*
X123873000Y-94201462D01*
X123714250Y-94042712D01*
X122900000Y-94039640D01*
X122775518Y-94051900D01*
X122655820Y-94088210D01*
X122545506Y-94147175D01*
X122448815Y-94226527D01*
X122369463Y-94323218D01*
X122310498Y-94433532D01*
X122274188Y-94553230D01*
X122261928Y-94677712D01*
X118435877Y-94677712D01*
X118425812Y-94575518D01*
X118389502Y-94455820D01*
X118330537Y-94345506D01*
X118251185Y-94248815D01*
X118154494Y-94169463D01*
X118044180Y-94110498D01*
X117924482Y-94074188D01*
X117800000Y-94061928D01*
X117285750Y-94065000D01*
X117127000Y-94223750D01*
X116873000Y-94223750D01*
X116714250Y-94065000D01*
X116200000Y-94061928D01*
X116075518Y-94074188D01*
X115955820Y-94110498D01*
X115845506Y-94169463D01*
X115748815Y-94248815D01*
X115669463Y-94345506D01*
X115610498Y-94455820D01*
X115574188Y-94575518D01*
X115561928Y-94700000D01*
X50660000Y-94700000D01*
X50660000Y-93686395D01*
X144116000Y-93686395D01*
X145250000Y-94820395D01*
X146384000Y-93686395D01*
X146258086Y-93396423D01*
X145925874Y-93230567D01*
X145567688Y-93132710D01*
X145197294Y-93106611D01*
X144828925Y-93153275D01*
X144476738Y-93270906D01*
X144241914Y-93396423D01*
X144116000Y-93686395D01*
X50660000Y-93686395D01*
X50660000Y-92492702D01*
X116186903Y-92492702D01*
X116258486Y-92736671D01*
X116513996Y-92857571D01*
X116788184Y-92926300D01*
X117070512Y-92940217D01*
X117350130Y-92898787D01*
X117616292Y-92803603D01*
X117741514Y-92736671D01*
X117813097Y-92492702D01*
X117000000Y-91679605D01*
X116186903Y-92492702D01*
X50660000Y-92492702D01*
X50660000Y-91777980D01*
X58981626Y-91777980D01*
X59101514Y-92062836D01*
X59425210Y-92223699D01*
X59774069Y-92318322D01*
X60134684Y-92343067D01*
X60493198Y-92296985D01*
X60835833Y-92181846D01*
X61058486Y-92062836D01*
X61178374Y-91777980D01*
X78901626Y-91777980D01*
X79021514Y-92062836D01*
X79345210Y-92223699D01*
X79694069Y-92318322D01*
X80054684Y-92343067D01*
X80413198Y-92296985D01*
X80755833Y-92181846D01*
X80978486Y-92062836D01*
X81098374Y-91777980D01*
X98901626Y-91777980D01*
X99021514Y-92062836D01*
X99345210Y-92223699D01*
X99694069Y-92318322D01*
X100054684Y-92343067D01*
X100413198Y-92296985D01*
X100755833Y-92181846D01*
X100978486Y-92062836D01*
X101098374Y-91777980D01*
X100000000Y-90679605D01*
X98901626Y-91777980D01*
X81098374Y-91777980D01*
X80000000Y-90679605D01*
X78901626Y-91777980D01*
X61178374Y-91777980D01*
X60080000Y-90679605D01*
X58981626Y-91777980D01*
X50660000Y-91777980D01*
X50660000Y-90554684D01*
X58236933Y-90554684D01*
X58283015Y-90913198D01*
X58398154Y-91255833D01*
X58517164Y-91478486D01*
X58802020Y-91598374D01*
X59900395Y-90500000D01*
X60259605Y-90500000D01*
X61357980Y-91598374D01*
X61642836Y-91478486D01*
X61803699Y-91154790D01*
X61898322Y-90805931D01*
X61915562Y-90554684D01*
X78156933Y-90554684D01*
X78203015Y-90913198D01*
X78318154Y-91255833D01*
X78437164Y-91478486D01*
X78722020Y-91598374D01*
X79820395Y-90500000D01*
X80179605Y-90500000D01*
X81277980Y-91598374D01*
X81562836Y-91478486D01*
X81723699Y-91154790D01*
X81818322Y-90805931D01*
X81835562Y-90554684D01*
X98156933Y-90554684D01*
X98203015Y-90913198D01*
X98318154Y-91255833D01*
X98437164Y-91478486D01*
X98722020Y-91598374D01*
X99820395Y-90500000D01*
X100179605Y-90500000D01*
X101277980Y-91598374D01*
X101344180Y-91570512D01*
X115559783Y-91570512D01*
X115601213Y-91850130D01*
X115696397Y-92116292D01*
X115763329Y-92241514D01*
X116007298Y-92313097D01*
X116820395Y-91500000D01*
X117179605Y-91500000D01*
X117992702Y-92313097D01*
X118236671Y-92241514D01*
X118357571Y-91986004D01*
X118426300Y-91711816D01*
X118440217Y-91429488D01*
X118398787Y-91149870D01*
X118303603Y-90883708D01*
X118236671Y-90758486D01*
X117992702Y-90686903D01*
X117179605Y-91500000D01*
X116820395Y-91500000D01*
X116007298Y-90686903D01*
X115763329Y-90758486D01*
X115642429Y-91013996D01*
X115573700Y-91288184D01*
X115559783Y-91570512D01*
X101344180Y-91570512D01*
X101562836Y-91478486D01*
X101723699Y-91154790D01*
X101818322Y-90805931D01*
X101843067Y-90445316D01*
X101796985Y-90086802D01*
X101681846Y-89744167D01*
X101562836Y-89521514D01*
X101277980Y-89401626D01*
X100179605Y-90500000D01*
X99820395Y-90500000D01*
X98722020Y-89401626D01*
X98437164Y-89521514D01*
X98276301Y-89845210D01*
X98181678Y-90194069D01*
X98156933Y-90554684D01*
X81835562Y-90554684D01*
X81843067Y-90445316D01*
X81796985Y-90086802D01*
X81681846Y-89744167D01*
X81562836Y-89521514D01*
X81277980Y-89401626D01*
X80179605Y-90500000D01*
X79820395Y-90500000D01*
X78722020Y-89401626D01*
X78437164Y-89521514D01*
X78276301Y-89845210D01*
X78181678Y-90194069D01*
X78156933Y-90554684D01*
X61915562Y-90554684D01*
X61923067Y-90445316D01*
X61876985Y-90086802D01*
X61761846Y-89744167D01*
X61642836Y-89521514D01*
X61357980Y-89401626D01*
X60259605Y-90500000D01*
X59900395Y-90500000D01*
X58802020Y-89401626D01*
X58517164Y-89521514D01*
X58356301Y-89845210D01*
X58261678Y-90194069D01*
X58236933Y-90554684D01*
X50660000Y-90554684D01*
X50660000Y-89222020D01*
X58981626Y-89222020D01*
X60080000Y-90320395D01*
X61178374Y-89222020D01*
X78901626Y-89222020D01*
X80000000Y-90320395D01*
X81098374Y-89222020D01*
X98901626Y-89222020D01*
X100000000Y-90320395D01*
X101098374Y-89222020D01*
X100978486Y-88937164D01*
X100654790Y-88776301D01*
X100305931Y-88681678D01*
X99945316Y-88656933D01*
X99586802Y-88703015D01*
X99244167Y-88818154D01*
X99021514Y-88937164D01*
X98901626Y-89222020D01*
X81098374Y-89222020D01*
X80978486Y-88937164D01*
X80654790Y-88776301D01*
X80305931Y-88681678D01*
X79945316Y-88656933D01*
X79586802Y-88703015D01*
X79244167Y-88818154D01*
X79021514Y-88937164D01*
X78901626Y-89222020D01*
X61178374Y-89222020D01*
X61058486Y-88937164D01*
X60734790Y-88776301D01*
X60385931Y-88681678D01*
X60025316Y-88656933D01*
X59666802Y-88703015D01*
X59324167Y-88818154D01*
X59101514Y-88937164D01*
X58981626Y-89222020D01*
X50660000Y-89222020D01*
X50660000Y-88200000D01*
X115561928Y-88200000D01*
X115561928Y-89800000D01*
X115574188Y-89924482D01*
X115610498Y-90044180D01*
X115669463Y-90154494D01*
X115748815Y-90251185D01*
X115845506Y-90330537D01*
X115955820Y-90389502D01*
X116075518Y-90425812D01*
X116200000Y-90438072D01*
X116207215Y-90438072D01*
X116186903Y-90507298D01*
X117000000Y-91320395D01*
X117813097Y-90507298D01*
X117792785Y-90438072D01*
X117800000Y-90438072D01*
X117924482Y-90425812D01*
X118044180Y-90389502D01*
X118154494Y-90330537D01*
X118251185Y-90251185D01*
X118330537Y-90154494D01*
X118370355Y-90080000D01*
X122261928Y-90080000D01*
X122261928Y-92280000D01*
X122274188Y-92404482D01*
X122310498Y-92524180D01*
X122369463Y-92634494D01*
X122448815Y-92731185D01*
X122545506Y-92810537D01*
X122655820Y-92869502D01*
X122775518Y-92905812D01*
X122900000Y-92918072D01*
X125100000Y-92918072D01*
X125224482Y-92905812D01*
X125344180Y-92869502D01*
X125454494Y-92810537D01*
X125551185Y-92731185D01*
X125630537Y-92634494D01*
X125689502Y-92524180D01*
X125725812Y-92404482D01*
X125738072Y-92280000D01*
X125738072Y-91576122D01*
X132470825Y-91576122D01*
X132535425Y-91789094D01*
X132685469Y-92094329D01*
X132892178Y-92364427D01*
X133147609Y-92589008D01*
X133441946Y-92759442D01*
X133763877Y-92869179D01*
X134033000Y-92751600D01*
X134033000Y-91307000D01*
X134287000Y-91307000D01*
X134287000Y-92751600D01*
X134556123Y-92869179D01*
X134878054Y-92759442D01*
X135172391Y-92589008D01*
X135427822Y-92364427D01*
X135634531Y-92094329D01*
X135784575Y-91789094D01*
X135849175Y-91576122D01*
X135731125Y-91307000D01*
X134287000Y-91307000D01*
X134033000Y-91307000D01*
X132588875Y-91307000D01*
X132470825Y-91576122D01*
X125738072Y-91576122D01*
X125738072Y-90783878D01*
X132470825Y-90783878D01*
X132588875Y-91053000D01*
X134033000Y-91053000D01*
X134033000Y-89608400D01*
X134287000Y-89608400D01*
X134287000Y-91053000D01*
X135731125Y-91053000D01*
X135849175Y-90783878D01*
X135784575Y-90570906D01*
X135634531Y-90265671D01*
X135427822Y-89995573D01*
X135172391Y-89770992D01*
X134878054Y-89600558D01*
X134556123Y-89490821D01*
X134287000Y-89608400D01*
X134033000Y-89608400D01*
X133763877Y-89490821D01*
X133441946Y-89600558D01*
X133147609Y-89770992D01*
X132892178Y-89995573D01*
X132685469Y-90265671D01*
X132535425Y-90570906D01*
X132470825Y-90783878D01*
X125738072Y-90783878D01*
X125738072Y-90080000D01*
X125725812Y-89955518D01*
X125689502Y-89835820D01*
X125630537Y-89725506D01*
X125551185Y-89628815D01*
X125454494Y-89549463D01*
X125344180Y-89490498D01*
X125224482Y-89454188D01*
X125100000Y-89441928D01*
X122900000Y-89441928D01*
X122775518Y-89454188D01*
X122655820Y-89490498D01*
X122545506Y-89549463D01*
X122448815Y-89628815D01*
X122369463Y-89725506D01*
X122310498Y-89835820D01*
X122274188Y-89955518D01*
X122261928Y-90080000D01*
X118370355Y-90080000D01*
X118389502Y-90044180D01*
X118425812Y-89924482D01*
X118438072Y-89800000D01*
X118438072Y-88750000D01*
X143361928Y-88750000D01*
X143361928Y-91250000D01*
X143374188Y-91374482D01*
X143410498Y-91494180D01*
X143469463Y-91604494D01*
X143548815Y-91701185D01*
X143645506Y-91780537D01*
X143755820Y-91839502D01*
X143875518Y-91875812D01*
X144000000Y-91888072D01*
X146500000Y-91888072D01*
X146624482Y-91875812D01*
X146744180Y-91839502D01*
X146854494Y-91780537D01*
X146951185Y-91701185D01*
X147030537Y-91604494D01*
X147089502Y-91494180D01*
X147125812Y-91374482D01*
X147138072Y-91250000D01*
X147138072Y-88750000D01*
X147125812Y-88625518D01*
X147089502Y-88505820D01*
X147030537Y-88395506D01*
X146951185Y-88298815D01*
X146854494Y-88219463D01*
X146744180Y-88160498D01*
X146624482Y-88124188D01*
X146500000Y-88111928D01*
X144000000Y-88111928D01*
X143875518Y-88124188D01*
X143755820Y-88160498D01*
X143645506Y-88219463D01*
X143548815Y-88298815D01*
X143469463Y-88395506D01*
X143410498Y-88505820D01*
X143374188Y-88625518D01*
X143361928Y-88750000D01*
X118438072Y-88750000D01*
X118438072Y-88200000D01*
X118425812Y-88075518D01*
X118389502Y-87955820D01*
X118330537Y-87845506D01*
X118251185Y-87748815D01*
X118154494Y-87669463D01*
X118044180Y-87610498D01*
X117924482Y-87574188D01*
X117800000Y-87561928D01*
X116200000Y-87561928D01*
X116075518Y-87574188D01*
X115955820Y-87610498D01*
X115845506Y-87669463D01*
X115748815Y-87748815D01*
X115669463Y-87845506D01*
X115610498Y-87955820D01*
X115574188Y-88075518D01*
X115561928Y-88200000D01*
X50660000Y-88200000D01*
X50660000Y-81800000D01*
X58241928Y-81800000D01*
X58241928Y-84200000D01*
X58254188Y-84324482D01*
X58290498Y-84444180D01*
X58349463Y-84554494D01*
X58428815Y-84651185D01*
X58525506Y-84730537D01*
X58635820Y-84789502D01*
X58755518Y-84825812D01*
X58880000Y-84838072D01*
X61280000Y-84838072D01*
X61404482Y-84825812D01*
X61524180Y-84789502D01*
X61634494Y-84730537D01*
X61731185Y-84651185D01*
X61810537Y-84554494D01*
X61869502Y-84444180D01*
X61905812Y-84324482D01*
X61918072Y-84200000D01*
X61918072Y-81800000D01*
X78161928Y-81800000D01*
X78161928Y-84200000D01*
X78174188Y-84324482D01*
X78210498Y-84444180D01*
X78269463Y-84554494D01*
X78348815Y-84651185D01*
X78445506Y-84730537D01*
X78555820Y-84789502D01*
X78675518Y-84825812D01*
X78800000Y-84838072D01*
X81200000Y-84838072D01*
X81324482Y-84825812D01*
X81444180Y-84789502D01*
X81554494Y-84730537D01*
X81651185Y-84651185D01*
X81730537Y-84554494D01*
X81789502Y-84444180D01*
X81825812Y-84324482D01*
X81838072Y-84200000D01*
X81838072Y-81800000D01*
X98161928Y-81800000D01*
X98161928Y-84200000D01*
X98174188Y-84324482D01*
X98210498Y-84444180D01*
X98269463Y-84554494D01*
X98348815Y-84651185D01*
X98445506Y-84730537D01*
X98555820Y-84789502D01*
X98675518Y-84825812D01*
X98800000Y-84838072D01*
X101200000Y-84838072D01*
X101324482Y-84825812D01*
X101444180Y-84789502D01*
X101554494Y-84730537D01*
X101651185Y-84651185D01*
X101730537Y-84554494D01*
X101789502Y-84444180D01*
X101825812Y-84324482D01*
X101838072Y-84200000D01*
X101838072Y-83992702D01*
X110186903Y-83992702D01*
X110258486Y-84236671D01*
X110513996Y-84357571D01*
X110788184Y-84426300D01*
X111070512Y-84440217D01*
X111350130Y-84398787D01*
X111616292Y-84303603D01*
X111741514Y-84236671D01*
X111813097Y-83992702D01*
X111000000Y-83179605D01*
X110186903Y-83992702D01*
X101838072Y-83992702D01*
X101838072Y-83070512D01*
X109559783Y-83070512D01*
X109601213Y-83350130D01*
X109696397Y-83616292D01*
X109763329Y-83741514D01*
X110007298Y-83813097D01*
X110820395Y-83000000D01*
X111179605Y-83000000D01*
X111992702Y-83813097D01*
X112236671Y-83741514D01*
X112357571Y-83486004D01*
X112426300Y-83211816D01*
X112440217Y-82929488D01*
X112398787Y-82649870D01*
X112303603Y-82383708D01*
X112236671Y-82258486D01*
X111992702Y-82186903D01*
X111179605Y-83000000D01*
X110820395Y-83000000D01*
X110007298Y-82186903D01*
X109763329Y-82258486D01*
X109642429Y-82513996D01*
X109573700Y-82788184D01*
X109559783Y-83070512D01*
X101838072Y-83070512D01*
X101838072Y-81800000D01*
X101825812Y-81675518D01*
X101789502Y-81555820D01*
X101730537Y-81445506D01*
X101651185Y-81348815D01*
X101554494Y-81269463D01*
X101444180Y-81210498D01*
X101324482Y-81174188D01*
X101200000Y-81161928D01*
X98800000Y-81161928D01*
X98675518Y-81174188D01*
X98555820Y-81210498D01*
X98445506Y-81269463D01*
X98348815Y-81348815D01*
X98269463Y-81445506D01*
X98210498Y-81555820D01*
X98174188Y-81675518D01*
X98161928Y-81800000D01*
X81838072Y-81800000D01*
X81825812Y-81675518D01*
X81789502Y-81555820D01*
X81730537Y-81445506D01*
X81651185Y-81348815D01*
X81554494Y-81269463D01*
X81444180Y-81210498D01*
X81324482Y-81174188D01*
X81200000Y-81161928D01*
X78800000Y-81161928D01*
X78675518Y-81174188D01*
X78555820Y-81210498D01*
X78445506Y-81269463D01*
X78348815Y-81348815D01*
X78269463Y-81445506D01*
X78210498Y-81555820D01*
X78174188Y-81675518D01*
X78161928Y-81800000D01*
X61918072Y-81800000D01*
X61905812Y-81675518D01*
X61869502Y-81555820D01*
X61810537Y-81445506D01*
X61731185Y-81348815D01*
X61634494Y-81269463D01*
X61524180Y-81210498D01*
X61404482Y-81174188D01*
X61280000Y-81161928D01*
X58880000Y-81161928D01*
X58755518Y-81174188D01*
X58635820Y-81210498D01*
X58525506Y-81269463D01*
X58428815Y-81348815D01*
X58349463Y-81445506D01*
X58290498Y-81555820D01*
X58254188Y-81675518D01*
X58241928Y-81800000D01*
X50660000Y-81800000D01*
X50660000Y-79700000D01*
X109561928Y-79700000D01*
X109561928Y-81300000D01*
X109574188Y-81424482D01*
X109610498Y-81544180D01*
X109669463Y-81654494D01*
X109748815Y-81751185D01*
X109845506Y-81830537D01*
X109955820Y-81889502D01*
X110075518Y-81925812D01*
X110200000Y-81938072D01*
X110207215Y-81938072D01*
X110186903Y-82007298D01*
X111000000Y-82820395D01*
X111780395Y-82040000D01*
X115357319Y-82040000D01*
X115387970Y-82351204D01*
X115478745Y-82650449D01*
X115626155Y-82926235D01*
X115824537Y-83167963D01*
X116066265Y-83366345D01*
X116342051Y-83513755D01*
X116641296Y-83604530D01*
X116874514Y-83627500D01*
X117125486Y-83627500D01*
X117358704Y-83604530D01*
X117657949Y-83513755D01*
X117933735Y-83366345D01*
X118175463Y-83167963D01*
X118373845Y-82926235D01*
X118521255Y-82650449D01*
X118612030Y-82351204D01*
X118639242Y-82074916D01*
X144630000Y-82074916D01*
X144630000Y-82325084D01*
X144678805Y-82570445D01*
X144774541Y-82801571D01*
X144913527Y-83009578D01*
X145090422Y-83186473D01*
X145298429Y-83325459D01*
X145529555Y-83421195D01*
X145774916Y-83470000D01*
X146025084Y-83470000D01*
X146270445Y-83421195D01*
X146501571Y-83325459D01*
X146709578Y-83186473D01*
X146886473Y-83009578D01*
X147025459Y-82801571D01*
X147121195Y-82570445D01*
X147170000Y-82325084D01*
X147170000Y-82074916D01*
X147121195Y-81829555D01*
X147025459Y-81598429D01*
X146886473Y-81390422D01*
X146709578Y-81213527D01*
X146501571Y-81074541D01*
X146270445Y-80978805D01*
X146025084Y-80930000D01*
X145774916Y-80930000D01*
X145529555Y-80978805D01*
X145298429Y-81074541D01*
X145090422Y-81213527D01*
X144913527Y-81390422D01*
X144774541Y-81598429D01*
X144678805Y-81829555D01*
X144630000Y-82074916D01*
X118639242Y-82074916D01*
X118642681Y-82040000D01*
X118612030Y-81728796D01*
X118521255Y-81429551D01*
X118373845Y-81153765D01*
X118175463Y-80912037D01*
X117996101Y-80764837D01*
X118181315Y-80609437D01*
X118289288Y-80474916D01*
X139530000Y-80474916D01*
X139530000Y-80725084D01*
X139578805Y-80970445D01*
X139674541Y-81201571D01*
X139813527Y-81409578D01*
X139990422Y-81586473D01*
X140198429Y-81725459D01*
X140429555Y-81821195D01*
X140674916Y-81870000D01*
X140925084Y-81870000D01*
X141170445Y-81821195D01*
X141401571Y-81725459D01*
X141609578Y-81586473D01*
X141786473Y-81409578D01*
X141925459Y-81201571D01*
X142021195Y-80970445D01*
X142070000Y-80725084D01*
X142070000Y-80474916D01*
X142021195Y-80229555D01*
X141925459Y-79998429D01*
X141786473Y-79790422D01*
X141609578Y-79613527D01*
X141401571Y-79474541D01*
X141170445Y-79378805D01*
X140925084Y-79330000D01*
X140674916Y-79330000D01*
X140429555Y-79378805D01*
X140198429Y-79474541D01*
X139990422Y-79613527D01*
X139813527Y-79790422D01*
X139674541Y-79998429D01*
X139578805Y-80229555D01*
X139530000Y-80474916D01*
X118289288Y-80474916D01*
X118375969Y-80366923D01*
X118519571Y-80091094D01*
X118590563Y-79872980D01*
X118470594Y-79627000D01*
X117127000Y-79627000D01*
X117127000Y-79647000D01*
X116873000Y-79647000D01*
X116873000Y-79627000D01*
X115529406Y-79627000D01*
X115409437Y-79872980D01*
X115480429Y-80091094D01*
X115624031Y-80366923D01*
X115818685Y-80609437D01*
X116003899Y-80764837D01*
X115824537Y-80912037D01*
X115626155Y-81153765D01*
X115478745Y-81429551D01*
X115387970Y-81728796D01*
X115357319Y-82040000D01*
X111780395Y-82040000D01*
X111813097Y-82007298D01*
X111792785Y-81938072D01*
X111800000Y-81938072D01*
X111924482Y-81925812D01*
X112044180Y-81889502D01*
X112154494Y-81830537D01*
X112251185Y-81751185D01*
X112330537Y-81654494D01*
X112389502Y-81544180D01*
X112425812Y-81424482D01*
X112438072Y-81300000D01*
X112438072Y-79700000D01*
X112425812Y-79575518D01*
X112389502Y-79455820D01*
X112330537Y-79345506D01*
X112251185Y-79248815D01*
X112154494Y-79169463D01*
X112044180Y-79110498D01*
X111924482Y-79074188D01*
X111800000Y-79061928D01*
X110200000Y-79061928D01*
X110075518Y-79074188D01*
X109955820Y-79110498D01*
X109845506Y-79169463D01*
X109748815Y-79248815D01*
X109669463Y-79345506D01*
X109610498Y-79455820D01*
X109574188Y-79575518D01*
X109561928Y-79700000D01*
X50660000Y-79700000D01*
X50660000Y-70900000D01*
X56261928Y-70900000D01*
X56261928Y-73100000D01*
X56274188Y-73224482D01*
X56310498Y-73344180D01*
X56369463Y-73454494D01*
X56448815Y-73551185D01*
X56545506Y-73630537D01*
X56655820Y-73689502D01*
X56775518Y-73725812D01*
X56900000Y-73738072D01*
X59100000Y-73738072D01*
X59224482Y-73725812D01*
X59344180Y-73689502D01*
X59454494Y-73630537D01*
X59551185Y-73551185D01*
X59630537Y-73454494D01*
X59689502Y-73344180D01*
X59725812Y-73224482D01*
X59738072Y-73100000D01*
X59738072Y-71829117D01*
X66425000Y-71829117D01*
X66425000Y-72170883D01*
X66491675Y-72506081D01*
X66622463Y-72821831D01*
X66812337Y-73105998D01*
X67054002Y-73347663D01*
X67338169Y-73537537D01*
X67653919Y-73668325D01*
X67989117Y-73735000D01*
X68330883Y-73735000D01*
X68666081Y-73668325D01*
X68981831Y-73537537D01*
X69265998Y-73347663D01*
X69507663Y-73105998D01*
X69697537Y-72821831D01*
X69828325Y-72506081D01*
X69871361Y-72289721D01*
X71865000Y-72289721D01*
X71865000Y-72710279D01*
X71947047Y-73122756D01*
X72107988Y-73511302D01*
X72341637Y-73860983D01*
X72639017Y-74158363D01*
X72988698Y-74392012D01*
X73377244Y-74552953D01*
X73789721Y-74635000D01*
X74210279Y-74635000D01*
X74622756Y-74552953D01*
X75011302Y-74392012D01*
X75360983Y-74158363D01*
X75658363Y-73860983D01*
X75892012Y-73511302D01*
X75929627Y-73420491D01*
X80265000Y-73420491D01*
X80285764Y-73631308D01*
X80367818Y-73901807D01*
X80501068Y-74151100D01*
X80680392Y-74369607D01*
X80898899Y-74548932D01*
X81148192Y-74682182D01*
X81418691Y-74764236D01*
X81700000Y-74791943D01*
X81981308Y-74764236D01*
X82028238Y-74750000D01*
X83708057Y-74750000D01*
X83735764Y-75031309D01*
X83817818Y-75301808D01*
X83951068Y-75551101D01*
X84130392Y-75769608D01*
X84348899Y-75948932D01*
X84598192Y-76082182D01*
X84868691Y-76164236D01*
X85079508Y-76185000D01*
X87920492Y-76185000D01*
X88131309Y-76164236D01*
X88401808Y-76082182D01*
X88541528Y-76007500D01*
X115361928Y-76007500D01*
X115361928Y-77912500D01*
X115374188Y-78036982D01*
X115410498Y-78156680D01*
X115469463Y-78266994D01*
X115548815Y-78363685D01*
X115645506Y-78443037D01*
X115737219Y-78492059D01*
X115624031Y-78633077D01*
X115480429Y-78908906D01*
X115409437Y-79127020D01*
X115529406Y-79373000D01*
X116873000Y-79373000D01*
X116873000Y-79353000D01*
X117127000Y-79353000D01*
X117127000Y-79373000D01*
X118470594Y-79373000D01*
X118590563Y-79127020D01*
X118519571Y-78908906D01*
X118375969Y-78633077D01*
X118262781Y-78492059D01*
X118354494Y-78443037D01*
X118451185Y-78363685D01*
X118530537Y-78266994D01*
X118589502Y-78156680D01*
X118625812Y-78036982D01*
X118638072Y-77912500D01*
X118638072Y-76058665D01*
X138105000Y-76058665D01*
X138105000Y-76341335D01*
X138160147Y-76618574D01*
X138268320Y-76879727D01*
X138425363Y-77114759D01*
X138625241Y-77314637D01*
X138860273Y-77471680D01*
X139121426Y-77579853D01*
X139398665Y-77635000D01*
X139681335Y-77635000D01*
X139958574Y-77579853D01*
X140219727Y-77471680D01*
X140454759Y-77314637D01*
X140654637Y-77114759D01*
X140811680Y-76879727D01*
X140919853Y-76618574D01*
X140975000Y-76341335D01*
X140975000Y-76058665D01*
X145725000Y-76058665D01*
X145725000Y-76341335D01*
X145780147Y-76618574D01*
X145888320Y-76879727D01*
X146045363Y-77114759D01*
X146245241Y-77314637D01*
X146480273Y-77471680D01*
X146741426Y-77579853D01*
X147018665Y-77635000D01*
X147301335Y-77635000D01*
X147578574Y-77579853D01*
X147839727Y-77471680D01*
X148074759Y-77314637D01*
X148274637Y-77114759D01*
X148431680Y-76879727D01*
X148539853Y-76618574D01*
X148595000Y-76341335D01*
X148595000Y-76058665D01*
X148539853Y-75781426D01*
X148431680Y-75520273D01*
X148274637Y-75285241D01*
X148074759Y-75085363D01*
X147839727Y-74928320D01*
X147578574Y-74820147D01*
X147301335Y-74765000D01*
X147018665Y-74765000D01*
X146741426Y-74820147D01*
X146480273Y-74928320D01*
X146245241Y-75085363D01*
X146045363Y-75285241D01*
X145888320Y-75520273D01*
X145780147Y-75781426D01*
X145725000Y-76058665D01*
X140975000Y-76058665D01*
X140919853Y-75781426D01*
X140811680Y-75520273D01*
X140654637Y-75285241D01*
X140454759Y-75085363D01*
X140219727Y-74928320D01*
X139958574Y-74820147D01*
X139681335Y-74765000D01*
X139398665Y-74765000D01*
X139121426Y-74820147D01*
X138860273Y-74928320D01*
X138625241Y-75085363D01*
X138425363Y-75285241D01*
X138268320Y-75520273D01*
X138160147Y-75781426D01*
X138105000Y-76058665D01*
X118638072Y-76058665D01*
X118638072Y-76007500D01*
X118625812Y-75883018D01*
X118589502Y-75763320D01*
X118530537Y-75653006D01*
X118451185Y-75556315D01*
X118354494Y-75476963D01*
X118244180Y-75417998D01*
X118124482Y-75381688D01*
X118000000Y-75369428D01*
X116000000Y-75369428D01*
X115875518Y-75381688D01*
X115755820Y-75417998D01*
X115645506Y-75476963D01*
X115548815Y-75556315D01*
X115469463Y-75653006D01*
X115410498Y-75763320D01*
X115374188Y-75883018D01*
X115361928Y-76007500D01*
X88541528Y-76007500D01*
X88651101Y-75948932D01*
X88869608Y-75769608D01*
X89048932Y-75551101D01*
X89182182Y-75301808D01*
X89264236Y-75031309D01*
X89291943Y-74750000D01*
X89264236Y-74468691D01*
X89182182Y-74198192D01*
X89048932Y-73948899D01*
X88869608Y-73730392D01*
X88651101Y-73551068D01*
X88401808Y-73417818D01*
X88131309Y-73335764D01*
X87920492Y-73315000D01*
X85079508Y-73315000D01*
X84868691Y-73335764D01*
X84598192Y-73417818D01*
X84348899Y-73551068D01*
X84130392Y-73730392D01*
X83951068Y-73948899D01*
X83817818Y-74198192D01*
X83735764Y-74468691D01*
X83708057Y-74750000D01*
X82028238Y-74750000D01*
X82251807Y-74682182D01*
X82501100Y-74548932D01*
X82719607Y-74369608D01*
X82898932Y-74151101D01*
X83032182Y-73901808D01*
X83114236Y-73631309D01*
X83135000Y-73420492D01*
X83135000Y-72289721D01*
X95865000Y-72289721D01*
X95865000Y-72710279D01*
X95947047Y-73122756D01*
X96107988Y-73511302D01*
X96341637Y-73860983D01*
X96639017Y-74158363D01*
X96988698Y-74392012D01*
X97377244Y-74552953D01*
X97789721Y-74635000D01*
X98210279Y-74635000D01*
X98622756Y-74552953D01*
X99011302Y-74392012D01*
X99360983Y-74158363D01*
X99658363Y-73860983D01*
X99892012Y-73511302D01*
X100052953Y-73122756D01*
X100135000Y-72710279D01*
X100135000Y-72289721D01*
X100052953Y-71877244D01*
X99892012Y-71488698D01*
X99658363Y-71139017D01*
X99360983Y-70841637D01*
X99011302Y-70607988D01*
X98622756Y-70447047D01*
X98210279Y-70365000D01*
X97789721Y-70365000D01*
X97377244Y-70447047D01*
X96988698Y-70607988D01*
X96639017Y-70841637D01*
X96341637Y-71139017D01*
X96107988Y-71488698D01*
X95947047Y-71877244D01*
X95865000Y-72289721D01*
X83135000Y-72289721D01*
X83135000Y-71079508D01*
X83114236Y-70868691D01*
X83032182Y-70598192D01*
X82898932Y-70348899D01*
X82719608Y-70130392D01*
X82501101Y-69951068D01*
X82251808Y-69817818D01*
X81981309Y-69735764D01*
X81700000Y-69708057D01*
X81418692Y-69735764D01*
X81148193Y-69817818D01*
X80898900Y-69951068D01*
X80680393Y-70130392D01*
X80501069Y-70348899D01*
X80367819Y-70598192D01*
X80285765Y-70868691D01*
X80265001Y-71079508D01*
X80265000Y-73420491D01*
X75929627Y-73420491D01*
X76052953Y-73122756D01*
X76135000Y-72710279D01*
X76135000Y-72289721D01*
X76052953Y-71877244D01*
X75892012Y-71488698D01*
X75658363Y-71139017D01*
X75360983Y-70841637D01*
X75011302Y-70607988D01*
X74622756Y-70447047D01*
X74210279Y-70365000D01*
X73789721Y-70365000D01*
X73377244Y-70447047D01*
X72988698Y-70607988D01*
X72639017Y-70841637D01*
X72341637Y-71139017D01*
X72107988Y-71488698D01*
X71947047Y-71877244D01*
X71865000Y-72289721D01*
X69871361Y-72289721D01*
X69895000Y-72170883D01*
X69895000Y-71829117D01*
X69828325Y-71493919D01*
X69697537Y-71178169D01*
X69507663Y-70894002D01*
X69265998Y-70652337D01*
X68981831Y-70462463D01*
X68666081Y-70331675D01*
X68330883Y-70265000D01*
X67989117Y-70265000D01*
X67653919Y-70331675D01*
X67338169Y-70462463D01*
X67054002Y-70652337D01*
X66812337Y-70894002D01*
X66622463Y-71178169D01*
X66491675Y-71493919D01*
X66425000Y-71829117D01*
X59738072Y-71829117D01*
X59738072Y-70900000D01*
X59725812Y-70775518D01*
X59689502Y-70655820D01*
X59630537Y-70545506D01*
X59551185Y-70448815D01*
X59454494Y-70369463D01*
X59344180Y-70310498D01*
X59224482Y-70274188D01*
X59100000Y-70261928D01*
X56900000Y-70261928D01*
X56775518Y-70274188D01*
X56655820Y-70310498D01*
X56545506Y-70369463D01*
X56448815Y-70448815D01*
X56369463Y-70545506D01*
X56310498Y-70655820D01*
X56274188Y-70775518D01*
X56261928Y-70900000D01*
X50660000Y-70900000D01*
X50660000Y-66779872D01*
X50765000Y-66779872D01*
X50765000Y-67220128D01*
X50850890Y-67651925D01*
X51019369Y-68058669D01*
X51263962Y-68424729D01*
X51575271Y-68736038D01*
X51941331Y-68980631D01*
X52348075Y-69149110D01*
X52779872Y-69235000D01*
X53220128Y-69235000D01*
X53651925Y-69149110D01*
X54011908Y-69000000D01*
X71861928Y-69000000D01*
X71874188Y-69124482D01*
X71910498Y-69244180D01*
X71969463Y-69354494D01*
X72048815Y-69451185D01*
X72145506Y-69530537D01*
X72255820Y-69589502D01*
X72375518Y-69625812D01*
X72500000Y-69638072D01*
X73714250Y-69635000D01*
X73873000Y-69476250D01*
X73873000Y-67627000D01*
X74127000Y-67627000D01*
X74127000Y-69476250D01*
X74285750Y-69635000D01*
X75500000Y-69638072D01*
X75624482Y-69625812D01*
X75744180Y-69589502D01*
X75854494Y-69530537D01*
X75951185Y-69451185D01*
X76030537Y-69354494D01*
X76089502Y-69244180D01*
X76125812Y-69124482D01*
X76128317Y-69099039D01*
X84008096Y-69099039D01*
X84025633Y-69181818D01*
X84136285Y-69441646D01*
X84295500Y-69674895D01*
X84497161Y-69872601D01*
X84733517Y-70027166D01*
X84995486Y-70132650D01*
X85273000Y-70185000D01*
X86373000Y-70185000D01*
X86373000Y-68877000D01*
X86627000Y-68877000D01*
X86627000Y-70185000D01*
X87727000Y-70185000D01*
X88004514Y-70132650D01*
X88266483Y-70027166D01*
X88502839Y-69872601D01*
X88704500Y-69674895D01*
X88863715Y-69441646D01*
X88974367Y-69181818D01*
X88991904Y-69099039D01*
X88937492Y-69000000D01*
X95861928Y-69000000D01*
X95874188Y-69124482D01*
X95910498Y-69244180D01*
X95969463Y-69354494D01*
X96048815Y-69451185D01*
X96145506Y-69530537D01*
X96255820Y-69589502D01*
X96375518Y-69625812D01*
X96500000Y-69638072D01*
X97714250Y-69635000D01*
X97873000Y-69476250D01*
X97873000Y-67627000D01*
X98127000Y-67627000D01*
X98127000Y-69476250D01*
X98285750Y-69635000D01*
X99500000Y-69638072D01*
X99624482Y-69625812D01*
X99744180Y-69589502D01*
X99854494Y-69530537D01*
X99951185Y-69451185D01*
X100030537Y-69354494D01*
X100089502Y-69244180D01*
X100125812Y-69124482D01*
X100138072Y-69000000D01*
X100135000Y-67785750D01*
X99976250Y-67627000D01*
X98127000Y-67627000D01*
X97873000Y-67627000D01*
X96023750Y-67627000D01*
X95865000Y-67785750D01*
X95861928Y-69000000D01*
X88937492Y-69000000D01*
X88869915Y-68877000D01*
X86627000Y-68877000D01*
X86373000Y-68877000D01*
X84130085Y-68877000D01*
X84008096Y-69099039D01*
X76128317Y-69099039D01*
X76138072Y-69000000D01*
X76136557Y-68400961D01*
X84008096Y-68400961D01*
X84130085Y-68623000D01*
X86373000Y-68623000D01*
X86373000Y-67315000D01*
X86627000Y-67315000D01*
X86627000Y-68623000D01*
X88869915Y-68623000D01*
X88991904Y-68400961D01*
X88974367Y-68318182D01*
X88863715Y-68058354D01*
X88704500Y-67825105D01*
X88502839Y-67627399D01*
X88266483Y-67472834D01*
X88085601Y-67400000D01*
X115261928Y-67400000D01*
X115261928Y-69600000D01*
X115274188Y-69724482D01*
X115310498Y-69844180D01*
X115369463Y-69954494D01*
X115448815Y-70051185D01*
X115545506Y-70130537D01*
X115655820Y-70189502D01*
X115775518Y-70225812D01*
X115900000Y-70238072D01*
X118100000Y-70238072D01*
X118224482Y-70225812D01*
X118344180Y-70189502D01*
X118454494Y-70130537D01*
X118551185Y-70051185D01*
X118630537Y-69954494D01*
X118689502Y-69844180D01*
X118725812Y-69724482D01*
X118738072Y-69600000D01*
X118738072Y-68329117D01*
X125425000Y-68329117D01*
X125425000Y-68670883D01*
X125491675Y-69006081D01*
X125622463Y-69321831D01*
X125812337Y-69605998D01*
X126054002Y-69847663D01*
X126338169Y-70037537D01*
X126653919Y-70168325D01*
X126989117Y-70235000D01*
X127330883Y-70235000D01*
X127666081Y-70168325D01*
X127981831Y-70037537D01*
X128265998Y-69847663D01*
X128507663Y-69605998D01*
X128511670Y-69600000D01*
X139461928Y-69600000D01*
X139474188Y-69724482D01*
X139510498Y-69844180D01*
X139569463Y-69954494D01*
X139648815Y-70051185D01*
X139745506Y-70130537D01*
X139855820Y-70189502D01*
X139874127Y-70195056D01*
X139807688Y-70261495D01*
X139639701Y-70512905D01*
X139523989Y-70792257D01*
X139465000Y-71088816D01*
X139465000Y-71391184D01*
X139523989Y-71687743D01*
X139639701Y-71967095D01*
X139807688Y-72218505D01*
X140021495Y-72432312D01*
X140272905Y-72600299D01*
X140552257Y-72716011D01*
X140848816Y-72775000D01*
X141151184Y-72775000D01*
X141447743Y-72716011D01*
X141727095Y-72600299D01*
X141978505Y-72432312D01*
X142192312Y-72218505D01*
X142360299Y-71967095D01*
X142476011Y-71687743D01*
X142535000Y-71391184D01*
X142535000Y-71088816D01*
X142476011Y-70792257D01*
X142360299Y-70512905D01*
X142192312Y-70261495D01*
X142125873Y-70195056D01*
X142144180Y-70189502D01*
X142254494Y-70130537D01*
X142351185Y-70051185D01*
X142430537Y-69954494D01*
X142489502Y-69844180D01*
X142525812Y-69724482D01*
X142538072Y-69600000D01*
X142535000Y-68985750D01*
X142376250Y-68827000D01*
X141127000Y-68827000D01*
X141127000Y-68847000D01*
X140873000Y-68847000D01*
X140873000Y-68827000D01*
X139623750Y-68827000D01*
X139465000Y-68985750D01*
X139461928Y-69600000D01*
X128511670Y-69600000D01*
X128697537Y-69321831D01*
X128828325Y-69006081D01*
X128895000Y-68670883D01*
X128895000Y-68329117D01*
X128828325Y-67993919D01*
X128748002Y-67800000D01*
X139461928Y-67800000D01*
X139465000Y-68414250D01*
X139623750Y-68573000D01*
X140873000Y-68573000D01*
X140873000Y-67323750D01*
X141127000Y-67323750D01*
X141127000Y-68573000D01*
X142376250Y-68573000D01*
X142535000Y-68414250D01*
X142538072Y-67800000D01*
X142525812Y-67675518D01*
X142489502Y-67555820D01*
X142430537Y-67445506D01*
X142351185Y-67348815D01*
X142254494Y-67269463D01*
X142144180Y-67210498D01*
X142024482Y-67174188D01*
X141900000Y-67161928D01*
X141285750Y-67165000D01*
X141127000Y-67323750D01*
X140873000Y-67323750D01*
X140714250Y-67165000D01*
X140100000Y-67161928D01*
X139975518Y-67174188D01*
X139855820Y-67210498D01*
X139745506Y-67269463D01*
X139648815Y-67348815D01*
X139569463Y-67445506D01*
X139510498Y-67555820D01*
X139474188Y-67675518D01*
X139461928Y-67800000D01*
X128748002Y-67800000D01*
X128697537Y-67678169D01*
X128507663Y-67394002D01*
X128265998Y-67152337D01*
X127981831Y-66962463D01*
X127666081Y-66831675D01*
X127405650Y-66779872D01*
X144765000Y-66779872D01*
X144765000Y-67220128D01*
X144850890Y-67651925D01*
X145019369Y-68058669D01*
X145263962Y-68424729D01*
X145575271Y-68736038D01*
X145941331Y-68980631D01*
X146348075Y-69149110D01*
X146779872Y-69235000D01*
X147220128Y-69235000D01*
X147651925Y-69149110D01*
X148058669Y-68980631D01*
X148424729Y-68736038D01*
X148736038Y-68424729D01*
X148980631Y-68058669D01*
X149149110Y-67651925D01*
X149235000Y-67220128D01*
X149235000Y-66779872D01*
X149149110Y-66348075D01*
X148980631Y-65941331D01*
X148736038Y-65575271D01*
X148424729Y-65263962D01*
X148058669Y-65019369D01*
X147651925Y-64850890D01*
X147220128Y-64765000D01*
X146779872Y-64765000D01*
X146348075Y-64850890D01*
X145941331Y-65019369D01*
X145575271Y-65263962D01*
X145263962Y-65575271D01*
X145019369Y-65941331D01*
X144850890Y-66348075D01*
X144765000Y-66779872D01*
X127405650Y-66779872D01*
X127330883Y-66765000D01*
X126989117Y-66765000D01*
X126653919Y-66831675D01*
X126338169Y-66962463D01*
X126054002Y-67152337D01*
X125812337Y-67394002D01*
X125622463Y-67678169D01*
X125491675Y-67993919D01*
X125425000Y-68329117D01*
X118738072Y-68329117D01*
X118738072Y-67400000D01*
X118725812Y-67275518D01*
X118689502Y-67155820D01*
X118630537Y-67045506D01*
X118551185Y-66948815D01*
X118454494Y-66869463D01*
X118344180Y-66810498D01*
X118224482Y-66774188D01*
X118100000Y-66761928D01*
X115900000Y-66761928D01*
X115775518Y-66774188D01*
X115655820Y-66810498D01*
X115545506Y-66869463D01*
X115448815Y-66948815D01*
X115369463Y-67045506D01*
X115310498Y-67155820D01*
X115274188Y-67275518D01*
X115261928Y-67400000D01*
X88085601Y-67400000D01*
X88004514Y-67367350D01*
X87727000Y-67315000D01*
X86627000Y-67315000D01*
X86373000Y-67315000D01*
X85273000Y-67315000D01*
X84995486Y-67367350D01*
X84733517Y-67472834D01*
X84497161Y-67627399D01*
X84295500Y-67825105D01*
X84136285Y-68058354D01*
X84025633Y-68318182D01*
X84008096Y-68400961D01*
X76136557Y-68400961D01*
X76135000Y-67785750D01*
X75976250Y-67627000D01*
X74127000Y-67627000D01*
X73873000Y-67627000D01*
X72023750Y-67627000D01*
X71865000Y-67785750D01*
X71861928Y-69000000D01*
X54011908Y-69000000D01*
X54058669Y-68980631D01*
X54424729Y-68736038D01*
X54736038Y-68424729D01*
X54980631Y-68058669D01*
X55149110Y-67651925D01*
X55235000Y-67220128D01*
X55235000Y-66779872D01*
X55149110Y-66348075D01*
X55004933Y-66000000D01*
X71861928Y-66000000D01*
X71865000Y-67214250D01*
X72023750Y-67373000D01*
X73873000Y-67373000D01*
X73873000Y-65523750D01*
X74127000Y-65523750D01*
X74127000Y-67373000D01*
X75976250Y-67373000D01*
X76135000Y-67214250D01*
X76138072Y-66000000D01*
X95861928Y-66000000D01*
X95865000Y-67214250D01*
X96023750Y-67373000D01*
X97873000Y-67373000D01*
X97873000Y-65523750D01*
X98127000Y-65523750D01*
X98127000Y-67373000D01*
X99976250Y-67373000D01*
X100135000Y-67214250D01*
X100138072Y-66000000D01*
X100125812Y-65875518D01*
X100089502Y-65755820D01*
X100030537Y-65645506D01*
X99951185Y-65548815D01*
X99854494Y-65469463D01*
X99744180Y-65410498D01*
X99624482Y-65374188D01*
X99500000Y-65361928D01*
X98285750Y-65365000D01*
X98127000Y-65523750D01*
X97873000Y-65523750D01*
X97714250Y-65365000D01*
X96500000Y-65361928D01*
X96375518Y-65374188D01*
X96255820Y-65410498D01*
X96145506Y-65469463D01*
X96048815Y-65548815D01*
X95969463Y-65645506D01*
X95910498Y-65755820D01*
X95874188Y-65875518D01*
X95861928Y-66000000D01*
X76138072Y-66000000D01*
X76125812Y-65875518D01*
X76089502Y-65755820D01*
X76030537Y-65645506D01*
X75951185Y-65548815D01*
X75854494Y-65469463D01*
X75744180Y-65410498D01*
X75624482Y-65374188D01*
X75500000Y-65361928D01*
X74285750Y-65365000D01*
X74127000Y-65523750D01*
X73873000Y-65523750D01*
X73714250Y-65365000D01*
X72500000Y-65361928D01*
X72375518Y-65374188D01*
X72255820Y-65410498D01*
X72145506Y-65469463D01*
X72048815Y-65548815D01*
X71969463Y-65645506D01*
X71910498Y-65755820D01*
X71874188Y-65875518D01*
X71861928Y-66000000D01*
X55004933Y-66000000D01*
X54980631Y-65941331D01*
X54736038Y-65575271D01*
X54424729Y-65263962D01*
X54058669Y-65019369D01*
X53651925Y-64850890D01*
X53220128Y-64765000D01*
X52779872Y-64765000D01*
X52348075Y-64850890D01*
X51941331Y-65019369D01*
X51575271Y-65263962D01*
X51263962Y-65575271D01*
X51019369Y-65941331D01*
X50850890Y-66348075D01*
X50765000Y-66779872D01*
X50660000Y-66779872D01*
X50660000Y-64660000D01*
X149340000Y-64660000D01*
X149340001Y-124340000D01*
%TA.AperFunction,Conductor*%
D30*
G36*
X149340001Y-124340000D02*
G01*
X50660000Y-124340000D01*
X50660000Y-121779872D01*
X50765000Y-121779872D01*
X50765000Y-122220128D01*
X50850890Y-122651925D01*
X51019369Y-123058669D01*
X51263962Y-123424729D01*
X51575271Y-123736038D01*
X51941331Y-123980631D01*
X52348075Y-124149110D01*
X52779872Y-124235000D01*
X53220128Y-124235000D01*
X53651925Y-124149110D01*
X54058669Y-123980631D01*
X54424729Y-123736038D01*
X54736038Y-123424729D01*
X54980631Y-123058669D01*
X55149110Y-122651925D01*
X55235000Y-122220128D01*
X55235000Y-121779872D01*
X55149110Y-121348075D01*
X54980631Y-120941331D01*
X54736038Y-120575271D01*
X54424729Y-120263962D01*
X54058669Y-120019369D01*
X53770487Y-119900000D01*
X56261928Y-119900000D01*
X56261928Y-122100000D01*
X56274188Y-122224482D01*
X56310498Y-122344180D01*
X56369463Y-122454494D01*
X56448815Y-122551185D01*
X56545506Y-122630537D01*
X56655820Y-122689502D01*
X56775518Y-122725812D01*
X56900000Y-122738072D01*
X59100000Y-122738072D01*
X59224482Y-122725812D01*
X59344180Y-122689502D01*
X59454494Y-122630537D01*
X59551185Y-122551185D01*
X59630537Y-122454494D01*
X59689502Y-122344180D01*
X59725812Y-122224482D01*
X59738072Y-122100000D01*
X59738072Y-120829117D01*
X66425000Y-120829117D01*
X66425000Y-121170883D01*
X66491675Y-121506081D01*
X66622463Y-121821831D01*
X66812337Y-122105998D01*
X67054002Y-122347663D01*
X67338169Y-122537537D01*
X67653919Y-122668325D01*
X67989117Y-122735000D01*
X68330883Y-122735000D01*
X68666081Y-122668325D01*
X68821182Y-122604080D01*
X140115525Y-122604080D01*
X140199208Y-122858261D01*
X140471775Y-122989158D01*
X140764642Y-123064365D01*
X141066553Y-123080991D01*
X141365907Y-123038397D01*
X141651199Y-122938222D01*
X141800792Y-122858261D01*
X141884475Y-122604080D01*
X141000000Y-121719605D01*
X140115525Y-122604080D01*
X68821182Y-122604080D01*
X68981831Y-122537537D01*
X69265998Y-122347663D01*
X69507663Y-122105998D01*
X69697537Y-121821831D01*
X69786708Y-121606553D01*
X139459009Y-121606553D01*
X139501603Y-121905907D01*
X139601778Y-122191199D01*
X139681739Y-122340792D01*
X139935920Y-122424475D01*
X140820395Y-121540000D01*
X140806253Y-121525858D01*
X140985858Y-121346253D01*
X141000000Y-121360395D01*
X141014143Y-121346253D01*
X141193748Y-121525858D01*
X141179605Y-121540000D01*
X142064080Y-122424475D01*
X142318261Y-122340792D01*
X142449158Y-122068225D01*
X142523205Y-121779872D01*
X144765000Y-121779872D01*
X144765000Y-122220128D01*
X144850890Y-122651925D01*
X145019369Y-123058669D01*
X145263962Y-123424729D01*
X145575271Y-123736038D01*
X145941331Y-123980631D01*
X146348075Y-124149110D01*
X146779872Y-124235000D01*
X147220128Y-124235000D01*
X147651925Y-124149110D01*
X148058669Y-123980631D01*
X148424729Y-123736038D01*
X148736038Y-123424729D01*
X148980631Y-123058669D01*
X149149110Y-122651925D01*
X149235000Y-122220128D01*
X149235000Y-121779872D01*
X149149110Y-121348075D01*
X148980631Y-120941331D01*
X148736038Y-120575271D01*
X148424729Y-120263962D01*
X148058669Y-120019369D01*
X147651925Y-119850890D01*
X147220128Y-119765000D01*
X146779872Y-119765000D01*
X146348075Y-119850890D01*
X145941331Y-120019369D01*
X145575271Y-120263962D01*
X145263962Y-120575271D01*
X145019369Y-120941331D01*
X144850890Y-121348075D01*
X144765000Y-121779872D01*
X142523205Y-121779872D01*
X142524365Y-121775358D01*
X142540991Y-121473447D01*
X142498397Y-121174093D01*
X142398222Y-120888801D01*
X142318261Y-120739208D01*
X142064082Y-120655526D01*
X142180030Y-120539578D01*
X142133265Y-120492813D01*
X142144180Y-120489502D01*
X142254494Y-120430537D01*
X142351185Y-120351185D01*
X142430537Y-120254494D01*
X142489502Y-120144180D01*
X142525812Y-120024482D01*
X142538072Y-119900000D01*
X142538072Y-118100000D01*
X142525812Y-117975518D01*
X142489502Y-117855820D01*
X142430537Y-117745506D01*
X142351185Y-117648815D01*
X142254494Y-117569463D01*
X142144180Y-117510498D01*
X142024482Y-117474188D01*
X141900000Y-117461928D01*
X140100000Y-117461928D01*
X139975518Y-117474188D01*
X139855820Y-117510498D01*
X139745506Y-117569463D01*
X139648815Y-117648815D01*
X139569463Y-117745506D01*
X139510498Y-117855820D01*
X139474188Y-117975518D01*
X139461928Y-118100000D01*
X139461928Y-119900000D01*
X139474188Y-120024482D01*
X139510498Y-120144180D01*
X139569463Y-120254494D01*
X139648815Y-120351185D01*
X139745506Y-120430537D01*
X139855820Y-120489502D01*
X139866735Y-120492813D01*
X139819970Y-120539578D01*
X139935918Y-120655526D01*
X139681739Y-120739208D01*
X139550842Y-121011775D01*
X139475635Y-121304642D01*
X139459009Y-121606553D01*
X69786708Y-121606553D01*
X69828325Y-121506081D01*
X69895000Y-121170883D01*
X69895000Y-120829117D01*
X69828325Y-120493919D01*
X69697537Y-120178169D01*
X69507663Y-119894002D01*
X69265998Y-119652337D01*
X68981831Y-119462463D01*
X68666081Y-119331675D01*
X68330883Y-119265000D01*
X67989117Y-119265000D01*
X67653919Y-119331675D01*
X67338169Y-119462463D01*
X67054002Y-119652337D01*
X66812337Y-119894002D01*
X66622463Y-120178169D01*
X66491675Y-120493919D01*
X66425000Y-120829117D01*
X59738072Y-120829117D01*
X59738072Y-119900000D01*
X59725812Y-119775518D01*
X59689502Y-119655820D01*
X59630537Y-119545506D01*
X59551185Y-119448815D01*
X59454494Y-119369463D01*
X59344180Y-119310498D01*
X59224482Y-119274188D01*
X59100000Y-119261928D01*
X56900000Y-119261928D01*
X56775518Y-119274188D01*
X56655820Y-119310498D01*
X56545506Y-119369463D01*
X56448815Y-119448815D01*
X56369463Y-119545506D01*
X56310498Y-119655820D01*
X56274188Y-119775518D01*
X56261928Y-119900000D01*
X53770487Y-119900000D01*
X53651925Y-119850890D01*
X53220128Y-119765000D01*
X52779872Y-119765000D01*
X52348075Y-119850890D01*
X51941331Y-120019369D01*
X51575271Y-120263962D01*
X51263962Y-120575271D01*
X51019369Y-120941331D01*
X50850890Y-121348075D01*
X50765000Y-121779872D01*
X50660000Y-121779872D01*
X50660000Y-117400000D01*
X115261928Y-117400000D01*
X115261928Y-119600000D01*
X115274188Y-119724482D01*
X115310498Y-119844180D01*
X115369463Y-119954494D01*
X115448815Y-120051185D01*
X115545506Y-120130537D01*
X115655820Y-120189502D01*
X115775518Y-120225812D01*
X115900000Y-120238072D01*
X118100000Y-120238072D01*
X118224482Y-120225812D01*
X118344180Y-120189502D01*
X118454494Y-120130537D01*
X118551185Y-120051185D01*
X118630537Y-119954494D01*
X118689502Y-119844180D01*
X118725812Y-119724482D01*
X118738072Y-119600000D01*
X118738072Y-118329117D01*
X125425000Y-118329117D01*
X125425000Y-118670883D01*
X125491675Y-119006081D01*
X125622463Y-119321831D01*
X125812337Y-119605998D01*
X126054002Y-119847663D01*
X126338169Y-120037537D01*
X126653919Y-120168325D01*
X126989117Y-120235000D01*
X127330883Y-120235000D01*
X127666081Y-120168325D01*
X127981831Y-120037537D01*
X128265998Y-119847663D01*
X128507663Y-119605998D01*
X128697537Y-119321831D01*
X128828325Y-119006081D01*
X128895000Y-118670883D01*
X128895000Y-118329117D01*
X128828325Y-117993919D01*
X128697537Y-117678169D01*
X128507663Y-117394002D01*
X128265998Y-117152337D01*
X127981831Y-116962463D01*
X127666081Y-116831675D01*
X127330883Y-116765000D01*
X126989117Y-116765000D01*
X126653919Y-116831675D01*
X126338169Y-116962463D01*
X126054002Y-117152337D01*
X125812337Y-117394002D01*
X125622463Y-117678169D01*
X125491675Y-117993919D01*
X125425000Y-118329117D01*
X118738072Y-118329117D01*
X118738072Y-117400000D01*
X118725812Y-117275518D01*
X118689502Y-117155820D01*
X118630537Y-117045506D01*
X118551185Y-116948815D01*
X118454494Y-116869463D01*
X118344180Y-116810498D01*
X118224482Y-116774188D01*
X118100000Y-116761928D01*
X115900000Y-116761928D01*
X115775518Y-116774188D01*
X115655820Y-116810498D01*
X115545506Y-116869463D01*
X115448815Y-116948815D01*
X115369463Y-117045506D01*
X115310498Y-117155820D01*
X115274188Y-117275518D01*
X115261928Y-117400000D01*
X50660000Y-117400000D01*
X50660000Y-113858665D01*
X138205000Y-113858665D01*
X138205000Y-114141335D01*
X138260147Y-114418574D01*
X138368320Y-114679727D01*
X138525363Y-114914759D01*
X138725241Y-115114637D01*
X138960273Y-115271680D01*
X139221426Y-115379853D01*
X139498665Y-115435000D01*
X139781335Y-115435000D01*
X140058574Y-115379853D01*
X140319727Y-115271680D01*
X140554759Y-115114637D01*
X140754637Y-114914759D01*
X140911680Y-114679727D01*
X141019853Y-114418574D01*
X141075000Y-114141335D01*
X141075000Y-113858665D01*
X145825000Y-113858665D01*
X145825000Y-114141335D01*
X145880147Y-114418574D01*
X145988320Y-114679727D01*
X146145363Y-114914759D01*
X146345241Y-115114637D01*
X146580273Y-115271680D01*
X146841426Y-115379853D01*
X147118665Y-115435000D01*
X147401335Y-115435000D01*
X147678574Y-115379853D01*
X147939727Y-115271680D01*
X148174759Y-115114637D01*
X148374637Y-114914759D01*
X148531680Y-114679727D01*
X148639853Y-114418574D01*
X148695000Y-114141335D01*
X148695000Y-113858665D01*
X148639853Y-113581426D01*
X148531680Y-113320273D01*
X148374637Y-113085241D01*
X148174759Y-112885363D01*
X147939727Y-112728320D01*
X147678574Y-112620147D01*
X147401335Y-112565000D01*
X147118665Y-112565000D01*
X146841426Y-112620147D01*
X146580273Y-112728320D01*
X146345241Y-112885363D01*
X146145363Y-113085241D01*
X145988320Y-113320273D01*
X145880147Y-113581426D01*
X145825000Y-113858665D01*
X141075000Y-113858665D01*
X141019853Y-113581426D01*
X140911680Y-113320273D01*
X140754637Y-113085241D01*
X140554759Y-112885363D01*
X140319727Y-112728320D01*
X140058574Y-112620147D01*
X139781335Y-112565000D01*
X139498665Y-112565000D01*
X139221426Y-112620147D01*
X138960273Y-112728320D01*
X138725241Y-112885363D01*
X138525363Y-113085241D01*
X138368320Y-113320273D01*
X138260147Y-113581426D01*
X138205000Y-113858665D01*
X50660000Y-113858665D01*
X50660000Y-110819268D01*
X58245000Y-110819268D01*
X58245000Y-111180732D01*
X58315518Y-111535250D01*
X58453844Y-111869199D01*
X58654662Y-112169744D01*
X58910256Y-112425338D01*
X59210801Y-112626156D01*
X59544750Y-112764482D01*
X59899268Y-112835000D01*
X60260732Y-112835000D01*
X60615250Y-112764482D01*
X60949199Y-112626156D01*
X61249744Y-112425338D01*
X61505338Y-112169744D01*
X61706156Y-111869199D01*
X61844482Y-111535250D01*
X61915000Y-111180732D01*
X61915000Y-110819268D01*
X78165000Y-110819268D01*
X78165000Y-111180732D01*
X78235518Y-111535250D01*
X78373844Y-111869199D01*
X78574662Y-112169744D01*
X78830256Y-112425338D01*
X79130801Y-112626156D01*
X79464750Y-112764482D01*
X79819268Y-112835000D01*
X80180732Y-112835000D01*
X80535250Y-112764482D01*
X80869199Y-112626156D01*
X81169744Y-112425338D01*
X81425338Y-112169744D01*
X81626156Y-111869199D01*
X81764482Y-111535250D01*
X81835000Y-111180732D01*
X81835000Y-110819268D01*
X98165000Y-110819268D01*
X98165000Y-111180732D01*
X98235518Y-111535250D01*
X98373844Y-111869199D01*
X98574662Y-112169744D01*
X98830256Y-112425338D01*
X99130801Y-112626156D01*
X99464750Y-112764482D01*
X99819268Y-112835000D01*
X100180732Y-112835000D01*
X100535250Y-112764482D01*
X100869199Y-112626156D01*
X101169744Y-112425338D01*
X101425338Y-112169744D01*
X101626156Y-111869199D01*
X101764482Y-111535250D01*
X101835000Y-111180732D01*
X101835000Y-110819268D01*
X101764482Y-110464750D01*
X101626156Y-110130801D01*
X101425338Y-109830256D01*
X101169744Y-109574662D01*
X100869199Y-109373844D01*
X100535250Y-109235518D01*
X100180732Y-109165000D01*
X99819268Y-109165000D01*
X99464750Y-109235518D01*
X99130801Y-109373844D01*
X98830256Y-109574662D01*
X98574662Y-109830256D01*
X98373844Y-110130801D01*
X98235518Y-110464750D01*
X98165000Y-110819268D01*
X81835000Y-110819268D01*
X81764482Y-110464750D01*
X81626156Y-110130801D01*
X81425338Y-109830256D01*
X81169744Y-109574662D01*
X80869199Y-109373844D01*
X80535250Y-109235518D01*
X80180732Y-109165000D01*
X79819268Y-109165000D01*
X79464750Y-109235518D01*
X79130801Y-109373844D01*
X78830256Y-109574662D01*
X78574662Y-109830256D01*
X78373844Y-110130801D01*
X78235518Y-110464750D01*
X78165000Y-110819268D01*
X61915000Y-110819268D01*
X61844482Y-110464750D01*
X61706156Y-110130801D01*
X61505338Y-109830256D01*
X61249744Y-109574662D01*
X60949199Y-109373844D01*
X60615250Y-109235518D01*
X60260732Y-109165000D01*
X59899268Y-109165000D01*
X59544750Y-109235518D01*
X59210801Y-109373844D01*
X58910256Y-109574662D01*
X58654662Y-109830256D01*
X58453844Y-110130801D01*
X58315518Y-110464750D01*
X58245000Y-110819268D01*
X50660000Y-110819268D01*
X50660000Y-107500000D01*
X115357319Y-107500000D01*
X115387970Y-107811204D01*
X115478745Y-108110449D01*
X115626155Y-108386235D01*
X115824537Y-108627963D01*
X115997609Y-108770000D01*
X115824537Y-108912037D01*
X115626155Y-109153765D01*
X115478745Y-109429551D01*
X115387970Y-109728796D01*
X115357319Y-110040000D01*
X115387970Y-110351204D01*
X115478745Y-110650449D01*
X115626155Y-110926235D01*
X115824537Y-111167963D01*
X116066265Y-111366345D01*
X116342051Y-111513755D01*
X116641296Y-111604530D01*
X116874514Y-111627500D01*
X117125486Y-111627500D01*
X117358704Y-111604530D01*
X117657949Y-111513755D01*
X117933735Y-111366345D01*
X118175463Y-111167963D01*
X118373845Y-110926235D01*
X118521255Y-110650449D01*
X118612030Y-110351204D01*
X118642681Y-110040000D01*
X118612030Y-109728796D01*
X118521255Y-109429551D01*
X118492053Y-109374916D01*
X144730000Y-109374916D01*
X144730000Y-109625084D01*
X144778805Y-109870445D01*
X144874541Y-110101571D01*
X145013527Y-110309578D01*
X145190422Y-110486473D01*
X145398429Y-110625459D01*
X145629555Y-110721195D01*
X145874916Y-110770000D01*
X146125084Y-110770000D01*
X146370445Y-110721195D01*
X146601571Y-110625459D01*
X146809578Y-110486473D01*
X146986473Y-110309578D01*
X147125459Y-110101571D01*
X147221195Y-109870445D01*
X147270000Y-109625084D01*
X147270000Y-109374916D01*
X147221195Y-109129555D01*
X147125459Y-108898429D01*
X146986473Y-108690422D01*
X146809578Y-108513527D01*
X146601571Y-108374541D01*
X146370445Y-108278805D01*
X146125084Y-108230000D01*
X145874916Y-108230000D01*
X145629555Y-108278805D01*
X145398429Y-108374541D01*
X145190422Y-108513527D01*
X145013527Y-108690422D01*
X144874541Y-108898429D01*
X144778805Y-109129555D01*
X144730000Y-109374916D01*
X118492053Y-109374916D01*
X118373845Y-109153765D01*
X118175463Y-108912037D01*
X118002391Y-108770000D01*
X118175463Y-108627963D01*
X118373845Y-108386235D01*
X118521255Y-108110449D01*
X118612030Y-107811204D01*
X118615604Y-107774916D01*
X139630000Y-107774916D01*
X139630000Y-108025084D01*
X139678805Y-108270445D01*
X139774541Y-108501571D01*
X139913527Y-108709578D01*
X140090422Y-108886473D01*
X140298429Y-109025459D01*
X140529555Y-109121195D01*
X140774916Y-109170000D01*
X141025084Y-109170000D01*
X141270445Y-109121195D01*
X141501571Y-109025459D01*
X141709578Y-108886473D01*
X141886473Y-108709578D01*
X142025459Y-108501571D01*
X142121195Y-108270445D01*
X142170000Y-108025084D01*
X142170000Y-107774916D01*
X142121195Y-107529555D01*
X142025459Y-107298429D01*
X141886473Y-107090422D01*
X141709578Y-106913527D01*
X141501571Y-106774541D01*
X141270445Y-106678805D01*
X141025084Y-106630000D01*
X140774916Y-106630000D01*
X140529555Y-106678805D01*
X140298429Y-106774541D01*
X140090422Y-106913527D01*
X139913527Y-107090422D01*
X139774541Y-107298429D01*
X139678805Y-107529555D01*
X139630000Y-107774916D01*
X118615604Y-107774916D01*
X118642681Y-107500000D01*
X118612030Y-107188796D01*
X118521255Y-106889551D01*
X118373845Y-106613765D01*
X118270554Y-106487905D01*
X118354494Y-106443037D01*
X118451185Y-106363685D01*
X118530537Y-106266994D01*
X118589502Y-106156680D01*
X118625812Y-106036982D01*
X118638072Y-105912500D01*
X118635000Y-105245750D01*
X118476250Y-105087000D01*
X117127000Y-105087000D01*
X117127000Y-105107000D01*
X116873000Y-105107000D01*
X116873000Y-105087000D01*
X115523750Y-105087000D01*
X115365000Y-105245750D01*
X115361928Y-105912500D01*
X115374188Y-106036982D01*
X115410498Y-106156680D01*
X115469463Y-106266994D01*
X115548815Y-106363685D01*
X115645506Y-106443037D01*
X115729446Y-106487905D01*
X115626155Y-106613765D01*
X115478745Y-106889551D01*
X115387970Y-107188796D01*
X115357319Y-107500000D01*
X50660000Y-107500000D01*
X50660000Y-104700000D01*
X58241928Y-104700000D01*
X58254188Y-104824482D01*
X58290498Y-104944180D01*
X58349463Y-105054494D01*
X58428815Y-105151185D01*
X58525506Y-105230537D01*
X58635820Y-105289502D01*
X58755518Y-105325812D01*
X58880000Y-105338072D01*
X59794250Y-105335000D01*
X59953000Y-105176250D01*
X59953000Y-103627000D01*
X60207000Y-103627000D01*
X60207000Y-105176250D01*
X60365750Y-105335000D01*
X61280000Y-105338072D01*
X61404482Y-105325812D01*
X61524180Y-105289502D01*
X61634494Y-105230537D01*
X61731185Y-105151185D01*
X61810537Y-105054494D01*
X61869502Y-104944180D01*
X61905812Y-104824482D01*
X61918072Y-104700000D01*
X78161928Y-104700000D01*
X78174188Y-104824482D01*
X78210498Y-104944180D01*
X78269463Y-105054494D01*
X78348815Y-105151185D01*
X78445506Y-105230537D01*
X78555820Y-105289502D01*
X78675518Y-105325812D01*
X78800000Y-105338072D01*
X79714250Y-105335000D01*
X79873000Y-105176250D01*
X79873000Y-103627000D01*
X80127000Y-103627000D01*
X80127000Y-105176250D01*
X80285750Y-105335000D01*
X81200000Y-105338072D01*
X81324482Y-105325812D01*
X81444180Y-105289502D01*
X81554494Y-105230537D01*
X81651185Y-105151185D01*
X81730537Y-105054494D01*
X81789502Y-104944180D01*
X81825812Y-104824482D01*
X81838072Y-104700000D01*
X98161928Y-104700000D01*
X98174188Y-104824482D01*
X98210498Y-104944180D01*
X98269463Y-105054494D01*
X98348815Y-105151185D01*
X98445506Y-105230537D01*
X98555820Y-105289502D01*
X98675518Y-105325812D01*
X98800000Y-105338072D01*
X99714250Y-105335000D01*
X99873000Y-105176250D01*
X99873000Y-103627000D01*
X100127000Y-103627000D01*
X100127000Y-105176250D01*
X100285750Y-105335000D01*
X101200000Y-105338072D01*
X101324482Y-105325812D01*
X101444180Y-105289502D01*
X101554494Y-105230537D01*
X101651185Y-105151185D01*
X101730537Y-105054494D01*
X101789502Y-104944180D01*
X101825812Y-104824482D01*
X101838072Y-104700000D01*
X101835746Y-104007500D01*
X115361928Y-104007500D01*
X115365000Y-104674250D01*
X115523750Y-104833000D01*
X116873000Y-104833000D01*
X116873000Y-103531250D01*
X117127000Y-103531250D01*
X117127000Y-104833000D01*
X118476250Y-104833000D01*
X118635000Y-104674250D01*
X118638072Y-104007500D01*
X118625812Y-103883018D01*
X118589502Y-103763320D01*
X118530537Y-103653006D01*
X118451185Y-103556315D01*
X118354494Y-103476963D01*
X118244180Y-103417998D01*
X118124482Y-103381688D01*
X118000000Y-103369428D01*
X117285750Y-103372500D01*
X117127000Y-103531250D01*
X116873000Y-103531250D01*
X116714250Y-103372500D01*
X116000000Y-103369428D01*
X115875518Y-103381688D01*
X115755820Y-103417998D01*
X115645506Y-103476963D01*
X115548815Y-103556315D01*
X115469463Y-103653006D01*
X115410498Y-103763320D01*
X115374188Y-103883018D01*
X115361928Y-104007500D01*
X101835746Y-104007500D01*
X101835000Y-103785750D01*
X101676250Y-103627000D01*
X100127000Y-103627000D01*
X99873000Y-103627000D01*
X98323750Y-103627000D01*
X98165000Y-103785750D01*
X98161928Y-104700000D01*
X81838072Y-104700000D01*
X81835000Y-103785750D01*
X81676250Y-103627000D01*
X80127000Y-103627000D01*
X79873000Y-103627000D01*
X78323750Y-103627000D01*
X78165000Y-103785750D01*
X78161928Y-104700000D01*
X61918072Y-104700000D01*
X61915000Y-103785750D01*
X61756250Y-103627000D01*
X60207000Y-103627000D01*
X59953000Y-103627000D01*
X58403750Y-103627000D01*
X58245000Y-103785750D01*
X58241928Y-104700000D01*
X50660000Y-104700000D01*
X50660000Y-102300000D01*
X58241928Y-102300000D01*
X58245000Y-103214250D01*
X58403750Y-103373000D01*
X59953000Y-103373000D01*
X59953000Y-101823750D01*
X60207000Y-101823750D01*
X60207000Y-103373000D01*
X61756250Y-103373000D01*
X61915000Y-103214250D01*
X61918072Y-102300000D01*
X78161928Y-102300000D01*
X78165000Y-103214250D01*
X78323750Y-103373000D01*
X79873000Y-103373000D01*
X79873000Y-101823750D01*
X80127000Y-101823750D01*
X80127000Y-103373000D01*
X81676250Y-103373000D01*
X81835000Y-103214250D01*
X81838072Y-102300000D01*
X98161928Y-102300000D01*
X98165000Y-103214250D01*
X98323750Y-103373000D01*
X99873000Y-103373000D01*
X99873000Y-101823750D01*
X100127000Y-101823750D01*
X100127000Y-103373000D01*
X101676250Y-103373000D01*
X101835000Y-103214250D01*
X101838072Y-102300000D01*
X101825812Y-102175518D01*
X101789502Y-102055820D01*
X101730537Y-101945506D01*
X101651185Y-101848815D01*
X101554494Y-101769463D01*
X101444180Y-101710498D01*
X101324482Y-101674188D01*
X101200000Y-101661928D01*
X100285750Y-101665000D01*
X100127000Y-101823750D01*
X99873000Y-101823750D01*
X99714250Y-101665000D01*
X98800000Y-101661928D01*
X98675518Y-101674188D01*
X98555820Y-101710498D01*
X98445506Y-101769463D01*
X98348815Y-101848815D01*
X98269463Y-101945506D01*
X98210498Y-102055820D01*
X98174188Y-102175518D01*
X98161928Y-102300000D01*
X81838072Y-102300000D01*
X81825812Y-102175518D01*
X81789502Y-102055820D01*
X81730537Y-101945506D01*
X81651185Y-101848815D01*
X81554494Y-101769463D01*
X81444180Y-101710498D01*
X81324482Y-101674188D01*
X81200000Y-101661928D01*
X80285750Y-101665000D01*
X80127000Y-101823750D01*
X79873000Y-101823750D01*
X79714250Y-101665000D01*
X78800000Y-101661928D01*
X78675518Y-101674188D01*
X78555820Y-101710498D01*
X78445506Y-101769463D01*
X78348815Y-101848815D01*
X78269463Y-101945506D01*
X78210498Y-102055820D01*
X78174188Y-102175518D01*
X78161928Y-102300000D01*
X61918072Y-102300000D01*
X61905812Y-102175518D01*
X61869502Y-102055820D01*
X61810537Y-101945506D01*
X61731185Y-101848815D01*
X61634494Y-101769463D01*
X61524180Y-101710498D01*
X61404482Y-101674188D01*
X61280000Y-101661928D01*
X60365750Y-101665000D01*
X60207000Y-101823750D01*
X59953000Y-101823750D01*
X59794250Y-101665000D01*
X58880000Y-101661928D01*
X58755518Y-101674188D01*
X58635820Y-101710498D01*
X58525506Y-101769463D01*
X58428815Y-101848815D01*
X58349463Y-101945506D01*
X58290498Y-102055820D01*
X58254188Y-102175518D01*
X58241928Y-102300000D01*
X50660000Y-102300000D01*
X50660000Y-100800000D01*
X109561928Y-100800000D01*
X109574188Y-100924482D01*
X109610498Y-101044180D01*
X109669463Y-101154494D01*
X109748815Y-101251185D01*
X109845506Y-101330537D01*
X109955820Y-101389502D01*
X110051943Y-101418661D01*
X109885363Y-101585241D01*
X109728320Y-101820273D01*
X109620147Y-102081426D01*
X109565000Y-102358665D01*
X109565000Y-102641335D01*
X109620147Y-102918574D01*
X109728320Y-103179727D01*
X109885363Y-103414759D01*
X110085241Y-103614637D01*
X110320273Y-103771680D01*
X110581426Y-103879853D01*
X110858665Y-103935000D01*
X111141335Y-103935000D01*
X111418574Y-103879853D01*
X111679727Y-103771680D01*
X111914759Y-103614637D01*
X112114637Y-103414759D01*
X112271680Y-103179727D01*
X112379853Y-102918574D01*
X112435000Y-102641335D01*
X112435000Y-102358665D01*
X112379853Y-102081426D01*
X112271680Y-101820273D01*
X112114637Y-101585241D01*
X111948057Y-101418661D01*
X112044180Y-101389502D01*
X112154494Y-101330537D01*
X112251185Y-101251185D01*
X112330537Y-101154494D01*
X112389502Y-101044180D01*
X112425812Y-100924482D01*
X112438072Y-100800000D01*
X112435000Y-100285750D01*
X112276250Y-100127000D01*
X111127000Y-100127000D01*
X111127000Y-100147000D01*
X110873000Y-100147000D01*
X110873000Y-100127000D01*
X109723750Y-100127000D01*
X109565000Y-100285750D01*
X109561928Y-100800000D01*
X50660000Y-100800000D01*
X50660000Y-99200000D01*
X109561928Y-99200000D01*
X109565000Y-99714250D01*
X109723750Y-99873000D01*
X110873000Y-99873000D01*
X110873000Y-98723750D01*
X111127000Y-98723750D01*
X111127000Y-99873000D01*
X112276250Y-99873000D01*
X112334906Y-99814344D01*
X143365000Y-99814344D01*
X143365000Y-100185656D01*
X143437439Y-100549834D01*
X143579534Y-100892882D01*
X143785825Y-101201618D01*
X144048382Y-101464175D01*
X144357118Y-101670466D01*
X144700166Y-101812561D01*
X145064344Y-101885000D01*
X145435656Y-101885000D01*
X145799834Y-101812561D01*
X146142882Y-101670466D01*
X146451618Y-101464175D01*
X146714175Y-101201618D01*
X146920466Y-100892882D01*
X147062561Y-100549834D01*
X147135000Y-100185656D01*
X147135000Y-99814344D01*
X147062561Y-99450166D01*
X146920466Y-99107118D01*
X146714175Y-98798382D01*
X146451618Y-98535825D01*
X146142882Y-98329534D01*
X145799834Y-98187439D01*
X145435656Y-98115000D01*
X145064344Y-98115000D01*
X144700166Y-98187439D01*
X144357118Y-98329534D01*
X144048382Y-98535825D01*
X143785825Y-98798382D01*
X143579534Y-99107118D01*
X143437439Y-99450166D01*
X143365000Y-99814344D01*
X112334906Y-99814344D01*
X112435000Y-99714250D01*
X112438072Y-99200000D01*
X112425812Y-99075518D01*
X112389502Y-98955820D01*
X112330537Y-98845506D01*
X112251185Y-98748815D01*
X112154494Y-98669463D01*
X112044180Y-98610498D01*
X111924482Y-98574188D01*
X111800000Y-98561928D01*
X111285750Y-98565000D01*
X111127000Y-98723750D01*
X110873000Y-98723750D01*
X110714250Y-98565000D01*
X110200000Y-98561928D01*
X110075518Y-98574188D01*
X109955820Y-98610498D01*
X109845506Y-98669463D01*
X109748815Y-98748815D01*
X109669463Y-98845506D01*
X109610498Y-98955820D01*
X109574188Y-99075518D01*
X109561928Y-99200000D01*
X50660000Y-99200000D01*
X50660000Y-96300000D01*
X115561928Y-96300000D01*
X115574188Y-96424482D01*
X115610498Y-96544180D01*
X115669463Y-96654494D01*
X115748815Y-96751185D01*
X115845506Y-96830537D01*
X115955820Y-96889502D01*
X116051943Y-96918661D01*
X115885363Y-97085241D01*
X115728320Y-97320273D01*
X115620147Y-97581426D01*
X115565000Y-97858665D01*
X115565000Y-98141335D01*
X115620147Y-98418574D01*
X115728320Y-98679727D01*
X115885363Y-98914759D01*
X116085241Y-99114637D01*
X116320273Y-99271680D01*
X116581426Y-99379853D01*
X116858665Y-99435000D01*
X117141335Y-99435000D01*
X117418574Y-99379853D01*
X117679727Y-99271680D01*
X117914759Y-99114637D01*
X118114637Y-98914759D01*
X118271680Y-98679727D01*
X118379853Y-98418574D01*
X118435000Y-98141335D01*
X118435000Y-97858665D01*
X118379853Y-97581426D01*
X118271680Y-97320273D01*
X118114637Y-97085241D01*
X117948057Y-96918661D01*
X118044180Y-96889502D01*
X118066237Y-96877712D01*
X122261928Y-96877712D01*
X122274188Y-97002194D01*
X122310498Y-97121892D01*
X122369463Y-97232206D01*
X122448815Y-97328897D01*
X122545506Y-97408249D01*
X122655820Y-97467214D01*
X122775518Y-97503524D01*
X122900000Y-97515784D01*
X123714250Y-97512712D01*
X123873000Y-97353962D01*
X123873000Y-95904712D01*
X124127000Y-95904712D01*
X124127000Y-97353962D01*
X124285750Y-97512712D01*
X125100000Y-97515784D01*
X125224482Y-97503524D01*
X125344180Y-97467214D01*
X125454494Y-97408249D01*
X125551185Y-97328897D01*
X125630537Y-97232206D01*
X125689502Y-97121892D01*
X125725812Y-97002194D01*
X125738072Y-96877712D01*
X125735000Y-96063462D01*
X125576250Y-95904712D01*
X124127000Y-95904712D01*
X123873000Y-95904712D01*
X122423750Y-95904712D01*
X122265000Y-96063462D01*
X122261928Y-96877712D01*
X118066237Y-96877712D01*
X118154494Y-96830537D01*
X118251185Y-96751185D01*
X118330537Y-96654494D01*
X118389502Y-96544180D01*
X118425812Y-96424482D01*
X118438072Y-96300000D01*
X118435000Y-95785750D01*
X118276250Y-95627000D01*
X117127000Y-95627000D01*
X117127000Y-95647000D01*
X116873000Y-95647000D01*
X116873000Y-95627000D01*
X115723750Y-95627000D01*
X115565000Y-95785750D01*
X115561928Y-96300000D01*
X50660000Y-96300000D01*
X50660000Y-94700000D01*
X115561928Y-94700000D01*
X115565000Y-95214250D01*
X115723750Y-95373000D01*
X116873000Y-95373000D01*
X116873000Y-94223750D01*
X117127000Y-94223750D01*
X117127000Y-95373000D01*
X118276250Y-95373000D01*
X118435000Y-95214250D01*
X118438072Y-94700000D01*
X118435877Y-94677712D01*
X122261928Y-94677712D01*
X122265000Y-95491962D01*
X122423750Y-95650712D01*
X123873000Y-95650712D01*
X123873000Y-94201462D01*
X124127000Y-94201462D01*
X124127000Y-95650712D01*
X125576250Y-95650712D01*
X125620133Y-95606829D01*
X132425000Y-95606829D01*
X132425000Y-95948595D01*
X132491675Y-96283793D01*
X132622463Y-96599543D01*
X132812337Y-96883710D01*
X133054002Y-97125375D01*
X133338169Y-97315249D01*
X133653919Y-97446037D01*
X133989117Y-97512712D01*
X134330883Y-97512712D01*
X134666081Y-97446037D01*
X134981831Y-97315249D01*
X135265998Y-97125375D01*
X135507663Y-96883710D01*
X135697537Y-96599543D01*
X135815976Y-96313605D01*
X144116000Y-96313605D01*
X144241914Y-96603577D01*
X144574126Y-96769433D01*
X144932312Y-96867290D01*
X145302706Y-96893389D01*
X145671075Y-96846725D01*
X146023262Y-96729094D01*
X146258086Y-96603577D01*
X146384000Y-96313605D01*
X145250000Y-95179605D01*
X144116000Y-96313605D01*
X135815976Y-96313605D01*
X135828325Y-96283793D01*
X135895000Y-95948595D01*
X135895000Y-95606829D01*
X135828325Y-95271631D01*
X135737644Y-95052706D01*
X143356611Y-95052706D01*
X143403275Y-95421075D01*
X143520906Y-95773262D01*
X143646423Y-96008086D01*
X143936395Y-96134000D01*
X145070395Y-95000000D01*
X145429605Y-95000000D01*
X146563605Y-96134000D01*
X146853577Y-96008086D01*
X147019433Y-95675874D01*
X147117290Y-95317688D01*
X147143389Y-94947294D01*
X147096725Y-94578925D01*
X146979094Y-94226738D01*
X146853577Y-93991914D01*
X146563605Y-93866000D01*
X145429605Y-95000000D01*
X145070395Y-95000000D01*
X143936395Y-93866000D01*
X143646423Y-93991914D01*
X143480567Y-94324126D01*
X143382710Y-94682312D01*
X143356611Y-95052706D01*
X135737644Y-95052706D01*
X135697537Y-94955881D01*
X135507663Y-94671714D01*
X135265998Y-94430049D01*
X134981831Y-94240175D01*
X134666081Y-94109387D01*
X134330883Y-94042712D01*
X133989117Y-94042712D01*
X133653919Y-94109387D01*
X133338169Y-94240175D01*
X133054002Y-94430049D01*
X132812337Y-94671714D01*
X132622463Y-94955881D01*
X132491675Y-95271631D01*
X132425000Y-95606829D01*
X125620133Y-95606829D01*
X125735000Y-95491962D01*
X125738072Y-94677712D01*
X125725812Y-94553230D01*
X125689502Y-94433532D01*
X125630537Y-94323218D01*
X125551185Y-94226527D01*
X125454494Y-94147175D01*
X125344180Y-94088210D01*
X125224482Y-94051900D01*
X125100000Y-94039640D01*
X124285750Y-94042712D01*
X124127000Y-94201462D01*
X123873000Y-94201462D01*
X123714250Y-94042712D01*
X122900000Y-94039640D01*
X122775518Y-94051900D01*
X122655820Y-94088210D01*
X122545506Y-94147175D01*
X122448815Y-94226527D01*
X122369463Y-94323218D01*
X122310498Y-94433532D01*
X122274188Y-94553230D01*
X122261928Y-94677712D01*
X118435877Y-94677712D01*
X118425812Y-94575518D01*
X118389502Y-94455820D01*
X118330537Y-94345506D01*
X118251185Y-94248815D01*
X118154494Y-94169463D01*
X118044180Y-94110498D01*
X117924482Y-94074188D01*
X117800000Y-94061928D01*
X117285750Y-94065000D01*
X117127000Y-94223750D01*
X116873000Y-94223750D01*
X116714250Y-94065000D01*
X116200000Y-94061928D01*
X116075518Y-94074188D01*
X115955820Y-94110498D01*
X115845506Y-94169463D01*
X115748815Y-94248815D01*
X115669463Y-94345506D01*
X115610498Y-94455820D01*
X115574188Y-94575518D01*
X115561928Y-94700000D01*
X50660000Y-94700000D01*
X50660000Y-93686395D01*
X144116000Y-93686395D01*
X145250000Y-94820395D01*
X146384000Y-93686395D01*
X146258086Y-93396423D01*
X145925874Y-93230567D01*
X145567688Y-93132710D01*
X145197294Y-93106611D01*
X144828925Y-93153275D01*
X144476738Y-93270906D01*
X144241914Y-93396423D01*
X144116000Y-93686395D01*
X50660000Y-93686395D01*
X50660000Y-92492702D01*
X116186903Y-92492702D01*
X116258486Y-92736671D01*
X116513996Y-92857571D01*
X116788184Y-92926300D01*
X117070512Y-92940217D01*
X117350130Y-92898787D01*
X117616292Y-92803603D01*
X117741514Y-92736671D01*
X117813097Y-92492702D01*
X117000000Y-91679605D01*
X116186903Y-92492702D01*
X50660000Y-92492702D01*
X50660000Y-91777980D01*
X58981626Y-91777980D01*
X59101514Y-92062836D01*
X59425210Y-92223699D01*
X59774069Y-92318322D01*
X60134684Y-92343067D01*
X60493198Y-92296985D01*
X60835833Y-92181846D01*
X61058486Y-92062836D01*
X61178374Y-91777980D01*
X78901626Y-91777980D01*
X79021514Y-92062836D01*
X79345210Y-92223699D01*
X79694069Y-92318322D01*
X80054684Y-92343067D01*
X80413198Y-92296985D01*
X80755833Y-92181846D01*
X80978486Y-92062836D01*
X81098374Y-91777980D01*
X98901626Y-91777980D01*
X99021514Y-92062836D01*
X99345210Y-92223699D01*
X99694069Y-92318322D01*
X100054684Y-92343067D01*
X100413198Y-92296985D01*
X100755833Y-92181846D01*
X100978486Y-92062836D01*
X101098374Y-91777980D01*
X100000000Y-90679605D01*
X98901626Y-91777980D01*
X81098374Y-91777980D01*
X80000000Y-90679605D01*
X78901626Y-91777980D01*
X61178374Y-91777980D01*
X60080000Y-90679605D01*
X58981626Y-91777980D01*
X50660000Y-91777980D01*
X50660000Y-90554684D01*
X58236933Y-90554684D01*
X58283015Y-90913198D01*
X58398154Y-91255833D01*
X58517164Y-91478486D01*
X58802020Y-91598374D01*
X59900395Y-90500000D01*
X60259605Y-90500000D01*
X61357980Y-91598374D01*
X61642836Y-91478486D01*
X61803699Y-91154790D01*
X61898322Y-90805931D01*
X61915562Y-90554684D01*
X78156933Y-90554684D01*
X78203015Y-90913198D01*
X78318154Y-91255833D01*
X78437164Y-91478486D01*
X78722020Y-91598374D01*
X79820395Y-90500000D01*
X80179605Y-90500000D01*
X81277980Y-91598374D01*
X81562836Y-91478486D01*
X81723699Y-91154790D01*
X81818322Y-90805931D01*
X81835562Y-90554684D01*
X98156933Y-90554684D01*
X98203015Y-90913198D01*
X98318154Y-91255833D01*
X98437164Y-91478486D01*
X98722020Y-91598374D01*
X99820395Y-90500000D01*
X100179605Y-90500000D01*
X101277980Y-91598374D01*
X101344180Y-91570512D01*
X115559783Y-91570512D01*
X115601213Y-91850130D01*
X115696397Y-92116292D01*
X115763329Y-92241514D01*
X116007298Y-92313097D01*
X116820395Y-91500000D01*
X117179605Y-91500000D01*
X117992702Y-92313097D01*
X118236671Y-92241514D01*
X118357571Y-91986004D01*
X118426300Y-91711816D01*
X118440217Y-91429488D01*
X118398787Y-91149870D01*
X118303603Y-90883708D01*
X118236671Y-90758486D01*
X117992702Y-90686903D01*
X117179605Y-91500000D01*
X116820395Y-91500000D01*
X116007298Y-90686903D01*
X115763329Y-90758486D01*
X115642429Y-91013996D01*
X115573700Y-91288184D01*
X115559783Y-91570512D01*
X101344180Y-91570512D01*
X101562836Y-91478486D01*
X101723699Y-91154790D01*
X101818322Y-90805931D01*
X101843067Y-90445316D01*
X101796985Y-90086802D01*
X101681846Y-89744167D01*
X101562836Y-89521514D01*
X101277980Y-89401626D01*
X100179605Y-90500000D01*
X99820395Y-90500000D01*
X98722020Y-89401626D01*
X98437164Y-89521514D01*
X98276301Y-89845210D01*
X98181678Y-90194069D01*
X98156933Y-90554684D01*
X81835562Y-90554684D01*
X81843067Y-90445316D01*
X81796985Y-90086802D01*
X81681846Y-89744167D01*
X81562836Y-89521514D01*
X81277980Y-89401626D01*
X80179605Y-90500000D01*
X79820395Y-90500000D01*
X78722020Y-89401626D01*
X78437164Y-89521514D01*
X78276301Y-89845210D01*
X78181678Y-90194069D01*
X78156933Y-90554684D01*
X61915562Y-90554684D01*
X61923067Y-90445316D01*
X61876985Y-90086802D01*
X61761846Y-89744167D01*
X61642836Y-89521514D01*
X61357980Y-89401626D01*
X60259605Y-90500000D01*
X59900395Y-90500000D01*
X58802020Y-89401626D01*
X58517164Y-89521514D01*
X58356301Y-89845210D01*
X58261678Y-90194069D01*
X58236933Y-90554684D01*
X50660000Y-90554684D01*
X50660000Y-89222020D01*
X58981626Y-89222020D01*
X60080000Y-90320395D01*
X61178374Y-89222020D01*
X78901626Y-89222020D01*
X80000000Y-90320395D01*
X81098374Y-89222020D01*
X98901626Y-89222020D01*
X100000000Y-90320395D01*
X101098374Y-89222020D01*
X100978486Y-88937164D01*
X100654790Y-88776301D01*
X100305931Y-88681678D01*
X99945316Y-88656933D01*
X99586802Y-88703015D01*
X99244167Y-88818154D01*
X99021514Y-88937164D01*
X98901626Y-89222020D01*
X81098374Y-89222020D01*
X80978486Y-88937164D01*
X80654790Y-88776301D01*
X80305931Y-88681678D01*
X79945316Y-88656933D01*
X79586802Y-88703015D01*
X79244167Y-88818154D01*
X79021514Y-88937164D01*
X78901626Y-89222020D01*
X61178374Y-89222020D01*
X61058486Y-88937164D01*
X60734790Y-88776301D01*
X60385931Y-88681678D01*
X60025316Y-88656933D01*
X59666802Y-88703015D01*
X59324167Y-88818154D01*
X59101514Y-88937164D01*
X58981626Y-89222020D01*
X50660000Y-89222020D01*
X50660000Y-88200000D01*
X115561928Y-88200000D01*
X115561928Y-89800000D01*
X115574188Y-89924482D01*
X115610498Y-90044180D01*
X115669463Y-90154494D01*
X115748815Y-90251185D01*
X115845506Y-90330537D01*
X115955820Y-90389502D01*
X116075518Y-90425812D01*
X116200000Y-90438072D01*
X116207215Y-90438072D01*
X116186903Y-90507298D01*
X117000000Y-91320395D01*
X117813097Y-90507298D01*
X117792785Y-90438072D01*
X117800000Y-90438072D01*
X117924482Y-90425812D01*
X118044180Y-90389502D01*
X118154494Y-90330537D01*
X118251185Y-90251185D01*
X118330537Y-90154494D01*
X118370355Y-90080000D01*
X122261928Y-90080000D01*
X122261928Y-92280000D01*
X122274188Y-92404482D01*
X122310498Y-92524180D01*
X122369463Y-92634494D01*
X122448815Y-92731185D01*
X122545506Y-92810537D01*
X122655820Y-92869502D01*
X122775518Y-92905812D01*
X122900000Y-92918072D01*
X125100000Y-92918072D01*
X125224482Y-92905812D01*
X125344180Y-92869502D01*
X125454494Y-92810537D01*
X125551185Y-92731185D01*
X125630537Y-92634494D01*
X125689502Y-92524180D01*
X125725812Y-92404482D01*
X125738072Y-92280000D01*
X125738072Y-91576122D01*
X132470825Y-91576122D01*
X132535425Y-91789094D01*
X132685469Y-92094329D01*
X132892178Y-92364427D01*
X133147609Y-92589008D01*
X133441946Y-92759442D01*
X133763877Y-92869179D01*
X134033000Y-92751600D01*
X134033000Y-91307000D01*
X134287000Y-91307000D01*
X134287000Y-92751600D01*
X134556123Y-92869179D01*
X134878054Y-92759442D01*
X135172391Y-92589008D01*
X135427822Y-92364427D01*
X135634531Y-92094329D01*
X135784575Y-91789094D01*
X135849175Y-91576122D01*
X135731125Y-91307000D01*
X134287000Y-91307000D01*
X134033000Y-91307000D01*
X132588875Y-91307000D01*
X132470825Y-91576122D01*
X125738072Y-91576122D01*
X125738072Y-90783878D01*
X132470825Y-90783878D01*
X132588875Y-91053000D01*
X134033000Y-91053000D01*
X134033000Y-89608400D01*
X134287000Y-89608400D01*
X134287000Y-91053000D01*
X135731125Y-91053000D01*
X135849175Y-90783878D01*
X135784575Y-90570906D01*
X135634531Y-90265671D01*
X135427822Y-89995573D01*
X135172391Y-89770992D01*
X134878054Y-89600558D01*
X134556123Y-89490821D01*
X134287000Y-89608400D01*
X134033000Y-89608400D01*
X133763877Y-89490821D01*
X133441946Y-89600558D01*
X133147609Y-89770992D01*
X132892178Y-89995573D01*
X132685469Y-90265671D01*
X132535425Y-90570906D01*
X132470825Y-90783878D01*
X125738072Y-90783878D01*
X125738072Y-90080000D01*
X125725812Y-89955518D01*
X125689502Y-89835820D01*
X125630537Y-89725506D01*
X125551185Y-89628815D01*
X125454494Y-89549463D01*
X125344180Y-89490498D01*
X125224482Y-89454188D01*
X125100000Y-89441928D01*
X122900000Y-89441928D01*
X122775518Y-89454188D01*
X122655820Y-89490498D01*
X122545506Y-89549463D01*
X122448815Y-89628815D01*
X122369463Y-89725506D01*
X122310498Y-89835820D01*
X122274188Y-89955518D01*
X122261928Y-90080000D01*
X118370355Y-90080000D01*
X118389502Y-90044180D01*
X118425812Y-89924482D01*
X118438072Y-89800000D01*
X118438072Y-88750000D01*
X143361928Y-88750000D01*
X143361928Y-91250000D01*
X143374188Y-91374482D01*
X143410498Y-91494180D01*
X143469463Y-91604494D01*
X143548815Y-91701185D01*
X143645506Y-91780537D01*
X143755820Y-91839502D01*
X143875518Y-91875812D01*
X144000000Y-91888072D01*
X146500000Y-91888072D01*
X146624482Y-91875812D01*
X146744180Y-91839502D01*
X146854494Y-91780537D01*
X146951185Y-91701185D01*
X147030537Y-91604494D01*
X147089502Y-91494180D01*
X147125812Y-91374482D01*
X147138072Y-91250000D01*
X147138072Y-88750000D01*
X147125812Y-88625518D01*
X147089502Y-88505820D01*
X147030537Y-88395506D01*
X146951185Y-88298815D01*
X146854494Y-88219463D01*
X146744180Y-88160498D01*
X146624482Y-88124188D01*
X146500000Y-88111928D01*
X144000000Y-88111928D01*
X143875518Y-88124188D01*
X143755820Y-88160498D01*
X143645506Y-88219463D01*
X143548815Y-88298815D01*
X143469463Y-88395506D01*
X143410498Y-88505820D01*
X143374188Y-88625518D01*
X143361928Y-88750000D01*
X118438072Y-88750000D01*
X118438072Y-88200000D01*
X118425812Y-88075518D01*
X118389502Y-87955820D01*
X118330537Y-87845506D01*
X118251185Y-87748815D01*
X118154494Y-87669463D01*
X118044180Y-87610498D01*
X117924482Y-87574188D01*
X117800000Y-87561928D01*
X116200000Y-87561928D01*
X116075518Y-87574188D01*
X115955820Y-87610498D01*
X115845506Y-87669463D01*
X115748815Y-87748815D01*
X115669463Y-87845506D01*
X115610498Y-87955820D01*
X115574188Y-88075518D01*
X115561928Y-88200000D01*
X50660000Y-88200000D01*
X50660000Y-81800000D01*
X58241928Y-81800000D01*
X58241928Y-84200000D01*
X58254188Y-84324482D01*
X58290498Y-84444180D01*
X58349463Y-84554494D01*
X58428815Y-84651185D01*
X58525506Y-84730537D01*
X58635820Y-84789502D01*
X58755518Y-84825812D01*
X58880000Y-84838072D01*
X61280000Y-84838072D01*
X61404482Y-84825812D01*
X61524180Y-84789502D01*
X61634494Y-84730537D01*
X61731185Y-84651185D01*
X61810537Y-84554494D01*
X61869502Y-84444180D01*
X61905812Y-84324482D01*
X61918072Y-84200000D01*
X61918072Y-81800000D01*
X78161928Y-81800000D01*
X78161928Y-84200000D01*
X78174188Y-84324482D01*
X78210498Y-84444180D01*
X78269463Y-84554494D01*
X78348815Y-84651185D01*
X78445506Y-84730537D01*
X78555820Y-84789502D01*
X78675518Y-84825812D01*
X78800000Y-84838072D01*
X81200000Y-84838072D01*
X81324482Y-84825812D01*
X81444180Y-84789502D01*
X81554494Y-84730537D01*
X81651185Y-84651185D01*
X81730537Y-84554494D01*
X81789502Y-84444180D01*
X81825812Y-84324482D01*
X81838072Y-84200000D01*
X81838072Y-81800000D01*
X98161928Y-81800000D01*
X98161928Y-84200000D01*
X98174188Y-84324482D01*
X98210498Y-84444180D01*
X98269463Y-84554494D01*
X98348815Y-84651185D01*
X98445506Y-84730537D01*
X98555820Y-84789502D01*
X98675518Y-84825812D01*
X98800000Y-84838072D01*
X101200000Y-84838072D01*
X101324482Y-84825812D01*
X101444180Y-84789502D01*
X101554494Y-84730537D01*
X101651185Y-84651185D01*
X101730537Y-84554494D01*
X101789502Y-84444180D01*
X101825812Y-84324482D01*
X101838072Y-84200000D01*
X101838072Y-83992702D01*
X110186903Y-83992702D01*
X110258486Y-84236671D01*
X110513996Y-84357571D01*
X110788184Y-84426300D01*
X111070512Y-84440217D01*
X111350130Y-84398787D01*
X111616292Y-84303603D01*
X111741514Y-84236671D01*
X111813097Y-83992702D01*
X111000000Y-83179605D01*
X110186903Y-83992702D01*
X101838072Y-83992702D01*
X101838072Y-83070512D01*
X109559783Y-83070512D01*
X109601213Y-83350130D01*
X109696397Y-83616292D01*
X109763329Y-83741514D01*
X110007298Y-83813097D01*
X110820395Y-83000000D01*
X111179605Y-83000000D01*
X111992702Y-83813097D01*
X112236671Y-83741514D01*
X112357571Y-83486004D01*
X112426300Y-83211816D01*
X112440217Y-82929488D01*
X112398787Y-82649870D01*
X112303603Y-82383708D01*
X112236671Y-82258486D01*
X111992702Y-82186903D01*
X111179605Y-83000000D01*
X110820395Y-83000000D01*
X110007298Y-82186903D01*
X109763329Y-82258486D01*
X109642429Y-82513996D01*
X109573700Y-82788184D01*
X109559783Y-83070512D01*
X101838072Y-83070512D01*
X101838072Y-81800000D01*
X101825812Y-81675518D01*
X101789502Y-81555820D01*
X101730537Y-81445506D01*
X101651185Y-81348815D01*
X101554494Y-81269463D01*
X101444180Y-81210498D01*
X101324482Y-81174188D01*
X101200000Y-81161928D01*
X98800000Y-81161928D01*
X98675518Y-81174188D01*
X98555820Y-81210498D01*
X98445506Y-81269463D01*
X98348815Y-81348815D01*
X98269463Y-81445506D01*
X98210498Y-81555820D01*
X98174188Y-81675518D01*
X98161928Y-81800000D01*
X81838072Y-81800000D01*
X81825812Y-81675518D01*
X81789502Y-81555820D01*
X81730537Y-81445506D01*
X81651185Y-81348815D01*
X81554494Y-81269463D01*
X81444180Y-81210498D01*
X81324482Y-81174188D01*
X81200000Y-81161928D01*
X78800000Y-81161928D01*
X78675518Y-81174188D01*
X78555820Y-81210498D01*
X78445506Y-81269463D01*
X78348815Y-81348815D01*
X78269463Y-81445506D01*
X78210498Y-81555820D01*
X78174188Y-81675518D01*
X78161928Y-81800000D01*
X61918072Y-81800000D01*
X61905812Y-81675518D01*
X61869502Y-81555820D01*
X61810537Y-81445506D01*
X61731185Y-81348815D01*
X61634494Y-81269463D01*
X61524180Y-81210498D01*
X61404482Y-81174188D01*
X61280000Y-81161928D01*
X58880000Y-81161928D01*
X58755518Y-81174188D01*
X58635820Y-81210498D01*
X58525506Y-81269463D01*
X58428815Y-81348815D01*
X58349463Y-81445506D01*
X58290498Y-81555820D01*
X58254188Y-81675518D01*
X58241928Y-81800000D01*
X50660000Y-81800000D01*
X50660000Y-79700000D01*
X109561928Y-79700000D01*
X109561928Y-81300000D01*
X109574188Y-81424482D01*
X109610498Y-81544180D01*
X109669463Y-81654494D01*
X109748815Y-81751185D01*
X109845506Y-81830537D01*
X109955820Y-81889502D01*
X110075518Y-81925812D01*
X110200000Y-81938072D01*
X110207215Y-81938072D01*
X110186903Y-82007298D01*
X111000000Y-82820395D01*
X111780395Y-82040000D01*
X115357319Y-82040000D01*
X115387970Y-82351204D01*
X115478745Y-82650449D01*
X115626155Y-82926235D01*
X115824537Y-83167963D01*
X116066265Y-83366345D01*
X116342051Y-83513755D01*
X116641296Y-83604530D01*
X116874514Y-83627500D01*
X117125486Y-83627500D01*
X117358704Y-83604530D01*
X117657949Y-83513755D01*
X117933735Y-83366345D01*
X118175463Y-83167963D01*
X118373845Y-82926235D01*
X118521255Y-82650449D01*
X118612030Y-82351204D01*
X118639242Y-82074916D01*
X144630000Y-82074916D01*
X144630000Y-82325084D01*
X144678805Y-82570445D01*
X144774541Y-82801571D01*
X144913527Y-83009578D01*
X145090422Y-83186473D01*
X145298429Y-83325459D01*
X145529555Y-83421195D01*
X145774916Y-83470000D01*
X146025084Y-83470000D01*
X146270445Y-83421195D01*
X146501571Y-83325459D01*
X146709578Y-83186473D01*
X146886473Y-83009578D01*
X147025459Y-82801571D01*
X147121195Y-82570445D01*
X147170000Y-82325084D01*
X147170000Y-82074916D01*
X147121195Y-81829555D01*
X147025459Y-81598429D01*
X146886473Y-81390422D01*
X146709578Y-81213527D01*
X146501571Y-81074541D01*
X146270445Y-80978805D01*
X146025084Y-80930000D01*
X145774916Y-80930000D01*
X145529555Y-80978805D01*
X145298429Y-81074541D01*
X145090422Y-81213527D01*
X144913527Y-81390422D01*
X144774541Y-81598429D01*
X144678805Y-81829555D01*
X144630000Y-82074916D01*
X118639242Y-82074916D01*
X118642681Y-82040000D01*
X118612030Y-81728796D01*
X118521255Y-81429551D01*
X118373845Y-81153765D01*
X118175463Y-80912037D01*
X117996101Y-80764837D01*
X118181315Y-80609437D01*
X118289288Y-80474916D01*
X139530000Y-80474916D01*
X139530000Y-80725084D01*
X139578805Y-80970445D01*
X139674541Y-81201571D01*
X139813527Y-81409578D01*
X139990422Y-81586473D01*
X140198429Y-81725459D01*
X140429555Y-81821195D01*
X140674916Y-81870000D01*
X140925084Y-81870000D01*
X141170445Y-81821195D01*
X141401571Y-81725459D01*
X141609578Y-81586473D01*
X141786473Y-81409578D01*
X141925459Y-81201571D01*
X142021195Y-80970445D01*
X142070000Y-80725084D01*
X142070000Y-80474916D01*
X142021195Y-80229555D01*
X141925459Y-79998429D01*
X141786473Y-79790422D01*
X141609578Y-79613527D01*
X141401571Y-79474541D01*
X141170445Y-79378805D01*
X140925084Y-79330000D01*
X140674916Y-79330000D01*
X140429555Y-79378805D01*
X140198429Y-79474541D01*
X139990422Y-79613527D01*
X139813527Y-79790422D01*
X139674541Y-79998429D01*
X139578805Y-80229555D01*
X139530000Y-80474916D01*
X118289288Y-80474916D01*
X118375969Y-80366923D01*
X118519571Y-80091094D01*
X118590563Y-79872980D01*
X118470594Y-79627000D01*
X117127000Y-79627000D01*
X117127000Y-79647000D01*
X116873000Y-79647000D01*
X116873000Y-79627000D01*
X115529406Y-79627000D01*
X115409437Y-79872980D01*
X115480429Y-80091094D01*
X115624031Y-80366923D01*
X115818685Y-80609437D01*
X116003899Y-80764837D01*
X115824537Y-80912037D01*
X115626155Y-81153765D01*
X115478745Y-81429551D01*
X115387970Y-81728796D01*
X115357319Y-82040000D01*
X111780395Y-82040000D01*
X111813097Y-82007298D01*
X111792785Y-81938072D01*
X111800000Y-81938072D01*
X111924482Y-81925812D01*
X112044180Y-81889502D01*
X112154494Y-81830537D01*
X112251185Y-81751185D01*
X112330537Y-81654494D01*
X112389502Y-81544180D01*
X112425812Y-81424482D01*
X112438072Y-81300000D01*
X112438072Y-79700000D01*
X112425812Y-79575518D01*
X112389502Y-79455820D01*
X112330537Y-79345506D01*
X112251185Y-79248815D01*
X112154494Y-79169463D01*
X112044180Y-79110498D01*
X111924482Y-79074188D01*
X111800000Y-79061928D01*
X110200000Y-79061928D01*
X110075518Y-79074188D01*
X109955820Y-79110498D01*
X109845506Y-79169463D01*
X109748815Y-79248815D01*
X109669463Y-79345506D01*
X109610498Y-79455820D01*
X109574188Y-79575518D01*
X109561928Y-79700000D01*
X50660000Y-79700000D01*
X50660000Y-70900000D01*
X56261928Y-70900000D01*
X56261928Y-73100000D01*
X56274188Y-73224482D01*
X56310498Y-73344180D01*
X56369463Y-73454494D01*
X56448815Y-73551185D01*
X56545506Y-73630537D01*
X56655820Y-73689502D01*
X56775518Y-73725812D01*
X56900000Y-73738072D01*
X59100000Y-73738072D01*
X59224482Y-73725812D01*
X59344180Y-73689502D01*
X59454494Y-73630537D01*
X59551185Y-73551185D01*
X59630537Y-73454494D01*
X59689502Y-73344180D01*
X59725812Y-73224482D01*
X59738072Y-73100000D01*
X59738072Y-71829117D01*
X66425000Y-71829117D01*
X66425000Y-72170883D01*
X66491675Y-72506081D01*
X66622463Y-72821831D01*
X66812337Y-73105998D01*
X67054002Y-73347663D01*
X67338169Y-73537537D01*
X67653919Y-73668325D01*
X67989117Y-73735000D01*
X68330883Y-73735000D01*
X68666081Y-73668325D01*
X68981831Y-73537537D01*
X69265998Y-73347663D01*
X69507663Y-73105998D01*
X69697537Y-72821831D01*
X69828325Y-72506081D01*
X69871361Y-72289721D01*
X71865000Y-72289721D01*
X71865000Y-72710279D01*
X71947047Y-73122756D01*
X72107988Y-73511302D01*
X72341637Y-73860983D01*
X72639017Y-74158363D01*
X72988698Y-74392012D01*
X73377244Y-74552953D01*
X73789721Y-74635000D01*
X74210279Y-74635000D01*
X74622756Y-74552953D01*
X75011302Y-74392012D01*
X75360983Y-74158363D01*
X75658363Y-73860983D01*
X75892012Y-73511302D01*
X75929627Y-73420491D01*
X80265000Y-73420491D01*
X80285764Y-73631308D01*
X80367818Y-73901807D01*
X80501068Y-74151100D01*
X80680392Y-74369607D01*
X80898899Y-74548932D01*
X81148192Y-74682182D01*
X81418691Y-74764236D01*
X81700000Y-74791943D01*
X81981308Y-74764236D01*
X82028238Y-74750000D01*
X83708057Y-74750000D01*
X83735764Y-75031309D01*
X83817818Y-75301808D01*
X83951068Y-75551101D01*
X84130392Y-75769608D01*
X84348899Y-75948932D01*
X84598192Y-76082182D01*
X84868691Y-76164236D01*
X85079508Y-76185000D01*
X87920492Y-76185000D01*
X88131309Y-76164236D01*
X88401808Y-76082182D01*
X88541528Y-76007500D01*
X115361928Y-76007500D01*
X115361928Y-77912500D01*
X115374188Y-78036982D01*
X115410498Y-78156680D01*
X115469463Y-78266994D01*
X115548815Y-78363685D01*
X115645506Y-78443037D01*
X115737219Y-78492059D01*
X115624031Y-78633077D01*
X115480429Y-78908906D01*
X115409437Y-79127020D01*
X115529406Y-79373000D01*
X116873000Y-79373000D01*
X116873000Y-79353000D01*
X117127000Y-79353000D01*
X117127000Y-79373000D01*
X118470594Y-79373000D01*
X118590563Y-79127020D01*
X118519571Y-78908906D01*
X118375969Y-78633077D01*
X118262781Y-78492059D01*
X118354494Y-78443037D01*
X118451185Y-78363685D01*
X118530537Y-78266994D01*
X118589502Y-78156680D01*
X118625812Y-78036982D01*
X118638072Y-77912500D01*
X118638072Y-76058665D01*
X138105000Y-76058665D01*
X138105000Y-76341335D01*
X138160147Y-76618574D01*
X138268320Y-76879727D01*
X138425363Y-77114759D01*
X138625241Y-77314637D01*
X138860273Y-77471680D01*
X139121426Y-77579853D01*
X139398665Y-77635000D01*
X139681335Y-77635000D01*
X139958574Y-77579853D01*
X140219727Y-77471680D01*
X140454759Y-77314637D01*
X140654637Y-77114759D01*
X140811680Y-76879727D01*
X140919853Y-76618574D01*
X140975000Y-76341335D01*
X140975000Y-76058665D01*
X145725000Y-76058665D01*
X145725000Y-76341335D01*
X145780147Y-76618574D01*
X145888320Y-76879727D01*
X146045363Y-77114759D01*
X146245241Y-77314637D01*
X146480273Y-77471680D01*
X146741426Y-77579853D01*
X147018665Y-77635000D01*
X147301335Y-77635000D01*
X147578574Y-77579853D01*
X147839727Y-77471680D01*
X148074759Y-77314637D01*
X148274637Y-77114759D01*
X148431680Y-76879727D01*
X148539853Y-76618574D01*
X148595000Y-76341335D01*
X148595000Y-76058665D01*
X148539853Y-75781426D01*
X148431680Y-75520273D01*
X148274637Y-75285241D01*
X148074759Y-75085363D01*
X147839727Y-74928320D01*
X147578574Y-74820147D01*
X147301335Y-74765000D01*
X147018665Y-74765000D01*
X146741426Y-74820147D01*
X146480273Y-74928320D01*
X146245241Y-75085363D01*
X146045363Y-75285241D01*
X145888320Y-75520273D01*
X145780147Y-75781426D01*
X145725000Y-76058665D01*
X140975000Y-76058665D01*
X140919853Y-75781426D01*
X140811680Y-75520273D01*
X140654637Y-75285241D01*
X140454759Y-75085363D01*
X140219727Y-74928320D01*
X139958574Y-74820147D01*
X139681335Y-74765000D01*
X139398665Y-74765000D01*
X139121426Y-74820147D01*
X138860273Y-74928320D01*
X138625241Y-75085363D01*
X138425363Y-75285241D01*
X138268320Y-75520273D01*
X138160147Y-75781426D01*
X138105000Y-76058665D01*
X118638072Y-76058665D01*
X118638072Y-76007500D01*
X118625812Y-75883018D01*
X118589502Y-75763320D01*
X118530537Y-75653006D01*
X118451185Y-75556315D01*
X118354494Y-75476963D01*
X118244180Y-75417998D01*
X118124482Y-75381688D01*
X118000000Y-75369428D01*
X116000000Y-75369428D01*
X115875518Y-75381688D01*
X115755820Y-75417998D01*
X115645506Y-75476963D01*
X115548815Y-75556315D01*
X115469463Y-75653006D01*
X115410498Y-75763320D01*
X115374188Y-75883018D01*
X115361928Y-76007500D01*
X88541528Y-76007500D01*
X88651101Y-75948932D01*
X88869608Y-75769608D01*
X89048932Y-75551101D01*
X89182182Y-75301808D01*
X89264236Y-75031309D01*
X89291943Y-74750000D01*
X89264236Y-74468691D01*
X89182182Y-74198192D01*
X89048932Y-73948899D01*
X88869608Y-73730392D01*
X88651101Y-73551068D01*
X88401808Y-73417818D01*
X88131309Y-73335764D01*
X87920492Y-73315000D01*
X85079508Y-73315000D01*
X84868691Y-73335764D01*
X84598192Y-73417818D01*
X84348899Y-73551068D01*
X84130392Y-73730392D01*
X83951068Y-73948899D01*
X83817818Y-74198192D01*
X83735764Y-74468691D01*
X83708057Y-74750000D01*
X82028238Y-74750000D01*
X82251807Y-74682182D01*
X82501100Y-74548932D01*
X82719607Y-74369608D01*
X82898932Y-74151101D01*
X83032182Y-73901808D01*
X83114236Y-73631309D01*
X83135000Y-73420492D01*
X83135000Y-72289721D01*
X95865000Y-72289721D01*
X95865000Y-72710279D01*
X95947047Y-73122756D01*
X96107988Y-73511302D01*
X96341637Y-73860983D01*
X96639017Y-74158363D01*
X96988698Y-74392012D01*
X97377244Y-74552953D01*
X97789721Y-74635000D01*
X98210279Y-74635000D01*
X98622756Y-74552953D01*
X99011302Y-74392012D01*
X99360983Y-74158363D01*
X99658363Y-73860983D01*
X99892012Y-73511302D01*
X100052953Y-73122756D01*
X100135000Y-72710279D01*
X100135000Y-72289721D01*
X100052953Y-71877244D01*
X99892012Y-71488698D01*
X99658363Y-71139017D01*
X99360983Y-70841637D01*
X99011302Y-70607988D01*
X98622756Y-70447047D01*
X98210279Y-70365000D01*
X97789721Y-70365000D01*
X97377244Y-70447047D01*
X96988698Y-70607988D01*
X96639017Y-70841637D01*
X96341637Y-71139017D01*
X96107988Y-71488698D01*
X95947047Y-71877244D01*
X95865000Y-72289721D01*
X83135000Y-72289721D01*
X83135000Y-71079508D01*
X83114236Y-70868691D01*
X83032182Y-70598192D01*
X82898932Y-70348899D01*
X82719608Y-70130392D01*
X82501101Y-69951068D01*
X82251808Y-69817818D01*
X81981309Y-69735764D01*
X81700000Y-69708057D01*
X81418692Y-69735764D01*
X81148193Y-69817818D01*
X80898900Y-69951068D01*
X80680393Y-70130392D01*
X80501069Y-70348899D01*
X80367819Y-70598192D01*
X80285765Y-70868691D01*
X80265001Y-71079508D01*
X80265000Y-73420491D01*
X75929627Y-73420491D01*
X76052953Y-73122756D01*
X76135000Y-72710279D01*
X76135000Y-72289721D01*
X76052953Y-71877244D01*
X75892012Y-71488698D01*
X75658363Y-71139017D01*
X75360983Y-70841637D01*
X75011302Y-70607988D01*
X74622756Y-70447047D01*
X74210279Y-70365000D01*
X73789721Y-70365000D01*
X73377244Y-70447047D01*
X72988698Y-70607988D01*
X72639017Y-70841637D01*
X72341637Y-71139017D01*
X72107988Y-71488698D01*
X71947047Y-71877244D01*
X71865000Y-72289721D01*
X69871361Y-72289721D01*
X69895000Y-72170883D01*
X69895000Y-71829117D01*
X69828325Y-71493919D01*
X69697537Y-71178169D01*
X69507663Y-70894002D01*
X69265998Y-70652337D01*
X68981831Y-70462463D01*
X68666081Y-70331675D01*
X68330883Y-70265000D01*
X67989117Y-70265000D01*
X67653919Y-70331675D01*
X67338169Y-70462463D01*
X67054002Y-70652337D01*
X66812337Y-70894002D01*
X66622463Y-71178169D01*
X66491675Y-71493919D01*
X66425000Y-71829117D01*
X59738072Y-71829117D01*
X59738072Y-70900000D01*
X59725812Y-70775518D01*
X59689502Y-70655820D01*
X59630537Y-70545506D01*
X59551185Y-70448815D01*
X59454494Y-70369463D01*
X59344180Y-70310498D01*
X59224482Y-70274188D01*
X59100000Y-70261928D01*
X56900000Y-70261928D01*
X56775518Y-70274188D01*
X56655820Y-70310498D01*
X56545506Y-70369463D01*
X56448815Y-70448815D01*
X56369463Y-70545506D01*
X56310498Y-70655820D01*
X56274188Y-70775518D01*
X56261928Y-70900000D01*
X50660000Y-70900000D01*
X50660000Y-66779872D01*
X50765000Y-66779872D01*
X50765000Y-67220128D01*
X50850890Y-67651925D01*
X51019369Y-68058669D01*
X51263962Y-68424729D01*
X51575271Y-68736038D01*
X51941331Y-68980631D01*
X52348075Y-69149110D01*
X52779872Y-69235000D01*
X53220128Y-69235000D01*
X53651925Y-69149110D01*
X54011908Y-69000000D01*
X71861928Y-69000000D01*
X71874188Y-69124482D01*
X71910498Y-69244180D01*
X71969463Y-69354494D01*
X72048815Y-69451185D01*
X72145506Y-69530537D01*
X72255820Y-69589502D01*
X72375518Y-69625812D01*
X72500000Y-69638072D01*
X73714250Y-69635000D01*
X73873000Y-69476250D01*
X73873000Y-67627000D01*
X74127000Y-67627000D01*
X74127000Y-69476250D01*
X74285750Y-69635000D01*
X75500000Y-69638072D01*
X75624482Y-69625812D01*
X75744180Y-69589502D01*
X75854494Y-69530537D01*
X75951185Y-69451185D01*
X76030537Y-69354494D01*
X76089502Y-69244180D01*
X76125812Y-69124482D01*
X76128317Y-69099039D01*
X84008096Y-69099039D01*
X84025633Y-69181818D01*
X84136285Y-69441646D01*
X84295500Y-69674895D01*
X84497161Y-69872601D01*
X84733517Y-70027166D01*
X84995486Y-70132650D01*
X85273000Y-70185000D01*
X86373000Y-70185000D01*
X86373000Y-68877000D01*
X86627000Y-68877000D01*
X86627000Y-70185000D01*
X87727000Y-70185000D01*
X88004514Y-70132650D01*
X88266483Y-70027166D01*
X88502839Y-69872601D01*
X88704500Y-69674895D01*
X88863715Y-69441646D01*
X88974367Y-69181818D01*
X88991904Y-69099039D01*
X88937492Y-69000000D01*
X95861928Y-69000000D01*
X95874188Y-69124482D01*
X95910498Y-69244180D01*
X95969463Y-69354494D01*
X96048815Y-69451185D01*
X96145506Y-69530537D01*
X96255820Y-69589502D01*
X96375518Y-69625812D01*
X96500000Y-69638072D01*
X97714250Y-69635000D01*
X97873000Y-69476250D01*
X97873000Y-67627000D01*
X98127000Y-67627000D01*
X98127000Y-69476250D01*
X98285750Y-69635000D01*
X99500000Y-69638072D01*
X99624482Y-69625812D01*
X99744180Y-69589502D01*
X99854494Y-69530537D01*
X99951185Y-69451185D01*
X100030537Y-69354494D01*
X100089502Y-69244180D01*
X100125812Y-69124482D01*
X100138072Y-69000000D01*
X100135000Y-67785750D01*
X99976250Y-67627000D01*
X98127000Y-67627000D01*
X97873000Y-67627000D01*
X96023750Y-67627000D01*
X95865000Y-67785750D01*
X95861928Y-69000000D01*
X88937492Y-69000000D01*
X88869915Y-68877000D01*
X86627000Y-68877000D01*
X86373000Y-68877000D01*
X84130085Y-68877000D01*
X84008096Y-69099039D01*
X76128317Y-69099039D01*
X76138072Y-69000000D01*
X76136557Y-68400961D01*
X84008096Y-68400961D01*
X84130085Y-68623000D01*
X86373000Y-68623000D01*
X86373000Y-67315000D01*
X86627000Y-67315000D01*
X86627000Y-68623000D01*
X88869915Y-68623000D01*
X88991904Y-68400961D01*
X88974367Y-68318182D01*
X88863715Y-68058354D01*
X88704500Y-67825105D01*
X88502839Y-67627399D01*
X88266483Y-67472834D01*
X88085601Y-67400000D01*
X115261928Y-67400000D01*
X115261928Y-69600000D01*
X115274188Y-69724482D01*
X115310498Y-69844180D01*
X115369463Y-69954494D01*
X115448815Y-70051185D01*
X115545506Y-70130537D01*
X115655820Y-70189502D01*
X115775518Y-70225812D01*
X115900000Y-70238072D01*
X118100000Y-70238072D01*
X118224482Y-70225812D01*
X118344180Y-70189502D01*
X118454494Y-70130537D01*
X118551185Y-70051185D01*
X118630537Y-69954494D01*
X118689502Y-69844180D01*
X118725812Y-69724482D01*
X118738072Y-69600000D01*
X118738072Y-68329117D01*
X125425000Y-68329117D01*
X125425000Y-68670883D01*
X125491675Y-69006081D01*
X125622463Y-69321831D01*
X125812337Y-69605998D01*
X126054002Y-69847663D01*
X126338169Y-70037537D01*
X126653919Y-70168325D01*
X126989117Y-70235000D01*
X127330883Y-70235000D01*
X127666081Y-70168325D01*
X127981831Y-70037537D01*
X128265998Y-69847663D01*
X128507663Y-69605998D01*
X128511670Y-69600000D01*
X139461928Y-69600000D01*
X139474188Y-69724482D01*
X139510498Y-69844180D01*
X139569463Y-69954494D01*
X139648815Y-70051185D01*
X139745506Y-70130537D01*
X139855820Y-70189502D01*
X139874127Y-70195056D01*
X139807688Y-70261495D01*
X139639701Y-70512905D01*
X139523989Y-70792257D01*
X139465000Y-71088816D01*
X139465000Y-71391184D01*
X139523989Y-71687743D01*
X139639701Y-71967095D01*
X139807688Y-72218505D01*
X140021495Y-72432312D01*
X140272905Y-72600299D01*
X140552257Y-72716011D01*
X140848816Y-72775000D01*
X141151184Y-72775000D01*
X141447743Y-72716011D01*
X141727095Y-72600299D01*
X141978505Y-72432312D01*
X142192312Y-72218505D01*
X142360299Y-71967095D01*
X142476011Y-71687743D01*
X142535000Y-71391184D01*
X142535000Y-71088816D01*
X142476011Y-70792257D01*
X142360299Y-70512905D01*
X142192312Y-70261495D01*
X142125873Y-70195056D01*
X142144180Y-70189502D01*
X142254494Y-70130537D01*
X142351185Y-70051185D01*
X142430537Y-69954494D01*
X142489502Y-69844180D01*
X142525812Y-69724482D01*
X142538072Y-69600000D01*
X142535000Y-68985750D01*
X142376250Y-68827000D01*
X141127000Y-68827000D01*
X141127000Y-68847000D01*
X140873000Y-68847000D01*
X140873000Y-68827000D01*
X139623750Y-68827000D01*
X139465000Y-68985750D01*
X139461928Y-69600000D01*
X128511670Y-69600000D01*
X128697537Y-69321831D01*
X128828325Y-69006081D01*
X128895000Y-68670883D01*
X128895000Y-68329117D01*
X128828325Y-67993919D01*
X128748002Y-67800000D01*
X139461928Y-67800000D01*
X139465000Y-68414250D01*
X139623750Y-68573000D01*
X140873000Y-68573000D01*
X140873000Y-67323750D01*
X141127000Y-67323750D01*
X141127000Y-68573000D01*
X142376250Y-68573000D01*
X142535000Y-68414250D01*
X142538072Y-67800000D01*
X142525812Y-67675518D01*
X142489502Y-67555820D01*
X142430537Y-67445506D01*
X142351185Y-67348815D01*
X142254494Y-67269463D01*
X142144180Y-67210498D01*
X142024482Y-67174188D01*
X141900000Y-67161928D01*
X141285750Y-67165000D01*
X141127000Y-67323750D01*
X140873000Y-67323750D01*
X140714250Y-67165000D01*
X140100000Y-67161928D01*
X139975518Y-67174188D01*
X139855820Y-67210498D01*
X139745506Y-67269463D01*
X139648815Y-67348815D01*
X139569463Y-67445506D01*
X139510498Y-67555820D01*
X139474188Y-67675518D01*
X139461928Y-67800000D01*
X128748002Y-67800000D01*
X128697537Y-67678169D01*
X128507663Y-67394002D01*
X128265998Y-67152337D01*
X127981831Y-66962463D01*
X127666081Y-66831675D01*
X127405650Y-66779872D01*
X144765000Y-66779872D01*
X144765000Y-67220128D01*
X144850890Y-67651925D01*
X145019369Y-68058669D01*
X145263962Y-68424729D01*
X145575271Y-68736038D01*
X145941331Y-68980631D01*
X146348075Y-69149110D01*
X146779872Y-69235000D01*
X147220128Y-69235000D01*
X147651925Y-69149110D01*
X148058669Y-68980631D01*
X148424729Y-68736038D01*
X148736038Y-68424729D01*
X148980631Y-68058669D01*
X149149110Y-67651925D01*
X149235000Y-67220128D01*
X149235000Y-66779872D01*
X149149110Y-66348075D01*
X148980631Y-65941331D01*
X148736038Y-65575271D01*
X148424729Y-65263962D01*
X148058669Y-65019369D01*
X147651925Y-64850890D01*
X147220128Y-64765000D01*
X146779872Y-64765000D01*
X146348075Y-64850890D01*
X145941331Y-65019369D01*
X145575271Y-65263962D01*
X145263962Y-65575271D01*
X145019369Y-65941331D01*
X144850890Y-66348075D01*
X144765000Y-66779872D01*
X127405650Y-66779872D01*
X127330883Y-66765000D01*
X126989117Y-66765000D01*
X126653919Y-66831675D01*
X126338169Y-66962463D01*
X126054002Y-67152337D01*
X125812337Y-67394002D01*
X125622463Y-67678169D01*
X125491675Y-67993919D01*
X125425000Y-68329117D01*
X118738072Y-68329117D01*
X118738072Y-67400000D01*
X118725812Y-67275518D01*
X118689502Y-67155820D01*
X118630537Y-67045506D01*
X118551185Y-66948815D01*
X118454494Y-66869463D01*
X118344180Y-66810498D01*
X118224482Y-66774188D01*
X118100000Y-66761928D01*
X115900000Y-66761928D01*
X115775518Y-66774188D01*
X115655820Y-66810498D01*
X115545506Y-66869463D01*
X115448815Y-66948815D01*
X115369463Y-67045506D01*
X115310498Y-67155820D01*
X115274188Y-67275518D01*
X115261928Y-67400000D01*
X88085601Y-67400000D01*
X88004514Y-67367350D01*
X87727000Y-67315000D01*
X86627000Y-67315000D01*
X86373000Y-67315000D01*
X85273000Y-67315000D01*
X84995486Y-67367350D01*
X84733517Y-67472834D01*
X84497161Y-67627399D01*
X84295500Y-67825105D01*
X84136285Y-68058354D01*
X84025633Y-68318182D01*
X84008096Y-68400961D01*
X76136557Y-68400961D01*
X76135000Y-67785750D01*
X75976250Y-67627000D01*
X74127000Y-67627000D01*
X73873000Y-67627000D01*
X72023750Y-67627000D01*
X71865000Y-67785750D01*
X71861928Y-69000000D01*
X54011908Y-69000000D01*
X54058669Y-68980631D01*
X54424729Y-68736038D01*
X54736038Y-68424729D01*
X54980631Y-68058669D01*
X55149110Y-67651925D01*
X55235000Y-67220128D01*
X55235000Y-66779872D01*
X55149110Y-66348075D01*
X55004933Y-66000000D01*
X71861928Y-66000000D01*
X71865000Y-67214250D01*
X72023750Y-67373000D01*
X73873000Y-67373000D01*
X73873000Y-65523750D01*
X74127000Y-65523750D01*
X74127000Y-67373000D01*
X75976250Y-67373000D01*
X76135000Y-67214250D01*
X76138072Y-66000000D01*
X95861928Y-66000000D01*
X95865000Y-67214250D01*
X96023750Y-67373000D01*
X97873000Y-67373000D01*
X97873000Y-65523750D01*
X98127000Y-65523750D01*
X98127000Y-67373000D01*
X99976250Y-67373000D01*
X100135000Y-67214250D01*
X100138072Y-66000000D01*
X100125812Y-65875518D01*
X100089502Y-65755820D01*
X100030537Y-65645506D01*
X99951185Y-65548815D01*
X99854494Y-65469463D01*
X99744180Y-65410498D01*
X99624482Y-65374188D01*
X99500000Y-65361928D01*
X98285750Y-65365000D01*
X98127000Y-65523750D01*
X97873000Y-65523750D01*
X97714250Y-65365000D01*
X96500000Y-65361928D01*
X96375518Y-65374188D01*
X96255820Y-65410498D01*
X96145506Y-65469463D01*
X96048815Y-65548815D01*
X95969463Y-65645506D01*
X95910498Y-65755820D01*
X95874188Y-65875518D01*
X95861928Y-66000000D01*
X76138072Y-66000000D01*
X76125812Y-65875518D01*
X76089502Y-65755820D01*
X76030537Y-65645506D01*
X75951185Y-65548815D01*
X75854494Y-65469463D01*
X75744180Y-65410498D01*
X75624482Y-65374188D01*
X75500000Y-65361928D01*
X74285750Y-65365000D01*
X74127000Y-65523750D01*
X73873000Y-65523750D01*
X73714250Y-65365000D01*
X72500000Y-65361928D01*
X72375518Y-65374188D01*
X72255820Y-65410498D01*
X72145506Y-65469463D01*
X72048815Y-65548815D01*
X71969463Y-65645506D01*
X71910498Y-65755820D01*
X71874188Y-65875518D01*
X71861928Y-66000000D01*
X55004933Y-66000000D01*
X54980631Y-65941331D01*
X54736038Y-65575271D01*
X54424729Y-65263962D01*
X54058669Y-65019369D01*
X53651925Y-64850890D01*
X53220128Y-64765000D01*
X52779872Y-64765000D01*
X52348075Y-64850890D01*
X51941331Y-65019369D01*
X51575271Y-65263962D01*
X51263962Y-65575271D01*
X51019369Y-65941331D01*
X50850890Y-66348075D01*
X50765000Y-66779872D01*
X50660000Y-66779872D01*
X50660000Y-64660000D01*
X149340000Y-64660000D01*
X149340001Y-124340000D01*
G37*
%TD.AperFunction*%
%TD*%
M02*
