M48
; DRILL file {KiCad 5.1.9-73d0e3b20d~88~ubuntu20.04.1} date Mon Jan  4 22:42:42 2021
; FORMAT={-:-/ absolute / inch / decimal}
; #@! TF.CreationDate,2021-01-04T22:42:42-05:00
; #@! TF.GenerationSoftware,Kicad,Pcbnew,5.1.9-73d0e3b20d~88~ubuntu20.04.1
; #@! TF.FileFunction,Plated,1,2,PTH
FMAT,2
INCH
T1C0.0280
T2C0.0315
T3C0.0354
T4C0.0433
T5C0.0472
T6C0.0512
T7C0.0669
%
G90
G05
T1
X5.5433Y-3.1732
X5.5472Y-4.248
X5.7441Y-3.2362
X5.748Y-4.311
T2
X4.3701Y-3.1693
X4.3701Y-3.2677
X4.3701Y-3.937
X4.3701Y-4.0354
X4.6063Y-3.5039
X4.6063Y-3.6024
X4.6063Y-3.7598
X4.6063Y-3.8583
X5.4937Y-3.0
X5.4976Y-4.4882
X5.7937Y-3.0
X5.7976Y-4.4882
T3
X5.5512Y-2.7047
X5.5512Y-2.8047
X5.5512Y-4.685
X5.5512Y-4.785
T4
X2.2835Y-2.8346
X2.2835Y-4.7638
X2.6835Y-2.8346
X2.6835Y-4.7638
X4.6063Y-2.6969
X4.6063Y-3.0299
X4.6063Y-3.1299
X4.6063Y-3.2299
X4.6063Y-4.1323
X4.6063Y-4.2323
X4.6063Y-4.3323
X4.6063Y-4.6654
X4.8819Y-3.5898
X4.8819Y-3.7708
X5.0063Y-2.6969
X5.0063Y-4.6654
X5.2819Y-3.5898
X5.2819Y-3.7708
T5
X2.3654Y-3.2677
X2.3654Y-3.563
X2.3654Y-4.0748
X2.3654Y-4.3701
X3.1496Y-3.2677
X3.1496Y-3.563
X3.1496Y-4.0748
X3.1496Y-4.3701
X3.937Y-3.2677
X3.937Y-3.563
X3.937Y-4.0748
X3.937Y-4.3701
T6
X5.7185Y-3.5433
X5.7185Y-3.7402
X5.7185Y-3.937
T7
X2.9134Y-2.6575
X2.9134Y-2.8543
X3.8583Y-2.6575
X3.8583Y-2.8543
T2
G00X3.2165Y-2.8012
M15
G01X3.2165Y-2.8878
M16
G05
G00X3.4488Y-2.7067
M15
G01X3.3622Y-2.7067
M16
G05
G00X3.4587Y-2.9429
M15
G01X3.3524Y-2.9429
M16
G05
T0
M30
