%TF.GenerationSoftware,KiCad,Pcbnew,5.1.10-88a1d61d58~88~ubuntu20.04.1*%
%TF.CreationDate,2021-05-07T21:20:49-04:00*%
%TF.ProjectId,mfosish_ww_supply,6d666f73-6973-4685-9f77-775f73757070,rev?*%
%TF.SameCoordinates,Original*%
%TF.FileFunction,Copper,L1,Top*%
%TF.FilePolarity,Positive*%
%FSLAX46Y46*%
G04 Gerber Fmt 4.6, Leading zero omitted, Abs format (unit mm)*
G04 Created by KiCad (PCBNEW 5.1.10-88a1d61d58~88~ubuntu20.04.1) date 2021-05-07 21:20:49*
%MOMM*%
%LPD*%
G01*
G04 APERTURE LIST*
%TA.AperFunction,ComponentPad*%
%ADD10O,2.200000X2.200000*%
%TD*%
%TA.AperFunction,ComponentPad*%
%ADD11R,2.200000X2.200000*%
%TD*%
%TA.AperFunction,ComponentPad*%
%ADD12C,1.600000*%
%TD*%
%TA.AperFunction,ComponentPad*%
%ADD13O,1.600000X1.600000*%
%TD*%
%TA.AperFunction,ComponentPad*%
%ADD14C,2.200000*%
%TD*%
%TA.AperFunction,ComponentPad*%
%ADD15O,1.600000X3.800000*%
%TD*%
%TA.AperFunction,ComponentPad*%
%ADD16O,4.300000X1.600000*%
%TD*%
%TA.AperFunction,ComponentPad*%
%ADD17O,3.800000X1.600000*%
%TD*%
%TA.AperFunction,ComponentPad*%
%ADD18R,1.600000X1.600000*%
%TD*%
%TA.AperFunction,ComponentPad*%
%ADD19C,3.000000*%
%TD*%
%TA.AperFunction,ComponentPad*%
%ADD20R,3.000000X3.000000*%
%TD*%
%TA.AperFunction,ComponentPad*%
%ADD21O,2.000000X1.905000*%
%TD*%
%TA.AperFunction,ComponentPad*%
%ADD22R,2.000000X1.905000*%
%TD*%
%TA.AperFunction,ComponentPad*%
%ADD23C,2.400000*%
%TD*%
%TA.AperFunction,ComponentPad*%
%ADD24R,2.400000X2.400000*%
%TD*%
%TA.AperFunction,ComponentPad*%
%ADD25C,2.500000*%
%TD*%
%TA.AperFunction,ComponentPad*%
%ADD26R,2.500000X2.500000*%
%TD*%
%TA.AperFunction,ComponentPad*%
%ADD27C,1.800000*%
%TD*%
%TA.AperFunction,ComponentPad*%
%ADD28R,1.800000X1.800000*%
%TD*%
%TA.AperFunction,Conductor*%
%ADD29C,2.000000*%
%TD*%
%TA.AperFunction,Conductor*%
%ADD30C,0.254000*%
%TD*%
%TA.AperFunction,Conductor*%
%ADD31C,0.100000*%
%TD*%
G04 APERTURE END LIST*
D10*
%TO.P,D6,2*%
%TO.N,Net-(C10-Pad2)*%
X131620000Y-95777712D03*
D11*
%TO.P,D6,1*%
%TO.N,GND*%
X121460000Y-95777712D03*
%TD*%
D10*
%TO.P,D5,2*%
%TO.N,GND*%
X131620000Y-91180000D03*
D11*
%TO.P,D5,1*%
%TO.N,Net-(C9-Pad1)*%
X121460000Y-91180000D03*
%TD*%
D10*
%TO.P,D4,2*%
%TO.N,Net-(C2-Pad2)*%
X124620000Y-118500000D03*
D11*
%TO.P,D4,1*%
%TO.N,Net-(C10-Pad2)*%
X114460000Y-118500000D03*
%TD*%
D10*
%TO.P,D3,2*%
%TO.N,Net-(C9-Pad1)*%
X124620000Y-68500000D03*
D11*
%TO.P,D3,1*%
%TO.N,Net-(C1-Pad1)*%
X114460000Y-68500000D03*
%TD*%
D10*
%TO.P,D2,2*%
%TO.N,Net-(C2-Pad2)*%
X68160000Y-121000000D03*
D11*
%TO.P,D2,1*%
%TO.N,Net-(D1-Pad2)*%
X58000000Y-121000000D03*
%TD*%
D10*
%TO.P,D1,2*%
%TO.N,Net-(D1-Pad2)*%
X65240000Y-74160000D03*
D11*
%TO.P,D1,1*%
%TO.N,Net-(C1-Pad1)*%
X55080000Y-74160000D03*
%TD*%
D12*
%TO.P,R2,1*%
%TO.N,Net-(D8-Pad1)*%
X137100000Y-114000000D03*
D13*
%TO.P,R2,2*%
%TO.N,-12V*%
X147260000Y-114000000D03*
%TD*%
D12*
%TO.P,R1,1*%
%TO.N,Net-(D7-Pad2)*%
X137000000Y-76200000D03*
D13*
%TO.P,R1,2*%
%TO.N,+12V*%
X147160000Y-76200000D03*
%TD*%
D14*
%TO.P,F2,1*%
%TO.N,-12V*%
X144535000Y-108450000D03*
%TO.P,F2,2*%
%TO.N,Net-(C10-Pad2)*%
X139535000Y-108450000D03*
%TD*%
%TO.P,F1,1*%
%TO.N,+12V*%
X144535000Y-81145000D03*
%TO.P,F1,2*%
%TO.N,Net-(C9-Pad1)*%
X139535000Y-81145000D03*
%TD*%
D15*
%TO.P,J1,1*%
%TO.N,GND*%
X83300000Y-73330000D03*
D16*
%TO.P,J1,3*%
%TO.N,Net-(D1-Pad2)*%
X88100000Y-75830000D03*
D17*
%TO.P,J1,2*%
%TO.N,GND*%
X88100000Y-69830000D03*
%TD*%
D12*
%TO.P,C7,2*%
%TO.N,GND*%
X108420000Y-79200000D03*
D18*
%TO.P,C7,1*%
%TO.N,Net-(C1-Pad1)*%
X108420000Y-76700000D03*
%TD*%
D19*
%TO.P,J3,2*%
%TO.N,Net-(D1-Pad2)*%
X100800000Y-72810000D03*
D20*
%TO.P,J3,1*%
%TO.N,GND*%
X100800000Y-67810000D03*
%TD*%
D19*
%TO.P,J2,2*%
%TO.N,Net-(D1-Pad2)*%
X72860000Y-72810000D03*
D20*
%TO.P,J2,1*%
%TO.N,GND*%
X72860000Y-67810000D03*
%TD*%
D12*
%TO.P,C8,2*%
%TO.N,Net-(C2-Pad2)*%
X108420000Y-117300000D03*
D18*
%TO.P,C8,1*%
%TO.N,GND*%
X108420000Y-114800000D03*
%TD*%
D21*
%TO.P,U2,3*%
%TO.N,Net-(C10-Pad2)*%
X114460000Y-110040000D03*
%TO.P,U2,2*%
%TO.N,Net-(C2-Pad2)*%
X114460000Y-107500000D03*
D22*
%TO.P,U2,1*%
%TO.N,GND*%
X114460000Y-104960000D03*
%TD*%
D23*
%TO.P,C1,2*%
%TO.N,GND*%
X60080000Y-90500000D03*
D24*
%TO.P,C1,1*%
%TO.N,Net-(C1-Pad1)*%
X60080000Y-83000000D03*
%TD*%
D21*
%TO.P,U1,3*%
%TO.N,Net-(C9-Pad1)*%
X114460000Y-82040000D03*
%TO.P,U1,2*%
%TO.N,GND*%
X114460000Y-79500000D03*
D22*
%TO.P,U1,1*%
%TO.N,Net-(C1-Pad1)*%
X114460000Y-76960000D03*
%TD*%
D25*
%TO.P,J4,3*%
%TO.N,-12V*%
X146520000Y-100000000D03*
%TO.P,J4,2*%
%TO.N,GND*%
X146520000Y-95000000D03*
D26*
%TO.P,J4,1*%
%TO.N,+12V*%
X146520000Y-90000000D03*
%TD*%
D27*
%TO.P,D8,2*%
%TO.N,GND*%
X138460000Y-121540000D03*
D28*
%TO.P,D8,1*%
%TO.N,Net-(D8-Pad1)*%
X138460000Y-119000000D03*
%TD*%
D27*
%TO.P,D7,2*%
%TO.N,Net-(D7-Pad2)*%
X138460000Y-71240000D03*
D28*
%TO.P,D7,1*%
%TO.N,GND*%
X138460000Y-68700000D03*
%TD*%
D12*
%TO.P,C10,2*%
%TO.N,Net-(C10-Pad2)*%
X117000000Y-98000000D03*
D18*
%TO.P,C10,1*%
%TO.N,GND*%
X117000000Y-95500000D03*
%TD*%
D12*
%TO.P,C9,2*%
%TO.N,GND*%
X117000000Y-91500000D03*
D18*
%TO.P,C9,1*%
%TO.N,Net-(C9-Pad1)*%
X117000000Y-89000000D03*
%TD*%
D23*
%TO.P,C6,2*%
%TO.N,Net-(C2-Pad2)*%
X100000000Y-111000000D03*
D24*
%TO.P,C6,1*%
%TO.N,GND*%
X100000000Y-103500000D03*
%TD*%
D23*
%TO.P,C5,2*%
%TO.N,GND*%
X100000000Y-90500000D03*
D24*
%TO.P,C5,1*%
%TO.N,Net-(C1-Pad1)*%
X100000000Y-83000000D03*
%TD*%
D23*
%TO.P,C4,2*%
%TO.N,Net-(C2-Pad2)*%
X80000000Y-111000000D03*
D24*
%TO.P,C4,1*%
%TO.N,GND*%
X80000000Y-103500000D03*
%TD*%
D23*
%TO.P,C3,2*%
%TO.N,GND*%
X80000000Y-90500000D03*
D24*
%TO.P,C3,1*%
%TO.N,Net-(C1-Pad1)*%
X80000000Y-83000000D03*
%TD*%
D23*
%TO.P,C2,2*%
%TO.N,Net-(C2-Pad2)*%
X60080000Y-111000000D03*
D24*
%TO.P,C2,1*%
%TO.N,GND*%
X60080000Y-103500000D03*
%TD*%
D29*
%TO.N,Net-(C1-Pad1)*%
X60000000Y-83000000D02*
X80000000Y-83000000D01*
X114460000Y-68500000D02*
X114460000Y-76960000D01*
X55080000Y-78000000D02*
X60080000Y-83000000D01*
X55080000Y-74160000D02*
X55080000Y-78000000D01*
X99950000Y-83050000D02*
X100000000Y-83000000D01*
X80050000Y-83050000D02*
X99950000Y-83050000D01*
X80000000Y-83000000D02*
X80050000Y-83050000D01*
X106300000Y-76700000D02*
X108420000Y-76700000D01*
X100000000Y-83000000D02*
X106300000Y-76700000D01*
X114200000Y-76700000D02*
X114460000Y-76960000D01*
X108420000Y-76700000D02*
X114200000Y-76700000D01*
%TO.N,Net-(C2-Pad2)*%
X80000000Y-111000000D02*
X100000000Y-111000000D01*
X60080000Y-111000000D02*
X80000000Y-111000000D01*
X68160000Y-119500000D02*
X68160000Y-121000000D01*
X60080000Y-111420000D02*
X68160000Y-119500000D01*
X60080000Y-111000000D02*
X60080000Y-111420000D01*
X106300000Y-117300000D02*
X108420000Y-117300000D01*
X100000000Y-111000000D02*
X106300000Y-117300000D01*
X122319999Y-120800001D02*
X124620000Y-118500000D01*
X111920001Y-120800001D02*
X122319999Y-120800001D01*
X108420000Y-117300000D02*
X111920001Y-120800001D01*
X115175634Y-107500000D02*
X114460000Y-107500000D01*
X124620000Y-116944366D02*
X115175634Y-107500000D01*
X124620000Y-118500000D02*
X124620000Y-116944366D01*
%TO.N,Net-(C9-Pad1)*%
X124620000Y-74880000D02*
X117460000Y-82040000D01*
X117460000Y-82040000D02*
X114460000Y-82040000D01*
X124620000Y-68500000D02*
X124620000Y-74880000D01*
X114460000Y-82040000D02*
X114460000Y-89000000D01*
X119280000Y-89000000D02*
X121460000Y-91180000D01*
X114460000Y-89000000D02*
X119280000Y-89000000D01*
X131495000Y-81145000D02*
X121460000Y-91180000D01*
X139535000Y-81145000D02*
X131495000Y-81145000D01*
%TO.N,Net-(C10-Pad2)*%
X114460000Y-110059674D02*
X114460000Y-118500000D01*
X138360000Y-102517712D02*
X131620000Y-95777712D01*
X138360000Y-107275000D02*
X138360000Y-102517712D01*
X139535000Y-108450000D02*
X138360000Y-107275000D01*
X112259999Y-108411282D02*
X112259999Y-102740001D01*
X112259999Y-102740001D02*
X117000000Y-98000000D01*
X113888717Y-110040000D02*
X112259999Y-108411282D01*
X114460000Y-110040000D02*
X113888717Y-110040000D01*
X128597713Y-98799999D02*
X131620000Y-95777712D01*
X117799999Y-98799999D02*
X128597713Y-98799999D01*
X117000000Y-98000000D02*
X117799999Y-98799999D01*
%TO.N,Net-(D1-Pad2)*%
X62939999Y-71859999D02*
X65240000Y-74160000D01*
X53019999Y-71859999D02*
X62939999Y-71859999D01*
X52779999Y-72099999D02*
X53019999Y-71859999D01*
X52779999Y-115779999D02*
X52779999Y-72099999D01*
X58000000Y-121000000D02*
X52779999Y-115779999D01*
X71510000Y-74160000D02*
X72860000Y-72810000D01*
X65240000Y-74160000D02*
X71510000Y-74160000D01*
X84128431Y-76430010D02*
X76480010Y-76430010D01*
X76480010Y-76430010D02*
X72860000Y-72810000D01*
X84728441Y-75830000D02*
X84128431Y-76430010D01*
X88100000Y-75830000D02*
X84728441Y-75830000D01*
X97780000Y-75830000D02*
X100800000Y-72810000D01*
X88100000Y-75830000D02*
X97780000Y-75830000D01*
%TO.N,Net-(D7-Pad2)*%
X138460000Y-74740000D02*
X137000000Y-76200000D01*
X138460000Y-71240000D02*
X138460000Y-74740000D01*
%TO.N,Net-(D8-Pad1)*%
X138460000Y-115360000D02*
X137100000Y-114000000D01*
X138460000Y-119000000D02*
X138460000Y-115360000D01*
%TO.N,+12V*%
X144535000Y-78825000D02*
X147160000Y-76200000D01*
X144535000Y-81145000D02*
X144535000Y-78825000D01*
X144535000Y-88015000D02*
X146520000Y-90000000D01*
X144535000Y-81145000D02*
X144535000Y-88015000D01*
%TO.N,-12V*%
X144535000Y-111275000D02*
X147260000Y-114000000D01*
X144535000Y-108450000D02*
X144535000Y-111275000D01*
X144535000Y-101985000D02*
X146520000Y-100000000D01*
X144535000Y-108450000D02*
X144535000Y-101985000D01*
%TD*%
D30*
%TO.N,GND*%
X149340001Y-124340000D02*
X50660000Y-124340000D01*
X50660000Y-121779872D01*
X50765000Y-121779872D01*
X50765000Y-122220128D01*
X50850890Y-122651925D01*
X51019369Y-123058669D01*
X51263962Y-123424729D01*
X51575271Y-123736038D01*
X51941331Y-123980631D01*
X52348075Y-124149110D01*
X52779872Y-124235000D01*
X53220128Y-124235000D01*
X53651925Y-124149110D01*
X54058669Y-123980631D01*
X54424729Y-123736038D01*
X54736038Y-123424729D01*
X54980631Y-123058669D01*
X55149110Y-122651925D01*
X55235000Y-122220128D01*
X55235000Y-121779872D01*
X55149110Y-121348075D01*
X54980631Y-120941331D01*
X54736038Y-120575271D01*
X54424729Y-120263962D01*
X54058669Y-120019369D01*
X53651925Y-119850890D01*
X53220128Y-119765000D01*
X52779872Y-119765000D01*
X52348075Y-119850890D01*
X51941331Y-120019369D01*
X51575271Y-120263962D01*
X51263962Y-120575271D01*
X51019369Y-120941331D01*
X50850890Y-121348075D01*
X50765000Y-121779872D01*
X50660000Y-121779872D01*
X50660000Y-72099999D01*
X51137088Y-72099999D01*
X51145000Y-72180328D01*
X51144999Y-115699680D01*
X51137088Y-115779999D01*
X51144999Y-115860318D01*
X51144999Y-115860320D01*
X51168656Y-116100514D01*
X51262147Y-116408713D01*
X51413968Y-116692750D01*
X51618285Y-116941713D01*
X51680686Y-116992924D01*
X56261928Y-121574167D01*
X56261928Y-122100000D01*
X56274188Y-122224482D01*
X56310498Y-122344180D01*
X56369463Y-122454494D01*
X56448815Y-122551185D01*
X56545506Y-122630537D01*
X56655820Y-122689502D01*
X56775518Y-122725812D01*
X56900000Y-122738072D01*
X59100000Y-122738072D01*
X59224482Y-122725812D01*
X59344180Y-122689502D01*
X59454494Y-122630537D01*
X59551185Y-122551185D01*
X59630537Y-122454494D01*
X59689502Y-122344180D01*
X59725812Y-122224482D01*
X59738072Y-122100000D01*
X59738072Y-119900000D01*
X59725812Y-119775518D01*
X59689502Y-119655820D01*
X59630537Y-119545506D01*
X59551185Y-119448815D01*
X59454494Y-119369463D01*
X59344180Y-119310498D01*
X59224482Y-119274188D01*
X59100000Y-119261928D01*
X58574167Y-119261928D01*
X54414999Y-115102761D01*
X54414999Y-110819268D01*
X58245000Y-110819268D01*
X58245000Y-111180732D01*
X58315518Y-111535250D01*
X58453844Y-111869199D01*
X58552466Y-112016797D01*
X58562148Y-112048715D01*
X58713969Y-112332752D01*
X58918286Y-112581714D01*
X58980686Y-112632924D01*
X66525000Y-120177240D01*
X66525000Y-120413465D01*
X66491675Y-120493919D01*
X66425000Y-120829117D01*
X66425000Y-121170883D01*
X66491675Y-121506081D01*
X66622463Y-121821831D01*
X66812337Y-122105998D01*
X67054002Y-122347663D01*
X67338169Y-122537537D01*
X67653919Y-122668325D01*
X67989117Y-122735000D01*
X68330883Y-122735000D01*
X68666081Y-122668325D01*
X68821182Y-122604080D01*
X137575525Y-122604080D01*
X137659208Y-122858261D01*
X137931775Y-122989158D01*
X138224642Y-123064365D01*
X138526553Y-123080991D01*
X138825907Y-123038397D01*
X139111199Y-122938222D01*
X139260792Y-122858261D01*
X139344475Y-122604080D01*
X138460000Y-121719605D01*
X137575525Y-122604080D01*
X68821182Y-122604080D01*
X68981831Y-122537537D01*
X69265998Y-122347663D01*
X69507663Y-122105998D01*
X69697537Y-121821831D01*
X69828325Y-121506081D01*
X69895000Y-121170883D01*
X69895000Y-120829117D01*
X69828325Y-120493919D01*
X69795000Y-120413465D01*
X69795000Y-119580322D01*
X69802911Y-119500000D01*
X69771343Y-119179483D01*
X69677852Y-118871285D01*
X69568141Y-118666030D01*
X69526031Y-118587248D01*
X69321714Y-118338286D01*
X69259325Y-118287085D01*
X63607239Y-112635000D01*
X79152152Y-112635000D01*
X79464750Y-112764482D01*
X79819268Y-112835000D01*
X80180732Y-112835000D01*
X80535250Y-112764482D01*
X80847848Y-112635000D01*
X99152152Y-112635000D01*
X99443401Y-112755639D01*
X105087080Y-118399319D01*
X105138286Y-118461714D01*
X105387248Y-118666031D01*
X105671285Y-118817852D01*
X105979484Y-118911343D01*
X106219678Y-118935000D01*
X106219680Y-118935000D01*
X106299999Y-118942911D01*
X106380319Y-118935000D01*
X107742762Y-118935000D01*
X110707081Y-121899320D01*
X110758287Y-121961715D01*
X111007249Y-122166032D01*
X111291286Y-122317853D01*
X111599485Y-122411344D01*
X111839679Y-122435001D01*
X111839681Y-122435001D01*
X111920001Y-122442912D01*
X112000320Y-122435001D01*
X122239680Y-122435001D01*
X122319999Y-122442912D01*
X122400318Y-122435001D01*
X122400321Y-122435001D01*
X122640515Y-122411344D01*
X122948714Y-122317853D01*
X123232751Y-122166032D01*
X123481713Y-121961715D01*
X123532923Y-121899315D01*
X125361378Y-120070862D01*
X125441831Y-120037537D01*
X125725998Y-119847663D01*
X125967663Y-119605998D01*
X126157537Y-119321831D01*
X126288325Y-119006081D01*
X126355000Y-118670883D01*
X126355000Y-118329117D01*
X126288325Y-117993919D01*
X126255000Y-117913465D01*
X126255000Y-117024685D01*
X126262911Y-116944365D01*
X126244942Y-116761928D01*
X126231343Y-116623850D01*
X126137852Y-116315651D01*
X125986031Y-116031614D01*
X125781714Y-115782652D01*
X125719319Y-115731446D01*
X123987873Y-114000000D01*
X135457089Y-114000000D01*
X135488658Y-114320516D01*
X135582148Y-114628714D01*
X135733970Y-114912752D01*
X135887085Y-115099323D01*
X136825001Y-116037239D01*
X136825000Y-119080321D01*
X136848657Y-119320515D01*
X136921928Y-119562057D01*
X136921928Y-119900000D01*
X136934188Y-120024482D01*
X136970498Y-120144180D01*
X137029463Y-120254494D01*
X137108815Y-120351185D01*
X137205506Y-120430537D01*
X137315820Y-120489502D01*
X137326735Y-120492813D01*
X137279970Y-120539578D01*
X137395918Y-120655526D01*
X137141739Y-120739208D01*
X137010842Y-121011775D01*
X136935635Y-121304642D01*
X136919009Y-121606553D01*
X136961603Y-121905907D01*
X137061778Y-122191199D01*
X137141739Y-122340792D01*
X137395920Y-122424475D01*
X138280395Y-121540000D01*
X138266253Y-121525858D01*
X138445858Y-121346253D01*
X138460000Y-121360395D01*
X138474143Y-121346253D01*
X138653748Y-121525858D01*
X138639605Y-121540000D01*
X139524080Y-122424475D01*
X139778261Y-122340792D01*
X139909158Y-122068225D01*
X139983205Y-121779872D01*
X144765000Y-121779872D01*
X144765000Y-122220128D01*
X144850890Y-122651925D01*
X145019369Y-123058669D01*
X145263962Y-123424729D01*
X145575271Y-123736038D01*
X145941331Y-123980631D01*
X146348075Y-124149110D01*
X146779872Y-124235000D01*
X147220128Y-124235000D01*
X147651925Y-124149110D01*
X148058669Y-123980631D01*
X148424729Y-123736038D01*
X148736038Y-123424729D01*
X148980631Y-123058669D01*
X149149110Y-122651925D01*
X149235000Y-122220128D01*
X149235000Y-121779872D01*
X149149110Y-121348075D01*
X148980631Y-120941331D01*
X148736038Y-120575271D01*
X148424729Y-120263962D01*
X148058669Y-120019369D01*
X147651925Y-119850890D01*
X147220128Y-119765000D01*
X146779872Y-119765000D01*
X146348075Y-119850890D01*
X145941331Y-120019369D01*
X145575271Y-120263962D01*
X145263962Y-120575271D01*
X145019369Y-120941331D01*
X144850890Y-121348075D01*
X144765000Y-121779872D01*
X139983205Y-121779872D01*
X139984365Y-121775358D01*
X140000991Y-121473447D01*
X139958397Y-121174093D01*
X139858222Y-120888801D01*
X139778261Y-120739208D01*
X139524082Y-120655526D01*
X139640030Y-120539578D01*
X139593265Y-120492813D01*
X139604180Y-120489502D01*
X139714494Y-120430537D01*
X139811185Y-120351185D01*
X139890537Y-120254494D01*
X139949502Y-120144180D01*
X139985812Y-120024482D01*
X139998072Y-119900000D01*
X139998072Y-119562058D01*
X140071343Y-119320516D01*
X140095000Y-119080322D01*
X140095000Y-115440319D01*
X140102911Y-115359999D01*
X140082354Y-115151285D01*
X140071343Y-115039484D01*
X139977852Y-114731285D01*
X139826031Y-114447248D01*
X139621714Y-114198286D01*
X139559318Y-114147079D01*
X138199323Y-112787085D01*
X138012752Y-112633970D01*
X137728714Y-112482148D01*
X137420516Y-112388658D01*
X137100000Y-112357089D01*
X136779484Y-112388658D01*
X136471286Y-112482148D01*
X136187248Y-112633970D01*
X135938287Y-112838287D01*
X135733970Y-113087248D01*
X135582148Y-113371286D01*
X135488658Y-113679484D01*
X135457089Y-114000000D01*
X123987873Y-114000000D01*
X116388559Y-106400687D01*
X116337348Y-106338286D01*
X116088386Y-106133969D01*
X116060855Y-106119253D01*
X116085812Y-106036982D01*
X116098072Y-105912500D01*
X116095000Y-105245750D01*
X115936250Y-105087000D01*
X114587000Y-105087000D01*
X114587000Y-105107000D01*
X114333000Y-105107000D01*
X114333000Y-105087000D01*
X114313000Y-105087000D01*
X114313000Y-104833000D01*
X114333000Y-104833000D01*
X114333000Y-103531250D01*
X114587000Y-103531250D01*
X114587000Y-104833000D01*
X115936250Y-104833000D01*
X116095000Y-104674250D01*
X116098072Y-104007500D01*
X116085812Y-103883018D01*
X116049502Y-103763320D01*
X115990537Y-103653006D01*
X115911185Y-103556315D01*
X115814494Y-103476963D01*
X115704180Y-103417998D01*
X115584482Y-103381688D01*
X115460000Y-103369428D01*
X114745750Y-103372500D01*
X114587000Y-103531250D01*
X114333000Y-103531250D01*
X114174250Y-103372500D01*
X113940743Y-103371496D01*
X117056006Y-100256234D01*
X117171284Y-100317851D01*
X117479483Y-100411342D01*
X117719677Y-100434999D01*
X117719679Y-100434999D01*
X117799998Y-100442910D01*
X117880318Y-100434999D01*
X128517394Y-100434999D01*
X128597713Y-100442910D01*
X128678032Y-100434999D01*
X128678035Y-100434999D01*
X128918229Y-100411342D01*
X129226428Y-100317851D01*
X129510465Y-100166030D01*
X129759427Y-99961713D01*
X129810638Y-99899312D01*
X131620000Y-98089950D01*
X136725001Y-103194952D01*
X136725000Y-107194680D01*
X136717089Y-107275000D01*
X136725000Y-107355319D01*
X136725000Y-107355321D01*
X136748657Y-107595515D01*
X136842148Y-107903714D01*
X136993969Y-108187751D01*
X137198286Y-108436714D01*
X137260686Y-108487924D01*
X137964137Y-109191376D01*
X137997463Y-109271831D01*
X138187337Y-109555998D01*
X138429002Y-109797663D01*
X138713169Y-109987537D01*
X139028919Y-110118325D01*
X139364117Y-110185000D01*
X139705883Y-110185000D01*
X140041081Y-110118325D01*
X140356831Y-109987537D01*
X140640998Y-109797663D01*
X140882663Y-109555998D01*
X141072537Y-109271831D01*
X141203325Y-108956081D01*
X141270000Y-108620883D01*
X141270000Y-108279117D01*
X142800000Y-108279117D01*
X142800000Y-108620883D01*
X142866675Y-108956081D01*
X142900000Y-109036535D01*
X142900001Y-111194671D01*
X142892089Y-111275000D01*
X142923658Y-111595516D01*
X143017148Y-111903714D01*
X143168970Y-112187752D01*
X143373287Y-112436714D01*
X143435682Y-112487920D01*
X146160676Y-115212915D01*
X146347247Y-115366030D01*
X146631285Y-115517852D01*
X146939483Y-115611342D01*
X147260000Y-115642911D01*
X147580516Y-115611342D01*
X147888714Y-115517852D01*
X148172752Y-115366030D01*
X148421713Y-115161713D01*
X148626030Y-114912752D01*
X148777852Y-114628714D01*
X148871342Y-114320516D01*
X148902911Y-114000000D01*
X148871342Y-113679483D01*
X148777852Y-113371285D01*
X148626030Y-113087247D01*
X148472915Y-112900676D01*
X146170000Y-110597762D01*
X146170000Y-109036535D01*
X146203325Y-108956081D01*
X146270000Y-108620883D01*
X146270000Y-108279117D01*
X146203325Y-107943919D01*
X146170000Y-107863465D01*
X146170000Y-102662238D01*
X147007224Y-101825015D01*
X147069834Y-101812561D01*
X147412882Y-101670466D01*
X147721618Y-101464175D01*
X147984175Y-101201618D01*
X148190466Y-100892882D01*
X148332561Y-100549834D01*
X148405000Y-100185656D01*
X148405000Y-99814344D01*
X148332561Y-99450166D01*
X148190466Y-99107118D01*
X147984175Y-98798382D01*
X147721618Y-98535825D01*
X147412882Y-98329534D01*
X147069834Y-98187439D01*
X146705656Y-98115000D01*
X146334344Y-98115000D01*
X145970166Y-98187439D01*
X145627118Y-98329534D01*
X145318382Y-98535825D01*
X145055825Y-98798382D01*
X144849534Y-99107118D01*
X144707439Y-99450166D01*
X144694985Y-99512776D01*
X143435682Y-100772080D01*
X143373287Y-100823286D01*
X143305103Y-100906369D01*
X143168970Y-101072248D01*
X143017148Y-101356286D01*
X142923658Y-101664484D01*
X142892089Y-101985000D01*
X142900001Y-102065329D01*
X142900000Y-107863465D01*
X142866675Y-107943919D01*
X142800000Y-108279117D01*
X141270000Y-108279117D01*
X141203325Y-107943919D01*
X141072537Y-107628169D01*
X140882663Y-107344002D01*
X140640998Y-107102337D01*
X140356831Y-106912463D01*
X140276376Y-106879137D01*
X139995000Y-106597762D01*
X139995000Y-102598031D01*
X140002911Y-102517711D01*
X139995000Y-102437390D01*
X139971343Y-102197196D01*
X139877852Y-101888997D01*
X139726031Y-101604960D01*
X139521714Y-101355998D01*
X139459319Y-101304792D01*
X134468132Y-96313605D01*
X145386000Y-96313605D01*
X145511914Y-96603577D01*
X145844126Y-96769433D01*
X146202312Y-96867290D01*
X146572706Y-96893389D01*
X146941075Y-96846725D01*
X147293262Y-96729094D01*
X147528086Y-96603577D01*
X147654000Y-96313605D01*
X146520000Y-95179605D01*
X145386000Y-96313605D01*
X134468132Y-96313605D01*
X133207233Y-95052706D01*
X144626611Y-95052706D01*
X144673275Y-95421075D01*
X144790906Y-95773262D01*
X144916423Y-96008086D01*
X145206395Y-96134000D01*
X146340395Y-95000000D01*
X146699605Y-95000000D01*
X147833605Y-96134000D01*
X148123577Y-96008086D01*
X148289433Y-95675874D01*
X148387290Y-95317688D01*
X148413389Y-94947294D01*
X148366725Y-94578925D01*
X148249094Y-94226738D01*
X148123577Y-93991914D01*
X147833605Y-93866000D01*
X146699605Y-95000000D01*
X146340395Y-95000000D01*
X145206395Y-93866000D01*
X144916423Y-93991914D01*
X144750567Y-94324126D01*
X144652710Y-94682312D01*
X144626611Y-95052706D01*
X133207233Y-95052706D01*
X133190863Y-95036337D01*
X133157537Y-94955881D01*
X132967663Y-94671714D01*
X132725998Y-94430049D01*
X132441831Y-94240175D01*
X132126081Y-94109387D01*
X131790883Y-94042712D01*
X131449117Y-94042712D01*
X131113919Y-94109387D01*
X130798169Y-94240175D01*
X130514002Y-94430049D01*
X130272337Y-94671714D01*
X130082463Y-94955881D01*
X130049138Y-95036336D01*
X127920475Y-97164999D01*
X123126460Y-97164999D01*
X123149502Y-97121892D01*
X123185812Y-97002194D01*
X123198072Y-96877712D01*
X123195000Y-96063462D01*
X123036250Y-95904712D01*
X121587000Y-95904712D01*
X121587000Y-95924712D01*
X121333000Y-95924712D01*
X121333000Y-95904712D01*
X119883750Y-95904712D01*
X119725000Y-96063462D01*
X119721928Y-96877712D01*
X119734188Y-97002194D01*
X119770498Y-97121892D01*
X119793540Y-97164999D01*
X118477237Y-97164999D01*
X118212916Y-96900678D01*
X118161713Y-96838287D01*
X118153147Y-96831257D01*
X118154494Y-96830537D01*
X118251185Y-96751185D01*
X118330537Y-96654494D01*
X118389502Y-96544180D01*
X118425812Y-96424482D01*
X118438072Y-96300000D01*
X118435000Y-95785750D01*
X118276250Y-95627000D01*
X117127000Y-95627000D01*
X117127000Y-95647000D01*
X116873000Y-95647000D01*
X116873000Y-95627000D01*
X115723750Y-95627000D01*
X115565000Y-95785750D01*
X115561928Y-96300000D01*
X115574188Y-96424482D01*
X115610498Y-96544180D01*
X115669463Y-96654494D01*
X115748815Y-96751185D01*
X115845506Y-96830537D01*
X115846853Y-96831257D01*
X115838287Y-96838287D01*
X115787093Y-96900667D01*
X111160681Y-101527081D01*
X111098286Y-101578287D01*
X110989784Y-101710498D01*
X110893969Y-101827249D01*
X110742147Y-102111287D01*
X110648657Y-102419485D01*
X110617088Y-102740001D01*
X110625000Y-102820330D01*
X110624999Y-108330962D01*
X110617088Y-108411282D01*
X110624999Y-108491601D01*
X110624999Y-108491603D01*
X110648656Y-108731797D01*
X110742147Y-109039996D01*
X110893968Y-109324033D01*
X111098285Y-109572996D01*
X111160685Y-109624207D01*
X112675796Y-111139318D01*
X112727003Y-111201714D01*
X112825000Y-111282138D01*
X112825001Y-117053854D01*
X112770498Y-117155820D01*
X112734188Y-117275518D01*
X112721928Y-117400000D01*
X112721928Y-119165001D01*
X112597240Y-119165001D01*
X109632925Y-116200687D01*
X109581714Y-116138286D01*
X109573148Y-116131256D01*
X109574494Y-116130537D01*
X109671185Y-116051185D01*
X109750537Y-115954494D01*
X109809502Y-115844180D01*
X109845812Y-115724482D01*
X109858072Y-115600000D01*
X109855000Y-115085750D01*
X109696250Y-114927000D01*
X108547000Y-114927000D01*
X108547000Y-114947000D01*
X108293000Y-114947000D01*
X108293000Y-114927000D01*
X107143750Y-114927000D01*
X106985000Y-115085750D01*
X106981928Y-115600000D01*
X106988330Y-115665000D01*
X106977239Y-115665000D01*
X105312239Y-114000000D01*
X106981928Y-114000000D01*
X106985000Y-114514250D01*
X107143750Y-114673000D01*
X108293000Y-114673000D01*
X108293000Y-113523750D01*
X108547000Y-113523750D01*
X108547000Y-114673000D01*
X109696250Y-114673000D01*
X109855000Y-114514250D01*
X109858072Y-114000000D01*
X109845812Y-113875518D01*
X109809502Y-113755820D01*
X109750537Y-113645506D01*
X109671185Y-113548815D01*
X109574494Y-113469463D01*
X109464180Y-113410498D01*
X109344482Y-113374188D01*
X109220000Y-113361928D01*
X108705750Y-113365000D01*
X108547000Y-113523750D01*
X108293000Y-113523750D01*
X108134250Y-113365000D01*
X107620000Y-113361928D01*
X107495518Y-113374188D01*
X107375820Y-113410498D01*
X107265506Y-113469463D01*
X107168815Y-113548815D01*
X107089463Y-113645506D01*
X107030498Y-113755820D01*
X106994188Y-113875518D01*
X106981928Y-114000000D01*
X105312239Y-114000000D01*
X101755639Y-110443401D01*
X101626156Y-110130801D01*
X101425338Y-109830256D01*
X101169744Y-109574662D01*
X100869199Y-109373844D01*
X100535250Y-109235518D01*
X100180732Y-109165000D01*
X99819268Y-109165000D01*
X99464750Y-109235518D01*
X99152152Y-109365000D01*
X80847848Y-109365000D01*
X80535250Y-109235518D01*
X80180732Y-109165000D01*
X79819268Y-109165000D01*
X79464750Y-109235518D01*
X79152152Y-109365000D01*
X60927848Y-109365000D01*
X60615250Y-109235518D01*
X60260732Y-109165000D01*
X59899268Y-109165000D01*
X59544750Y-109235518D01*
X59210801Y-109373844D01*
X58910256Y-109574662D01*
X58654662Y-109830256D01*
X58453844Y-110130801D01*
X58315518Y-110464750D01*
X58245000Y-110819268D01*
X54414999Y-110819268D01*
X54414999Y-104700000D01*
X58241928Y-104700000D01*
X58254188Y-104824482D01*
X58290498Y-104944180D01*
X58349463Y-105054494D01*
X58428815Y-105151185D01*
X58525506Y-105230537D01*
X58635820Y-105289502D01*
X58755518Y-105325812D01*
X58880000Y-105338072D01*
X59794250Y-105335000D01*
X59953000Y-105176250D01*
X59953000Y-103627000D01*
X60207000Y-103627000D01*
X60207000Y-105176250D01*
X60365750Y-105335000D01*
X61280000Y-105338072D01*
X61404482Y-105325812D01*
X61524180Y-105289502D01*
X61634494Y-105230537D01*
X61731185Y-105151185D01*
X61810537Y-105054494D01*
X61869502Y-104944180D01*
X61905812Y-104824482D01*
X61918072Y-104700000D01*
X78161928Y-104700000D01*
X78174188Y-104824482D01*
X78210498Y-104944180D01*
X78269463Y-105054494D01*
X78348815Y-105151185D01*
X78445506Y-105230537D01*
X78555820Y-105289502D01*
X78675518Y-105325812D01*
X78800000Y-105338072D01*
X79714250Y-105335000D01*
X79873000Y-105176250D01*
X79873000Y-103627000D01*
X80127000Y-103627000D01*
X80127000Y-105176250D01*
X80285750Y-105335000D01*
X81200000Y-105338072D01*
X81324482Y-105325812D01*
X81444180Y-105289502D01*
X81554494Y-105230537D01*
X81651185Y-105151185D01*
X81730537Y-105054494D01*
X81789502Y-104944180D01*
X81825812Y-104824482D01*
X81838072Y-104700000D01*
X98161928Y-104700000D01*
X98174188Y-104824482D01*
X98210498Y-104944180D01*
X98269463Y-105054494D01*
X98348815Y-105151185D01*
X98445506Y-105230537D01*
X98555820Y-105289502D01*
X98675518Y-105325812D01*
X98800000Y-105338072D01*
X99714250Y-105335000D01*
X99873000Y-105176250D01*
X99873000Y-103627000D01*
X100127000Y-103627000D01*
X100127000Y-105176250D01*
X100285750Y-105335000D01*
X101200000Y-105338072D01*
X101324482Y-105325812D01*
X101444180Y-105289502D01*
X101554494Y-105230537D01*
X101651185Y-105151185D01*
X101730537Y-105054494D01*
X101789502Y-104944180D01*
X101825812Y-104824482D01*
X101838072Y-104700000D01*
X101835000Y-103785750D01*
X101676250Y-103627000D01*
X100127000Y-103627000D01*
X99873000Y-103627000D01*
X98323750Y-103627000D01*
X98165000Y-103785750D01*
X98161928Y-104700000D01*
X81838072Y-104700000D01*
X81835000Y-103785750D01*
X81676250Y-103627000D01*
X80127000Y-103627000D01*
X79873000Y-103627000D01*
X78323750Y-103627000D01*
X78165000Y-103785750D01*
X78161928Y-104700000D01*
X61918072Y-104700000D01*
X61915000Y-103785750D01*
X61756250Y-103627000D01*
X60207000Y-103627000D01*
X59953000Y-103627000D01*
X58403750Y-103627000D01*
X58245000Y-103785750D01*
X58241928Y-104700000D01*
X54414999Y-104700000D01*
X54414999Y-102300000D01*
X58241928Y-102300000D01*
X58245000Y-103214250D01*
X58403750Y-103373000D01*
X59953000Y-103373000D01*
X59953000Y-101823750D01*
X60207000Y-101823750D01*
X60207000Y-103373000D01*
X61756250Y-103373000D01*
X61915000Y-103214250D01*
X61918072Y-102300000D01*
X78161928Y-102300000D01*
X78165000Y-103214250D01*
X78323750Y-103373000D01*
X79873000Y-103373000D01*
X79873000Y-101823750D01*
X80127000Y-101823750D01*
X80127000Y-103373000D01*
X81676250Y-103373000D01*
X81835000Y-103214250D01*
X81838072Y-102300000D01*
X98161928Y-102300000D01*
X98165000Y-103214250D01*
X98323750Y-103373000D01*
X99873000Y-103373000D01*
X99873000Y-101823750D01*
X100127000Y-101823750D01*
X100127000Y-103373000D01*
X101676250Y-103373000D01*
X101835000Y-103214250D01*
X101838072Y-102300000D01*
X101825812Y-102175518D01*
X101789502Y-102055820D01*
X101730537Y-101945506D01*
X101651185Y-101848815D01*
X101554494Y-101769463D01*
X101444180Y-101710498D01*
X101324482Y-101674188D01*
X101200000Y-101661928D01*
X100285750Y-101665000D01*
X100127000Y-101823750D01*
X99873000Y-101823750D01*
X99714250Y-101665000D01*
X98800000Y-101661928D01*
X98675518Y-101674188D01*
X98555820Y-101710498D01*
X98445506Y-101769463D01*
X98348815Y-101848815D01*
X98269463Y-101945506D01*
X98210498Y-102055820D01*
X98174188Y-102175518D01*
X98161928Y-102300000D01*
X81838072Y-102300000D01*
X81825812Y-102175518D01*
X81789502Y-102055820D01*
X81730537Y-101945506D01*
X81651185Y-101848815D01*
X81554494Y-101769463D01*
X81444180Y-101710498D01*
X81324482Y-101674188D01*
X81200000Y-101661928D01*
X80285750Y-101665000D01*
X80127000Y-101823750D01*
X79873000Y-101823750D01*
X79714250Y-101665000D01*
X78800000Y-101661928D01*
X78675518Y-101674188D01*
X78555820Y-101710498D01*
X78445506Y-101769463D01*
X78348815Y-101848815D01*
X78269463Y-101945506D01*
X78210498Y-102055820D01*
X78174188Y-102175518D01*
X78161928Y-102300000D01*
X61918072Y-102300000D01*
X61905812Y-102175518D01*
X61869502Y-102055820D01*
X61810537Y-101945506D01*
X61731185Y-101848815D01*
X61634494Y-101769463D01*
X61524180Y-101710498D01*
X61404482Y-101674188D01*
X61280000Y-101661928D01*
X60365750Y-101665000D01*
X60207000Y-101823750D01*
X59953000Y-101823750D01*
X59794250Y-101665000D01*
X58880000Y-101661928D01*
X58755518Y-101674188D01*
X58635820Y-101710498D01*
X58525506Y-101769463D01*
X58428815Y-101848815D01*
X58349463Y-101945506D01*
X58290498Y-102055820D01*
X58254188Y-102175518D01*
X58241928Y-102300000D01*
X54414999Y-102300000D01*
X54414999Y-94700000D01*
X115561928Y-94700000D01*
X115565000Y-95214250D01*
X115723750Y-95373000D01*
X116873000Y-95373000D01*
X116873000Y-94223750D01*
X117127000Y-94223750D01*
X117127000Y-95373000D01*
X118276250Y-95373000D01*
X118435000Y-95214250D01*
X118438072Y-94700000D01*
X118435877Y-94677712D01*
X119721928Y-94677712D01*
X119725000Y-95491962D01*
X119883750Y-95650712D01*
X121333000Y-95650712D01*
X121333000Y-94201462D01*
X121587000Y-94201462D01*
X121587000Y-95650712D01*
X123036250Y-95650712D01*
X123195000Y-95491962D01*
X123198072Y-94677712D01*
X123185812Y-94553230D01*
X123149502Y-94433532D01*
X123090537Y-94323218D01*
X123011185Y-94226527D01*
X122914494Y-94147175D01*
X122804180Y-94088210D01*
X122684482Y-94051900D01*
X122560000Y-94039640D01*
X121745750Y-94042712D01*
X121587000Y-94201462D01*
X121333000Y-94201462D01*
X121174250Y-94042712D01*
X120360000Y-94039640D01*
X120235518Y-94051900D01*
X120115820Y-94088210D01*
X120005506Y-94147175D01*
X119908815Y-94226527D01*
X119829463Y-94323218D01*
X119770498Y-94433532D01*
X119734188Y-94553230D01*
X119721928Y-94677712D01*
X118435877Y-94677712D01*
X118425812Y-94575518D01*
X118389502Y-94455820D01*
X118330537Y-94345506D01*
X118251185Y-94248815D01*
X118154494Y-94169463D01*
X118044180Y-94110498D01*
X117924482Y-94074188D01*
X117800000Y-94061928D01*
X117285750Y-94065000D01*
X117127000Y-94223750D01*
X116873000Y-94223750D01*
X116714250Y-94065000D01*
X116200000Y-94061928D01*
X116075518Y-94074188D01*
X115955820Y-94110498D01*
X115845506Y-94169463D01*
X115748815Y-94248815D01*
X115669463Y-94345506D01*
X115610498Y-94455820D01*
X115574188Y-94575518D01*
X115561928Y-94700000D01*
X54414999Y-94700000D01*
X54414999Y-93686395D01*
X145386000Y-93686395D01*
X146520000Y-94820395D01*
X147654000Y-93686395D01*
X147528086Y-93396423D01*
X147195874Y-93230567D01*
X146837688Y-93132710D01*
X146467294Y-93106611D01*
X146098925Y-93153275D01*
X145746738Y-93270906D01*
X145511914Y-93396423D01*
X145386000Y-93686395D01*
X54414999Y-93686395D01*
X54414999Y-92492702D01*
X116186903Y-92492702D01*
X116258486Y-92736671D01*
X116513996Y-92857571D01*
X116788184Y-92926300D01*
X117070512Y-92940217D01*
X117350130Y-92898787D01*
X117616292Y-92803603D01*
X117741514Y-92736671D01*
X117813097Y-92492702D01*
X117000000Y-91679605D01*
X116186903Y-92492702D01*
X54414999Y-92492702D01*
X54414999Y-91777980D01*
X58981626Y-91777980D01*
X59101514Y-92062836D01*
X59425210Y-92223699D01*
X59774069Y-92318322D01*
X60134684Y-92343067D01*
X60493198Y-92296985D01*
X60835833Y-92181846D01*
X61058486Y-92062836D01*
X61178374Y-91777980D01*
X78901626Y-91777980D01*
X79021514Y-92062836D01*
X79345210Y-92223699D01*
X79694069Y-92318322D01*
X80054684Y-92343067D01*
X80413198Y-92296985D01*
X80755833Y-92181846D01*
X80978486Y-92062836D01*
X81098374Y-91777980D01*
X98901626Y-91777980D01*
X99021514Y-92062836D01*
X99345210Y-92223699D01*
X99694069Y-92318322D01*
X100054684Y-92343067D01*
X100413198Y-92296985D01*
X100755833Y-92181846D01*
X100978486Y-92062836D01*
X101098374Y-91777980D01*
X100000000Y-90679605D01*
X98901626Y-91777980D01*
X81098374Y-91777980D01*
X80000000Y-90679605D01*
X78901626Y-91777980D01*
X61178374Y-91777980D01*
X60080000Y-90679605D01*
X58981626Y-91777980D01*
X54414999Y-91777980D01*
X54414999Y-90554684D01*
X58236933Y-90554684D01*
X58283015Y-90913198D01*
X58398154Y-91255833D01*
X58517164Y-91478486D01*
X58802020Y-91598374D01*
X59900395Y-90500000D01*
X60259605Y-90500000D01*
X61357980Y-91598374D01*
X61642836Y-91478486D01*
X61803699Y-91154790D01*
X61898322Y-90805931D01*
X61915562Y-90554684D01*
X78156933Y-90554684D01*
X78203015Y-90913198D01*
X78318154Y-91255833D01*
X78437164Y-91478486D01*
X78722020Y-91598374D01*
X79820395Y-90500000D01*
X80179605Y-90500000D01*
X81277980Y-91598374D01*
X81562836Y-91478486D01*
X81723699Y-91154790D01*
X81818322Y-90805931D01*
X81835562Y-90554684D01*
X98156933Y-90554684D01*
X98203015Y-90913198D01*
X98318154Y-91255833D01*
X98437164Y-91478486D01*
X98722020Y-91598374D01*
X99820395Y-90500000D01*
X100179605Y-90500000D01*
X101277980Y-91598374D01*
X101562836Y-91478486D01*
X101723699Y-91154790D01*
X101818322Y-90805931D01*
X101843067Y-90445316D01*
X101796985Y-90086802D01*
X101681846Y-89744167D01*
X101562836Y-89521514D01*
X101277980Y-89401626D01*
X100179605Y-90500000D01*
X99820395Y-90500000D01*
X98722020Y-89401626D01*
X98437164Y-89521514D01*
X98276301Y-89845210D01*
X98181678Y-90194069D01*
X98156933Y-90554684D01*
X81835562Y-90554684D01*
X81843067Y-90445316D01*
X81796985Y-90086802D01*
X81681846Y-89744167D01*
X81562836Y-89521514D01*
X81277980Y-89401626D01*
X80179605Y-90500000D01*
X79820395Y-90500000D01*
X78722020Y-89401626D01*
X78437164Y-89521514D01*
X78276301Y-89845210D01*
X78181678Y-90194069D01*
X78156933Y-90554684D01*
X61915562Y-90554684D01*
X61923067Y-90445316D01*
X61876985Y-90086802D01*
X61761846Y-89744167D01*
X61642836Y-89521514D01*
X61357980Y-89401626D01*
X60259605Y-90500000D01*
X59900395Y-90500000D01*
X58802020Y-89401626D01*
X58517164Y-89521514D01*
X58356301Y-89845210D01*
X58261678Y-90194069D01*
X58236933Y-90554684D01*
X54414999Y-90554684D01*
X54414999Y-89222020D01*
X58981626Y-89222020D01*
X60080000Y-90320395D01*
X61178374Y-89222020D01*
X78901626Y-89222020D01*
X80000000Y-90320395D01*
X81098374Y-89222020D01*
X98901626Y-89222020D01*
X100000000Y-90320395D01*
X101098374Y-89222020D01*
X100978486Y-88937164D01*
X100654790Y-88776301D01*
X100305931Y-88681678D01*
X99945316Y-88656933D01*
X99586802Y-88703015D01*
X99244167Y-88818154D01*
X99021514Y-88937164D01*
X98901626Y-89222020D01*
X81098374Y-89222020D01*
X80978486Y-88937164D01*
X80654790Y-88776301D01*
X80305931Y-88681678D01*
X79945316Y-88656933D01*
X79586802Y-88703015D01*
X79244167Y-88818154D01*
X79021514Y-88937164D01*
X78901626Y-89222020D01*
X61178374Y-89222020D01*
X61058486Y-88937164D01*
X60734790Y-88776301D01*
X60385931Y-88681678D01*
X60025316Y-88656933D01*
X59666802Y-88703015D01*
X59324167Y-88818154D01*
X59101514Y-88937164D01*
X58981626Y-89222020D01*
X54414999Y-89222020D01*
X54414999Y-79647237D01*
X58241928Y-83474167D01*
X58241928Y-84200000D01*
X58254188Y-84324482D01*
X58290498Y-84444180D01*
X58349463Y-84554494D01*
X58428815Y-84651185D01*
X58525506Y-84730537D01*
X58635820Y-84789502D01*
X58755518Y-84825812D01*
X58880000Y-84838072D01*
X61280000Y-84838072D01*
X61404482Y-84825812D01*
X61524180Y-84789502D01*
X61634494Y-84730537D01*
X61731185Y-84651185D01*
X61744468Y-84635000D01*
X78335532Y-84635000D01*
X78348815Y-84651185D01*
X78445506Y-84730537D01*
X78555820Y-84789502D01*
X78675518Y-84825812D01*
X78800000Y-84838072D01*
X81200000Y-84838072D01*
X81324482Y-84825812D01*
X81444180Y-84789502D01*
X81554494Y-84730537D01*
X81609981Y-84685000D01*
X98390019Y-84685000D01*
X98445506Y-84730537D01*
X98555820Y-84789502D01*
X98675518Y-84825812D01*
X98800000Y-84838072D01*
X101200000Y-84838072D01*
X101324482Y-84825812D01*
X101444180Y-84789502D01*
X101554494Y-84730537D01*
X101651185Y-84651185D01*
X101730537Y-84554494D01*
X101789502Y-84444180D01*
X101825812Y-84324482D01*
X101838072Y-84200000D01*
X101838072Y-83474166D01*
X103272238Y-82040000D01*
X112817089Y-82040000D01*
X112825000Y-82120322D01*
X112825001Y-88919668D01*
X112817089Y-89000000D01*
X112848657Y-89320516D01*
X112942148Y-89628715D01*
X113093969Y-89912752D01*
X113298286Y-90161714D01*
X113547248Y-90366031D01*
X113831285Y-90517852D01*
X114139484Y-90611343D01*
X114379678Y-90635000D01*
X114460000Y-90642911D01*
X114540322Y-90635000D01*
X115955393Y-90635000D01*
X116007296Y-90686903D01*
X115763329Y-90758486D01*
X115642429Y-91013996D01*
X115573700Y-91288184D01*
X115559783Y-91570512D01*
X115601213Y-91850130D01*
X115696397Y-92116292D01*
X115763329Y-92241514D01*
X116007298Y-92313097D01*
X116820395Y-91500000D01*
X116806253Y-91485858D01*
X116985858Y-91306253D01*
X117000000Y-91320395D01*
X117014143Y-91306253D01*
X117193748Y-91485858D01*
X117179605Y-91500000D01*
X117992702Y-92313097D01*
X118236671Y-92241514D01*
X118357571Y-91986004D01*
X118426300Y-91711816D01*
X118440217Y-91429488D01*
X118398787Y-91149870D01*
X118303603Y-90883708D01*
X118236671Y-90758486D01*
X117992704Y-90686903D01*
X118044607Y-90635000D01*
X118602762Y-90635000D01*
X119721928Y-91754167D01*
X119721928Y-92280000D01*
X119734188Y-92404482D01*
X119770498Y-92524180D01*
X119829463Y-92634494D01*
X119908815Y-92731185D01*
X120005506Y-92810537D01*
X120115820Y-92869502D01*
X120235518Y-92905812D01*
X120360000Y-92918072D01*
X122560000Y-92918072D01*
X122684482Y-92905812D01*
X122804180Y-92869502D01*
X122914494Y-92810537D01*
X123011185Y-92731185D01*
X123090537Y-92634494D01*
X123149502Y-92524180D01*
X123185812Y-92404482D01*
X123198072Y-92280000D01*
X123198072Y-91754166D01*
X123376116Y-91576122D01*
X129930825Y-91576122D01*
X129995425Y-91789094D01*
X130145469Y-92094329D01*
X130352178Y-92364427D01*
X130607609Y-92589008D01*
X130901946Y-92759442D01*
X131223877Y-92869179D01*
X131493000Y-92751600D01*
X131493000Y-91307000D01*
X131747000Y-91307000D01*
X131747000Y-92751600D01*
X132016123Y-92869179D01*
X132338054Y-92759442D01*
X132632391Y-92589008D01*
X132887822Y-92364427D01*
X133094531Y-92094329D01*
X133244575Y-91789094D01*
X133309175Y-91576122D01*
X133191125Y-91307000D01*
X131747000Y-91307000D01*
X131493000Y-91307000D01*
X130048875Y-91307000D01*
X129930825Y-91576122D01*
X123376116Y-91576122D01*
X124168360Y-90783878D01*
X129930825Y-90783878D01*
X130048875Y-91053000D01*
X131493000Y-91053000D01*
X131493000Y-89608400D01*
X131747000Y-89608400D01*
X131747000Y-91053000D01*
X133191125Y-91053000D01*
X133309175Y-90783878D01*
X133244575Y-90570906D01*
X133094531Y-90265671D01*
X132887822Y-89995573D01*
X132632391Y-89770992D01*
X132338054Y-89600558D01*
X132016123Y-89490821D01*
X131747000Y-89608400D01*
X131493000Y-89608400D01*
X131223877Y-89490821D01*
X130901946Y-89600558D01*
X130607609Y-89770992D01*
X130352178Y-89995573D01*
X130145469Y-90265671D01*
X129995425Y-90570906D01*
X129930825Y-90783878D01*
X124168360Y-90783878D01*
X132172239Y-82780000D01*
X138948465Y-82780000D01*
X139028919Y-82813325D01*
X139364117Y-82880000D01*
X139705883Y-82880000D01*
X140041081Y-82813325D01*
X140356831Y-82682537D01*
X140640998Y-82492663D01*
X140882663Y-82250998D01*
X141072537Y-81966831D01*
X141203325Y-81651081D01*
X141270000Y-81315883D01*
X141270000Y-80974117D01*
X142800000Y-80974117D01*
X142800000Y-81315883D01*
X142866675Y-81651081D01*
X142900000Y-81731535D01*
X142900001Y-87934671D01*
X142892089Y-88015000D01*
X142923658Y-88335516D01*
X143017148Y-88643714D01*
X143154498Y-88900676D01*
X143168970Y-88927752D01*
X143373287Y-89176714D01*
X143435682Y-89227920D01*
X144631928Y-90424167D01*
X144631928Y-91250000D01*
X144644188Y-91374482D01*
X144680498Y-91494180D01*
X144739463Y-91604494D01*
X144818815Y-91701185D01*
X144915506Y-91780537D01*
X145025820Y-91839502D01*
X145145518Y-91875812D01*
X145270000Y-91888072D01*
X147770000Y-91888072D01*
X147894482Y-91875812D01*
X148014180Y-91839502D01*
X148124494Y-91780537D01*
X148221185Y-91701185D01*
X148300537Y-91604494D01*
X148359502Y-91494180D01*
X148395812Y-91374482D01*
X148408072Y-91250000D01*
X148408072Y-88750000D01*
X148395812Y-88625518D01*
X148359502Y-88505820D01*
X148300537Y-88395506D01*
X148221185Y-88298815D01*
X148124494Y-88219463D01*
X148014180Y-88160498D01*
X147894482Y-88124188D01*
X147770000Y-88111928D01*
X146944167Y-88111928D01*
X146170000Y-87337762D01*
X146170000Y-81731535D01*
X146203325Y-81651081D01*
X146270000Y-81315883D01*
X146270000Y-80974117D01*
X146203325Y-80638919D01*
X146170000Y-80558465D01*
X146170000Y-79502238D01*
X148372916Y-77299324D01*
X148526030Y-77112753D01*
X148677852Y-76828715D01*
X148771343Y-76520517D01*
X148802911Y-76200000D01*
X148771343Y-75879484D01*
X148677852Y-75571285D01*
X148526030Y-75287248D01*
X148321713Y-75038287D01*
X148072752Y-74833970D01*
X147788715Y-74682148D01*
X147480516Y-74588657D01*
X147160000Y-74557089D01*
X146839483Y-74588657D01*
X146531285Y-74682148D01*
X146247247Y-74833970D01*
X146060676Y-74987084D01*
X143435682Y-77612080D01*
X143373287Y-77663286D01*
X143181979Y-77896397D01*
X143168970Y-77912248D01*
X143017148Y-78196286D01*
X142923658Y-78504484D01*
X142892089Y-78825000D01*
X142900001Y-78905329D01*
X142900000Y-80558465D01*
X142866675Y-80638919D01*
X142800000Y-80974117D01*
X141270000Y-80974117D01*
X141203325Y-80638919D01*
X141072537Y-80323169D01*
X140882663Y-80039002D01*
X140640998Y-79797337D01*
X140356831Y-79607463D01*
X140041081Y-79476675D01*
X139705883Y-79410000D01*
X139364117Y-79410000D01*
X139028919Y-79476675D01*
X138948465Y-79510000D01*
X131575319Y-79510000D01*
X131494999Y-79502089D01*
X131414680Y-79510000D01*
X131414678Y-79510000D01*
X131174484Y-79533657D01*
X130866285Y-79627148D01*
X130582248Y-79778969D01*
X130333286Y-79983286D01*
X130282080Y-80045681D01*
X121460000Y-88867761D01*
X120492924Y-87900686D01*
X120441714Y-87838286D01*
X120192752Y-87633969D01*
X119908715Y-87482148D01*
X119600516Y-87388657D01*
X119360322Y-87365000D01*
X119360319Y-87365000D01*
X119280000Y-87357089D01*
X119199681Y-87365000D01*
X116095000Y-87365000D01*
X116095000Y-83675000D01*
X117379681Y-83675000D01*
X117460000Y-83682911D01*
X117540319Y-83675000D01*
X117540322Y-83675000D01*
X117780516Y-83651343D01*
X118088715Y-83557852D01*
X118372752Y-83406031D01*
X118621714Y-83201714D01*
X118672925Y-83139313D01*
X125612238Y-76200000D01*
X135357089Y-76200000D01*
X135388658Y-76520516D01*
X135482148Y-76828714D01*
X135633970Y-77112752D01*
X135838287Y-77361713D01*
X136087248Y-77566030D01*
X136371286Y-77717852D01*
X136679484Y-77811342D01*
X137000000Y-77842911D01*
X137320516Y-77811342D01*
X137628714Y-77717852D01*
X137912752Y-77566030D01*
X138099323Y-77412915D01*
X139559318Y-75952921D01*
X139621714Y-75901714D01*
X139826031Y-75652752D01*
X139977852Y-75368715D01*
X140005312Y-75278192D01*
X140071343Y-75060517D01*
X140102911Y-74740000D01*
X140095000Y-74659678D01*
X140095000Y-71159678D01*
X140071343Y-70919484D01*
X139977852Y-70611285D01*
X139826031Y-70327248D01*
X139679810Y-70149076D01*
X139714494Y-70130537D01*
X139811185Y-70051185D01*
X139890537Y-69954494D01*
X139949502Y-69844180D01*
X139985812Y-69724482D01*
X139998072Y-69600000D01*
X139995000Y-68985750D01*
X139836250Y-68827000D01*
X138587000Y-68827000D01*
X138587000Y-68847000D01*
X138333000Y-68847000D01*
X138333000Y-68827000D01*
X137083750Y-68827000D01*
X136925000Y-68985750D01*
X136921928Y-69600000D01*
X136934188Y-69724482D01*
X136970498Y-69844180D01*
X137029463Y-69954494D01*
X137108815Y-70051185D01*
X137205506Y-70130537D01*
X137240190Y-70149076D01*
X137093969Y-70327249D01*
X136942148Y-70611286D01*
X136848657Y-70919485D01*
X136825000Y-71159679D01*
X136825001Y-74062761D01*
X135787085Y-75100677D01*
X135633970Y-75287248D01*
X135482148Y-75571286D01*
X135388658Y-75879484D01*
X135357089Y-76200000D01*
X125612238Y-76200000D01*
X125719319Y-76092920D01*
X125781714Y-76041714D01*
X125986031Y-75792752D01*
X126137852Y-75508715D01*
X126231343Y-75200516D01*
X126255000Y-74960322D01*
X126255000Y-74960320D01*
X126262911Y-74880001D01*
X126255000Y-74799681D01*
X126255000Y-69086535D01*
X126288325Y-69006081D01*
X126355000Y-68670883D01*
X126355000Y-68329117D01*
X126288325Y-67993919D01*
X126208002Y-67800000D01*
X136921928Y-67800000D01*
X136925000Y-68414250D01*
X137083750Y-68573000D01*
X138333000Y-68573000D01*
X138333000Y-67323750D01*
X138587000Y-67323750D01*
X138587000Y-68573000D01*
X139836250Y-68573000D01*
X139995000Y-68414250D01*
X139998072Y-67800000D01*
X139985812Y-67675518D01*
X139949502Y-67555820D01*
X139890537Y-67445506D01*
X139811185Y-67348815D01*
X139714494Y-67269463D01*
X139604180Y-67210498D01*
X139484482Y-67174188D01*
X139360000Y-67161928D01*
X138745750Y-67165000D01*
X138587000Y-67323750D01*
X138333000Y-67323750D01*
X138174250Y-67165000D01*
X137560000Y-67161928D01*
X137435518Y-67174188D01*
X137315820Y-67210498D01*
X137205506Y-67269463D01*
X137108815Y-67348815D01*
X137029463Y-67445506D01*
X136970498Y-67555820D01*
X136934188Y-67675518D01*
X136921928Y-67800000D01*
X126208002Y-67800000D01*
X126157537Y-67678169D01*
X125967663Y-67394002D01*
X125725998Y-67152337D01*
X125441831Y-66962463D01*
X125126081Y-66831675D01*
X124865650Y-66779872D01*
X144765000Y-66779872D01*
X144765000Y-67220128D01*
X144850890Y-67651925D01*
X145019369Y-68058669D01*
X145263962Y-68424729D01*
X145575271Y-68736038D01*
X145941331Y-68980631D01*
X146348075Y-69149110D01*
X146779872Y-69235000D01*
X147220128Y-69235000D01*
X147651925Y-69149110D01*
X148058669Y-68980631D01*
X148424729Y-68736038D01*
X148736038Y-68424729D01*
X148980631Y-68058669D01*
X149149110Y-67651925D01*
X149235000Y-67220128D01*
X149235000Y-66779872D01*
X149149110Y-66348075D01*
X148980631Y-65941331D01*
X148736038Y-65575271D01*
X148424729Y-65263962D01*
X148058669Y-65019369D01*
X147651925Y-64850890D01*
X147220128Y-64765000D01*
X146779872Y-64765000D01*
X146348075Y-64850890D01*
X145941331Y-65019369D01*
X145575271Y-65263962D01*
X145263962Y-65575271D01*
X145019369Y-65941331D01*
X144850890Y-66348075D01*
X144765000Y-66779872D01*
X124865650Y-66779872D01*
X124790883Y-66765000D01*
X124449117Y-66765000D01*
X124113919Y-66831675D01*
X123798169Y-66962463D01*
X123514002Y-67152337D01*
X123272337Y-67394002D01*
X123082463Y-67678169D01*
X122951675Y-67993919D01*
X122885000Y-68329117D01*
X122885000Y-68670883D01*
X122951675Y-69006081D01*
X122985000Y-69086535D01*
X122985001Y-74202760D01*
X116782762Y-80405000D01*
X115805406Y-80405000D01*
X115835969Y-80366923D01*
X115979571Y-80091094D01*
X116050563Y-79872980D01*
X115930594Y-79627000D01*
X114587000Y-79627000D01*
X114587000Y-79647000D01*
X114333000Y-79647000D01*
X114333000Y-79627000D01*
X112989406Y-79627000D01*
X112869437Y-79872980D01*
X112940429Y-80091094D01*
X113084031Y-80366923D01*
X113278685Y-80609437D01*
X113450363Y-80753480D01*
X113298286Y-80878286D01*
X113093969Y-81127248D01*
X112942148Y-81411285D01*
X112848657Y-81719484D01*
X112817089Y-82040000D01*
X103272238Y-82040000D01*
X105119536Y-80192702D01*
X107606903Y-80192702D01*
X107678486Y-80436671D01*
X107933996Y-80557571D01*
X108208184Y-80626300D01*
X108490512Y-80640217D01*
X108770130Y-80598787D01*
X109036292Y-80503603D01*
X109161514Y-80436671D01*
X109233097Y-80192702D01*
X108420000Y-79379605D01*
X107606903Y-80192702D01*
X105119536Y-80192702D01*
X106977239Y-78335000D01*
X107375393Y-78335000D01*
X107427296Y-78386903D01*
X107183329Y-78458486D01*
X107062429Y-78713996D01*
X106993700Y-78988184D01*
X106979783Y-79270512D01*
X107021213Y-79550130D01*
X107116397Y-79816292D01*
X107183329Y-79941514D01*
X107427298Y-80013097D01*
X108240395Y-79200000D01*
X108226253Y-79185858D01*
X108405858Y-79006253D01*
X108420000Y-79020395D01*
X108434143Y-79006253D01*
X108613748Y-79185858D01*
X108599605Y-79200000D01*
X109412702Y-80013097D01*
X109656671Y-79941514D01*
X109777571Y-79686004D01*
X109846300Y-79411816D01*
X109860217Y-79129488D01*
X109818787Y-78849870D01*
X109723603Y-78583708D01*
X109656671Y-78458486D01*
X109412704Y-78386903D01*
X109464607Y-78335000D01*
X112985274Y-78335000D01*
X113008815Y-78363685D01*
X113105506Y-78443037D01*
X113197219Y-78492059D01*
X113084031Y-78633077D01*
X112940429Y-78908906D01*
X112869437Y-79127020D01*
X112989406Y-79373000D01*
X114333000Y-79373000D01*
X114333000Y-79353000D01*
X114587000Y-79353000D01*
X114587000Y-79373000D01*
X115930594Y-79373000D01*
X116050563Y-79127020D01*
X115979571Y-78908906D01*
X115835969Y-78633077D01*
X115722781Y-78492059D01*
X115814494Y-78443037D01*
X115911185Y-78363685D01*
X115990537Y-78266994D01*
X116049502Y-78156680D01*
X116085812Y-78036982D01*
X116098072Y-77912500D01*
X116098072Y-77009140D01*
X116102912Y-76960000D01*
X116098072Y-76910860D01*
X116098072Y-76007500D01*
X116095000Y-75976308D01*
X116095000Y-69946144D01*
X116149502Y-69844180D01*
X116185812Y-69724482D01*
X116198072Y-69600000D01*
X116198072Y-67400000D01*
X116185812Y-67275518D01*
X116149502Y-67155820D01*
X116090537Y-67045506D01*
X116011185Y-66948815D01*
X115914494Y-66869463D01*
X115804180Y-66810498D01*
X115684482Y-66774188D01*
X115560000Y-66761928D01*
X113360000Y-66761928D01*
X113235518Y-66774188D01*
X113115820Y-66810498D01*
X113005506Y-66869463D01*
X112908815Y-66948815D01*
X112829463Y-67045506D01*
X112770498Y-67155820D01*
X112734188Y-67275518D01*
X112721928Y-67400000D01*
X112721928Y-69600000D01*
X112734188Y-69724482D01*
X112770498Y-69844180D01*
X112825000Y-69946145D01*
X112825001Y-75065000D01*
X106380319Y-75065000D01*
X106299999Y-75057089D01*
X106219680Y-75065000D01*
X106219678Y-75065000D01*
X105979484Y-75088657D01*
X105671285Y-75182148D01*
X105387248Y-75333969D01*
X105138286Y-75538286D01*
X105087080Y-75600681D01*
X99525834Y-81161928D01*
X98800000Y-81161928D01*
X98675518Y-81174188D01*
X98555820Y-81210498D01*
X98445506Y-81269463D01*
X98348815Y-81348815D01*
X98294499Y-81415000D01*
X81705501Y-81415000D01*
X81651185Y-81348815D01*
X81554494Y-81269463D01*
X81444180Y-81210498D01*
X81324482Y-81174188D01*
X81200000Y-81161928D01*
X78800000Y-81161928D01*
X78675518Y-81174188D01*
X78555820Y-81210498D01*
X78445506Y-81269463D01*
X78348815Y-81348815D01*
X78335532Y-81365000D01*
X61744468Y-81365000D01*
X61731185Y-81348815D01*
X61634494Y-81269463D01*
X61524180Y-81210498D01*
X61404482Y-81174188D01*
X61280000Y-81161928D01*
X60554167Y-81161928D01*
X56715000Y-77322762D01*
X56715000Y-75606144D01*
X56769502Y-75504180D01*
X56805812Y-75384482D01*
X56818072Y-75260000D01*
X56818072Y-73494999D01*
X62262761Y-73494999D01*
X63669138Y-74901378D01*
X63702463Y-74981831D01*
X63892337Y-75265998D01*
X64134002Y-75507663D01*
X64418169Y-75697537D01*
X64733919Y-75828325D01*
X65069117Y-75895000D01*
X65410883Y-75895000D01*
X65746081Y-75828325D01*
X65826535Y-75795000D01*
X71429681Y-75795000D01*
X71510000Y-75802911D01*
X71590319Y-75795000D01*
X71590322Y-75795000D01*
X71830516Y-75771343D01*
X72138715Y-75677852D01*
X72422752Y-75526031D01*
X72671714Y-75321714D01*
X72722924Y-75259314D01*
X72860000Y-75122238D01*
X75267090Y-77529329D01*
X75318296Y-77591724D01*
X75567258Y-77796041D01*
X75851295Y-77947862D01*
X76159494Y-78041353D01*
X76399688Y-78065010D01*
X76399690Y-78065010D01*
X76480009Y-78072921D01*
X76560329Y-78065010D01*
X84048112Y-78065010D01*
X84128431Y-78072921D01*
X84208750Y-78065010D01*
X84208753Y-78065010D01*
X84448947Y-78041353D01*
X84757146Y-77947862D01*
X85041183Y-77796041D01*
X85290145Y-77591724D01*
X85341356Y-77529323D01*
X85405679Y-77465000D01*
X97699681Y-77465000D01*
X97780000Y-77472911D01*
X97860319Y-77465000D01*
X97860322Y-77465000D01*
X98100516Y-77441343D01*
X98408715Y-77347852D01*
X98692752Y-77196031D01*
X98941714Y-76991714D01*
X98992925Y-76929313D01*
X100977239Y-74945000D01*
X101010279Y-74945000D01*
X101422756Y-74862953D01*
X101811302Y-74702012D01*
X102160983Y-74468363D01*
X102458363Y-74170983D01*
X102692012Y-73821302D01*
X102852953Y-73432756D01*
X102935000Y-73020279D01*
X102935000Y-72599721D01*
X102852953Y-72187244D01*
X102692012Y-71798698D01*
X102458363Y-71449017D01*
X102160983Y-71151637D01*
X101811302Y-70917988D01*
X101422756Y-70757047D01*
X101010279Y-70675000D01*
X100589721Y-70675000D01*
X100177244Y-70757047D01*
X99788698Y-70917988D01*
X99439017Y-71151637D01*
X99141637Y-71449017D01*
X98907988Y-71798698D01*
X98747047Y-72187244D01*
X98665000Y-72599721D01*
X98665000Y-72632761D01*
X97102762Y-74195000D01*
X84808760Y-74195000D01*
X84735000Y-74187735D01*
X84735000Y-73457000D01*
X83427000Y-73457000D01*
X83427000Y-73477000D01*
X83173000Y-73477000D01*
X83173000Y-73457000D01*
X81865000Y-73457000D01*
X81865000Y-74557000D01*
X81909898Y-74795010D01*
X77157249Y-74795010D01*
X74995000Y-72632762D01*
X74995000Y-72599721D01*
X74912953Y-72187244D01*
X74878058Y-72103000D01*
X81865000Y-72103000D01*
X81865000Y-73203000D01*
X83173000Y-73203000D01*
X83173000Y-70960085D01*
X83427000Y-70960085D01*
X83427000Y-73203000D01*
X84735000Y-73203000D01*
X84735000Y-72103000D01*
X84682650Y-71825486D01*
X84577166Y-71563517D01*
X84422601Y-71327161D01*
X84224895Y-71125500D01*
X83991646Y-70966285D01*
X83731818Y-70855633D01*
X83649039Y-70838096D01*
X83427000Y-70960085D01*
X83173000Y-70960085D01*
X82950961Y-70838096D01*
X82868182Y-70855633D01*
X82608354Y-70966285D01*
X82375105Y-71125500D01*
X82177399Y-71327161D01*
X82022834Y-71563517D01*
X81917350Y-71825486D01*
X81865000Y-72103000D01*
X74878058Y-72103000D01*
X74752012Y-71798698D01*
X74518363Y-71449017D01*
X74220983Y-71151637D01*
X73871302Y-70917988D01*
X73482756Y-70757047D01*
X73070279Y-70675000D01*
X72649721Y-70675000D01*
X72237244Y-70757047D01*
X71848698Y-70917988D01*
X71499017Y-71151637D01*
X71201637Y-71449017D01*
X70967988Y-71798698D01*
X70807047Y-72187244D01*
X70739863Y-72525000D01*
X65917240Y-72525000D01*
X64152923Y-70760685D01*
X64101713Y-70698285D01*
X63852751Y-70493968D01*
X63568714Y-70342147D01*
X63260515Y-70248656D01*
X63020321Y-70224999D01*
X63020318Y-70224999D01*
X62939999Y-70217088D01*
X62859680Y-70224999D01*
X53100318Y-70224999D01*
X53019998Y-70217088D01*
X52939679Y-70224999D01*
X52939677Y-70224999D01*
X52699483Y-70248656D01*
X52391284Y-70342147D01*
X52107247Y-70493968D01*
X51858285Y-70698285D01*
X51807074Y-70760686D01*
X51680681Y-70887079D01*
X51618286Y-70938285D01*
X51494749Y-71088816D01*
X51413969Y-71187247D01*
X51262147Y-71471285D01*
X51168657Y-71779483D01*
X51137088Y-72099999D01*
X50660000Y-72099999D01*
X50660000Y-70179039D01*
X85608096Y-70179039D01*
X85625633Y-70261818D01*
X85736285Y-70521646D01*
X85895500Y-70754895D01*
X86097161Y-70952601D01*
X86333517Y-71107166D01*
X86595486Y-71212650D01*
X86873000Y-71265000D01*
X87973000Y-71265000D01*
X87973000Y-69957000D01*
X88227000Y-69957000D01*
X88227000Y-71265000D01*
X89327000Y-71265000D01*
X89604514Y-71212650D01*
X89866483Y-71107166D01*
X90102839Y-70952601D01*
X90304500Y-70754895D01*
X90463715Y-70521646D01*
X90574367Y-70261818D01*
X90591904Y-70179039D01*
X90469915Y-69957000D01*
X88227000Y-69957000D01*
X87973000Y-69957000D01*
X85730085Y-69957000D01*
X85608096Y-70179039D01*
X50660000Y-70179039D01*
X50660000Y-69310000D01*
X70721928Y-69310000D01*
X70734188Y-69434482D01*
X70770498Y-69554180D01*
X70829463Y-69664494D01*
X70908815Y-69761185D01*
X71005506Y-69840537D01*
X71115820Y-69899502D01*
X71235518Y-69935812D01*
X71360000Y-69948072D01*
X72574250Y-69945000D01*
X72733000Y-69786250D01*
X72733000Y-67937000D01*
X72987000Y-67937000D01*
X72987000Y-69786250D01*
X73145750Y-69945000D01*
X74360000Y-69948072D01*
X74484482Y-69935812D01*
X74604180Y-69899502D01*
X74714494Y-69840537D01*
X74811185Y-69761185D01*
X74890537Y-69664494D01*
X74949502Y-69554180D01*
X74971712Y-69480961D01*
X85608096Y-69480961D01*
X85730085Y-69703000D01*
X87973000Y-69703000D01*
X87973000Y-68395000D01*
X88227000Y-68395000D01*
X88227000Y-69703000D01*
X90469915Y-69703000D01*
X90591904Y-69480961D01*
X90574367Y-69398182D01*
X90536814Y-69310000D01*
X98661928Y-69310000D01*
X98674188Y-69434482D01*
X98710498Y-69554180D01*
X98769463Y-69664494D01*
X98848815Y-69761185D01*
X98945506Y-69840537D01*
X99055820Y-69899502D01*
X99175518Y-69935812D01*
X99300000Y-69948072D01*
X100514250Y-69945000D01*
X100673000Y-69786250D01*
X100673000Y-67937000D01*
X100927000Y-67937000D01*
X100927000Y-69786250D01*
X101085750Y-69945000D01*
X102300000Y-69948072D01*
X102424482Y-69935812D01*
X102544180Y-69899502D01*
X102654494Y-69840537D01*
X102751185Y-69761185D01*
X102830537Y-69664494D01*
X102889502Y-69554180D01*
X102925812Y-69434482D01*
X102938072Y-69310000D01*
X102935000Y-68095750D01*
X102776250Y-67937000D01*
X100927000Y-67937000D01*
X100673000Y-67937000D01*
X98823750Y-67937000D01*
X98665000Y-68095750D01*
X98661928Y-69310000D01*
X90536814Y-69310000D01*
X90463715Y-69138354D01*
X90304500Y-68905105D01*
X90102839Y-68707399D01*
X89866483Y-68552834D01*
X89604514Y-68447350D01*
X89327000Y-68395000D01*
X88227000Y-68395000D01*
X87973000Y-68395000D01*
X86873000Y-68395000D01*
X86595486Y-68447350D01*
X86333517Y-68552834D01*
X86097161Y-68707399D01*
X85895500Y-68905105D01*
X85736285Y-69138354D01*
X85625633Y-69398182D01*
X85608096Y-69480961D01*
X74971712Y-69480961D01*
X74985812Y-69434482D01*
X74998072Y-69310000D01*
X74995000Y-68095750D01*
X74836250Y-67937000D01*
X72987000Y-67937000D01*
X72733000Y-67937000D01*
X70883750Y-67937000D01*
X70725000Y-68095750D01*
X70721928Y-69310000D01*
X50660000Y-69310000D01*
X50660000Y-66779872D01*
X50765000Y-66779872D01*
X50765000Y-67220128D01*
X50850890Y-67651925D01*
X51019369Y-68058669D01*
X51263962Y-68424729D01*
X51575271Y-68736038D01*
X51941331Y-68980631D01*
X52348075Y-69149110D01*
X52779872Y-69235000D01*
X53220128Y-69235000D01*
X53651925Y-69149110D01*
X54058669Y-68980631D01*
X54424729Y-68736038D01*
X54736038Y-68424729D01*
X54980631Y-68058669D01*
X55149110Y-67651925D01*
X55235000Y-67220128D01*
X55235000Y-66779872D01*
X55149110Y-66348075D01*
X55133339Y-66310000D01*
X70721928Y-66310000D01*
X70725000Y-67524250D01*
X70883750Y-67683000D01*
X72733000Y-67683000D01*
X72733000Y-65833750D01*
X72987000Y-65833750D01*
X72987000Y-67683000D01*
X74836250Y-67683000D01*
X74995000Y-67524250D01*
X74998072Y-66310000D01*
X98661928Y-66310000D01*
X98665000Y-67524250D01*
X98823750Y-67683000D01*
X100673000Y-67683000D01*
X100673000Y-65833750D01*
X100927000Y-65833750D01*
X100927000Y-67683000D01*
X102776250Y-67683000D01*
X102935000Y-67524250D01*
X102938072Y-66310000D01*
X102925812Y-66185518D01*
X102889502Y-66065820D01*
X102830537Y-65955506D01*
X102751185Y-65858815D01*
X102654494Y-65779463D01*
X102544180Y-65720498D01*
X102424482Y-65684188D01*
X102300000Y-65671928D01*
X101085750Y-65675000D01*
X100927000Y-65833750D01*
X100673000Y-65833750D01*
X100514250Y-65675000D01*
X99300000Y-65671928D01*
X99175518Y-65684188D01*
X99055820Y-65720498D01*
X98945506Y-65779463D01*
X98848815Y-65858815D01*
X98769463Y-65955506D01*
X98710498Y-66065820D01*
X98674188Y-66185518D01*
X98661928Y-66310000D01*
X74998072Y-66310000D01*
X74985812Y-66185518D01*
X74949502Y-66065820D01*
X74890537Y-65955506D01*
X74811185Y-65858815D01*
X74714494Y-65779463D01*
X74604180Y-65720498D01*
X74484482Y-65684188D01*
X74360000Y-65671928D01*
X73145750Y-65675000D01*
X72987000Y-65833750D01*
X72733000Y-65833750D01*
X72574250Y-65675000D01*
X71360000Y-65671928D01*
X71235518Y-65684188D01*
X71115820Y-65720498D01*
X71005506Y-65779463D01*
X70908815Y-65858815D01*
X70829463Y-65955506D01*
X70770498Y-66065820D01*
X70734188Y-66185518D01*
X70721928Y-66310000D01*
X55133339Y-66310000D01*
X54980631Y-65941331D01*
X54736038Y-65575271D01*
X54424729Y-65263962D01*
X54058669Y-65019369D01*
X53651925Y-64850890D01*
X53220128Y-64765000D01*
X52779872Y-64765000D01*
X52348075Y-64850890D01*
X51941331Y-65019369D01*
X51575271Y-65263962D01*
X51263962Y-65575271D01*
X51019369Y-65941331D01*
X50850890Y-66348075D01*
X50765000Y-66779872D01*
X50660000Y-66779872D01*
X50660000Y-64660000D01*
X149340000Y-64660000D01*
X149340001Y-124340000D01*
%TA.AperFunction,Conductor*%
D31*
G36*
X149340001Y-124340000D02*
G01*
X50660000Y-124340000D01*
X50660000Y-121779872D01*
X50765000Y-121779872D01*
X50765000Y-122220128D01*
X50850890Y-122651925D01*
X51019369Y-123058669D01*
X51263962Y-123424729D01*
X51575271Y-123736038D01*
X51941331Y-123980631D01*
X52348075Y-124149110D01*
X52779872Y-124235000D01*
X53220128Y-124235000D01*
X53651925Y-124149110D01*
X54058669Y-123980631D01*
X54424729Y-123736038D01*
X54736038Y-123424729D01*
X54980631Y-123058669D01*
X55149110Y-122651925D01*
X55235000Y-122220128D01*
X55235000Y-121779872D01*
X55149110Y-121348075D01*
X54980631Y-120941331D01*
X54736038Y-120575271D01*
X54424729Y-120263962D01*
X54058669Y-120019369D01*
X53651925Y-119850890D01*
X53220128Y-119765000D01*
X52779872Y-119765000D01*
X52348075Y-119850890D01*
X51941331Y-120019369D01*
X51575271Y-120263962D01*
X51263962Y-120575271D01*
X51019369Y-120941331D01*
X50850890Y-121348075D01*
X50765000Y-121779872D01*
X50660000Y-121779872D01*
X50660000Y-72099999D01*
X51137088Y-72099999D01*
X51145000Y-72180328D01*
X51144999Y-115699680D01*
X51137088Y-115779999D01*
X51144999Y-115860318D01*
X51144999Y-115860320D01*
X51168656Y-116100514D01*
X51262147Y-116408713D01*
X51413968Y-116692750D01*
X51618285Y-116941713D01*
X51680686Y-116992924D01*
X56261928Y-121574167D01*
X56261928Y-122100000D01*
X56274188Y-122224482D01*
X56310498Y-122344180D01*
X56369463Y-122454494D01*
X56448815Y-122551185D01*
X56545506Y-122630537D01*
X56655820Y-122689502D01*
X56775518Y-122725812D01*
X56900000Y-122738072D01*
X59100000Y-122738072D01*
X59224482Y-122725812D01*
X59344180Y-122689502D01*
X59454494Y-122630537D01*
X59551185Y-122551185D01*
X59630537Y-122454494D01*
X59689502Y-122344180D01*
X59725812Y-122224482D01*
X59738072Y-122100000D01*
X59738072Y-119900000D01*
X59725812Y-119775518D01*
X59689502Y-119655820D01*
X59630537Y-119545506D01*
X59551185Y-119448815D01*
X59454494Y-119369463D01*
X59344180Y-119310498D01*
X59224482Y-119274188D01*
X59100000Y-119261928D01*
X58574167Y-119261928D01*
X54414999Y-115102761D01*
X54414999Y-110819268D01*
X58245000Y-110819268D01*
X58245000Y-111180732D01*
X58315518Y-111535250D01*
X58453844Y-111869199D01*
X58552466Y-112016797D01*
X58562148Y-112048715D01*
X58713969Y-112332752D01*
X58918286Y-112581714D01*
X58980686Y-112632924D01*
X66525000Y-120177240D01*
X66525000Y-120413465D01*
X66491675Y-120493919D01*
X66425000Y-120829117D01*
X66425000Y-121170883D01*
X66491675Y-121506081D01*
X66622463Y-121821831D01*
X66812337Y-122105998D01*
X67054002Y-122347663D01*
X67338169Y-122537537D01*
X67653919Y-122668325D01*
X67989117Y-122735000D01*
X68330883Y-122735000D01*
X68666081Y-122668325D01*
X68821182Y-122604080D01*
X137575525Y-122604080D01*
X137659208Y-122858261D01*
X137931775Y-122989158D01*
X138224642Y-123064365D01*
X138526553Y-123080991D01*
X138825907Y-123038397D01*
X139111199Y-122938222D01*
X139260792Y-122858261D01*
X139344475Y-122604080D01*
X138460000Y-121719605D01*
X137575525Y-122604080D01*
X68821182Y-122604080D01*
X68981831Y-122537537D01*
X69265998Y-122347663D01*
X69507663Y-122105998D01*
X69697537Y-121821831D01*
X69828325Y-121506081D01*
X69895000Y-121170883D01*
X69895000Y-120829117D01*
X69828325Y-120493919D01*
X69795000Y-120413465D01*
X69795000Y-119580322D01*
X69802911Y-119500000D01*
X69771343Y-119179483D01*
X69677852Y-118871285D01*
X69568141Y-118666030D01*
X69526031Y-118587248D01*
X69321714Y-118338286D01*
X69259325Y-118287085D01*
X63607239Y-112635000D01*
X79152152Y-112635000D01*
X79464750Y-112764482D01*
X79819268Y-112835000D01*
X80180732Y-112835000D01*
X80535250Y-112764482D01*
X80847848Y-112635000D01*
X99152152Y-112635000D01*
X99443401Y-112755639D01*
X105087080Y-118399319D01*
X105138286Y-118461714D01*
X105387248Y-118666031D01*
X105671285Y-118817852D01*
X105979484Y-118911343D01*
X106219678Y-118935000D01*
X106219680Y-118935000D01*
X106299999Y-118942911D01*
X106380319Y-118935000D01*
X107742762Y-118935000D01*
X110707081Y-121899320D01*
X110758287Y-121961715D01*
X111007249Y-122166032D01*
X111291286Y-122317853D01*
X111599485Y-122411344D01*
X111839679Y-122435001D01*
X111839681Y-122435001D01*
X111920001Y-122442912D01*
X112000320Y-122435001D01*
X122239680Y-122435001D01*
X122319999Y-122442912D01*
X122400318Y-122435001D01*
X122400321Y-122435001D01*
X122640515Y-122411344D01*
X122948714Y-122317853D01*
X123232751Y-122166032D01*
X123481713Y-121961715D01*
X123532923Y-121899315D01*
X125361378Y-120070862D01*
X125441831Y-120037537D01*
X125725998Y-119847663D01*
X125967663Y-119605998D01*
X126157537Y-119321831D01*
X126288325Y-119006081D01*
X126355000Y-118670883D01*
X126355000Y-118329117D01*
X126288325Y-117993919D01*
X126255000Y-117913465D01*
X126255000Y-117024685D01*
X126262911Y-116944365D01*
X126244942Y-116761928D01*
X126231343Y-116623850D01*
X126137852Y-116315651D01*
X125986031Y-116031614D01*
X125781714Y-115782652D01*
X125719319Y-115731446D01*
X123987873Y-114000000D01*
X135457089Y-114000000D01*
X135488658Y-114320516D01*
X135582148Y-114628714D01*
X135733970Y-114912752D01*
X135887085Y-115099323D01*
X136825001Y-116037239D01*
X136825000Y-119080321D01*
X136848657Y-119320515D01*
X136921928Y-119562057D01*
X136921928Y-119900000D01*
X136934188Y-120024482D01*
X136970498Y-120144180D01*
X137029463Y-120254494D01*
X137108815Y-120351185D01*
X137205506Y-120430537D01*
X137315820Y-120489502D01*
X137326735Y-120492813D01*
X137279970Y-120539578D01*
X137395918Y-120655526D01*
X137141739Y-120739208D01*
X137010842Y-121011775D01*
X136935635Y-121304642D01*
X136919009Y-121606553D01*
X136961603Y-121905907D01*
X137061778Y-122191199D01*
X137141739Y-122340792D01*
X137395920Y-122424475D01*
X138280395Y-121540000D01*
X138266253Y-121525858D01*
X138445858Y-121346253D01*
X138460000Y-121360395D01*
X138474143Y-121346253D01*
X138653748Y-121525858D01*
X138639605Y-121540000D01*
X139524080Y-122424475D01*
X139778261Y-122340792D01*
X139909158Y-122068225D01*
X139983205Y-121779872D01*
X144765000Y-121779872D01*
X144765000Y-122220128D01*
X144850890Y-122651925D01*
X145019369Y-123058669D01*
X145263962Y-123424729D01*
X145575271Y-123736038D01*
X145941331Y-123980631D01*
X146348075Y-124149110D01*
X146779872Y-124235000D01*
X147220128Y-124235000D01*
X147651925Y-124149110D01*
X148058669Y-123980631D01*
X148424729Y-123736038D01*
X148736038Y-123424729D01*
X148980631Y-123058669D01*
X149149110Y-122651925D01*
X149235000Y-122220128D01*
X149235000Y-121779872D01*
X149149110Y-121348075D01*
X148980631Y-120941331D01*
X148736038Y-120575271D01*
X148424729Y-120263962D01*
X148058669Y-120019369D01*
X147651925Y-119850890D01*
X147220128Y-119765000D01*
X146779872Y-119765000D01*
X146348075Y-119850890D01*
X145941331Y-120019369D01*
X145575271Y-120263962D01*
X145263962Y-120575271D01*
X145019369Y-120941331D01*
X144850890Y-121348075D01*
X144765000Y-121779872D01*
X139983205Y-121779872D01*
X139984365Y-121775358D01*
X140000991Y-121473447D01*
X139958397Y-121174093D01*
X139858222Y-120888801D01*
X139778261Y-120739208D01*
X139524082Y-120655526D01*
X139640030Y-120539578D01*
X139593265Y-120492813D01*
X139604180Y-120489502D01*
X139714494Y-120430537D01*
X139811185Y-120351185D01*
X139890537Y-120254494D01*
X139949502Y-120144180D01*
X139985812Y-120024482D01*
X139998072Y-119900000D01*
X139998072Y-119562058D01*
X140071343Y-119320516D01*
X140095000Y-119080322D01*
X140095000Y-115440319D01*
X140102911Y-115359999D01*
X140082354Y-115151285D01*
X140071343Y-115039484D01*
X139977852Y-114731285D01*
X139826031Y-114447248D01*
X139621714Y-114198286D01*
X139559318Y-114147079D01*
X138199323Y-112787085D01*
X138012752Y-112633970D01*
X137728714Y-112482148D01*
X137420516Y-112388658D01*
X137100000Y-112357089D01*
X136779484Y-112388658D01*
X136471286Y-112482148D01*
X136187248Y-112633970D01*
X135938287Y-112838287D01*
X135733970Y-113087248D01*
X135582148Y-113371286D01*
X135488658Y-113679484D01*
X135457089Y-114000000D01*
X123987873Y-114000000D01*
X116388559Y-106400687D01*
X116337348Y-106338286D01*
X116088386Y-106133969D01*
X116060855Y-106119253D01*
X116085812Y-106036982D01*
X116098072Y-105912500D01*
X116095000Y-105245750D01*
X115936250Y-105087000D01*
X114587000Y-105087000D01*
X114587000Y-105107000D01*
X114333000Y-105107000D01*
X114333000Y-105087000D01*
X114313000Y-105087000D01*
X114313000Y-104833000D01*
X114333000Y-104833000D01*
X114333000Y-103531250D01*
X114587000Y-103531250D01*
X114587000Y-104833000D01*
X115936250Y-104833000D01*
X116095000Y-104674250D01*
X116098072Y-104007500D01*
X116085812Y-103883018D01*
X116049502Y-103763320D01*
X115990537Y-103653006D01*
X115911185Y-103556315D01*
X115814494Y-103476963D01*
X115704180Y-103417998D01*
X115584482Y-103381688D01*
X115460000Y-103369428D01*
X114745750Y-103372500D01*
X114587000Y-103531250D01*
X114333000Y-103531250D01*
X114174250Y-103372500D01*
X113940743Y-103371496D01*
X117056006Y-100256234D01*
X117171284Y-100317851D01*
X117479483Y-100411342D01*
X117719677Y-100434999D01*
X117719679Y-100434999D01*
X117799998Y-100442910D01*
X117880318Y-100434999D01*
X128517394Y-100434999D01*
X128597713Y-100442910D01*
X128678032Y-100434999D01*
X128678035Y-100434999D01*
X128918229Y-100411342D01*
X129226428Y-100317851D01*
X129510465Y-100166030D01*
X129759427Y-99961713D01*
X129810638Y-99899312D01*
X131620000Y-98089950D01*
X136725001Y-103194952D01*
X136725000Y-107194680D01*
X136717089Y-107275000D01*
X136725000Y-107355319D01*
X136725000Y-107355321D01*
X136748657Y-107595515D01*
X136842148Y-107903714D01*
X136993969Y-108187751D01*
X137198286Y-108436714D01*
X137260686Y-108487924D01*
X137964137Y-109191376D01*
X137997463Y-109271831D01*
X138187337Y-109555998D01*
X138429002Y-109797663D01*
X138713169Y-109987537D01*
X139028919Y-110118325D01*
X139364117Y-110185000D01*
X139705883Y-110185000D01*
X140041081Y-110118325D01*
X140356831Y-109987537D01*
X140640998Y-109797663D01*
X140882663Y-109555998D01*
X141072537Y-109271831D01*
X141203325Y-108956081D01*
X141270000Y-108620883D01*
X141270000Y-108279117D01*
X142800000Y-108279117D01*
X142800000Y-108620883D01*
X142866675Y-108956081D01*
X142900000Y-109036535D01*
X142900001Y-111194671D01*
X142892089Y-111275000D01*
X142923658Y-111595516D01*
X143017148Y-111903714D01*
X143168970Y-112187752D01*
X143373287Y-112436714D01*
X143435682Y-112487920D01*
X146160676Y-115212915D01*
X146347247Y-115366030D01*
X146631285Y-115517852D01*
X146939483Y-115611342D01*
X147260000Y-115642911D01*
X147580516Y-115611342D01*
X147888714Y-115517852D01*
X148172752Y-115366030D01*
X148421713Y-115161713D01*
X148626030Y-114912752D01*
X148777852Y-114628714D01*
X148871342Y-114320516D01*
X148902911Y-114000000D01*
X148871342Y-113679483D01*
X148777852Y-113371285D01*
X148626030Y-113087247D01*
X148472915Y-112900676D01*
X146170000Y-110597762D01*
X146170000Y-109036535D01*
X146203325Y-108956081D01*
X146270000Y-108620883D01*
X146270000Y-108279117D01*
X146203325Y-107943919D01*
X146170000Y-107863465D01*
X146170000Y-102662238D01*
X147007224Y-101825015D01*
X147069834Y-101812561D01*
X147412882Y-101670466D01*
X147721618Y-101464175D01*
X147984175Y-101201618D01*
X148190466Y-100892882D01*
X148332561Y-100549834D01*
X148405000Y-100185656D01*
X148405000Y-99814344D01*
X148332561Y-99450166D01*
X148190466Y-99107118D01*
X147984175Y-98798382D01*
X147721618Y-98535825D01*
X147412882Y-98329534D01*
X147069834Y-98187439D01*
X146705656Y-98115000D01*
X146334344Y-98115000D01*
X145970166Y-98187439D01*
X145627118Y-98329534D01*
X145318382Y-98535825D01*
X145055825Y-98798382D01*
X144849534Y-99107118D01*
X144707439Y-99450166D01*
X144694985Y-99512776D01*
X143435682Y-100772080D01*
X143373287Y-100823286D01*
X143305103Y-100906369D01*
X143168970Y-101072248D01*
X143017148Y-101356286D01*
X142923658Y-101664484D01*
X142892089Y-101985000D01*
X142900001Y-102065329D01*
X142900000Y-107863465D01*
X142866675Y-107943919D01*
X142800000Y-108279117D01*
X141270000Y-108279117D01*
X141203325Y-107943919D01*
X141072537Y-107628169D01*
X140882663Y-107344002D01*
X140640998Y-107102337D01*
X140356831Y-106912463D01*
X140276376Y-106879137D01*
X139995000Y-106597762D01*
X139995000Y-102598031D01*
X140002911Y-102517711D01*
X139995000Y-102437390D01*
X139971343Y-102197196D01*
X139877852Y-101888997D01*
X139726031Y-101604960D01*
X139521714Y-101355998D01*
X139459319Y-101304792D01*
X134468132Y-96313605D01*
X145386000Y-96313605D01*
X145511914Y-96603577D01*
X145844126Y-96769433D01*
X146202312Y-96867290D01*
X146572706Y-96893389D01*
X146941075Y-96846725D01*
X147293262Y-96729094D01*
X147528086Y-96603577D01*
X147654000Y-96313605D01*
X146520000Y-95179605D01*
X145386000Y-96313605D01*
X134468132Y-96313605D01*
X133207233Y-95052706D01*
X144626611Y-95052706D01*
X144673275Y-95421075D01*
X144790906Y-95773262D01*
X144916423Y-96008086D01*
X145206395Y-96134000D01*
X146340395Y-95000000D01*
X146699605Y-95000000D01*
X147833605Y-96134000D01*
X148123577Y-96008086D01*
X148289433Y-95675874D01*
X148387290Y-95317688D01*
X148413389Y-94947294D01*
X148366725Y-94578925D01*
X148249094Y-94226738D01*
X148123577Y-93991914D01*
X147833605Y-93866000D01*
X146699605Y-95000000D01*
X146340395Y-95000000D01*
X145206395Y-93866000D01*
X144916423Y-93991914D01*
X144750567Y-94324126D01*
X144652710Y-94682312D01*
X144626611Y-95052706D01*
X133207233Y-95052706D01*
X133190863Y-95036337D01*
X133157537Y-94955881D01*
X132967663Y-94671714D01*
X132725998Y-94430049D01*
X132441831Y-94240175D01*
X132126081Y-94109387D01*
X131790883Y-94042712D01*
X131449117Y-94042712D01*
X131113919Y-94109387D01*
X130798169Y-94240175D01*
X130514002Y-94430049D01*
X130272337Y-94671714D01*
X130082463Y-94955881D01*
X130049138Y-95036336D01*
X127920475Y-97164999D01*
X123126460Y-97164999D01*
X123149502Y-97121892D01*
X123185812Y-97002194D01*
X123198072Y-96877712D01*
X123195000Y-96063462D01*
X123036250Y-95904712D01*
X121587000Y-95904712D01*
X121587000Y-95924712D01*
X121333000Y-95924712D01*
X121333000Y-95904712D01*
X119883750Y-95904712D01*
X119725000Y-96063462D01*
X119721928Y-96877712D01*
X119734188Y-97002194D01*
X119770498Y-97121892D01*
X119793540Y-97164999D01*
X118477237Y-97164999D01*
X118212916Y-96900678D01*
X118161713Y-96838287D01*
X118153147Y-96831257D01*
X118154494Y-96830537D01*
X118251185Y-96751185D01*
X118330537Y-96654494D01*
X118389502Y-96544180D01*
X118425812Y-96424482D01*
X118438072Y-96300000D01*
X118435000Y-95785750D01*
X118276250Y-95627000D01*
X117127000Y-95627000D01*
X117127000Y-95647000D01*
X116873000Y-95647000D01*
X116873000Y-95627000D01*
X115723750Y-95627000D01*
X115565000Y-95785750D01*
X115561928Y-96300000D01*
X115574188Y-96424482D01*
X115610498Y-96544180D01*
X115669463Y-96654494D01*
X115748815Y-96751185D01*
X115845506Y-96830537D01*
X115846853Y-96831257D01*
X115838287Y-96838287D01*
X115787093Y-96900667D01*
X111160681Y-101527081D01*
X111098286Y-101578287D01*
X110989784Y-101710498D01*
X110893969Y-101827249D01*
X110742147Y-102111287D01*
X110648657Y-102419485D01*
X110617088Y-102740001D01*
X110625000Y-102820330D01*
X110624999Y-108330962D01*
X110617088Y-108411282D01*
X110624999Y-108491601D01*
X110624999Y-108491603D01*
X110648656Y-108731797D01*
X110742147Y-109039996D01*
X110893968Y-109324033D01*
X111098285Y-109572996D01*
X111160685Y-109624207D01*
X112675796Y-111139318D01*
X112727003Y-111201714D01*
X112825000Y-111282138D01*
X112825001Y-117053854D01*
X112770498Y-117155820D01*
X112734188Y-117275518D01*
X112721928Y-117400000D01*
X112721928Y-119165001D01*
X112597240Y-119165001D01*
X109632925Y-116200687D01*
X109581714Y-116138286D01*
X109573148Y-116131256D01*
X109574494Y-116130537D01*
X109671185Y-116051185D01*
X109750537Y-115954494D01*
X109809502Y-115844180D01*
X109845812Y-115724482D01*
X109858072Y-115600000D01*
X109855000Y-115085750D01*
X109696250Y-114927000D01*
X108547000Y-114927000D01*
X108547000Y-114947000D01*
X108293000Y-114947000D01*
X108293000Y-114927000D01*
X107143750Y-114927000D01*
X106985000Y-115085750D01*
X106981928Y-115600000D01*
X106988330Y-115665000D01*
X106977239Y-115665000D01*
X105312239Y-114000000D01*
X106981928Y-114000000D01*
X106985000Y-114514250D01*
X107143750Y-114673000D01*
X108293000Y-114673000D01*
X108293000Y-113523750D01*
X108547000Y-113523750D01*
X108547000Y-114673000D01*
X109696250Y-114673000D01*
X109855000Y-114514250D01*
X109858072Y-114000000D01*
X109845812Y-113875518D01*
X109809502Y-113755820D01*
X109750537Y-113645506D01*
X109671185Y-113548815D01*
X109574494Y-113469463D01*
X109464180Y-113410498D01*
X109344482Y-113374188D01*
X109220000Y-113361928D01*
X108705750Y-113365000D01*
X108547000Y-113523750D01*
X108293000Y-113523750D01*
X108134250Y-113365000D01*
X107620000Y-113361928D01*
X107495518Y-113374188D01*
X107375820Y-113410498D01*
X107265506Y-113469463D01*
X107168815Y-113548815D01*
X107089463Y-113645506D01*
X107030498Y-113755820D01*
X106994188Y-113875518D01*
X106981928Y-114000000D01*
X105312239Y-114000000D01*
X101755639Y-110443401D01*
X101626156Y-110130801D01*
X101425338Y-109830256D01*
X101169744Y-109574662D01*
X100869199Y-109373844D01*
X100535250Y-109235518D01*
X100180732Y-109165000D01*
X99819268Y-109165000D01*
X99464750Y-109235518D01*
X99152152Y-109365000D01*
X80847848Y-109365000D01*
X80535250Y-109235518D01*
X80180732Y-109165000D01*
X79819268Y-109165000D01*
X79464750Y-109235518D01*
X79152152Y-109365000D01*
X60927848Y-109365000D01*
X60615250Y-109235518D01*
X60260732Y-109165000D01*
X59899268Y-109165000D01*
X59544750Y-109235518D01*
X59210801Y-109373844D01*
X58910256Y-109574662D01*
X58654662Y-109830256D01*
X58453844Y-110130801D01*
X58315518Y-110464750D01*
X58245000Y-110819268D01*
X54414999Y-110819268D01*
X54414999Y-104700000D01*
X58241928Y-104700000D01*
X58254188Y-104824482D01*
X58290498Y-104944180D01*
X58349463Y-105054494D01*
X58428815Y-105151185D01*
X58525506Y-105230537D01*
X58635820Y-105289502D01*
X58755518Y-105325812D01*
X58880000Y-105338072D01*
X59794250Y-105335000D01*
X59953000Y-105176250D01*
X59953000Y-103627000D01*
X60207000Y-103627000D01*
X60207000Y-105176250D01*
X60365750Y-105335000D01*
X61280000Y-105338072D01*
X61404482Y-105325812D01*
X61524180Y-105289502D01*
X61634494Y-105230537D01*
X61731185Y-105151185D01*
X61810537Y-105054494D01*
X61869502Y-104944180D01*
X61905812Y-104824482D01*
X61918072Y-104700000D01*
X78161928Y-104700000D01*
X78174188Y-104824482D01*
X78210498Y-104944180D01*
X78269463Y-105054494D01*
X78348815Y-105151185D01*
X78445506Y-105230537D01*
X78555820Y-105289502D01*
X78675518Y-105325812D01*
X78800000Y-105338072D01*
X79714250Y-105335000D01*
X79873000Y-105176250D01*
X79873000Y-103627000D01*
X80127000Y-103627000D01*
X80127000Y-105176250D01*
X80285750Y-105335000D01*
X81200000Y-105338072D01*
X81324482Y-105325812D01*
X81444180Y-105289502D01*
X81554494Y-105230537D01*
X81651185Y-105151185D01*
X81730537Y-105054494D01*
X81789502Y-104944180D01*
X81825812Y-104824482D01*
X81838072Y-104700000D01*
X98161928Y-104700000D01*
X98174188Y-104824482D01*
X98210498Y-104944180D01*
X98269463Y-105054494D01*
X98348815Y-105151185D01*
X98445506Y-105230537D01*
X98555820Y-105289502D01*
X98675518Y-105325812D01*
X98800000Y-105338072D01*
X99714250Y-105335000D01*
X99873000Y-105176250D01*
X99873000Y-103627000D01*
X100127000Y-103627000D01*
X100127000Y-105176250D01*
X100285750Y-105335000D01*
X101200000Y-105338072D01*
X101324482Y-105325812D01*
X101444180Y-105289502D01*
X101554494Y-105230537D01*
X101651185Y-105151185D01*
X101730537Y-105054494D01*
X101789502Y-104944180D01*
X101825812Y-104824482D01*
X101838072Y-104700000D01*
X101835000Y-103785750D01*
X101676250Y-103627000D01*
X100127000Y-103627000D01*
X99873000Y-103627000D01*
X98323750Y-103627000D01*
X98165000Y-103785750D01*
X98161928Y-104700000D01*
X81838072Y-104700000D01*
X81835000Y-103785750D01*
X81676250Y-103627000D01*
X80127000Y-103627000D01*
X79873000Y-103627000D01*
X78323750Y-103627000D01*
X78165000Y-103785750D01*
X78161928Y-104700000D01*
X61918072Y-104700000D01*
X61915000Y-103785750D01*
X61756250Y-103627000D01*
X60207000Y-103627000D01*
X59953000Y-103627000D01*
X58403750Y-103627000D01*
X58245000Y-103785750D01*
X58241928Y-104700000D01*
X54414999Y-104700000D01*
X54414999Y-102300000D01*
X58241928Y-102300000D01*
X58245000Y-103214250D01*
X58403750Y-103373000D01*
X59953000Y-103373000D01*
X59953000Y-101823750D01*
X60207000Y-101823750D01*
X60207000Y-103373000D01*
X61756250Y-103373000D01*
X61915000Y-103214250D01*
X61918072Y-102300000D01*
X78161928Y-102300000D01*
X78165000Y-103214250D01*
X78323750Y-103373000D01*
X79873000Y-103373000D01*
X79873000Y-101823750D01*
X80127000Y-101823750D01*
X80127000Y-103373000D01*
X81676250Y-103373000D01*
X81835000Y-103214250D01*
X81838072Y-102300000D01*
X98161928Y-102300000D01*
X98165000Y-103214250D01*
X98323750Y-103373000D01*
X99873000Y-103373000D01*
X99873000Y-101823750D01*
X100127000Y-101823750D01*
X100127000Y-103373000D01*
X101676250Y-103373000D01*
X101835000Y-103214250D01*
X101838072Y-102300000D01*
X101825812Y-102175518D01*
X101789502Y-102055820D01*
X101730537Y-101945506D01*
X101651185Y-101848815D01*
X101554494Y-101769463D01*
X101444180Y-101710498D01*
X101324482Y-101674188D01*
X101200000Y-101661928D01*
X100285750Y-101665000D01*
X100127000Y-101823750D01*
X99873000Y-101823750D01*
X99714250Y-101665000D01*
X98800000Y-101661928D01*
X98675518Y-101674188D01*
X98555820Y-101710498D01*
X98445506Y-101769463D01*
X98348815Y-101848815D01*
X98269463Y-101945506D01*
X98210498Y-102055820D01*
X98174188Y-102175518D01*
X98161928Y-102300000D01*
X81838072Y-102300000D01*
X81825812Y-102175518D01*
X81789502Y-102055820D01*
X81730537Y-101945506D01*
X81651185Y-101848815D01*
X81554494Y-101769463D01*
X81444180Y-101710498D01*
X81324482Y-101674188D01*
X81200000Y-101661928D01*
X80285750Y-101665000D01*
X80127000Y-101823750D01*
X79873000Y-101823750D01*
X79714250Y-101665000D01*
X78800000Y-101661928D01*
X78675518Y-101674188D01*
X78555820Y-101710498D01*
X78445506Y-101769463D01*
X78348815Y-101848815D01*
X78269463Y-101945506D01*
X78210498Y-102055820D01*
X78174188Y-102175518D01*
X78161928Y-102300000D01*
X61918072Y-102300000D01*
X61905812Y-102175518D01*
X61869502Y-102055820D01*
X61810537Y-101945506D01*
X61731185Y-101848815D01*
X61634494Y-101769463D01*
X61524180Y-101710498D01*
X61404482Y-101674188D01*
X61280000Y-101661928D01*
X60365750Y-101665000D01*
X60207000Y-101823750D01*
X59953000Y-101823750D01*
X59794250Y-101665000D01*
X58880000Y-101661928D01*
X58755518Y-101674188D01*
X58635820Y-101710498D01*
X58525506Y-101769463D01*
X58428815Y-101848815D01*
X58349463Y-101945506D01*
X58290498Y-102055820D01*
X58254188Y-102175518D01*
X58241928Y-102300000D01*
X54414999Y-102300000D01*
X54414999Y-94700000D01*
X115561928Y-94700000D01*
X115565000Y-95214250D01*
X115723750Y-95373000D01*
X116873000Y-95373000D01*
X116873000Y-94223750D01*
X117127000Y-94223750D01*
X117127000Y-95373000D01*
X118276250Y-95373000D01*
X118435000Y-95214250D01*
X118438072Y-94700000D01*
X118435877Y-94677712D01*
X119721928Y-94677712D01*
X119725000Y-95491962D01*
X119883750Y-95650712D01*
X121333000Y-95650712D01*
X121333000Y-94201462D01*
X121587000Y-94201462D01*
X121587000Y-95650712D01*
X123036250Y-95650712D01*
X123195000Y-95491962D01*
X123198072Y-94677712D01*
X123185812Y-94553230D01*
X123149502Y-94433532D01*
X123090537Y-94323218D01*
X123011185Y-94226527D01*
X122914494Y-94147175D01*
X122804180Y-94088210D01*
X122684482Y-94051900D01*
X122560000Y-94039640D01*
X121745750Y-94042712D01*
X121587000Y-94201462D01*
X121333000Y-94201462D01*
X121174250Y-94042712D01*
X120360000Y-94039640D01*
X120235518Y-94051900D01*
X120115820Y-94088210D01*
X120005506Y-94147175D01*
X119908815Y-94226527D01*
X119829463Y-94323218D01*
X119770498Y-94433532D01*
X119734188Y-94553230D01*
X119721928Y-94677712D01*
X118435877Y-94677712D01*
X118425812Y-94575518D01*
X118389502Y-94455820D01*
X118330537Y-94345506D01*
X118251185Y-94248815D01*
X118154494Y-94169463D01*
X118044180Y-94110498D01*
X117924482Y-94074188D01*
X117800000Y-94061928D01*
X117285750Y-94065000D01*
X117127000Y-94223750D01*
X116873000Y-94223750D01*
X116714250Y-94065000D01*
X116200000Y-94061928D01*
X116075518Y-94074188D01*
X115955820Y-94110498D01*
X115845506Y-94169463D01*
X115748815Y-94248815D01*
X115669463Y-94345506D01*
X115610498Y-94455820D01*
X115574188Y-94575518D01*
X115561928Y-94700000D01*
X54414999Y-94700000D01*
X54414999Y-93686395D01*
X145386000Y-93686395D01*
X146520000Y-94820395D01*
X147654000Y-93686395D01*
X147528086Y-93396423D01*
X147195874Y-93230567D01*
X146837688Y-93132710D01*
X146467294Y-93106611D01*
X146098925Y-93153275D01*
X145746738Y-93270906D01*
X145511914Y-93396423D01*
X145386000Y-93686395D01*
X54414999Y-93686395D01*
X54414999Y-92492702D01*
X116186903Y-92492702D01*
X116258486Y-92736671D01*
X116513996Y-92857571D01*
X116788184Y-92926300D01*
X117070512Y-92940217D01*
X117350130Y-92898787D01*
X117616292Y-92803603D01*
X117741514Y-92736671D01*
X117813097Y-92492702D01*
X117000000Y-91679605D01*
X116186903Y-92492702D01*
X54414999Y-92492702D01*
X54414999Y-91777980D01*
X58981626Y-91777980D01*
X59101514Y-92062836D01*
X59425210Y-92223699D01*
X59774069Y-92318322D01*
X60134684Y-92343067D01*
X60493198Y-92296985D01*
X60835833Y-92181846D01*
X61058486Y-92062836D01*
X61178374Y-91777980D01*
X78901626Y-91777980D01*
X79021514Y-92062836D01*
X79345210Y-92223699D01*
X79694069Y-92318322D01*
X80054684Y-92343067D01*
X80413198Y-92296985D01*
X80755833Y-92181846D01*
X80978486Y-92062836D01*
X81098374Y-91777980D01*
X98901626Y-91777980D01*
X99021514Y-92062836D01*
X99345210Y-92223699D01*
X99694069Y-92318322D01*
X100054684Y-92343067D01*
X100413198Y-92296985D01*
X100755833Y-92181846D01*
X100978486Y-92062836D01*
X101098374Y-91777980D01*
X100000000Y-90679605D01*
X98901626Y-91777980D01*
X81098374Y-91777980D01*
X80000000Y-90679605D01*
X78901626Y-91777980D01*
X61178374Y-91777980D01*
X60080000Y-90679605D01*
X58981626Y-91777980D01*
X54414999Y-91777980D01*
X54414999Y-90554684D01*
X58236933Y-90554684D01*
X58283015Y-90913198D01*
X58398154Y-91255833D01*
X58517164Y-91478486D01*
X58802020Y-91598374D01*
X59900395Y-90500000D01*
X60259605Y-90500000D01*
X61357980Y-91598374D01*
X61642836Y-91478486D01*
X61803699Y-91154790D01*
X61898322Y-90805931D01*
X61915562Y-90554684D01*
X78156933Y-90554684D01*
X78203015Y-90913198D01*
X78318154Y-91255833D01*
X78437164Y-91478486D01*
X78722020Y-91598374D01*
X79820395Y-90500000D01*
X80179605Y-90500000D01*
X81277980Y-91598374D01*
X81562836Y-91478486D01*
X81723699Y-91154790D01*
X81818322Y-90805931D01*
X81835562Y-90554684D01*
X98156933Y-90554684D01*
X98203015Y-90913198D01*
X98318154Y-91255833D01*
X98437164Y-91478486D01*
X98722020Y-91598374D01*
X99820395Y-90500000D01*
X100179605Y-90500000D01*
X101277980Y-91598374D01*
X101562836Y-91478486D01*
X101723699Y-91154790D01*
X101818322Y-90805931D01*
X101843067Y-90445316D01*
X101796985Y-90086802D01*
X101681846Y-89744167D01*
X101562836Y-89521514D01*
X101277980Y-89401626D01*
X100179605Y-90500000D01*
X99820395Y-90500000D01*
X98722020Y-89401626D01*
X98437164Y-89521514D01*
X98276301Y-89845210D01*
X98181678Y-90194069D01*
X98156933Y-90554684D01*
X81835562Y-90554684D01*
X81843067Y-90445316D01*
X81796985Y-90086802D01*
X81681846Y-89744167D01*
X81562836Y-89521514D01*
X81277980Y-89401626D01*
X80179605Y-90500000D01*
X79820395Y-90500000D01*
X78722020Y-89401626D01*
X78437164Y-89521514D01*
X78276301Y-89845210D01*
X78181678Y-90194069D01*
X78156933Y-90554684D01*
X61915562Y-90554684D01*
X61923067Y-90445316D01*
X61876985Y-90086802D01*
X61761846Y-89744167D01*
X61642836Y-89521514D01*
X61357980Y-89401626D01*
X60259605Y-90500000D01*
X59900395Y-90500000D01*
X58802020Y-89401626D01*
X58517164Y-89521514D01*
X58356301Y-89845210D01*
X58261678Y-90194069D01*
X58236933Y-90554684D01*
X54414999Y-90554684D01*
X54414999Y-89222020D01*
X58981626Y-89222020D01*
X60080000Y-90320395D01*
X61178374Y-89222020D01*
X78901626Y-89222020D01*
X80000000Y-90320395D01*
X81098374Y-89222020D01*
X98901626Y-89222020D01*
X100000000Y-90320395D01*
X101098374Y-89222020D01*
X100978486Y-88937164D01*
X100654790Y-88776301D01*
X100305931Y-88681678D01*
X99945316Y-88656933D01*
X99586802Y-88703015D01*
X99244167Y-88818154D01*
X99021514Y-88937164D01*
X98901626Y-89222020D01*
X81098374Y-89222020D01*
X80978486Y-88937164D01*
X80654790Y-88776301D01*
X80305931Y-88681678D01*
X79945316Y-88656933D01*
X79586802Y-88703015D01*
X79244167Y-88818154D01*
X79021514Y-88937164D01*
X78901626Y-89222020D01*
X61178374Y-89222020D01*
X61058486Y-88937164D01*
X60734790Y-88776301D01*
X60385931Y-88681678D01*
X60025316Y-88656933D01*
X59666802Y-88703015D01*
X59324167Y-88818154D01*
X59101514Y-88937164D01*
X58981626Y-89222020D01*
X54414999Y-89222020D01*
X54414999Y-79647237D01*
X58241928Y-83474167D01*
X58241928Y-84200000D01*
X58254188Y-84324482D01*
X58290498Y-84444180D01*
X58349463Y-84554494D01*
X58428815Y-84651185D01*
X58525506Y-84730537D01*
X58635820Y-84789502D01*
X58755518Y-84825812D01*
X58880000Y-84838072D01*
X61280000Y-84838072D01*
X61404482Y-84825812D01*
X61524180Y-84789502D01*
X61634494Y-84730537D01*
X61731185Y-84651185D01*
X61744468Y-84635000D01*
X78335532Y-84635000D01*
X78348815Y-84651185D01*
X78445506Y-84730537D01*
X78555820Y-84789502D01*
X78675518Y-84825812D01*
X78800000Y-84838072D01*
X81200000Y-84838072D01*
X81324482Y-84825812D01*
X81444180Y-84789502D01*
X81554494Y-84730537D01*
X81609981Y-84685000D01*
X98390019Y-84685000D01*
X98445506Y-84730537D01*
X98555820Y-84789502D01*
X98675518Y-84825812D01*
X98800000Y-84838072D01*
X101200000Y-84838072D01*
X101324482Y-84825812D01*
X101444180Y-84789502D01*
X101554494Y-84730537D01*
X101651185Y-84651185D01*
X101730537Y-84554494D01*
X101789502Y-84444180D01*
X101825812Y-84324482D01*
X101838072Y-84200000D01*
X101838072Y-83474166D01*
X103272238Y-82040000D01*
X112817089Y-82040000D01*
X112825000Y-82120322D01*
X112825001Y-88919668D01*
X112817089Y-89000000D01*
X112848657Y-89320516D01*
X112942148Y-89628715D01*
X113093969Y-89912752D01*
X113298286Y-90161714D01*
X113547248Y-90366031D01*
X113831285Y-90517852D01*
X114139484Y-90611343D01*
X114379678Y-90635000D01*
X114460000Y-90642911D01*
X114540322Y-90635000D01*
X115955393Y-90635000D01*
X116007296Y-90686903D01*
X115763329Y-90758486D01*
X115642429Y-91013996D01*
X115573700Y-91288184D01*
X115559783Y-91570512D01*
X115601213Y-91850130D01*
X115696397Y-92116292D01*
X115763329Y-92241514D01*
X116007298Y-92313097D01*
X116820395Y-91500000D01*
X116806253Y-91485858D01*
X116985858Y-91306253D01*
X117000000Y-91320395D01*
X117014143Y-91306253D01*
X117193748Y-91485858D01*
X117179605Y-91500000D01*
X117992702Y-92313097D01*
X118236671Y-92241514D01*
X118357571Y-91986004D01*
X118426300Y-91711816D01*
X118440217Y-91429488D01*
X118398787Y-91149870D01*
X118303603Y-90883708D01*
X118236671Y-90758486D01*
X117992704Y-90686903D01*
X118044607Y-90635000D01*
X118602762Y-90635000D01*
X119721928Y-91754167D01*
X119721928Y-92280000D01*
X119734188Y-92404482D01*
X119770498Y-92524180D01*
X119829463Y-92634494D01*
X119908815Y-92731185D01*
X120005506Y-92810537D01*
X120115820Y-92869502D01*
X120235518Y-92905812D01*
X120360000Y-92918072D01*
X122560000Y-92918072D01*
X122684482Y-92905812D01*
X122804180Y-92869502D01*
X122914494Y-92810537D01*
X123011185Y-92731185D01*
X123090537Y-92634494D01*
X123149502Y-92524180D01*
X123185812Y-92404482D01*
X123198072Y-92280000D01*
X123198072Y-91754166D01*
X123376116Y-91576122D01*
X129930825Y-91576122D01*
X129995425Y-91789094D01*
X130145469Y-92094329D01*
X130352178Y-92364427D01*
X130607609Y-92589008D01*
X130901946Y-92759442D01*
X131223877Y-92869179D01*
X131493000Y-92751600D01*
X131493000Y-91307000D01*
X131747000Y-91307000D01*
X131747000Y-92751600D01*
X132016123Y-92869179D01*
X132338054Y-92759442D01*
X132632391Y-92589008D01*
X132887822Y-92364427D01*
X133094531Y-92094329D01*
X133244575Y-91789094D01*
X133309175Y-91576122D01*
X133191125Y-91307000D01*
X131747000Y-91307000D01*
X131493000Y-91307000D01*
X130048875Y-91307000D01*
X129930825Y-91576122D01*
X123376116Y-91576122D01*
X124168360Y-90783878D01*
X129930825Y-90783878D01*
X130048875Y-91053000D01*
X131493000Y-91053000D01*
X131493000Y-89608400D01*
X131747000Y-89608400D01*
X131747000Y-91053000D01*
X133191125Y-91053000D01*
X133309175Y-90783878D01*
X133244575Y-90570906D01*
X133094531Y-90265671D01*
X132887822Y-89995573D01*
X132632391Y-89770992D01*
X132338054Y-89600558D01*
X132016123Y-89490821D01*
X131747000Y-89608400D01*
X131493000Y-89608400D01*
X131223877Y-89490821D01*
X130901946Y-89600558D01*
X130607609Y-89770992D01*
X130352178Y-89995573D01*
X130145469Y-90265671D01*
X129995425Y-90570906D01*
X129930825Y-90783878D01*
X124168360Y-90783878D01*
X132172239Y-82780000D01*
X138948465Y-82780000D01*
X139028919Y-82813325D01*
X139364117Y-82880000D01*
X139705883Y-82880000D01*
X140041081Y-82813325D01*
X140356831Y-82682537D01*
X140640998Y-82492663D01*
X140882663Y-82250998D01*
X141072537Y-81966831D01*
X141203325Y-81651081D01*
X141270000Y-81315883D01*
X141270000Y-80974117D01*
X142800000Y-80974117D01*
X142800000Y-81315883D01*
X142866675Y-81651081D01*
X142900000Y-81731535D01*
X142900001Y-87934671D01*
X142892089Y-88015000D01*
X142923658Y-88335516D01*
X143017148Y-88643714D01*
X143154498Y-88900676D01*
X143168970Y-88927752D01*
X143373287Y-89176714D01*
X143435682Y-89227920D01*
X144631928Y-90424167D01*
X144631928Y-91250000D01*
X144644188Y-91374482D01*
X144680498Y-91494180D01*
X144739463Y-91604494D01*
X144818815Y-91701185D01*
X144915506Y-91780537D01*
X145025820Y-91839502D01*
X145145518Y-91875812D01*
X145270000Y-91888072D01*
X147770000Y-91888072D01*
X147894482Y-91875812D01*
X148014180Y-91839502D01*
X148124494Y-91780537D01*
X148221185Y-91701185D01*
X148300537Y-91604494D01*
X148359502Y-91494180D01*
X148395812Y-91374482D01*
X148408072Y-91250000D01*
X148408072Y-88750000D01*
X148395812Y-88625518D01*
X148359502Y-88505820D01*
X148300537Y-88395506D01*
X148221185Y-88298815D01*
X148124494Y-88219463D01*
X148014180Y-88160498D01*
X147894482Y-88124188D01*
X147770000Y-88111928D01*
X146944167Y-88111928D01*
X146170000Y-87337762D01*
X146170000Y-81731535D01*
X146203325Y-81651081D01*
X146270000Y-81315883D01*
X146270000Y-80974117D01*
X146203325Y-80638919D01*
X146170000Y-80558465D01*
X146170000Y-79502238D01*
X148372916Y-77299324D01*
X148526030Y-77112753D01*
X148677852Y-76828715D01*
X148771343Y-76520517D01*
X148802911Y-76200000D01*
X148771343Y-75879484D01*
X148677852Y-75571285D01*
X148526030Y-75287248D01*
X148321713Y-75038287D01*
X148072752Y-74833970D01*
X147788715Y-74682148D01*
X147480516Y-74588657D01*
X147160000Y-74557089D01*
X146839483Y-74588657D01*
X146531285Y-74682148D01*
X146247247Y-74833970D01*
X146060676Y-74987084D01*
X143435682Y-77612080D01*
X143373287Y-77663286D01*
X143181979Y-77896397D01*
X143168970Y-77912248D01*
X143017148Y-78196286D01*
X142923658Y-78504484D01*
X142892089Y-78825000D01*
X142900001Y-78905329D01*
X142900000Y-80558465D01*
X142866675Y-80638919D01*
X142800000Y-80974117D01*
X141270000Y-80974117D01*
X141203325Y-80638919D01*
X141072537Y-80323169D01*
X140882663Y-80039002D01*
X140640998Y-79797337D01*
X140356831Y-79607463D01*
X140041081Y-79476675D01*
X139705883Y-79410000D01*
X139364117Y-79410000D01*
X139028919Y-79476675D01*
X138948465Y-79510000D01*
X131575319Y-79510000D01*
X131494999Y-79502089D01*
X131414680Y-79510000D01*
X131414678Y-79510000D01*
X131174484Y-79533657D01*
X130866285Y-79627148D01*
X130582248Y-79778969D01*
X130333286Y-79983286D01*
X130282080Y-80045681D01*
X121460000Y-88867761D01*
X120492924Y-87900686D01*
X120441714Y-87838286D01*
X120192752Y-87633969D01*
X119908715Y-87482148D01*
X119600516Y-87388657D01*
X119360322Y-87365000D01*
X119360319Y-87365000D01*
X119280000Y-87357089D01*
X119199681Y-87365000D01*
X116095000Y-87365000D01*
X116095000Y-83675000D01*
X117379681Y-83675000D01*
X117460000Y-83682911D01*
X117540319Y-83675000D01*
X117540322Y-83675000D01*
X117780516Y-83651343D01*
X118088715Y-83557852D01*
X118372752Y-83406031D01*
X118621714Y-83201714D01*
X118672925Y-83139313D01*
X125612238Y-76200000D01*
X135357089Y-76200000D01*
X135388658Y-76520516D01*
X135482148Y-76828714D01*
X135633970Y-77112752D01*
X135838287Y-77361713D01*
X136087248Y-77566030D01*
X136371286Y-77717852D01*
X136679484Y-77811342D01*
X137000000Y-77842911D01*
X137320516Y-77811342D01*
X137628714Y-77717852D01*
X137912752Y-77566030D01*
X138099323Y-77412915D01*
X139559318Y-75952921D01*
X139621714Y-75901714D01*
X139826031Y-75652752D01*
X139977852Y-75368715D01*
X140005312Y-75278192D01*
X140071343Y-75060517D01*
X140102911Y-74740000D01*
X140095000Y-74659678D01*
X140095000Y-71159678D01*
X140071343Y-70919484D01*
X139977852Y-70611285D01*
X139826031Y-70327248D01*
X139679810Y-70149076D01*
X139714494Y-70130537D01*
X139811185Y-70051185D01*
X139890537Y-69954494D01*
X139949502Y-69844180D01*
X139985812Y-69724482D01*
X139998072Y-69600000D01*
X139995000Y-68985750D01*
X139836250Y-68827000D01*
X138587000Y-68827000D01*
X138587000Y-68847000D01*
X138333000Y-68847000D01*
X138333000Y-68827000D01*
X137083750Y-68827000D01*
X136925000Y-68985750D01*
X136921928Y-69600000D01*
X136934188Y-69724482D01*
X136970498Y-69844180D01*
X137029463Y-69954494D01*
X137108815Y-70051185D01*
X137205506Y-70130537D01*
X137240190Y-70149076D01*
X137093969Y-70327249D01*
X136942148Y-70611286D01*
X136848657Y-70919485D01*
X136825000Y-71159679D01*
X136825001Y-74062761D01*
X135787085Y-75100677D01*
X135633970Y-75287248D01*
X135482148Y-75571286D01*
X135388658Y-75879484D01*
X135357089Y-76200000D01*
X125612238Y-76200000D01*
X125719319Y-76092920D01*
X125781714Y-76041714D01*
X125986031Y-75792752D01*
X126137852Y-75508715D01*
X126231343Y-75200516D01*
X126255000Y-74960322D01*
X126255000Y-74960320D01*
X126262911Y-74880001D01*
X126255000Y-74799681D01*
X126255000Y-69086535D01*
X126288325Y-69006081D01*
X126355000Y-68670883D01*
X126355000Y-68329117D01*
X126288325Y-67993919D01*
X126208002Y-67800000D01*
X136921928Y-67800000D01*
X136925000Y-68414250D01*
X137083750Y-68573000D01*
X138333000Y-68573000D01*
X138333000Y-67323750D01*
X138587000Y-67323750D01*
X138587000Y-68573000D01*
X139836250Y-68573000D01*
X139995000Y-68414250D01*
X139998072Y-67800000D01*
X139985812Y-67675518D01*
X139949502Y-67555820D01*
X139890537Y-67445506D01*
X139811185Y-67348815D01*
X139714494Y-67269463D01*
X139604180Y-67210498D01*
X139484482Y-67174188D01*
X139360000Y-67161928D01*
X138745750Y-67165000D01*
X138587000Y-67323750D01*
X138333000Y-67323750D01*
X138174250Y-67165000D01*
X137560000Y-67161928D01*
X137435518Y-67174188D01*
X137315820Y-67210498D01*
X137205506Y-67269463D01*
X137108815Y-67348815D01*
X137029463Y-67445506D01*
X136970498Y-67555820D01*
X136934188Y-67675518D01*
X136921928Y-67800000D01*
X126208002Y-67800000D01*
X126157537Y-67678169D01*
X125967663Y-67394002D01*
X125725998Y-67152337D01*
X125441831Y-66962463D01*
X125126081Y-66831675D01*
X124865650Y-66779872D01*
X144765000Y-66779872D01*
X144765000Y-67220128D01*
X144850890Y-67651925D01*
X145019369Y-68058669D01*
X145263962Y-68424729D01*
X145575271Y-68736038D01*
X145941331Y-68980631D01*
X146348075Y-69149110D01*
X146779872Y-69235000D01*
X147220128Y-69235000D01*
X147651925Y-69149110D01*
X148058669Y-68980631D01*
X148424729Y-68736038D01*
X148736038Y-68424729D01*
X148980631Y-68058669D01*
X149149110Y-67651925D01*
X149235000Y-67220128D01*
X149235000Y-66779872D01*
X149149110Y-66348075D01*
X148980631Y-65941331D01*
X148736038Y-65575271D01*
X148424729Y-65263962D01*
X148058669Y-65019369D01*
X147651925Y-64850890D01*
X147220128Y-64765000D01*
X146779872Y-64765000D01*
X146348075Y-64850890D01*
X145941331Y-65019369D01*
X145575271Y-65263962D01*
X145263962Y-65575271D01*
X145019369Y-65941331D01*
X144850890Y-66348075D01*
X144765000Y-66779872D01*
X124865650Y-66779872D01*
X124790883Y-66765000D01*
X124449117Y-66765000D01*
X124113919Y-66831675D01*
X123798169Y-66962463D01*
X123514002Y-67152337D01*
X123272337Y-67394002D01*
X123082463Y-67678169D01*
X122951675Y-67993919D01*
X122885000Y-68329117D01*
X122885000Y-68670883D01*
X122951675Y-69006081D01*
X122985000Y-69086535D01*
X122985001Y-74202760D01*
X116782762Y-80405000D01*
X115805406Y-80405000D01*
X115835969Y-80366923D01*
X115979571Y-80091094D01*
X116050563Y-79872980D01*
X115930594Y-79627000D01*
X114587000Y-79627000D01*
X114587000Y-79647000D01*
X114333000Y-79647000D01*
X114333000Y-79627000D01*
X112989406Y-79627000D01*
X112869437Y-79872980D01*
X112940429Y-80091094D01*
X113084031Y-80366923D01*
X113278685Y-80609437D01*
X113450363Y-80753480D01*
X113298286Y-80878286D01*
X113093969Y-81127248D01*
X112942148Y-81411285D01*
X112848657Y-81719484D01*
X112817089Y-82040000D01*
X103272238Y-82040000D01*
X105119536Y-80192702D01*
X107606903Y-80192702D01*
X107678486Y-80436671D01*
X107933996Y-80557571D01*
X108208184Y-80626300D01*
X108490512Y-80640217D01*
X108770130Y-80598787D01*
X109036292Y-80503603D01*
X109161514Y-80436671D01*
X109233097Y-80192702D01*
X108420000Y-79379605D01*
X107606903Y-80192702D01*
X105119536Y-80192702D01*
X106977239Y-78335000D01*
X107375393Y-78335000D01*
X107427296Y-78386903D01*
X107183329Y-78458486D01*
X107062429Y-78713996D01*
X106993700Y-78988184D01*
X106979783Y-79270512D01*
X107021213Y-79550130D01*
X107116397Y-79816292D01*
X107183329Y-79941514D01*
X107427298Y-80013097D01*
X108240395Y-79200000D01*
X108226253Y-79185858D01*
X108405858Y-79006253D01*
X108420000Y-79020395D01*
X108434143Y-79006253D01*
X108613748Y-79185858D01*
X108599605Y-79200000D01*
X109412702Y-80013097D01*
X109656671Y-79941514D01*
X109777571Y-79686004D01*
X109846300Y-79411816D01*
X109860217Y-79129488D01*
X109818787Y-78849870D01*
X109723603Y-78583708D01*
X109656671Y-78458486D01*
X109412704Y-78386903D01*
X109464607Y-78335000D01*
X112985274Y-78335000D01*
X113008815Y-78363685D01*
X113105506Y-78443037D01*
X113197219Y-78492059D01*
X113084031Y-78633077D01*
X112940429Y-78908906D01*
X112869437Y-79127020D01*
X112989406Y-79373000D01*
X114333000Y-79373000D01*
X114333000Y-79353000D01*
X114587000Y-79353000D01*
X114587000Y-79373000D01*
X115930594Y-79373000D01*
X116050563Y-79127020D01*
X115979571Y-78908906D01*
X115835969Y-78633077D01*
X115722781Y-78492059D01*
X115814494Y-78443037D01*
X115911185Y-78363685D01*
X115990537Y-78266994D01*
X116049502Y-78156680D01*
X116085812Y-78036982D01*
X116098072Y-77912500D01*
X116098072Y-77009140D01*
X116102912Y-76960000D01*
X116098072Y-76910860D01*
X116098072Y-76007500D01*
X116095000Y-75976308D01*
X116095000Y-69946144D01*
X116149502Y-69844180D01*
X116185812Y-69724482D01*
X116198072Y-69600000D01*
X116198072Y-67400000D01*
X116185812Y-67275518D01*
X116149502Y-67155820D01*
X116090537Y-67045506D01*
X116011185Y-66948815D01*
X115914494Y-66869463D01*
X115804180Y-66810498D01*
X115684482Y-66774188D01*
X115560000Y-66761928D01*
X113360000Y-66761928D01*
X113235518Y-66774188D01*
X113115820Y-66810498D01*
X113005506Y-66869463D01*
X112908815Y-66948815D01*
X112829463Y-67045506D01*
X112770498Y-67155820D01*
X112734188Y-67275518D01*
X112721928Y-67400000D01*
X112721928Y-69600000D01*
X112734188Y-69724482D01*
X112770498Y-69844180D01*
X112825000Y-69946145D01*
X112825001Y-75065000D01*
X106380319Y-75065000D01*
X106299999Y-75057089D01*
X106219680Y-75065000D01*
X106219678Y-75065000D01*
X105979484Y-75088657D01*
X105671285Y-75182148D01*
X105387248Y-75333969D01*
X105138286Y-75538286D01*
X105087080Y-75600681D01*
X99525834Y-81161928D01*
X98800000Y-81161928D01*
X98675518Y-81174188D01*
X98555820Y-81210498D01*
X98445506Y-81269463D01*
X98348815Y-81348815D01*
X98294499Y-81415000D01*
X81705501Y-81415000D01*
X81651185Y-81348815D01*
X81554494Y-81269463D01*
X81444180Y-81210498D01*
X81324482Y-81174188D01*
X81200000Y-81161928D01*
X78800000Y-81161928D01*
X78675518Y-81174188D01*
X78555820Y-81210498D01*
X78445506Y-81269463D01*
X78348815Y-81348815D01*
X78335532Y-81365000D01*
X61744468Y-81365000D01*
X61731185Y-81348815D01*
X61634494Y-81269463D01*
X61524180Y-81210498D01*
X61404482Y-81174188D01*
X61280000Y-81161928D01*
X60554167Y-81161928D01*
X56715000Y-77322762D01*
X56715000Y-75606144D01*
X56769502Y-75504180D01*
X56805812Y-75384482D01*
X56818072Y-75260000D01*
X56818072Y-73494999D01*
X62262761Y-73494999D01*
X63669138Y-74901378D01*
X63702463Y-74981831D01*
X63892337Y-75265998D01*
X64134002Y-75507663D01*
X64418169Y-75697537D01*
X64733919Y-75828325D01*
X65069117Y-75895000D01*
X65410883Y-75895000D01*
X65746081Y-75828325D01*
X65826535Y-75795000D01*
X71429681Y-75795000D01*
X71510000Y-75802911D01*
X71590319Y-75795000D01*
X71590322Y-75795000D01*
X71830516Y-75771343D01*
X72138715Y-75677852D01*
X72422752Y-75526031D01*
X72671714Y-75321714D01*
X72722924Y-75259314D01*
X72860000Y-75122238D01*
X75267090Y-77529329D01*
X75318296Y-77591724D01*
X75567258Y-77796041D01*
X75851295Y-77947862D01*
X76159494Y-78041353D01*
X76399688Y-78065010D01*
X76399690Y-78065010D01*
X76480009Y-78072921D01*
X76560329Y-78065010D01*
X84048112Y-78065010D01*
X84128431Y-78072921D01*
X84208750Y-78065010D01*
X84208753Y-78065010D01*
X84448947Y-78041353D01*
X84757146Y-77947862D01*
X85041183Y-77796041D01*
X85290145Y-77591724D01*
X85341356Y-77529323D01*
X85405679Y-77465000D01*
X97699681Y-77465000D01*
X97780000Y-77472911D01*
X97860319Y-77465000D01*
X97860322Y-77465000D01*
X98100516Y-77441343D01*
X98408715Y-77347852D01*
X98692752Y-77196031D01*
X98941714Y-76991714D01*
X98992925Y-76929313D01*
X100977239Y-74945000D01*
X101010279Y-74945000D01*
X101422756Y-74862953D01*
X101811302Y-74702012D01*
X102160983Y-74468363D01*
X102458363Y-74170983D01*
X102692012Y-73821302D01*
X102852953Y-73432756D01*
X102935000Y-73020279D01*
X102935000Y-72599721D01*
X102852953Y-72187244D01*
X102692012Y-71798698D01*
X102458363Y-71449017D01*
X102160983Y-71151637D01*
X101811302Y-70917988D01*
X101422756Y-70757047D01*
X101010279Y-70675000D01*
X100589721Y-70675000D01*
X100177244Y-70757047D01*
X99788698Y-70917988D01*
X99439017Y-71151637D01*
X99141637Y-71449017D01*
X98907988Y-71798698D01*
X98747047Y-72187244D01*
X98665000Y-72599721D01*
X98665000Y-72632761D01*
X97102762Y-74195000D01*
X84808760Y-74195000D01*
X84735000Y-74187735D01*
X84735000Y-73457000D01*
X83427000Y-73457000D01*
X83427000Y-73477000D01*
X83173000Y-73477000D01*
X83173000Y-73457000D01*
X81865000Y-73457000D01*
X81865000Y-74557000D01*
X81909898Y-74795010D01*
X77157249Y-74795010D01*
X74995000Y-72632762D01*
X74995000Y-72599721D01*
X74912953Y-72187244D01*
X74878058Y-72103000D01*
X81865000Y-72103000D01*
X81865000Y-73203000D01*
X83173000Y-73203000D01*
X83173000Y-70960085D01*
X83427000Y-70960085D01*
X83427000Y-73203000D01*
X84735000Y-73203000D01*
X84735000Y-72103000D01*
X84682650Y-71825486D01*
X84577166Y-71563517D01*
X84422601Y-71327161D01*
X84224895Y-71125500D01*
X83991646Y-70966285D01*
X83731818Y-70855633D01*
X83649039Y-70838096D01*
X83427000Y-70960085D01*
X83173000Y-70960085D01*
X82950961Y-70838096D01*
X82868182Y-70855633D01*
X82608354Y-70966285D01*
X82375105Y-71125500D01*
X82177399Y-71327161D01*
X82022834Y-71563517D01*
X81917350Y-71825486D01*
X81865000Y-72103000D01*
X74878058Y-72103000D01*
X74752012Y-71798698D01*
X74518363Y-71449017D01*
X74220983Y-71151637D01*
X73871302Y-70917988D01*
X73482756Y-70757047D01*
X73070279Y-70675000D01*
X72649721Y-70675000D01*
X72237244Y-70757047D01*
X71848698Y-70917988D01*
X71499017Y-71151637D01*
X71201637Y-71449017D01*
X70967988Y-71798698D01*
X70807047Y-72187244D01*
X70739863Y-72525000D01*
X65917240Y-72525000D01*
X64152923Y-70760685D01*
X64101713Y-70698285D01*
X63852751Y-70493968D01*
X63568714Y-70342147D01*
X63260515Y-70248656D01*
X63020321Y-70224999D01*
X63020318Y-70224999D01*
X62939999Y-70217088D01*
X62859680Y-70224999D01*
X53100318Y-70224999D01*
X53019998Y-70217088D01*
X52939679Y-70224999D01*
X52939677Y-70224999D01*
X52699483Y-70248656D01*
X52391284Y-70342147D01*
X52107247Y-70493968D01*
X51858285Y-70698285D01*
X51807074Y-70760686D01*
X51680681Y-70887079D01*
X51618286Y-70938285D01*
X51494749Y-71088816D01*
X51413969Y-71187247D01*
X51262147Y-71471285D01*
X51168657Y-71779483D01*
X51137088Y-72099999D01*
X50660000Y-72099999D01*
X50660000Y-70179039D01*
X85608096Y-70179039D01*
X85625633Y-70261818D01*
X85736285Y-70521646D01*
X85895500Y-70754895D01*
X86097161Y-70952601D01*
X86333517Y-71107166D01*
X86595486Y-71212650D01*
X86873000Y-71265000D01*
X87973000Y-71265000D01*
X87973000Y-69957000D01*
X88227000Y-69957000D01*
X88227000Y-71265000D01*
X89327000Y-71265000D01*
X89604514Y-71212650D01*
X89866483Y-71107166D01*
X90102839Y-70952601D01*
X90304500Y-70754895D01*
X90463715Y-70521646D01*
X90574367Y-70261818D01*
X90591904Y-70179039D01*
X90469915Y-69957000D01*
X88227000Y-69957000D01*
X87973000Y-69957000D01*
X85730085Y-69957000D01*
X85608096Y-70179039D01*
X50660000Y-70179039D01*
X50660000Y-69310000D01*
X70721928Y-69310000D01*
X70734188Y-69434482D01*
X70770498Y-69554180D01*
X70829463Y-69664494D01*
X70908815Y-69761185D01*
X71005506Y-69840537D01*
X71115820Y-69899502D01*
X71235518Y-69935812D01*
X71360000Y-69948072D01*
X72574250Y-69945000D01*
X72733000Y-69786250D01*
X72733000Y-67937000D01*
X72987000Y-67937000D01*
X72987000Y-69786250D01*
X73145750Y-69945000D01*
X74360000Y-69948072D01*
X74484482Y-69935812D01*
X74604180Y-69899502D01*
X74714494Y-69840537D01*
X74811185Y-69761185D01*
X74890537Y-69664494D01*
X74949502Y-69554180D01*
X74971712Y-69480961D01*
X85608096Y-69480961D01*
X85730085Y-69703000D01*
X87973000Y-69703000D01*
X87973000Y-68395000D01*
X88227000Y-68395000D01*
X88227000Y-69703000D01*
X90469915Y-69703000D01*
X90591904Y-69480961D01*
X90574367Y-69398182D01*
X90536814Y-69310000D01*
X98661928Y-69310000D01*
X98674188Y-69434482D01*
X98710498Y-69554180D01*
X98769463Y-69664494D01*
X98848815Y-69761185D01*
X98945506Y-69840537D01*
X99055820Y-69899502D01*
X99175518Y-69935812D01*
X99300000Y-69948072D01*
X100514250Y-69945000D01*
X100673000Y-69786250D01*
X100673000Y-67937000D01*
X100927000Y-67937000D01*
X100927000Y-69786250D01*
X101085750Y-69945000D01*
X102300000Y-69948072D01*
X102424482Y-69935812D01*
X102544180Y-69899502D01*
X102654494Y-69840537D01*
X102751185Y-69761185D01*
X102830537Y-69664494D01*
X102889502Y-69554180D01*
X102925812Y-69434482D01*
X102938072Y-69310000D01*
X102935000Y-68095750D01*
X102776250Y-67937000D01*
X100927000Y-67937000D01*
X100673000Y-67937000D01*
X98823750Y-67937000D01*
X98665000Y-68095750D01*
X98661928Y-69310000D01*
X90536814Y-69310000D01*
X90463715Y-69138354D01*
X90304500Y-68905105D01*
X90102839Y-68707399D01*
X89866483Y-68552834D01*
X89604514Y-68447350D01*
X89327000Y-68395000D01*
X88227000Y-68395000D01*
X87973000Y-68395000D01*
X86873000Y-68395000D01*
X86595486Y-68447350D01*
X86333517Y-68552834D01*
X86097161Y-68707399D01*
X85895500Y-68905105D01*
X85736285Y-69138354D01*
X85625633Y-69398182D01*
X85608096Y-69480961D01*
X74971712Y-69480961D01*
X74985812Y-69434482D01*
X74998072Y-69310000D01*
X74995000Y-68095750D01*
X74836250Y-67937000D01*
X72987000Y-67937000D01*
X72733000Y-67937000D01*
X70883750Y-67937000D01*
X70725000Y-68095750D01*
X70721928Y-69310000D01*
X50660000Y-69310000D01*
X50660000Y-66779872D01*
X50765000Y-66779872D01*
X50765000Y-67220128D01*
X50850890Y-67651925D01*
X51019369Y-68058669D01*
X51263962Y-68424729D01*
X51575271Y-68736038D01*
X51941331Y-68980631D01*
X52348075Y-69149110D01*
X52779872Y-69235000D01*
X53220128Y-69235000D01*
X53651925Y-69149110D01*
X54058669Y-68980631D01*
X54424729Y-68736038D01*
X54736038Y-68424729D01*
X54980631Y-68058669D01*
X55149110Y-67651925D01*
X55235000Y-67220128D01*
X55235000Y-66779872D01*
X55149110Y-66348075D01*
X55133339Y-66310000D01*
X70721928Y-66310000D01*
X70725000Y-67524250D01*
X70883750Y-67683000D01*
X72733000Y-67683000D01*
X72733000Y-65833750D01*
X72987000Y-65833750D01*
X72987000Y-67683000D01*
X74836250Y-67683000D01*
X74995000Y-67524250D01*
X74998072Y-66310000D01*
X98661928Y-66310000D01*
X98665000Y-67524250D01*
X98823750Y-67683000D01*
X100673000Y-67683000D01*
X100673000Y-65833750D01*
X100927000Y-65833750D01*
X100927000Y-67683000D01*
X102776250Y-67683000D01*
X102935000Y-67524250D01*
X102938072Y-66310000D01*
X102925812Y-66185518D01*
X102889502Y-66065820D01*
X102830537Y-65955506D01*
X102751185Y-65858815D01*
X102654494Y-65779463D01*
X102544180Y-65720498D01*
X102424482Y-65684188D01*
X102300000Y-65671928D01*
X101085750Y-65675000D01*
X100927000Y-65833750D01*
X100673000Y-65833750D01*
X100514250Y-65675000D01*
X99300000Y-65671928D01*
X99175518Y-65684188D01*
X99055820Y-65720498D01*
X98945506Y-65779463D01*
X98848815Y-65858815D01*
X98769463Y-65955506D01*
X98710498Y-66065820D01*
X98674188Y-66185518D01*
X98661928Y-66310000D01*
X74998072Y-66310000D01*
X74985812Y-66185518D01*
X74949502Y-66065820D01*
X74890537Y-65955506D01*
X74811185Y-65858815D01*
X74714494Y-65779463D01*
X74604180Y-65720498D01*
X74484482Y-65684188D01*
X74360000Y-65671928D01*
X73145750Y-65675000D01*
X72987000Y-65833750D01*
X72733000Y-65833750D01*
X72574250Y-65675000D01*
X71360000Y-65671928D01*
X71235518Y-65684188D01*
X71115820Y-65720498D01*
X71005506Y-65779463D01*
X70908815Y-65858815D01*
X70829463Y-65955506D01*
X70770498Y-66065820D01*
X70734188Y-66185518D01*
X70721928Y-66310000D01*
X55133339Y-66310000D01*
X54980631Y-65941331D01*
X54736038Y-65575271D01*
X54424729Y-65263962D01*
X54058669Y-65019369D01*
X53651925Y-64850890D01*
X53220128Y-64765000D01*
X52779872Y-64765000D01*
X52348075Y-64850890D01*
X51941331Y-65019369D01*
X51575271Y-65263962D01*
X51263962Y-65575271D01*
X51019369Y-65941331D01*
X50850890Y-66348075D01*
X50765000Y-66779872D01*
X50660000Y-66779872D01*
X50660000Y-64660000D01*
X149340000Y-64660000D01*
X149340001Y-124340000D01*
G37*
%TD.AperFunction*%
%TD*%
M02*
