M48
; DRILL file {KiCad (5.1.9)-1} date 07/14/21 17:46:59
; FORMAT={-:-/ absolute / inch / decimal}
; #@! TF.CreationDate,2021-07-14T17:46:59+01:00
; #@! TF.GenerationSoftware,Kicad,Pcbnew,(5.1.9)-1
; #@! TF.FileFunction,Plated,1,2,PTH
FMAT,2
INCH
T1C0.0315
T2C0.0354
T3C0.0400
T4C0.0433
T5C0.0472
T6C0.0512
T7C0.0669
%
G90
G05
T1
X4.2685Y-3.0197
X4.2685Y-3.1181
X4.2685Y-4.5197
X4.2685Y-4.6181
X4.6063Y-3.5039
X4.6063Y-3.6024
X4.6063Y-3.7598
X4.6063Y-3.8583
X5.3937Y-3.0
X5.3976Y-4.4882
X5.7937Y-3.0
X5.7976Y-4.4882
T2
X5.4512Y-2.7047
X5.4512Y-2.8047
X5.4512Y-4.685
X5.4512Y-4.785
T3
X6.6717Y-2.9102
X6.6717Y-3.0102
X6.6717Y-3.1102
X6.6717Y-3.2102
X6.6717Y-3.3102
X6.7717Y-2.9102
X6.7717Y-3.0102
X6.7717Y-3.1102
X6.7717Y-3.2102
X6.7717Y-3.3102
X6.8397Y-4.0945
X6.8397Y-4.1945
X6.8397Y-4.2945
X6.8397Y-4.3945
X6.8397Y-4.4945
X6.9397Y-4.0945
X6.9397Y-4.1945
X6.9397Y-4.2945
X6.9397Y-4.3945
X6.9397Y-4.4945
X7.3014Y-2.9134
X7.3014Y-3.0134
X7.3014Y-3.1134
X7.3014Y-3.2134
X7.3014Y-3.3134
X7.4014Y-2.9134
X7.4014Y-3.0134
X7.4014Y-3.1134
X7.4014Y-3.2134
X7.4014Y-3.3134
X7.7631Y-4.0945
X7.7631Y-4.1945
X7.7631Y-4.2945
X7.7631Y-4.3945
X7.7631Y-4.4945
X7.8631Y-4.0945
X7.8631Y-4.1945
X7.8631Y-4.2945
X7.8631Y-4.3945
X7.8631Y-4.4945
X8.2248Y-2.9102
X8.2248Y-3.0102
X8.2248Y-3.1102
X8.2248Y-3.2102
X8.2248Y-3.3102
X8.3248Y-2.9102
X8.3248Y-3.0102
X8.3248Y-3.1102
X8.3248Y-3.2102
X8.3248Y-3.3102
X8.6865Y-4.0945
X8.6865Y-4.1945
X8.6865Y-4.2945
X8.6865Y-4.3945
X8.6865Y-4.4945
X8.7865Y-4.0945
X8.7865Y-4.1945
X8.7865Y-4.2945
X8.7865Y-4.3945
X8.7865Y-4.4945
X9.1482Y-2.9134
X9.1482Y-3.0134
X9.1482Y-3.1134
X9.1482Y-3.2134
X9.1482Y-3.3134
X9.2482Y-2.9134
X9.2482Y-3.0134
X9.2482Y-3.1134
X9.2482Y-3.2134
X9.2482Y-3.3134
X9.6099Y-4.0882
X9.6099Y-4.1882
X9.6099Y-4.2882
X9.6099Y-4.3882
X9.6099Y-4.4882
X9.7099Y-4.0882
X9.7099Y-4.1882
X9.7099Y-4.2882
X9.7099Y-4.3882
X9.7099Y-4.4882
X10.0716Y-2.9134
X10.0716Y-3.0134
X10.0716Y-3.1134
X10.0716Y-3.2134
X10.0716Y-3.3134
X10.1716Y-2.9134
X10.1716Y-3.0134
X10.1716Y-3.1134
X10.1716Y-3.2134
X10.1716Y-3.3134
X10.5333Y-4.0945
X10.5333Y-4.1945
X10.5333Y-4.2945
X10.5333Y-4.3945
X10.5333Y-4.4945
X10.6333Y-4.0945
X10.6333Y-4.1945
X10.6333Y-4.2945
X10.6333Y-4.3945
X10.6333Y-4.4945
X10.995Y-2.9134
X10.995Y-3.0134
X10.995Y-3.1134
X10.995Y-3.2134
X10.995Y-3.3134
X11.095Y-2.9134
X11.095Y-3.0134
X11.095Y-3.1134
X11.095Y-3.2134
X11.095Y-3.3134
X11.4567Y-4.0945
X11.4567Y-4.1945
X11.4567Y-4.2945
X11.4567Y-4.3945
X11.4567Y-4.4945
X11.5567Y-4.0945
X11.5567Y-4.1945
X11.5567Y-4.2945
X11.5567Y-4.3945
X11.5567Y-4.4945
T4
X2.1685Y-2.9197
X2.2835Y-4.7638
X2.5685Y-2.9197
X2.6835Y-4.7638
X4.5063Y-2.6969
X4.5063Y-3.0299
X4.5063Y-3.1299
X4.5063Y-3.2299
X4.5063Y-4.1323
X4.5063Y-4.2323
X4.5063Y-4.3323
X4.5063Y-4.6654
X4.7819Y-3.5898
X4.7819Y-3.7708
X4.9063Y-2.6969
X4.9063Y-4.6654
X5.1819Y-3.5898
X5.1819Y-3.7708
X5.4935Y-3.1947
X5.4935Y-4.2697
X5.6904Y-3.1947
X5.6904Y-4.2697
T5
X2.3654Y-3.2677
X2.3654Y-3.563
X2.3654Y-4.0748
X2.3654Y-4.3701
X3.1496Y-3.2677
X3.1496Y-3.563
X3.1496Y-4.0748
X3.1496Y-4.3701
X3.937Y-3.2677
X3.937Y-3.563
X3.937Y-4.0748
X3.937Y-4.3701
T6
X5.7685Y-3.5433
X5.7685Y-3.7402
X5.7685Y-3.937
X6.1811Y-3.5433
X6.1811Y-3.7402
X6.1811Y-3.937
T7
X2.8685Y-2.6697
X2.8685Y-2.8665
X3.9685Y-2.6697
X3.9685Y-2.8665
T1
G00X3.2795Y-2.8437
M15
G01X3.2795Y-2.9303
M16
G05
G00X3.5118Y-2.7492
M15
G01X3.4252Y-2.7492
M16
G05
G00X3.5217Y-2.9854
M15
G01X3.4154Y-2.9854
M16
G05
T0
M30
