%TF.GenerationSoftware,KiCad,Pcbnew,5.1.10-88a1d61d58~88~ubuntu20.04.1*%
%TF.CreationDate,2021-05-07T21:20:49-04:00*%
%TF.ProjectId,mfosish_ww_supply,6d666f73-6973-4685-9f77-775f73757070,rev?*%
%TF.SameCoordinates,Original*%
%TF.FileFunction,Soldermask,Top*%
%TF.FilePolarity,Negative*%
%FSLAX46Y46*%
G04 Gerber Fmt 4.6, Leading zero omitted, Abs format (unit mm)*
G04 Created by KiCad (PCBNEW 5.1.10-88a1d61d58~88~ubuntu20.04.1) date 2021-05-07 21:20:49*
%MOMM*%
%LPD*%
G01*
G04 APERTURE LIST*
%ADD10O,2.200000X2.200000*%
%ADD11R,2.200000X2.200000*%
%ADD12C,1.600000*%
%ADD13O,1.600000X1.600000*%
%ADD14C,3.200000*%
%ADD15C,2.200000*%
%ADD16O,1.600000X3.800000*%
%ADD17O,4.300000X1.600000*%
%ADD18O,3.800000X1.600000*%
%ADD19R,1.600000X1.600000*%
%ADD20C,3.000000*%
%ADD21R,3.000000X3.000000*%
%ADD22O,2.000000X1.905000*%
%ADD23R,2.000000X1.905000*%
%ADD24C,2.400000*%
%ADD25R,2.400000X2.400000*%
%ADD26C,2.500000*%
%ADD27R,2.500000X2.500000*%
%ADD28C,1.800000*%
%ADD29R,1.800000X1.800000*%
G04 APERTURE END LIST*
D10*
%TO.C,D6*%
X131620000Y-95777712D03*
D11*
X121460000Y-95777712D03*
%TD*%
D10*
%TO.C,D5*%
X131620000Y-91180000D03*
D11*
X121460000Y-91180000D03*
%TD*%
D10*
%TO.C,D4*%
X124620000Y-118500000D03*
D11*
X114460000Y-118500000D03*
%TD*%
D10*
%TO.C,D3*%
X124620000Y-68500000D03*
D11*
X114460000Y-68500000D03*
%TD*%
D10*
%TO.C,D2*%
X68160000Y-121000000D03*
D11*
X58000000Y-121000000D03*
%TD*%
D10*
%TO.C,D1*%
X65240000Y-74160000D03*
D11*
X55080000Y-74160000D03*
%TD*%
D12*
%TO.C,R2*%
X137100000Y-114000000D03*
D13*
X147260000Y-114000000D03*
%TD*%
D12*
%TO.C,R1*%
X137000000Y-76200000D03*
D13*
X147160000Y-76200000D03*
%TD*%
D14*
%TO.C,H4*%
X147000000Y-122000000D03*
%TD*%
%TO.C,H3*%
X53000000Y-122000000D03*
%TD*%
%TO.C,H2*%
X147000000Y-67000000D03*
%TD*%
%TO.C,H1*%
X53000000Y-67000000D03*
%TD*%
D15*
%TO.C,F2*%
X144535000Y-108450000D03*
X139535000Y-108450000D03*
%TD*%
%TO.C,F1*%
X144535000Y-81145000D03*
X139535000Y-81145000D03*
%TD*%
D16*
%TO.C,J1*%
X83300000Y-73330000D03*
D17*
X88100000Y-75830000D03*
D18*
X88100000Y-69830000D03*
%TD*%
D12*
%TO.C,C7*%
X108420000Y-79200000D03*
D19*
X108420000Y-76700000D03*
%TD*%
D20*
%TO.C,J3*%
X100800000Y-72810000D03*
D21*
X100800000Y-67810000D03*
%TD*%
D20*
%TO.C,J2*%
X72860000Y-72810000D03*
D21*
X72860000Y-67810000D03*
%TD*%
D12*
%TO.C,C8*%
X108420000Y-117300000D03*
D19*
X108420000Y-114800000D03*
%TD*%
D22*
%TO.C,U2*%
X114460000Y-110040000D03*
X114460000Y-107500000D03*
D23*
X114460000Y-104960000D03*
%TD*%
D24*
%TO.C,C1*%
X60080000Y-90500000D03*
D25*
X60080000Y-83000000D03*
%TD*%
D22*
%TO.C,U1*%
X114460000Y-82040000D03*
X114460000Y-79500000D03*
D23*
X114460000Y-76960000D03*
%TD*%
D26*
%TO.C,J4*%
X146520000Y-100000000D03*
X146520000Y-95000000D03*
D27*
X146520000Y-90000000D03*
%TD*%
D28*
%TO.C,D8*%
X138460000Y-121540000D03*
D29*
X138460000Y-119000000D03*
%TD*%
D28*
%TO.C,D7*%
X138460000Y-71240000D03*
D29*
X138460000Y-68700000D03*
%TD*%
D12*
%TO.C,C10*%
X117000000Y-98000000D03*
D19*
X117000000Y-95500000D03*
%TD*%
D12*
%TO.C,C9*%
X117000000Y-91500000D03*
D19*
X117000000Y-89000000D03*
%TD*%
D24*
%TO.C,C6*%
X100000000Y-111000000D03*
D25*
X100000000Y-103500000D03*
%TD*%
D24*
%TO.C,C5*%
X100000000Y-90500000D03*
D25*
X100000000Y-83000000D03*
%TD*%
D24*
%TO.C,C4*%
X80000000Y-111000000D03*
D25*
X80000000Y-103500000D03*
%TD*%
D24*
%TO.C,C3*%
X80000000Y-90500000D03*
D25*
X80000000Y-83000000D03*
%TD*%
D24*
%TO.C,C2*%
X60080000Y-111000000D03*
D25*
X60080000Y-103500000D03*
%TD*%
M02*
