%TF.GenerationSoftware,KiCad,Pcbnew,5.1.10-88a1d61d58~88~ubuntu20.04.1*%
%TF.CreationDate,2021-05-07T21:20:49-04:00*%
%TF.ProjectId,mfosish_ww_supply,6d666f73-6973-4685-9f77-775f73757070,rev?*%
%TF.SameCoordinates,Original*%
%TF.FileFunction,Copper,L2,Bot*%
%TF.FilePolarity,Positive*%
%FSLAX46Y46*%
G04 Gerber Fmt 4.6, Leading zero omitted, Abs format (unit mm)*
G04 Created by KiCad (PCBNEW 5.1.10-88a1d61d58~88~ubuntu20.04.1) date 2021-05-07 21:20:49*
%MOMM*%
%LPD*%
G01*
G04 APERTURE LIST*
%TA.AperFunction,ComponentPad*%
%ADD10O,2.200000X2.200000*%
%TD*%
%TA.AperFunction,ComponentPad*%
%ADD11R,2.200000X2.200000*%
%TD*%
%TA.AperFunction,ComponentPad*%
%ADD12C,1.600000*%
%TD*%
%TA.AperFunction,ComponentPad*%
%ADD13O,1.600000X1.600000*%
%TD*%
%TA.AperFunction,ComponentPad*%
%ADD14C,2.200000*%
%TD*%
%TA.AperFunction,ComponentPad*%
%ADD15O,1.600000X3.800000*%
%TD*%
%TA.AperFunction,ComponentPad*%
%ADD16O,4.300000X1.600000*%
%TD*%
%TA.AperFunction,ComponentPad*%
%ADD17O,3.800000X1.600000*%
%TD*%
%TA.AperFunction,ComponentPad*%
%ADD18R,1.600000X1.600000*%
%TD*%
%TA.AperFunction,ComponentPad*%
%ADD19C,3.000000*%
%TD*%
%TA.AperFunction,ComponentPad*%
%ADD20R,3.000000X3.000000*%
%TD*%
%TA.AperFunction,ComponentPad*%
%ADD21O,2.000000X1.905000*%
%TD*%
%TA.AperFunction,ComponentPad*%
%ADD22R,2.000000X1.905000*%
%TD*%
%TA.AperFunction,ComponentPad*%
%ADD23C,2.400000*%
%TD*%
%TA.AperFunction,ComponentPad*%
%ADD24R,2.400000X2.400000*%
%TD*%
%TA.AperFunction,ComponentPad*%
%ADD25C,2.500000*%
%TD*%
%TA.AperFunction,ComponentPad*%
%ADD26R,2.500000X2.500000*%
%TD*%
%TA.AperFunction,ComponentPad*%
%ADD27C,1.800000*%
%TD*%
%TA.AperFunction,ComponentPad*%
%ADD28R,1.800000X1.800000*%
%TD*%
%TA.AperFunction,Conductor*%
%ADD29C,0.254000*%
%TD*%
%TA.AperFunction,Conductor*%
%ADD30C,0.100000*%
%TD*%
G04 APERTURE END LIST*
D10*
%TO.P,D6,2*%
%TO.N,Net-(C10-Pad2)*%
X131620000Y-95777712D03*
D11*
%TO.P,D6,1*%
%TO.N,GND*%
X121460000Y-95777712D03*
%TD*%
D10*
%TO.P,D5,2*%
%TO.N,GND*%
X131620000Y-91180000D03*
D11*
%TO.P,D5,1*%
%TO.N,Net-(C9-Pad1)*%
X121460000Y-91180000D03*
%TD*%
D10*
%TO.P,D4,2*%
%TO.N,Net-(C2-Pad2)*%
X124620000Y-118500000D03*
D11*
%TO.P,D4,1*%
%TO.N,Net-(C10-Pad2)*%
X114460000Y-118500000D03*
%TD*%
D10*
%TO.P,D3,2*%
%TO.N,Net-(C9-Pad1)*%
X124620000Y-68500000D03*
D11*
%TO.P,D3,1*%
%TO.N,Net-(C1-Pad1)*%
X114460000Y-68500000D03*
%TD*%
D10*
%TO.P,D2,2*%
%TO.N,Net-(C2-Pad2)*%
X68160000Y-121000000D03*
D11*
%TO.P,D2,1*%
%TO.N,Net-(D1-Pad2)*%
X58000000Y-121000000D03*
%TD*%
D10*
%TO.P,D1,2*%
%TO.N,Net-(D1-Pad2)*%
X65240000Y-74160000D03*
D11*
%TO.P,D1,1*%
%TO.N,Net-(C1-Pad1)*%
X55080000Y-74160000D03*
%TD*%
D12*
%TO.P,R2,1*%
%TO.N,Net-(D8-Pad1)*%
X137100000Y-114000000D03*
D13*
%TO.P,R2,2*%
%TO.N,-12V*%
X147260000Y-114000000D03*
%TD*%
D12*
%TO.P,R1,1*%
%TO.N,Net-(D7-Pad2)*%
X137000000Y-76200000D03*
D13*
%TO.P,R1,2*%
%TO.N,+12V*%
X147160000Y-76200000D03*
%TD*%
D14*
%TO.P,F2,1*%
%TO.N,-12V*%
X144535000Y-108450000D03*
%TO.P,F2,2*%
%TO.N,Net-(C10-Pad2)*%
X139535000Y-108450000D03*
%TD*%
%TO.P,F1,1*%
%TO.N,+12V*%
X144535000Y-81145000D03*
%TO.P,F1,2*%
%TO.N,Net-(C9-Pad1)*%
X139535000Y-81145000D03*
%TD*%
D15*
%TO.P,J1,1*%
%TO.N,GND*%
X83300000Y-73330000D03*
D16*
%TO.P,J1,3*%
%TO.N,Net-(D1-Pad2)*%
X88100000Y-75830000D03*
D17*
%TO.P,J1,2*%
%TO.N,GND*%
X88100000Y-69830000D03*
%TD*%
D12*
%TO.P,C7,2*%
%TO.N,GND*%
X108420000Y-79200000D03*
D18*
%TO.P,C7,1*%
%TO.N,Net-(C1-Pad1)*%
X108420000Y-76700000D03*
%TD*%
D19*
%TO.P,J3,2*%
%TO.N,Net-(D1-Pad2)*%
X100800000Y-72810000D03*
D20*
%TO.P,J3,1*%
%TO.N,GND*%
X100800000Y-67810000D03*
%TD*%
D19*
%TO.P,J2,2*%
%TO.N,Net-(D1-Pad2)*%
X72860000Y-72810000D03*
D20*
%TO.P,J2,1*%
%TO.N,GND*%
X72860000Y-67810000D03*
%TD*%
D12*
%TO.P,C8,2*%
%TO.N,Net-(C2-Pad2)*%
X108420000Y-117300000D03*
D18*
%TO.P,C8,1*%
%TO.N,GND*%
X108420000Y-114800000D03*
%TD*%
D21*
%TO.P,U2,3*%
%TO.N,Net-(C10-Pad2)*%
X114460000Y-110040000D03*
%TO.P,U2,2*%
%TO.N,Net-(C2-Pad2)*%
X114460000Y-107500000D03*
D22*
%TO.P,U2,1*%
%TO.N,GND*%
X114460000Y-104960000D03*
%TD*%
D23*
%TO.P,C1,2*%
%TO.N,GND*%
X60080000Y-90500000D03*
D24*
%TO.P,C1,1*%
%TO.N,Net-(C1-Pad1)*%
X60080000Y-83000000D03*
%TD*%
D21*
%TO.P,U1,3*%
%TO.N,Net-(C9-Pad1)*%
X114460000Y-82040000D03*
%TO.P,U1,2*%
%TO.N,GND*%
X114460000Y-79500000D03*
D22*
%TO.P,U1,1*%
%TO.N,Net-(C1-Pad1)*%
X114460000Y-76960000D03*
%TD*%
D25*
%TO.P,J4,3*%
%TO.N,-12V*%
X146520000Y-100000000D03*
%TO.P,J4,2*%
%TO.N,GND*%
X146520000Y-95000000D03*
D26*
%TO.P,J4,1*%
%TO.N,+12V*%
X146520000Y-90000000D03*
%TD*%
D27*
%TO.P,D8,2*%
%TO.N,GND*%
X138460000Y-121540000D03*
D28*
%TO.P,D8,1*%
%TO.N,Net-(D8-Pad1)*%
X138460000Y-119000000D03*
%TD*%
D27*
%TO.P,D7,2*%
%TO.N,Net-(D7-Pad2)*%
X138460000Y-71240000D03*
D28*
%TO.P,D7,1*%
%TO.N,GND*%
X138460000Y-68700000D03*
%TD*%
D12*
%TO.P,C10,2*%
%TO.N,Net-(C10-Pad2)*%
X117000000Y-98000000D03*
D18*
%TO.P,C10,1*%
%TO.N,GND*%
X117000000Y-95500000D03*
%TD*%
D12*
%TO.P,C9,2*%
%TO.N,GND*%
X117000000Y-91500000D03*
D18*
%TO.P,C9,1*%
%TO.N,Net-(C9-Pad1)*%
X117000000Y-89000000D03*
%TD*%
D23*
%TO.P,C6,2*%
%TO.N,Net-(C2-Pad2)*%
X100000000Y-111000000D03*
D24*
%TO.P,C6,1*%
%TO.N,GND*%
X100000000Y-103500000D03*
%TD*%
D23*
%TO.P,C5,2*%
%TO.N,GND*%
X100000000Y-90500000D03*
D24*
%TO.P,C5,1*%
%TO.N,Net-(C1-Pad1)*%
X100000000Y-83000000D03*
%TD*%
D23*
%TO.P,C4,2*%
%TO.N,Net-(C2-Pad2)*%
X80000000Y-111000000D03*
D24*
%TO.P,C4,1*%
%TO.N,GND*%
X80000000Y-103500000D03*
%TD*%
D23*
%TO.P,C3,2*%
%TO.N,GND*%
X80000000Y-90500000D03*
D24*
%TO.P,C3,1*%
%TO.N,Net-(C1-Pad1)*%
X80000000Y-83000000D03*
%TD*%
D23*
%TO.P,C2,2*%
%TO.N,Net-(C2-Pad2)*%
X60080000Y-111000000D03*
D24*
%TO.P,C2,1*%
%TO.N,GND*%
X60080000Y-103500000D03*
%TD*%
D29*
%TO.N,GND*%
X149340001Y-124340000D02*
X50660000Y-124340000D01*
X50660000Y-121779872D01*
X50765000Y-121779872D01*
X50765000Y-122220128D01*
X50850890Y-122651925D01*
X51019369Y-123058669D01*
X51263962Y-123424729D01*
X51575271Y-123736038D01*
X51941331Y-123980631D01*
X52348075Y-124149110D01*
X52779872Y-124235000D01*
X53220128Y-124235000D01*
X53651925Y-124149110D01*
X54058669Y-123980631D01*
X54424729Y-123736038D01*
X54736038Y-123424729D01*
X54980631Y-123058669D01*
X55149110Y-122651925D01*
X55235000Y-122220128D01*
X55235000Y-121779872D01*
X55149110Y-121348075D01*
X54980631Y-120941331D01*
X54736038Y-120575271D01*
X54424729Y-120263962D01*
X54058669Y-120019369D01*
X53770487Y-119900000D01*
X56261928Y-119900000D01*
X56261928Y-122100000D01*
X56274188Y-122224482D01*
X56310498Y-122344180D01*
X56369463Y-122454494D01*
X56448815Y-122551185D01*
X56545506Y-122630537D01*
X56655820Y-122689502D01*
X56775518Y-122725812D01*
X56900000Y-122738072D01*
X59100000Y-122738072D01*
X59224482Y-122725812D01*
X59344180Y-122689502D01*
X59454494Y-122630537D01*
X59551185Y-122551185D01*
X59630537Y-122454494D01*
X59689502Y-122344180D01*
X59725812Y-122224482D01*
X59738072Y-122100000D01*
X59738072Y-120829117D01*
X66425000Y-120829117D01*
X66425000Y-121170883D01*
X66491675Y-121506081D01*
X66622463Y-121821831D01*
X66812337Y-122105998D01*
X67054002Y-122347663D01*
X67338169Y-122537537D01*
X67653919Y-122668325D01*
X67989117Y-122735000D01*
X68330883Y-122735000D01*
X68666081Y-122668325D01*
X68821182Y-122604080D01*
X137575525Y-122604080D01*
X137659208Y-122858261D01*
X137931775Y-122989158D01*
X138224642Y-123064365D01*
X138526553Y-123080991D01*
X138825907Y-123038397D01*
X139111199Y-122938222D01*
X139260792Y-122858261D01*
X139344475Y-122604080D01*
X138460000Y-121719605D01*
X137575525Y-122604080D01*
X68821182Y-122604080D01*
X68981831Y-122537537D01*
X69265998Y-122347663D01*
X69507663Y-122105998D01*
X69697537Y-121821831D01*
X69786708Y-121606553D01*
X136919009Y-121606553D01*
X136961603Y-121905907D01*
X137061778Y-122191199D01*
X137141739Y-122340792D01*
X137395920Y-122424475D01*
X138280395Y-121540000D01*
X138266253Y-121525858D01*
X138445858Y-121346253D01*
X138460000Y-121360395D01*
X138474143Y-121346253D01*
X138653748Y-121525858D01*
X138639605Y-121540000D01*
X139524080Y-122424475D01*
X139778261Y-122340792D01*
X139909158Y-122068225D01*
X139983205Y-121779872D01*
X144765000Y-121779872D01*
X144765000Y-122220128D01*
X144850890Y-122651925D01*
X145019369Y-123058669D01*
X145263962Y-123424729D01*
X145575271Y-123736038D01*
X145941331Y-123980631D01*
X146348075Y-124149110D01*
X146779872Y-124235000D01*
X147220128Y-124235000D01*
X147651925Y-124149110D01*
X148058669Y-123980631D01*
X148424729Y-123736038D01*
X148736038Y-123424729D01*
X148980631Y-123058669D01*
X149149110Y-122651925D01*
X149235000Y-122220128D01*
X149235000Y-121779872D01*
X149149110Y-121348075D01*
X148980631Y-120941331D01*
X148736038Y-120575271D01*
X148424729Y-120263962D01*
X148058669Y-120019369D01*
X147651925Y-119850890D01*
X147220128Y-119765000D01*
X146779872Y-119765000D01*
X146348075Y-119850890D01*
X145941331Y-120019369D01*
X145575271Y-120263962D01*
X145263962Y-120575271D01*
X145019369Y-120941331D01*
X144850890Y-121348075D01*
X144765000Y-121779872D01*
X139983205Y-121779872D01*
X139984365Y-121775358D01*
X140000991Y-121473447D01*
X139958397Y-121174093D01*
X139858222Y-120888801D01*
X139778261Y-120739208D01*
X139524082Y-120655526D01*
X139640030Y-120539578D01*
X139593265Y-120492813D01*
X139604180Y-120489502D01*
X139714494Y-120430537D01*
X139811185Y-120351185D01*
X139890537Y-120254494D01*
X139949502Y-120144180D01*
X139985812Y-120024482D01*
X139998072Y-119900000D01*
X139998072Y-118100000D01*
X139985812Y-117975518D01*
X139949502Y-117855820D01*
X139890537Y-117745506D01*
X139811185Y-117648815D01*
X139714494Y-117569463D01*
X139604180Y-117510498D01*
X139484482Y-117474188D01*
X139360000Y-117461928D01*
X137560000Y-117461928D01*
X137435518Y-117474188D01*
X137315820Y-117510498D01*
X137205506Y-117569463D01*
X137108815Y-117648815D01*
X137029463Y-117745506D01*
X136970498Y-117855820D01*
X136934188Y-117975518D01*
X136921928Y-118100000D01*
X136921928Y-119900000D01*
X136934188Y-120024482D01*
X136970498Y-120144180D01*
X137029463Y-120254494D01*
X137108815Y-120351185D01*
X137205506Y-120430537D01*
X137315820Y-120489502D01*
X137326735Y-120492813D01*
X137279970Y-120539578D01*
X137395918Y-120655526D01*
X137141739Y-120739208D01*
X137010842Y-121011775D01*
X136935635Y-121304642D01*
X136919009Y-121606553D01*
X69786708Y-121606553D01*
X69828325Y-121506081D01*
X69895000Y-121170883D01*
X69895000Y-120829117D01*
X69828325Y-120493919D01*
X69697537Y-120178169D01*
X69507663Y-119894002D01*
X69265998Y-119652337D01*
X68981831Y-119462463D01*
X68666081Y-119331675D01*
X68330883Y-119265000D01*
X67989117Y-119265000D01*
X67653919Y-119331675D01*
X67338169Y-119462463D01*
X67054002Y-119652337D01*
X66812337Y-119894002D01*
X66622463Y-120178169D01*
X66491675Y-120493919D01*
X66425000Y-120829117D01*
X59738072Y-120829117D01*
X59738072Y-119900000D01*
X59725812Y-119775518D01*
X59689502Y-119655820D01*
X59630537Y-119545506D01*
X59551185Y-119448815D01*
X59454494Y-119369463D01*
X59344180Y-119310498D01*
X59224482Y-119274188D01*
X59100000Y-119261928D01*
X56900000Y-119261928D01*
X56775518Y-119274188D01*
X56655820Y-119310498D01*
X56545506Y-119369463D01*
X56448815Y-119448815D01*
X56369463Y-119545506D01*
X56310498Y-119655820D01*
X56274188Y-119775518D01*
X56261928Y-119900000D01*
X53770487Y-119900000D01*
X53651925Y-119850890D01*
X53220128Y-119765000D01*
X52779872Y-119765000D01*
X52348075Y-119850890D01*
X51941331Y-120019369D01*
X51575271Y-120263962D01*
X51263962Y-120575271D01*
X51019369Y-120941331D01*
X50850890Y-121348075D01*
X50765000Y-121779872D01*
X50660000Y-121779872D01*
X50660000Y-115600000D01*
X106981928Y-115600000D01*
X106994188Y-115724482D01*
X107030498Y-115844180D01*
X107089463Y-115954494D01*
X107168815Y-116051185D01*
X107265506Y-116130537D01*
X107375820Y-116189502D01*
X107471943Y-116218661D01*
X107305363Y-116385241D01*
X107148320Y-116620273D01*
X107040147Y-116881426D01*
X106985000Y-117158665D01*
X106985000Y-117441335D01*
X107040147Y-117718574D01*
X107148320Y-117979727D01*
X107305363Y-118214759D01*
X107505241Y-118414637D01*
X107740273Y-118571680D01*
X108001426Y-118679853D01*
X108278665Y-118735000D01*
X108561335Y-118735000D01*
X108838574Y-118679853D01*
X109099727Y-118571680D01*
X109334759Y-118414637D01*
X109534637Y-118214759D01*
X109691680Y-117979727D01*
X109799853Y-117718574D01*
X109855000Y-117441335D01*
X109855000Y-117400000D01*
X112721928Y-117400000D01*
X112721928Y-119600000D01*
X112734188Y-119724482D01*
X112770498Y-119844180D01*
X112829463Y-119954494D01*
X112908815Y-120051185D01*
X113005506Y-120130537D01*
X113115820Y-120189502D01*
X113235518Y-120225812D01*
X113360000Y-120238072D01*
X115560000Y-120238072D01*
X115684482Y-120225812D01*
X115804180Y-120189502D01*
X115914494Y-120130537D01*
X116011185Y-120051185D01*
X116090537Y-119954494D01*
X116149502Y-119844180D01*
X116185812Y-119724482D01*
X116198072Y-119600000D01*
X116198072Y-118329117D01*
X122885000Y-118329117D01*
X122885000Y-118670883D01*
X122951675Y-119006081D01*
X123082463Y-119321831D01*
X123272337Y-119605998D01*
X123514002Y-119847663D01*
X123798169Y-120037537D01*
X124113919Y-120168325D01*
X124449117Y-120235000D01*
X124790883Y-120235000D01*
X125126081Y-120168325D01*
X125441831Y-120037537D01*
X125725998Y-119847663D01*
X125967663Y-119605998D01*
X126157537Y-119321831D01*
X126288325Y-119006081D01*
X126355000Y-118670883D01*
X126355000Y-118329117D01*
X126288325Y-117993919D01*
X126157537Y-117678169D01*
X125967663Y-117394002D01*
X125725998Y-117152337D01*
X125441831Y-116962463D01*
X125126081Y-116831675D01*
X124790883Y-116765000D01*
X124449117Y-116765000D01*
X124113919Y-116831675D01*
X123798169Y-116962463D01*
X123514002Y-117152337D01*
X123272337Y-117394002D01*
X123082463Y-117678169D01*
X122951675Y-117993919D01*
X122885000Y-118329117D01*
X116198072Y-118329117D01*
X116198072Y-117400000D01*
X116185812Y-117275518D01*
X116149502Y-117155820D01*
X116090537Y-117045506D01*
X116011185Y-116948815D01*
X115914494Y-116869463D01*
X115804180Y-116810498D01*
X115684482Y-116774188D01*
X115560000Y-116761928D01*
X113360000Y-116761928D01*
X113235518Y-116774188D01*
X113115820Y-116810498D01*
X113005506Y-116869463D01*
X112908815Y-116948815D01*
X112829463Y-117045506D01*
X112770498Y-117155820D01*
X112734188Y-117275518D01*
X112721928Y-117400000D01*
X109855000Y-117400000D01*
X109855000Y-117158665D01*
X109799853Y-116881426D01*
X109691680Y-116620273D01*
X109534637Y-116385241D01*
X109368057Y-116218661D01*
X109464180Y-116189502D01*
X109574494Y-116130537D01*
X109671185Y-116051185D01*
X109750537Y-115954494D01*
X109809502Y-115844180D01*
X109845812Y-115724482D01*
X109858072Y-115600000D01*
X109855000Y-115085750D01*
X109696250Y-114927000D01*
X108547000Y-114927000D01*
X108547000Y-114947000D01*
X108293000Y-114947000D01*
X108293000Y-114927000D01*
X107143750Y-114927000D01*
X106985000Y-115085750D01*
X106981928Y-115600000D01*
X50660000Y-115600000D01*
X50660000Y-114000000D01*
X106981928Y-114000000D01*
X106985000Y-114514250D01*
X107143750Y-114673000D01*
X108293000Y-114673000D01*
X108293000Y-113523750D01*
X108547000Y-113523750D01*
X108547000Y-114673000D01*
X109696250Y-114673000D01*
X109855000Y-114514250D01*
X109858072Y-114000000D01*
X109845812Y-113875518D01*
X109840700Y-113858665D01*
X135665000Y-113858665D01*
X135665000Y-114141335D01*
X135720147Y-114418574D01*
X135828320Y-114679727D01*
X135985363Y-114914759D01*
X136185241Y-115114637D01*
X136420273Y-115271680D01*
X136681426Y-115379853D01*
X136958665Y-115435000D01*
X137241335Y-115435000D01*
X137518574Y-115379853D01*
X137779727Y-115271680D01*
X138014759Y-115114637D01*
X138214637Y-114914759D01*
X138371680Y-114679727D01*
X138479853Y-114418574D01*
X138535000Y-114141335D01*
X138535000Y-113858665D01*
X145825000Y-113858665D01*
X145825000Y-114141335D01*
X145880147Y-114418574D01*
X145988320Y-114679727D01*
X146145363Y-114914759D01*
X146345241Y-115114637D01*
X146580273Y-115271680D01*
X146841426Y-115379853D01*
X147118665Y-115435000D01*
X147401335Y-115435000D01*
X147678574Y-115379853D01*
X147939727Y-115271680D01*
X148174759Y-115114637D01*
X148374637Y-114914759D01*
X148531680Y-114679727D01*
X148639853Y-114418574D01*
X148695000Y-114141335D01*
X148695000Y-113858665D01*
X148639853Y-113581426D01*
X148531680Y-113320273D01*
X148374637Y-113085241D01*
X148174759Y-112885363D01*
X147939727Y-112728320D01*
X147678574Y-112620147D01*
X147401335Y-112565000D01*
X147118665Y-112565000D01*
X146841426Y-112620147D01*
X146580273Y-112728320D01*
X146345241Y-112885363D01*
X146145363Y-113085241D01*
X145988320Y-113320273D01*
X145880147Y-113581426D01*
X145825000Y-113858665D01*
X138535000Y-113858665D01*
X138479853Y-113581426D01*
X138371680Y-113320273D01*
X138214637Y-113085241D01*
X138014759Y-112885363D01*
X137779727Y-112728320D01*
X137518574Y-112620147D01*
X137241335Y-112565000D01*
X136958665Y-112565000D01*
X136681426Y-112620147D01*
X136420273Y-112728320D01*
X136185241Y-112885363D01*
X135985363Y-113085241D01*
X135828320Y-113320273D01*
X135720147Y-113581426D01*
X135665000Y-113858665D01*
X109840700Y-113858665D01*
X109809502Y-113755820D01*
X109750537Y-113645506D01*
X109671185Y-113548815D01*
X109574494Y-113469463D01*
X109464180Y-113410498D01*
X109344482Y-113374188D01*
X109220000Y-113361928D01*
X108705750Y-113365000D01*
X108547000Y-113523750D01*
X108293000Y-113523750D01*
X108134250Y-113365000D01*
X107620000Y-113361928D01*
X107495518Y-113374188D01*
X107375820Y-113410498D01*
X107265506Y-113469463D01*
X107168815Y-113548815D01*
X107089463Y-113645506D01*
X107030498Y-113755820D01*
X106994188Y-113875518D01*
X106981928Y-114000000D01*
X50660000Y-114000000D01*
X50660000Y-110819268D01*
X58245000Y-110819268D01*
X58245000Y-111180732D01*
X58315518Y-111535250D01*
X58453844Y-111869199D01*
X58654662Y-112169744D01*
X58910256Y-112425338D01*
X59210801Y-112626156D01*
X59544750Y-112764482D01*
X59899268Y-112835000D01*
X60260732Y-112835000D01*
X60615250Y-112764482D01*
X60949199Y-112626156D01*
X61249744Y-112425338D01*
X61505338Y-112169744D01*
X61706156Y-111869199D01*
X61844482Y-111535250D01*
X61915000Y-111180732D01*
X61915000Y-110819268D01*
X78165000Y-110819268D01*
X78165000Y-111180732D01*
X78235518Y-111535250D01*
X78373844Y-111869199D01*
X78574662Y-112169744D01*
X78830256Y-112425338D01*
X79130801Y-112626156D01*
X79464750Y-112764482D01*
X79819268Y-112835000D01*
X80180732Y-112835000D01*
X80535250Y-112764482D01*
X80869199Y-112626156D01*
X81169744Y-112425338D01*
X81425338Y-112169744D01*
X81626156Y-111869199D01*
X81764482Y-111535250D01*
X81835000Y-111180732D01*
X81835000Y-110819268D01*
X98165000Y-110819268D01*
X98165000Y-111180732D01*
X98235518Y-111535250D01*
X98373844Y-111869199D01*
X98574662Y-112169744D01*
X98830256Y-112425338D01*
X99130801Y-112626156D01*
X99464750Y-112764482D01*
X99819268Y-112835000D01*
X100180732Y-112835000D01*
X100535250Y-112764482D01*
X100869199Y-112626156D01*
X101169744Y-112425338D01*
X101425338Y-112169744D01*
X101626156Y-111869199D01*
X101764482Y-111535250D01*
X101835000Y-111180732D01*
X101835000Y-110819268D01*
X101764482Y-110464750D01*
X101626156Y-110130801D01*
X101425338Y-109830256D01*
X101169744Y-109574662D01*
X100869199Y-109373844D01*
X100535250Y-109235518D01*
X100180732Y-109165000D01*
X99819268Y-109165000D01*
X99464750Y-109235518D01*
X99130801Y-109373844D01*
X98830256Y-109574662D01*
X98574662Y-109830256D01*
X98373844Y-110130801D01*
X98235518Y-110464750D01*
X98165000Y-110819268D01*
X81835000Y-110819268D01*
X81764482Y-110464750D01*
X81626156Y-110130801D01*
X81425338Y-109830256D01*
X81169744Y-109574662D01*
X80869199Y-109373844D01*
X80535250Y-109235518D01*
X80180732Y-109165000D01*
X79819268Y-109165000D01*
X79464750Y-109235518D01*
X79130801Y-109373844D01*
X78830256Y-109574662D01*
X78574662Y-109830256D01*
X78373844Y-110130801D01*
X78235518Y-110464750D01*
X78165000Y-110819268D01*
X61915000Y-110819268D01*
X61844482Y-110464750D01*
X61706156Y-110130801D01*
X61505338Y-109830256D01*
X61249744Y-109574662D01*
X60949199Y-109373844D01*
X60615250Y-109235518D01*
X60260732Y-109165000D01*
X59899268Y-109165000D01*
X59544750Y-109235518D01*
X59210801Y-109373844D01*
X58910256Y-109574662D01*
X58654662Y-109830256D01*
X58453844Y-110130801D01*
X58315518Y-110464750D01*
X58245000Y-110819268D01*
X50660000Y-110819268D01*
X50660000Y-107500000D01*
X112817319Y-107500000D01*
X112847970Y-107811204D01*
X112938745Y-108110449D01*
X113086155Y-108386235D01*
X113284537Y-108627963D01*
X113457609Y-108770000D01*
X113284537Y-108912037D01*
X113086155Y-109153765D01*
X112938745Y-109429551D01*
X112847970Y-109728796D01*
X112817319Y-110040000D01*
X112847970Y-110351204D01*
X112938745Y-110650449D01*
X113086155Y-110926235D01*
X113284537Y-111167963D01*
X113526265Y-111366345D01*
X113802051Y-111513755D01*
X114101296Y-111604530D01*
X114334514Y-111627500D01*
X114585486Y-111627500D01*
X114818704Y-111604530D01*
X115117949Y-111513755D01*
X115393735Y-111366345D01*
X115635463Y-111167963D01*
X115833845Y-110926235D01*
X115981255Y-110650449D01*
X116072030Y-110351204D01*
X116102681Y-110040000D01*
X116072030Y-109728796D01*
X115981255Y-109429551D01*
X115833845Y-109153765D01*
X115635463Y-108912037D01*
X115462391Y-108770000D01*
X115635463Y-108627963D01*
X115833845Y-108386235D01*
X115891100Y-108279117D01*
X137800000Y-108279117D01*
X137800000Y-108620883D01*
X137866675Y-108956081D01*
X137997463Y-109271831D01*
X138187337Y-109555998D01*
X138429002Y-109797663D01*
X138713169Y-109987537D01*
X139028919Y-110118325D01*
X139364117Y-110185000D01*
X139705883Y-110185000D01*
X140041081Y-110118325D01*
X140356831Y-109987537D01*
X140640998Y-109797663D01*
X140882663Y-109555998D01*
X141072537Y-109271831D01*
X141203325Y-108956081D01*
X141270000Y-108620883D01*
X141270000Y-108279117D01*
X142800000Y-108279117D01*
X142800000Y-108620883D01*
X142866675Y-108956081D01*
X142997463Y-109271831D01*
X143187337Y-109555998D01*
X143429002Y-109797663D01*
X143713169Y-109987537D01*
X144028919Y-110118325D01*
X144364117Y-110185000D01*
X144705883Y-110185000D01*
X145041081Y-110118325D01*
X145356831Y-109987537D01*
X145640998Y-109797663D01*
X145882663Y-109555998D01*
X146072537Y-109271831D01*
X146203325Y-108956081D01*
X146270000Y-108620883D01*
X146270000Y-108279117D01*
X146203325Y-107943919D01*
X146072537Y-107628169D01*
X145882663Y-107344002D01*
X145640998Y-107102337D01*
X145356831Y-106912463D01*
X145041081Y-106781675D01*
X144705883Y-106715000D01*
X144364117Y-106715000D01*
X144028919Y-106781675D01*
X143713169Y-106912463D01*
X143429002Y-107102337D01*
X143187337Y-107344002D01*
X142997463Y-107628169D01*
X142866675Y-107943919D01*
X142800000Y-108279117D01*
X141270000Y-108279117D01*
X141203325Y-107943919D01*
X141072537Y-107628169D01*
X140882663Y-107344002D01*
X140640998Y-107102337D01*
X140356831Y-106912463D01*
X140041081Y-106781675D01*
X139705883Y-106715000D01*
X139364117Y-106715000D01*
X139028919Y-106781675D01*
X138713169Y-106912463D01*
X138429002Y-107102337D01*
X138187337Y-107344002D01*
X137997463Y-107628169D01*
X137866675Y-107943919D01*
X137800000Y-108279117D01*
X115891100Y-108279117D01*
X115981255Y-108110449D01*
X116072030Y-107811204D01*
X116102681Y-107500000D01*
X116072030Y-107188796D01*
X115981255Y-106889551D01*
X115833845Y-106613765D01*
X115730554Y-106487905D01*
X115814494Y-106443037D01*
X115911185Y-106363685D01*
X115990537Y-106266994D01*
X116049502Y-106156680D01*
X116085812Y-106036982D01*
X116098072Y-105912500D01*
X116095000Y-105245750D01*
X115936250Y-105087000D01*
X114587000Y-105087000D01*
X114587000Y-105107000D01*
X114333000Y-105107000D01*
X114333000Y-105087000D01*
X112983750Y-105087000D01*
X112825000Y-105245750D01*
X112821928Y-105912500D01*
X112834188Y-106036982D01*
X112870498Y-106156680D01*
X112929463Y-106266994D01*
X113008815Y-106363685D01*
X113105506Y-106443037D01*
X113189446Y-106487905D01*
X113086155Y-106613765D01*
X112938745Y-106889551D01*
X112847970Y-107188796D01*
X112817319Y-107500000D01*
X50660000Y-107500000D01*
X50660000Y-104700000D01*
X58241928Y-104700000D01*
X58254188Y-104824482D01*
X58290498Y-104944180D01*
X58349463Y-105054494D01*
X58428815Y-105151185D01*
X58525506Y-105230537D01*
X58635820Y-105289502D01*
X58755518Y-105325812D01*
X58880000Y-105338072D01*
X59794250Y-105335000D01*
X59953000Y-105176250D01*
X59953000Y-103627000D01*
X60207000Y-103627000D01*
X60207000Y-105176250D01*
X60365750Y-105335000D01*
X61280000Y-105338072D01*
X61404482Y-105325812D01*
X61524180Y-105289502D01*
X61634494Y-105230537D01*
X61731185Y-105151185D01*
X61810537Y-105054494D01*
X61869502Y-104944180D01*
X61905812Y-104824482D01*
X61918072Y-104700000D01*
X78161928Y-104700000D01*
X78174188Y-104824482D01*
X78210498Y-104944180D01*
X78269463Y-105054494D01*
X78348815Y-105151185D01*
X78445506Y-105230537D01*
X78555820Y-105289502D01*
X78675518Y-105325812D01*
X78800000Y-105338072D01*
X79714250Y-105335000D01*
X79873000Y-105176250D01*
X79873000Y-103627000D01*
X80127000Y-103627000D01*
X80127000Y-105176250D01*
X80285750Y-105335000D01*
X81200000Y-105338072D01*
X81324482Y-105325812D01*
X81444180Y-105289502D01*
X81554494Y-105230537D01*
X81651185Y-105151185D01*
X81730537Y-105054494D01*
X81789502Y-104944180D01*
X81825812Y-104824482D01*
X81838072Y-104700000D01*
X98161928Y-104700000D01*
X98174188Y-104824482D01*
X98210498Y-104944180D01*
X98269463Y-105054494D01*
X98348815Y-105151185D01*
X98445506Y-105230537D01*
X98555820Y-105289502D01*
X98675518Y-105325812D01*
X98800000Y-105338072D01*
X99714250Y-105335000D01*
X99873000Y-105176250D01*
X99873000Y-103627000D01*
X100127000Y-103627000D01*
X100127000Y-105176250D01*
X100285750Y-105335000D01*
X101200000Y-105338072D01*
X101324482Y-105325812D01*
X101444180Y-105289502D01*
X101554494Y-105230537D01*
X101651185Y-105151185D01*
X101730537Y-105054494D01*
X101789502Y-104944180D01*
X101825812Y-104824482D01*
X101838072Y-104700000D01*
X101835746Y-104007500D01*
X112821928Y-104007500D01*
X112825000Y-104674250D01*
X112983750Y-104833000D01*
X114333000Y-104833000D01*
X114333000Y-103531250D01*
X114587000Y-103531250D01*
X114587000Y-104833000D01*
X115936250Y-104833000D01*
X116095000Y-104674250D01*
X116098072Y-104007500D01*
X116085812Y-103883018D01*
X116049502Y-103763320D01*
X115990537Y-103653006D01*
X115911185Y-103556315D01*
X115814494Y-103476963D01*
X115704180Y-103417998D01*
X115584482Y-103381688D01*
X115460000Y-103369428D01*
X114745750Y-103372500D01*
X114587000Y-103531250D01*
X114333000Y-103531250D01*
X114174250Y-103372500D01*
X113460000Y-103369428D01*
X113335518Y-103381688D01*
X113215820Y-103417998D01*
X113105506Y-103476963D01*
X113008815Y-103556315D01*
X112929463Y-103653006D01*
X112870498Y-103763320D01*
X112834188Y-103883018D01*
X112821928Y-104007500D01*
X101835746Y-104007500D01*
X101835000Y-103785750D01*
X101676250Y-103627000D01*
X100127000Y-103627000D01*
X99873000Y-103627000D01*
X98323750Y-103627000D01*
X98165000Y-103785750D01*
X98161928Y-104700000D01*
X81838072Y-104700000D01*
X81835000Y-103785750D01*
X81676250Y-103627000D01*
X80127000Y-103627000D01*
X79873000Y-103627000D01*
X78323750Y-103627000D01*
X78165000Y-103785750D01*
X78161928Y-104700000D01*
X61918072Y-104700000D01*
X61915000Y-103785750D01*
X61756250Y-103627000D01*
X60207000Y-103627000D01*
X59953000Y-103627000D01*
X58403750Y-103627000D01*
X58245000Y-103785750D01*
X58241928Y-104700000D01*
X50660000Y-104700000D01*
X50660000Y-102300000D01*
X58241928Y-102300000D01*
X58245000Y-103214250D01*
X58403750Y-103373000D01*
X59953000Y-103373000D01*
X59953000Y-101823750D01*
X60207000Y-101823750D01*
X60207000Y-103373000D01*
X61756250Y-103373000D01*
X61915000Y-103214250D01*
X61918072Y-102300000D01*
X78161928Y-102300000D01*
X78165000Y-103214250D01*
X78323750Y-103373000D01*
X79873000Y-103373000D01*
X79873000Y-101823750D01*
X80127000Y-101823750D01*
X80127000Y-103373000D01*
X81676250Y-103373000D01*
X81835000Y-103214250D01*
X81838072Y-102300000D01*
X98161928Y-102300000D01*
X98165000Y-103214250D01*
X98323750Y-103373000D01*
X99873000Y-103373000D01*
X99873000Y-101823750D01*
X100127000Y-101823750D01*
X100127000Y-103373000D01*
X101676250Y-103373000D01*
X101835000Y-103214250D01*
X101838072Y-102300000D01*
X101825812Y-102175518D01*
X101789502Y-102055820D01*
X101730537Y-101945506D01*
X101651185Y-101848815D01*
X101554494Y-101769463D01*
X101444180Y-101710498D01*
X101324482Y-101674188D01*
X101200000Y-101661928D01*
X100285750Y-101665000D01*
X100127000Y-101823750D01*
X99873000Y-101823750D01*
X99714250Y-101665000D01*
X98800000Y-101661928D01*
X98675518Y-101674188D01*
X98555820Y-101710498D01*
X98445506Y-101769463D01*
X98348815Y-101848815D01*
X98269463Y-101945506D01*
X98210498Y-102055820D01*
X98174188Y-102175518D01*
X98161928Y-102300000D01*
X81838072Y-102300000D01*
X81825812Y-102175518D01*
X81789502Y-102055820D01*
X81730537Y-101945506D01*
X81651185Y-101848815D01*
X81554494Y-101769463D01*
X81444180Y-101710498D01*
X81324482Y-101674188D01*
X81200000Y-101661928D01*
X80285750Y-101665000D01*
X80127000Y-101823750D01*
X79873000Y-101823750D01*
X79714250Y-101665000D01*
X78800000Y-101661928D01*
X78675518Y-101674188D01*
X78555820Y-101710498D01*
X78445506Y-101769463D01*
X78348815Y-101848815D01*
X78269463Y-101945506D01*
X78210498Y-102055820D01*
X78174188Y-102175518D01*
X78161928Y-102300000D01*
X61918072Y-102300000D01*
X61905812Y-102175518D01*
X61869502Y-102055820D01*
X61810537Y-101945506D01*
X61731185Y-101848815D01*
X61634494Y-101769463D01*
X61524180Y-101710498D01*
X61404482Y-101674188D01*
X61280000Y-101661928D01*
X60365750Y-101665000D01*
X60207000Y-101823750D01*
X59953000Y-101823750D01*
X59794250Y-101665000D01*
X58880000Y-101661928D01*
X58755518Y-101674188D01*
X58635820Y-101710498D01*
X58525506Y-101769463D01*
X58428815Y-101848815D01*
X58349463Y-101945506D01*
X58290498Y-102055820D01*
X58254188Y-102175518D01*
X58241928Y-102300000D01*
X50660000Y-102300000D01*
X50660000Y-99814344D01*
X144635000Y-99814344D01*
X144635000Y-100185656D01*
X144707439Y-100549834D01*
X144849534Y-100892882D01*
X145055825Y-101201618D01*
X145318382Y-101464175D01*
X145627118Y-101670466D01*
X145970166Y-101812561D01*
X146334344Y-101885000D01*
X146705656Y-101885000D01*
X147069834Y-101812561D01*
X147412882Y-101670466D01*
X147721618Y-101464175D01*
X147984175Y-101201618D01*
X148190466Y-100892882D01*
X148332561Y-100549834D01*
X148405000Y-100185656D01*
X148405000Y-99814344D01*
X148332561Y-99450166D01*
X148190466Y-99107118D01*
X147984175Y-98798382D01*
X147721618Y-98535825D01*
X147412882Y-98329534D01*
X147069834Y-98187439D01*
X146705656Y-98115000D01*
X146334344Y-98115000D01*
X145970166Y-98187439D01*
X145627118Y-98329534D01*
X145318382Y-98535825D01*
X145055825Y-98798382D01*
X144849534Y-99107118D01*
X144707439Y-99450166D01*
X144635000Y-99814344D01*
X50660000Y-99814344D01*
X50660000Y-96300000D01*
X115561928Y-96300000D01*
X115574188Y-96424482D01*
X115610498Y-96544180D01*
X115669463Y-96654494D01*
X115748815Y-96751185D01*
X115845506Y-96830537D01*
X115955820Y-96889502D01*
X116051943Y-96918661D01*
X115885363Y-97085241D01*
X115728320Y-97320273D01*
X115620147Y-97581426D01*
X115565000Y-97858665D01*
X115565000Y-98141335D01*
X115620147Y-98418574D01*
X115728320Y-98679727D01*
X115885363Y-98914759D01*
X116085241Y-99114637D01*
X116320273Y-99271680D01*
X116581426Y-99379853D01*
X116858665Y-99435000D01*
X117141335Y-99435000D01*
X117418574Y-99379853D01*
X117679727Y-99271680D01*
X117914759Y-99114637D01*
X118114637Y-98914759D01*
X118271680Y-98679727D01*
X118379853Y-98418574D01*
X118435000Y-98141335D01*
X118435000Y-97858665D01*
X118379853Y-97581426D01*
X118271680Y-97320273D01*
X118114637Y-97085241D01*
X117948057Y-96918661D01*
X118044180Y-96889502D01*
X118066237Y-96877712D01*
X119721928Y-96877712D01*
X119734188Y-97002194D01*
X119770498Y-97121892D01*
X119829463Y-97232206D01*
X119908815Y-97328897D01*
X120005506Y-97408249D01*
X120115820Y-97467214D01*
X120235518Y-97503524D01*
X120360000Y-97515784D01*
X121174250Y-97512712D01*
X121333000Y-97353962D01*
X121333000Y-95904712D01*
X121587000Y-95904712D01*
X121587000Y-97353962D01*
X121745750Y-97512712D01*
X122560000Y-97515784D01*
X122684482Y-97503524D01*
X122804180Y-97467214D01*
X122914494Y-97408249D01*
X123011185Y-97328897D01*
X123090537Y-97232206D01*
X123149502Y-97121892D01*
X123185812Y-97002194D01*
X123198072Y-96877712D01*
X123195000Y-96063462D01*
X123036250Y-95904712D01*
X121587000Y-95904712D01*
X121333000Y-95904712D01*
X119883750Y-95904712D01*
X119725000Y-96063462D01*
X119721928Y-96877712D01*
X118066237Y-96877712D01*
X118154494Y-96830537D01*
X118251185Y-96751185D01*
X118330537Y-96654494D01*
X118389502Y-96544180D01*
X118425812Y-96424482D01*
X118438072Y-96300000D01*
X118435000Y-95785750D01*
X118276250Y-95627000D01*
X117127000Y-95627000D01*
X117127000Y-95647000D01*
X116873000Y-95647000D01*
X116873000Y-95627000D01*
X115723750Y-95627000D01*
X115565000Y-95785750D01*
X115561928Y-96300000D01*
X50660000Y-96300000D01*
X50660000Y-94700000D01*
X115561928Y-94700000D01*
X115565000Y-95214250D01*
X115723750Y-95373000D01*
X116873000Y-95373000D01*
X116873000Y-94223750D01*
X117127000Y-94223750D01*
X117127000Y-95373000D01*
X118276250Y-95373000D01*
X118435000Y-95214250D01*
X118438072Y-94700000D01*
X118435877Y-94677712D01*
X119721928Y-94677712D01*
X119725000Y-95491962D01*
X119883750Y-95650712D01*
X121333000Y-95650712D01*
X121333000Y-94201462D01*
X121587000Y-94201462D01*
X121587000Y-95650712D01*
X123036250Y-95650712D01*
X123080133Y-95606829D01*
X129885000Y-95606829D01*
X129885000Y-95948595D01*
X129951675Y-96283793D01*
X130082463Y-96599543D01*
X130272337Y-96883710D01*
X130514002Y-97125375D01*
X130798169Y-97315249D01*
X131113919Y-97446037D01*
X131449117Y-97512712D01*
X131790883Y-97512712D01*
X132126081Y-97446037D01*
X132441831Y-97315249D01*
X132725998Y-97125375D01*
X132967663Y-96883710D01*
X133157537Y-96599543D01*
X133275976Y-96313605D01*
X145386000Y-96313605D01*
X145511914Y-96603577D01*
X145844126Y-96769433D01*
X146202312Y-96867290D01*
X146572706Y-96893389D01*
X146941075Y-96846725D01*
X147293262Y-96729094D01*
X147528086Y-96603577D01*
X147654000Y-96313605D01*
X146520000Y-95179605D01*
X145386000Y-96313605D01*
X133275976Y-96313605D01*
X133288325Y-96283793D01*
X133355000Y-95948595D01*
X133355000Y-95606829D01*
X133288325Y-95271631D01*
X133197644Y-95052706D01*
X144626611Y-95052706D01*
X144673275Y-95421075D01*
X144790906Y-95773262D01*
X144916423Y-96008086D01*
X145206395Y-96134000D01*
X146340395Y-95000000D01*
X146699605Y-95000000D01*
X147833605Y-96134000D01*
X148123577Y-96008086D01*
X148289433Y-95675874D01*
X148387290Y-95317688D01*
X148413389Y-94947294D01*
X148366725Y-94578925D01*
X148249094Y-94226738D01*
X148123577Y-93991914D01*
X147833605Y-93866000D01*
X146699605Y-95000000D01*
X146340395Y-95000000D01*
X145206395Y-93866000D01*
X144916423Y-93991914D01*
X144750567Y-94324126D01*
X144652710Y-94682312D01*
X144626611Y-95052706D01*
X133197644Y-95052706D01*
X133157537Y-94955881D01*
X132967663Y-94671714D01*
X132725998Y-94430049D01*
X132441831Y-94240175D01*
X132126081Y-94109387D01*
X131790883Y-94042712D01*
X131449117Y-94042712D01*
X131113919Y-94109387D01*
X130798169Y-94240175D01*
X130514002Y-94430049D01*
X130272337Y-94671714D01*
X130082463Y-94955881D01*
X129951675Y-95271631D01*
X129885000Y-95606829D01*
X123080133Y-95606829D01*
X123195000Y-95491962D01*
X123198072Y-94677712D01*
X123185812Y-94553230D01*
X123149502Y-94433532D01*
X123090537Y-94323218D01*
X123011185Y-94226527D01*
X122914494Y-94147175D01*
X122804180Y-94088210D01*
X122684482Y-94051900D01*
X122560000Y-94039640D01*
X121745750Y-94042712D01*
X121587000Y-94201462D01*
X121333000Y-94201462D01*
X121174250Y-94042712D01*
X120360000Y-94039640D01*
X120235518Y-94051900D01*
X120115820Y-94088210D01*
X120005506Y-94147175D01*
X119908815Y-94226527D01*
X119829463Y-94323218D01*
X119770498Y-94433532D01*
X119734188Y-94553230D01*
X119721928Y-94677712D01*
X118435877Y-94677712D01*
X118425812Y-94575518D01*
X118389502Y-94455820D01*
X118330537Y-94345506D01*
X118251185Y-94248815D01*
X118154494Y-94169463D01*
X118044180Y-94110498D01*
X117924482Y-94074188D01*
X117800000Y-94061928D01*
X117285750Y-94065000D01*
X117127000Y-94223750D01*
X116873000Y-94223750D01*
X116714250Y-94065000D01*
X116200000Y-94061928D01*
X116075518Y-94074188D01*
X115955820Y-94110498D01*
X115845506Y-94169463D01*
X115748815Y-94248815D01*
X115669463Y-94345506D01*
X115610498Y-94455820D01*
X115574188Y-94575518D01*
X115561928Y-94700000D01*
X50660000Y-94700000D01*
X50660000Y-93686395D01*
X145386000Y-93686395D01*
X146520000Y-94820395D01*
X147654000Y-93686395D01*
X147528086Y-93396423D01*
X147195874Y-93230567D01*
X146837688Y-93132710D01*
X146467294Y-93106611D01*
X146098925Y-93153275D01*
X145746738Y-93270906D01*
X145511914Y-93396423D01*
X145386000Y-93686395D01*
X50660000Y-93686395D01*
X50660000Y-92492702D01*
X116186903Y-92492702D01*
X116258486Y-92736671D01*
X116513996Y-92857571D01*
X116788184Y-92926300D01*
X117070512Y-92940217D01*
X117350130Y-92898787D01*
X117616292Y-92803603D01*
X117741514Y-92736671D01*
X117813097Y-92492702D01*
X117000000Y-91679605D01*
X116186903Y-92492702D01*
X50660000Y-92492702D01*
X50660000Y-91777980D01*
X58981626Y-91777980D01*
X59101514Y-92062836D01*
X59425210Y-92223699D01*
X59774069Y-92318322D01*
X60134684Y-92343067D01*
X60493198Y-92296985D01*
X60835833Y-92181846D01*
X61058486Y-92062836D01*
X61178374Y-91777980D01*
X78901626Y-91777980D01*
X79021514Y-92062836D01*
X79345210Y-92223699D01*
X79694069Y-92318322D01*
X80054684Y-92343067D01*
X80413198Y-92296985D01*
X80755833Y-92181846D01*
X80978486Y-92062836D01*
X81098374Y-91777980D01*
X98901626Y-91777980D01*
X99021514Y-92062836D01*
X99345210Y-92223699D01*
X99694069Y-92318322D01*
X100054684Y-92343067D01*
X100413198Y-92296985D01*
X100755833Y-92181846D01*
X100978486Y-92062836D01*
X101098374Y-91777980D01*
X100000000Y-90679605D01*
X98901626Y-91777980D01*
X81098374Y-91777980D01*
X80000000Y-90679605D01*
X78901626Y-91777980D01*
X61178374Y-91777980D01*
X60080000Y-90679605D01*
X58981626Y-91777980D01*
X50660000Y-91777980D01*
X50660000Y-90554684D01*
X58236933Y-90554684D01*
X58283015Y-90913198D01*
X58398154Y-91255833D01*
X58517164Y-91478486D01*
X58802020Y-91598374D01*
X59900395Y-90500000D01*
X60259605Y-90500000D01*
X61357980Y-91598374D01*
X61642836Y-91478486D01*
X61803699Y-91154790D01*
X61898322Y-90805931D01*
X61915562Y-90554684D01*
X78156933Y-90554684D01*
X78203015Y-90913198D01*
X78318154Y-91255833D01*
X78437164Y-91478486D01*
X78722020Y-91598374D01*
X79820395Y-90500000D01*
X80179605Y-90500000D01*
X81277980Y-91598374D01*
X81562836Y-91478486D01*
X81723699Y-91154790D01*
X81818322Y-90805931D01*
X81835562Y-90554684D01*
X98156933Y-90554684D01*
X98203015Y-90913198D01*
X98318154Y-91255833D01*
X98437164Y-91478486D01*
X98722020Y-91598374D01*
X99820395Y-90500000D01*
X100179605Y-90500000D01*
X101277980Y-91598374D01*
X101344180Y-91570512D01*
X115559783Y-91570512D01*
X115601213Y-91850130D01*
X115696397Y-92116292D01*
X115763329Y-92241514D01*
X116007298Y-92313097D01*
X116820395Y-91500000D01*
X117179605Y-91500000D01*
X117992702Y-92313097D01*
X118236671Y-92241514D01*
X118357571Y-91986004D01*
X118426300Y-91711816D01*
X118440217Y-91429488D01*
X118398787Y-91149870D01*
X118303603Y-90883708D01*
X118236671Y-90758486D01*
X117992702Y-90686903D01*
X117179605Y-91500000D01*
X116820395Y-91500000D01*
X116007298Y-90686903D01*
X115763329Y-90758486D01*
X115642429Y-91013996D01*
X115573700Y-91288184D01*
X115559783Y-91570512D01*
X101344180Y-91570512D01*
X101562836Y-91478486D01*
X101723699Y-91154790D01*
X101818322Y-90805931D01*
X101843067Y-90445316D01*
X101796985Y-90086802D01*
X101681846Y-89744167D01*
X101562836Y-89521514D01*
X101277980Y-89401626D01*
X100179605Y-90500000D01*
X99820395Y-90500000D01*
X98722020Y-89401626D01*
X98437164Y-89521514D01*
X98276301Y-89845210D01*
X98181678Y-90194069D01*
X98156933Y-90554684D01*
X81835562Y-90554684D01*
X81843067Y-90445316D01*
X81796985Y-90086802D01*
X81681846Y-89744167D01*
X81562836Y-89521514D01*
X81277980Y-89401626D01*
X80179605Y-90500000D01*
X79820395Y-90500000D01*
X78722020Y-89401626D01*
X78437164Y-89521514D01*
X78276301Y-89845210D01*
X78181678Y-90194069D01*
X78156933Y-90554684D01*
X61915562Y-90554684D01*
X61923067Y-90445316D01*
X61876985Y-90086802D01*
X61761846Y-89744167D01*
X61642836Y-89521514D01*
X61357980Y-89401626D01*
X60259605Y-90500000D01*
X59900395Y-90500000D01*
X58802020Y-89401626D01*
X58517164Y-89521514D01*
X58356301Y-89845210D01*
X58261678Y-90194069D01*
X58236933Y-90554684D01*
X50660000Y-90554684D01*
X50660000Y-89222020D01*
X58981626Y-89222020D01*
X60080000Y-90320395D01*
X61178374Y-89222020D01*
X78901626Y-89222020D01*
X80000000Y-90320395D01*
X81098374Y-89222020D01*
X98901626Y-89222020D01*
X100000000Y-90320395D01*
X101098374Y-89222020D01*
X100978486Y-88937164D01*
X100654790Y-88776301D01*
X100305931Y-88681678D01*
X99945316Y-88656933D01*
X99586802Y-88703015D01*
X99244167Y-88818154D01*
X99021514Y-88937164D01*
X98901626Y-89222020D01*
X81098374Y-89222020D01*
X80978486Y-88937164D01*
X80654790Y-88776301D01*
X80305931Y-88681678D01*
X79945316Y-88656933D01*
X79586802Y-88703015D01*
X79244167Y-88818154D01*
X79021514Y-88937164D01*
X78901626Y-89222020D01*
X61178374Y-89222020D01*
X61058486Y-88937164D01*
X60734790Y-88776301D01*
X60385931Y-88681678D01*
X60025316Y-88656933D01*
X59666802Y-88703015D01*
X59324167Y-88818154D01*
X59101514Y-88937164D01*
X58981626Y-89222020D01*
X50660000Y-89222020D01*
X50660000Y-88200000D01*
X115561928Y-88200000D01*
X115561928Y-89800000D01*
X115574188Y-89924482D01*
X115610498Y-90044180D01*
X115669463Y-90154494D01*
X115748815Y-90251185D01*
X115845506Y-90330537D01*
X115955820Y-90389502D01*
X116075518Y-90425812D01*
X116200000Y-90438072D01*
X116207215Y-90438072D01*
X116186903Y-90507298D01*
X117000000Y-91320395D01*
X117813097Y-90507298D01*
X117792785Y-90438072D01*
X117800000Y-90438072D01*
X117924482Y-90425812D01*
X118044180Y-90389502D01*
X118154494Y-90330537D01*
X118251185Y-90251185D01*
X118330537Y-90154494D01*
X118370355Y-90080000D01*
X119721928Y-90080000D01*
X119721928Y-92280000D01*
X119734188Y-92404482D01*
X119770498Y-92524180D01*
X119829463Y-92634494D01*
X119908815Y-92731185D01*
X120005506Y-92810537D01*
X120115820Y-92869502D01*
X120235518Y-92905812D01*
X120360000Y-92918072D01*
X122560000Y-92918072D01*
X122684482Y-92905812D01*
X122804180Y-92869502D01*
X122914494Y-92810537D01*
X123011185Y-92731185D01*
X123090537Y-92634494D01*
X123149502Y-92524180D01*
X123185812Y-92404482D01*
X123198072Y-92280000D01*
X123198072Y-91576122D01*
X129930825Y-91576122D01*
X129995425Y-91789094D01*
X130145469Y-92094329D01*
X130352178Y-92364427D01*
X130607609Y-92589008D01*
X130901946Y-92759442D01*
X131223877Y-92869179D01*
X131493000Y-92751600D01*
X131493000Y-91307000D01*
X131747000Y-91307000D01*
X131747000Y-92751600D01*
X132016123Y-92869179D01*
X132338054Y-92759442D01*
X132632391Y-92589008D01*
X132887822Y-92364427D01*
X133094531Y-92094329D01*
X133244575Y-91789094D01*
X133309175Y-91576122D01*
X133191125Y-91307000D01*
X131747000Y-91307000D01*
X131493000Y-91307000D01*
X130048875Y-91307000D01*
X129930825Y-91576122D01*
X123198072Y-91576122D01*
X123198072Y-90783878D01*
X129930825Y-90783878D01*
X130048875Y-91053000D01*
X131493000Y-91053000D01*
X131493000Y-89608400D01*
X131747000Y-89608400D01*
X131747000Y-91053000D01*
X133191125Y-91053000D01*
X133309175Y-90783878D01*
X133244575Y-90570906D01*
X133094531Y-90265671D01*
X132887822Y-89995573D01*
X132632391Y-89770992D01*
X132338054Y-89600558D01*
X132016123Y-89490821D01*
X131747000Y-89608400D01*
X131493000Y-89608400D01*
X131223877Y-89490821D01*
X130901946Y-89600558D01*
X130607609Y-89770992D01*
X130352178Y-89995573D01*
X130145469Y-90265671D01*
X129995425Y-90570906D01*
X129930825Y-90783878D01*
X123198072Y-90783878D01*
X123198072Y-90080000D01*
X123185812Y-89955518D01*
X123149502Y-89835820D01*
X123090537Y-89725506D01*
X123011185Y-89628815D01*
X122914494Y-89549463D01*
X122804180Y-89490498D01*
X122684482Y-89454188D01*
X122560000Y-89441928D01*
X120360000Y-89441928D01*
X120235518Y-89454188D01*
X120115820Y-89490498D01*
X120005506Y-89549463D01*
X119908815Y-89628815D01*
X119829463Y-89725506D01*
X119770498Y-89835820D01*
X119734188Y-89955518D01*
X119721928Y-90080000D01*
X118370355Y-90080000D01*
X118389502Y-90044180D01*
X118425812Y-89924482D01*
X118438072Y-89800000D01*
X118438072Y-88750000D01*
X144631928Y-88750000D01*
X144631928Y-91250000D01*
X144644188Y-91374482D01*
X144680498Y-91494180D01*
X144739463Y-91604494D01*
X144818815Y-91701185D01*
X144915506Y-91780537D01*
X145025820Y-91839502D01*
X145145518Y-91875812D01*
X145270000Y-91888072D01*
X147770000Y-91888072D01*
X147894482Y-91875812D01*
X148014180Y-91839502D01*
X148124494Y-91780537D01*
X148221185Y-91701185D01*
X148300537Y-91604494D01*
X148359502Y-91494180D01*
X148395812Y-91374482D01*
X148408072Y-91250000D01*
X148408072Y-88750000D01*
X148395812Y-88625518D01*
X148359502Y-88505820D01*
X148300537Y-88395506D01*
X148221185Y-88298815D01*
X148124494Y-88219463D01*
X148014180Y-88160498D01*
X147894482Y-88124188D01*
X147770000Y-88111928D01*
X145270000Y-88111928D01*
X145145518Y-88124188D01*
X145025820Y-88160498D01*
X144915506Y-88219463D01*
X144818815Y-88298815D01*
X144739463Y-88395506D01*
X144680498Y-88505820D01*
X144644188Y-88625518D01*
X144631928Y-88750000D01*
X118438072Y-88750000D01*
X118438072Y-88200000D01*
X118425812Y-88075518D01*
X118389502Y-87955820D01*
X118330537Y-87845506D01*
X118251185Y-87748815D01*
X118154494Y-87669463D01*
X118044180Y-87610498D01*
X117924482Y-87574188D01*
X117800000Y-87561928D01*
X116200000Y-87561928D01*
X116075518Y-87574188D01*
X115955820Y-87610498D01*
X115845506Y-87669463D01*
X115748815Y-87748815D01*
X115669463Y-87845506D01*
X115610498Y-87955820D01*
X115574188Y-88075518D01*
X115561928Y-88200000D01*
X50660000Y-88200000D01*
X50660000Y-81800000D01*
X58241928Y-81800000D01*
X58241928Y-84200000D01*
X58254188Y-84324482D01*
X58290498Y-84444180D01*
X58349463Y-84554494D01*
X58428815Y-84651185D01*
X58525506Y-84730537D01*
X58635820Y-84789502D01*
X58755518Y-84825812D01*
X58880000Y-84838072D01*
X61280000Y-84838072D01*
X61404482Y-84825812D01*
X61524180Y-84789502D01*
X61634494Y-84730537D01*
X61731185Y-84651185D01*
X61810537Y-84554494D01*
X61869502Y-84444180D01*
X61905812Y-84324482D01*
X61918072Y-84200000D01*
X61918072Y-81800000D01*
X78161928Y-81800000D01*
X78161928Y-84200000D01*
X78174188Y-84324482D01*
X78210498Y-84444180D01*
X78269463Y-84554494D01*
X78348815Y-84651185D01*
X78445506Y-84730537D01*
X78555820Y-84789502D01*
X78675518Y-84825812D01*
X78800000Y-84838072D01*
X81200000Y-84838072D01*
X81324482Y-84825812D01*
X81444180Y-84789502D01*
X81554494Y-84730537D01*
X81651185Y-84651185D01*
X81730537Y-84554494D01*
X81789502Y-84444180D01*
X81825812Y-84324482D01*
X81838072Y-84200000D01*
X81838072Y-81800000D01*
X98161928Y-81800000D01*
X98161928Y-84200000D01*
X98174188Y-84324482D01*
X98210498Y-84444180D01*
X98269463Y-84554494D01*
X98348815Y-84651185D01*
X98445506Y-84730537D01*
X98555820Y-84789502D01*
X98675518Y-84825812D01*
X98800000Y-84838072D01*
X101200000Y-84838072D01*
X101324482Y-84825812D01*
X101444180Y-84789502D01*
X101554494Y-84730537D01*
X101651185Y-84651185D01*
X101730537Y-84554494D01*
X101789502Y-84444180D01*
X101825812Y-84324482D01*
X101838072Y-84200000D01*
X101838072Y-82040000D01*
X112817319Y-82040000D01*
X112847970Y-82351204D01*
X112938745Y-82650449D01*
X113086155Y-82926235D01*
X113284537Y-83167963D01*
X113526265Y-83366345D01*
X113802051Y-83513755D01*
X114101296Y-83604530D01*
X114334514Y-83627500D01*
X114585486Y-83627500D01*
X114818704Y-83604530D01*
X115117949Y-83513755D01*
X115393735Y-83366345D01*
X115635463Y-83167963D01*
X115833845Y-82926235D01*
X115981255Y-82650449D01*
X116072030Y-82351204D01*
X116102681Y-82040000D01*
X116072030Y-81728796D01*
X115981255Y-81429551D01*
X115833845Y-81153765D01*
X115686411Y-80974117D01*
X137800000Y-80974117D01*
X137800000Y-81315883D01*
X137866675Y-81651081D01*
X137997463Y-81966831D01*
X138187337Y-82250998D01*
X138429002Y-82492663D01*
X138713169Y-82682537D01*
X139028919Y-82813325D01*
X139364117Y-82880000D01*
X139705883Y-82880000D01*
X140041081Y-82813325D01*
X140356831Y-82682537D01*
X140640998Y-82492663D01*
X140882663Y-82250998D01*
X141072537Y-81966831D01*
X141203325Y-81651081D01*
X141270000Y-81315883D01*
X141270000Y-80974117D01*
X142800000Y-80974117D01*
X142800000Y-81315883D01*
X142866675Y-81651081D01*
X142997463Y-81966831D01*
X143187337Y-82250998D01*
X143429002Y-82492663D01*
X143713169Y-82682537D01*
X144028919Y-82813325D01*
X144364117Y-82880000D01*
X144705883Y-82880000D01*
X145041081Y-82813325D01*
X145356831Y-82682537D01*
X145640998Y-82492663D01*
X145882663Y-82250998D01*
X146072537Y-81966831D01*
X146203325Y-81651081D01*
X146270000Y-81315883D01*
X146270000Y-80974117D01*
X146203325Y-80638919D01*
X146072537Y-80323169D01*
X145882663Y-80039002D01*
X145640998Y-79797337D01*
X145356831Y-79607463D01*
X145041081Y-79476675D01*
X144705883Y-79410000D01*
X144364117Y-79410000D01*
X144028919Y-79476675D01*
X143713169Y-79607463D01*
X143429002Y-79797337D01*
X143187337Y-80039002D01*
X142997463Y-80323169D01*
X142866675Y-80638919D01*
X142800000Y-80974117D01*
X141270000Y-80974117D01*
X141203325Y-80638919D01*
X141072537Y-80323169D01*
X140882663Y-80039002D01*
X140640998Y-79797337D01*
X140356831Y-79607463D01*
X140041081Y-79476675D01*
X139705883Y-79410000D01*
X139364117Y-79410000D01*
X139028919Y-79476675D01*
X138713169Y-79607463D01*
X138429002Y-79797337D01*
X138187337Y-80039002D01*
X137997463Y-80323169D01*
X137866675Y-80638919D01*
X137800000Y-80974117D01*
X115686411Y-80974117D01*
X115635463Y-80912037D01*
X115456101Y-80764837D01*
X115641315Y-80609437D01*
X115835969Y-80366923D01*
X115979571Y-80091094D01*
X116050563Y-79872980D01*
X115930594Y-79627000D01*
X114587000Y-79627000D01*
X114587000Y-79647000D01*
X114333000Y-79647000D01*
X114333000Y-79627000D01*
X112989406Y-79627000D01*
X112869437Y-79872980D01*
X112940429Y-80091094D01*
X113084031Y-80366923D01*
X113278685Y-80609437D01*
X113463899Y-80764837D01*
X113284537Y-80912037D01*
X113086155Y-81153765D01*
X112938745Y-81429551D01*
X112847970Y-81728796D01*
X112817319Y-82040000D01*
X101838072Y-82040000D01*
X101838072Y-81800000D01*
X101825812Y-81675518D01*
X101789502Y-81555820D01*
X101730537Y-81445506D01*
X101651185Y-81348815D01*
X101554494Y-81269463D01*
X101444180Y-81210498D01*
X101324482Y-81174188D01*
X101200000Y-81161928D01*
X98800000Y-81161928D01*
X98675518Y-81174188D01*
X98555820Y-81210498D01*
X98445506Y-81269463D01*
X98348815Y-81348815D01*
X98269463Y-81445506D01*
X98210498Y-81555820D01*
X98174188Y-81675518D01*
X98161928Y-81800000D01*
X81838072Y-81800000D01*
X81825812Y-81675518D01*
X81789502Y-81555820D01*
X81730537Y-81445506D01*
X81651185Y-81348815D01*
X81554494Y-81269463D01*
X81444180Y-81210498D01*
X81324482Y-81174188D01*
X81200000Y-81161928D01*
X78800000Y-81161928D01*
X78675518Y-81174188D01*
X78555820Y-81210498D01*
X78445506Y-81269463D01*
X78348815Y-81348815D01*
X78269463Y-81445506D01*
X78210498Y-81555820D01*
X78174188Y-81675518D01*
X78161928Y-81800000D01*
X61918072Y-81800000D01*
X61905812Y-81675518D01*
X61869502Y-81555820D01*
X61810537Y-81445506D01*
X61731185Y-81348815D01*
X61634494Y-81269463D01*
X61524180Y-81210498D01*
X61404482Y-81174188D01*
X61280000Y-81161928D01*
X58880000Y-81161928D01*
X58755518Y-81174188D01*
X58635820Y-81210498D01*
X58525506Y-81269463D01*
X58428815Y-81348815D01*
X58349463Y-81445506D01*
X58290498Y-81555820D01*
X58254188Y-81675518D01*
X58241928Y-81800000D01*
X50660000Y-81800000D01*
X50660000Y-80192702D01*
X107606903Y-80192702D01*
X107678486Y-80436671D01*
X107933996Y-80557571D01*
X108208184Y-80626300D01*
X108490512Y-80640217D01*
X108770130Y-80598787D01*
X109036292Y-80503603D01*
X109161514Y-80436671D01*
X109233097Y-80192702D01*
X108420000Y-79379605D01*
X107606903Y-80192702D01*
X50660000Y-80192702D01*
X50660000Y-79270512D01*
X106979783Y-79270512D01*
X107021213Y-79550130D01*
X107116397Y-79816292D01*
X107183329Y-79941514D01*
X107427298Y-80013097D01*
X108240395Y-79200000D01*
X108599605Y-79200000D01*
X109412702Y-80013097D01*
X109656671Y-79941514D01*
X109777571Y-79686004D01*
X109846300Y-79411816D01*
X109860217Y-79129488D01*
X109818787Y-78849870D01*
X109723603Y-78583708D01*
X109656671Y-78458486D01*
X109412702Y-78386903D01*
X108599605Y-79200000D01*
X108240395Y-79200000D01*
X107427298Y-78386903D01*
X107183329Y-78458486D01*
X107062429Y-78713996D01*
X106993700Y-78988184D01*
X106979783Y-79270512D01*
X50660000Y-79270512D01*
X50660000Y-73060000D01*
X53341928Y-73060000D01*
X53341928Y-75260000D01*
X53354188Y-75384482D01*
X53390498Y-75504180D01*
X53449463Y-75614494D01*
X53528815Y-75711185D01*
X53625506Y-75790537D01*
X53735820Y-75849502D01*
X53855518Y-75885812D01*
X53980000Y-75898072D01*
X56180000Y-75898072D01*
X56304482Y-75885812D01*
X56424180Y-75849502D01*
X56534494Y-75790537D01*
X56631185Y-75711185D01*
X56710537Y-75614494D01*
X56769502Y-75504180D01*
X56805812Y-75384482D01*
X56818072Y-75260000D01*
X56818072Y-73989117D01*
X63505000Y-73989117D01*
X63505000Y-74330883D01*
X63571675Y-74666081D01*
X63702463Y-74981831D01*
X63892337Y-75265998D01*
X64134002Y-75507663D01*
X64418169Y-75697537D01*
X64733919Y-75828325D01*
X65069117Y-75895000D01*
X65410883Y-75895000D01*
X65737660Y-75830000D01*
X85308057Y-75830000D01*
X85335764Y-76111309D01*
X85417818Y-76381808D01*
X85551068Y-76631101D01*
X85730392Y-76849608D01*
X85948899Y-77028932D01*
X86198192Y-77162182D01*
X86468691Y-77244236D01*
X86679508Y-77265000D01*
X89520492Y-77265000D01*
X89731309Y-77244236D01*
X90001808Y-77162182D01*
X90251101Y-77028932D01*
X90469608Y-76849608D01*
X90648932Y-76631101D01*
X90782182Y-76381808D01*
X90864236Y-76111309D01*
X90885048Y-75900000D01*
X106981928Y-75900000D01*
X106981928Y-77500000D01*
X106994188Y-77624482D01*
X107030498Y-77744180D01*
X107089463Y-77854494D01*
X107168815Y-77951185D01*
X107265506Y-78030537D01*
X107375820Y-78089502D01*
X107495518Y-78125812D01*
X107620000Y-78138072D01*
X107627215Y-78138072D01*
X107606903Y-78207298D01*
X108420000Y-79020395D01*
X109233097Y-78207298D01*
X109212785Y-78138072D01*
X109220000Y-78138072D01*
X109344482Y-78125812D01*
X109464180Y-78089502D01*
X109574494Y-78030537D01*
X109671185Y-77951185D01*
X109750537Y-77854494D01*
X109809502Y-77744180D01*
X109845812Y-77624482D01*
X109858072Y-77500000D01*
X109858072Y-76007500D01*
X112821928Y-76007500D01*
X112821928Y-77912500D01*
X112834188Y-78036982D01*
X112870498Y-78156680D01*
X112929463Y-78266994D01*
X113008815Y-78363685D01*
X113105506Y-78443037D01*
X113197219Y-78492059D01*
X113084031Y-78633077D01*
X112940429Y-78908906D01*
X112869437Y-79127020D01*
X112989406Y-79373000D01*
X114333000Y-79373000D01*
X114333000Y-79353000D01*
X114587000Y-79353000D01*
X114587000Y-79373000D01*
X115930594Y-79373000D01*
X116050563Y-79127020D01*
X115979571Y-78908906D01*
X115835969Y-78633077D01*
X115722781Y-78492059D01*
X115814494Y-78443037D01*
X115911185Y-78363685D01*
X115990537Y-78266994D01*
X116049502Y-78156680D01*
X116085812Y-78036982D01*
X116098072Y-77912500D01*
X116098072Y-76058665D01*
X135565000Y-76058665D01*
X135565000Y-76341335D01*
X135620147Y-76618574D01*
X135728320Y-76879727D01*
X135885363Y-77114759D01*
X136085241Y-77314637D01*
X136320273Y-77471680D01*
X136581426Y-77579853D01*
X136858665Y-77635000D01*
X137141335Y-77635000D01*
X137418574Y-77579853D01*
X137679727Y-77471680D01*
X137914759Y-77314637D01*
X138114637Y-77114759D01*
X138271680Y-76879727D01*
X138379853Y-76618574D01*
X138435000Y-76341335D01*
X138435000Y-76058665D01*
X145725000Y-76058665D01*
X145725000Y-76341335D01*
X145780147Y-76618574D01*
X145888320Y-76879727D01*
X146045363Y-77114759D01*
X146245241Y-77314637D01*
X146480273Y-77471680D01*
X146741426Y-77579853D01*
X147018665Y-77635000D01*
X147301335Y-77635000D01*
X147578574Y-77579853D01*
X147839727Y-77471680D01*
X148074759Y-77314637D01*
X148274637Y-77114759D01*
X148431680Y-76879727D01*
X148539853Y-76618574D01*
X148595000Y-76341335D01*
X148595000Y-76058665D01*
X148539853Y-75781426D01*
X148431680Y-75520273D01*
X148274637Y-75285241D01*
X148074759Y-75085363D01*
X147839727Y-74928320D01*
X147578574Y-74820147D01*
X147301335Y-74765000D01*
X147018665Y-74765000D01*
X146741426Y-74820147D01*
X146480273Y-74928320D01*
X146245241Y-75085363D01*
X146045363Y-75285241D01*
X145888320Y-75520273D01*
X145780147Y-75781426D01*
X145725000Y-76058665D01*
X138435000Y-76058665D01*
X138379853Y-75781426D01*
X138271680Y-75520273D01*
X138114637Y-75285241D01*
X137914759Y-75085363D01*
X137679727Y-74928320D01*
X137418574Y-74820147D01*
X137141335Y-74765000D01*
X136858665Y-74765000D01*
X136581426Y-74820147D01*
X136320273Y-74928320D01*
X136085241Y-75085363D01*
X135885363Y-75285241D01*
X135728320Y-75520273D01*
X135620147Y-75781426D01*
X135565000Y-76058665D01*
X116098072Y-76058665D01*
X116098072Y-76007500D01*
X116085812Y-75883018D01*
X116049502Y-75763320D01*
X115990537Y-75653006D01*
X115911185Y-75556315D01*
X115814494Y-75476963D01*
X115704180Y-75417998D01*
X115584482Y-75381688D01*
X115460000Y-75369428D01*
X113460000Y-75369428D01*
X113335518Y-75381688D01*
X113215820Y-75417998D01*
X113105506Y-75476963D01*
X113008815Y-75556315D01*
X112929463Y-75653006D01*
X112870498Y-75763320D01*
X112834188Y-75883018D01*
X112821928Y-76007500D01*
X109858072Y-76007500D01*
X109858072Y-75900000D01*
X109845812Y-75775518D01*
X109809502Y-75655820D01*
X109750537Y-75545506D01*
X109671185Y-75448815D01*
X109574494Y-75369463D01*
X109464180Y-75310498D01*
X109344482Y-75274188D01*
X109220000Y-75261928D01*
X107620000Y-75261928D01*
X107495518Y-75274188D01*
X107375820Y-75310498D01*
X107265506Y-75369463D01*
X107168815Y-75448815D01*
X107089463Y-75545506D01*
X107030498Y-75655820D01*
X106994188Y-75775518D01*
X106981928Y-75900000D01*
X90885048Y-75900000D01*
X90891943Y-75830000D01*
X90864236Y-75548691D01*
X90782182Y-75278192D01*
X90648932Y-75028899D01*
X90469608Y-74810392D01*
X90251101Y-74631068D01*
X90001808Y-74497818D01*
X89731309Y-74415764D01*
X89520492Y-74395000D01*
X86679508Y-74395000D01*
X86468691Y-74415764D01*
X86198192Y-74497818D01*
X85948899Y-74631068D01*
X85730392Y-74810392D01*
X85551068Y-75028899D01*
X85417818Y-75278192D01*
X85335764Y-75548691D01*
X85308057Y-75830000D01*
X65737660Y-75830000D01*
X65746081Y-75828325D01*
X66061831Y-75697537D01*
X66345998Y-75507663D01*
X66587663Y-75265998D01*
X66777537Y-74981831D01*
X66908325Y-74666081D01*
X66975000Y-74330883D01*
X66975000Y-73989117D01*
X66908325Y-73653919D01*
X66777537Y-73338169D01*
X66587663Y-73054002D01*
X66345998Y-72812337D01*
X66061831Y-72622463D01*
X66006927Y-72599721D01*
X70725000Y-72599721D01*
X70725000Y-73020279D01*
X70807047Y-73432756D01*
X70967988Y-73821302D01*
X71201637Y-74170983D01*
X71499017Y-74468363D01*
X71848698Y-74702012D01*
X72237244Y-74862953D01*
X72649721Y-74945000D01*
X73070279Y-74945000D01*
X73482756Y-74862953D01*
X73871302Y-74702012D01*
X74220983Y-74468363D01*
X74518363Y-74170983D01*
X74752012Y-73821302D01*
X74902910Y-73457000D01*
X81865000Y-73457000D01*
X81865000Y-74557000D01*
X81917350Y-74834514D01*
X82022834Y-75096483D01*
X82177399Y-75332839D01*
X82375105Y-75534500D01*
X82608354Y-75693715D01*
X82868182Y-75804367D01*
X82950961Y-75821904D01*
X83173000Y-75699915D01*
X83173000Y-73457000D01*
X83427000Y-73457000D01*
X83427000Y-75699915D01*
X83649039Y-75821904D01*
X83731818Y-75804367D01*
X83991646Y-75693715D01*
X84224895Y-75534500D01*
X84422601Y-75332839D01*
X84577166Y-75096483D01*
X84682650Y-74834514D01*
X84735000Y-74557000D01*
X84735000Y-73457000D01*
X83427000Y-73457000D01*
X83173000Y-73457000D01*
X81865000Y-73457000D01*
X74902910Y-73457000D01*
X74912953Y-73432756D01*
X74995000Y-73020279D01*
X74995000Y-72599721D01*
X74912953Y-72187244D01*
X74878058Y-72103000D01*
X81865000Y-72103000D01*
X81865000Y-73203000D01*
X83173000Y-73203000D01*
X83173000Y-70960085D01*
X83427000Y-70960085D01*
X83427000Y-73203000D01*
X84735000Y-73203000D01*
X84735000Y-72599721D01*
X98665000Y-72599721D01*
X98665000Y-73020279D01*
X98747047Y-73432756D01*
X98907988Y-73821302D01*
X99141637Y-74170983D01*
X99439017Y-74468363D01*
X99788698Y-74702012D01*
X100177244Y-74862953D01*
X100589721Y-74945000D01*
X101010279Y-74945000D01*
X101422756Y-74862953D01*
X101811302Y-74702012D01*
X102160983Y-74468363D01*
X102458363Y-74170983D01*
X102692012Y-73821302D01*
X102852953Y-73432756D01*
X102935000Y-73020279D01*
X102935000Y-72599721D01*
X102852953Y-72187244D01*
X102692012Y-71798698D01*
X102458363Y-71449017D01*
X102160983Y-71151637D01*
X101811302Y-70917988D01*
X101422756Y-70757047D01*
X101010279Y-70675000D01*
X100589721Y-70675000D01*
X100177244Y-70757047D01*
X99788698Y-70917988D01*
X99439017Y-71151637D01*
X99141637Y-71449017D01*
X98907988Y-71798698D01*
X98747047Y-72187244D01*
X98665000Y-72599721D01*
X84735000Y-72599721D01*
X84735000Y-72103000D01*
X84682650Y-71825486D01*
X84577166Y-71563517D01*
X84422601Y-71327161D01*
X84224895Y-71125500D01*
X83991646Y-70966285D01*
X83731818Y-70855633D01*
X83649039Y-70838096D01*
X83427000Y-70960085D01*
X83173000Y-70960085D01*
X82950961Y-70838096D01*
X82868182Y-70855633D01*
X82608354Y-70966285D01*
X82375105Y-71125500D01*
X82177399Y-71327161D01*
X82022834Y-71563517D01*
X81917350Y-71825486D01*
X81865000Y-72103000D01*
X74878058Y-72103000D01*
X74752012Y-71798698D01*
X74518363Y-71449017D01*
X74220983Y-71151637D01*
X73871302Y-70917988D01*
X73482756Y-70757047D01*
X73070279Y-70675000D01*
X72649721Y-70675000D01*
X72237244Y-70757047D01*
X71848698Y-70917988D01*
X71499017Y-71151637D01*
X71201637Y-71449017D01*
X70967988Y-71798698D01*
X70807047Y-72187244D01*
X70725000Y-72599721D01*
X66006927Y-72599721D01*
X65746081Y-72491675D01*
X65410883Y-72425000D01*
X65069117Y-72425000D01*
X64733919Y-72491675D01*
X64418169Y-72622463D01*
X64134002Y-72812337D01*
X63892337Y-73054002D01*
X63702463Y-73338169D01*
X63571675Y-73653919D01*
X63505000Y-73989117D01*
X56818072Y-73989117D01*
X56818072Y-73060000D01*
X56805812Y-72935518D01*
X56769502Y-72815820D01*
X56710537Y-72705506D01*
X56631185Y-72608815D01*
X56534494Y-72529463D01*
X56424180Y-72470498D01*
X56304482Y-72434188D01*
X56180000Y-72421928D01*
X53980000Y-72421928D01*
X53855518Y-72434188D01*
X53735820Y-72470498D01*
X53625506Y-72529463D01*
X53528815Y-72608815D01*
X53449463Y-72705506D01*
X53390498Y-72815820D01*
X53354188Y-72935518D01*
X53341928Y-73060000D01*
X50660000Y-73060000D01*
X50660000Y-70179039D01*
X85608096Y-70179039D01*
X85625633Y-70261818D01*
X85736285Y-70521646D01*
X85895500Y-70754895D01*
X86097161Y-70952601D01*
X86333517Y-71107166D01*
X86595486Y-71212650D01*
X86873000Y-71265000D01*
X87973000Y-71265000D01*
X87973000Y-69957000D01*
X88227000Y-69957000D01*
X88227000Y-71265000D01*
X89327000Y-71265000D01*
X89604514Y-71212650D01*
X89866483Y-71107166D01*
X90102839Y-70952601D01*
X90304500Y-70754895D01*
X90463715Y-70521646D01*
X90574367Y-70261818D01*
X90591904Y-70179039D01*
X90469915Y-69957000D01*
X88227000Y-69957000D01*
X87973000Y-69957000D01*
X85730085Y-69957000D01*
X85608096Y-70179039D01*
X50660000Y-70179039D01*
X50660000Y-69310000D01*
X70721928Y-69310000D01*
X70734188Y-69434482D01*
X70770498Y-69554180D01*
X70829463Y-69664494D01*
X70908815Y-69761185D01*
X71005506Y-69840537D01*
X71115820Y-69899502D01*
X71235518Y-69935812D01*
X71360000Y-69948072D01*
X72574250Y-69945000D01*
X72733000Y-69786250D01*
X72733000Y-67937000D01*
X72987000Y-67937000D01*
X72987000Y-69786250D01*
X73145750Y-69945000D01*
X74360000Y-69948072D01*
X74484482Y-69935812D01*
X74604180Y-69899502D01*
X74714494Y-69840537D01*
X74811185Y-69761185D01*
X74890537Y-69664494D01*
X74949502Y-69554180D01*
X74971712Y-69480961D01*
X85608096Y-69480961D01*
X85730085Y-69703000D01*
X87973000Y-69703000D01*
X87973000Y-68395000D01*
X88227000Y-68395000D01*
X88227000Y-69703000D01*
X90469915Y-69703000D01*
X90591904Y-69480961D01*
X90574367Y-69398182D01*
X90536814Y-69310000D01*
X98661928Y-69310000D01*
X98674188Y-69434482D01*
X98710498Y-69554180D01*
X98769463Y-69664494D01*
X98848815Y-69761185D01*
X98945506Y-69840537D01*
X99055820Y-69899502D01*
X99175518Y-69935812D01*
X99300000Y-69948072D01*
X100514250Y-69945000D01*
X100673000Y-69786250D01*
X100673000Y-67937000D01*
X100927000Y-67937000D01*
X100927000Y-69786250D01*
X101085750Y-69945000D01*
X102300000Y-69948072D01*
X102424482Y-69935812D01*
X102544180Y-69899502D01*
X102654494Y-69840537D01*
X102751185Y-69761185D01*
X102830537Y-69664494D01*
X102889502Y-69554180D01*
X102925812Y-69434482D01*
X102938072Y-69310000D01*
X102935000Y-68095750D01*
X102776250Y-67937000D01*
X100927000Y-67937000D01*
X100673000Y-67937000D01*
X98823750Y-67937000D01*
X98665000Y-68095750D01*
X98661928Y-69310000D01*
X90536814Y-69310000D01*
X90463715Y-69138354D01*
X90304500Y-68905105D01*
X90102839Y-68707399D01*
X89866483Y-68552834D01*
X89604514Y-68447350D01*
X89327000Y-68395000D01*
X88227000Y-68395000D01*
X87973000Y-68395000D01*
X86873000Y-68395000D01*
X86595486Y-68447350D01*
X86333517Y-68552834D01*
X86097161Y-68707399D01*
X85895500Y-68905105D01*
X85736285Y-69138354D01*
X85625633Y-69398182D01*
X85608096Y-69480961D01*
X74971712Y-69480961D01*
X74985812Y-69434482D01*
X74998072Y-69310000D01*
X74995000Y-68095750D01*
X74836250Y-67937000D01*
X72987000Y-67937000D01*
X72733000Y-67937000D01*
X70883750Y-67937000D01*
X70725000Y-68095750D01*
X70721928Y-69310000D01*
X50660000Y-69310000D01*
X50660000Y-66779872D01*
X50765000Y-66779872D01*
X50765000Y-67220128D01*
X50850890Y-67651925D01*
X51019369Y-68058669D01*
X51263962Y-68424729D01*
X51575271Y-68736038D01*
X51941331Y-68980631D01*
X52348075Y-69149110D01*
X52779872Y-69235000D01*
X53220128Y-69235000D01*
X53651925Y-69149110D01*
X54058669Y-68980631D01*
X54424729Y-68736038D01*
X54736038Y-68424729D01*
X54980631Y-68058669D01*
X55149110Y-67651925D01*
X55235000Y-67220128D01*
X55235000Y-66779872D01*
X55149110Y-66348075D01*
X55133339Y-66310000D01*
X70721928Y-66310000D01*
X70725000Y-67524250D01*
X70883750Y-67683000D01*
X72733000Y-67683000D01*
X72733000Y-65833750D01*
X72987000Y-65833750D01*
X72987000Y-67683000D01*
X74836250Y-67683000D01*
X74995000Y-67524250D01*
X74998072Y-66310000D01*
X98661928Y-66310000D01*
X98665000Y-67524250D01*
X98823750Y-67683000D01*
X100673000Y-67683000D01*
X100673000Y-65833750D01*
X100927000Y-65833750D01*
X100927000Y-67683000D01*
X102776250Y-67683000D01*
X102935000Y-67524250D01*
X102935314Y-67400000D01*
X112721928Y-67400000D01*
X112721928Y-69600000D01*
X112734188Y-69724482D01*
X112770498Y-69844180D01*
X112829463Y-69954494D01*
X112908815Y-70051185D01*
X113005506Y-70130537D01*
X113115820Y-70189502D01*
X113235518Y-70225812D01*
X113360000Y-70238072D01*
X115560000Y-70238072D01*
X115684482Y-70225812D01*
X115804180Y-70189502D01*
X115914494Y-70130537D01*
X116011185Y-70051185D01*
X116090537Y-69954494D01*
X116149502Y-69844180D01*
X116185812Y-69724482D01*
X116198072Y-69600000D01*
X116198072Y-68329117D01*
X122885000Y-68329117D01*
X122885000Y-68670883D01*
X122951675Y-69006081D01*
X123082463Y-69321831D01*
X123272337Y-69605998D01*
X123514002Y-69847663D01*
X123798169Y-70037537D01*
X124113919Y-70168325D01*
X124449117Y-70235000D01*
X124790883Y-70235000D01*
X125126081Y-70168325D01*
X125441831Y-70037537D01*
X125725998Y-69847663D01*
X125967663Y-69605998D01*
X125971670Y-69600000D01*
X136921928Y-69600000D01*
X136934188Y-69724482D01*
X136970498Y-69844180D01*
X137029463Y-69954494D01*
X137108815Y-70051185D01*
X137205506Y-70130537D01*
X137315820Y-70189502D01*
X137334127Y-70195056D01*
X137267688Y-70261495D01*
X137099701Y-70512905D01*
X136983989Y-70792257D01*
X136925000Y-71088816D01*
X136925000Y-71391184D01*
X136983989Y-71687743D01*
X137099701Y-71967095D01*
X137267688Y-72218505D01*
X137481495Y-72432312D01*
X137732905Y-72600299D01*
X138012257Y-72716011D01*
X138308816Y-72775000D01*
X138611184Y-72775000D01*
X138907743Y-72716011D01*
X139187095Y-72600299D01*
X139438505Y-72432312D01*
X139652312Y-72218505D01*
X139820299Y-71967095D01*
X139936011Y-71687743D01*
X139995000Y-71391184D01*
X139995000Y-71088816D01*
X139936011Y-70792257D01*
X139820299Y-70512905D01*
X139652312Y-70261495D01*
X139585873Y-70195056D01*
X139604180Y-70189502D01*
X139714494Y-70130537D01*
X139811185Y-70051185D01*
X139890537Y-69954494D01*
X139949502Y-69844180D01*
X139985812Y-69724482D01*
X139998072Y-69600000D01*
X139995000Y-68985750D01*
X139836250Y-68827000D01*
X138587000Y-68827000D01*
X138587000Y-68847000D01*
X138333000Y-68847000D01*
X138333000Y-68827000D01*
X137083750Y-68827000D01*
X136925000Y-68985750D01*
X136921928Y-69600000D01*
X125971670Y-69600000D01*
X126157537Y-69321831D01*
X126288325Y-69006081D01*
X126355000Y-68670883D01*
X126355000Y-68329117D01*
X126288325Y-67993919D01*
X126208002Y-67800000D01*
X136921928Y-67800000D01*
X136925000Y-68414250D01*
X137083750Y-68573000D01*
X138333000Y-68573000D01*
X138333000Y-67323750D01*
X138587000Y-67323750D01*
X138587000Y-68573000D01*
X139836250Y-68573000D01*
X139995000Y-68414250D01*
X139998072Y-67800000D01*
X139985812Y-67675518D01*
X139949502Y-67555820D01*
X139890537Y-67445506D01*
X139811185Y-67348815D01*
X139714494Y-67269463D01*
X139604180Y-67210498D01*
X139484482Y-67174188D01*
X139360000Y-67161928D01*
X138745750Y-67165000D01*
X138587000Y-67323750D01*
X138333000Y-67323750D01*
X138174250Y-67165000D01*
X137560000Y-67161928D01*
X137435518Y-67174188D01*
X137315820Y-67210498D01*
X137205506Y-67269463D01*
X137108815Y-67348815D01*
X137029463Y-67445506D01*
X136970498Y-67555820D01*
X136934188Y-67675518D01*
X136921928Y-67800000D01*
X126208002Y-67800000D01*
X126157537Y-67678169D01*
X125967663Y-67394002D01*
X125725998Y-67152337D01*
X125441831Y-66962463D01*
X125126081Y-66831675D01*
X124865650Y-66779872D01*
X144765000Y-66779872D01*
X144765000Y-67220128D01*
X144850890Y-67651925D01*
X145019369Y-68058669D01*
X145263962Y-68424729D01*
X145575271Y-68736038D01*
X145941331Y-68980631D01*
X146348075Y-69149110D01*
X146779872Y-69235000D01*
X147220128Y-69235000D01*
X147651925Y-69149110D01*
X148058669Y-68980631D01*
X148424729Y-68736038D01*
X148736038Y-68424729D01*
X148980631Y-68058669D01*
X149149110Y-67651925D01*
X149235000Y-67220128D01*
X149235000Y-66779872D01*
X149149110Y-66348075D01*
X148980631Y-65941331D01*
X148736038Y-65575271D01*
X148424729Y-65263962D01*
X148058669Y-65019369D01*
X147651925Y-64850890D01*
X147220128Y-64765000D01*
X146779872Y-64765000D01*
X146348075Y-64850890D01*
X145941331Y-65019369D01*
X145575271Y-65263962D01*
X145263962Y-65575271D01*
X145019369Y-65941331D01*
X144850890Y-66348075D01*
X144765000Y-66779872D01*
X124865650Y-66779872D01*
X124790883Y-66765000D01*
X124449117Y-66765000D01*
X124113919Y-66831675D01*
X123798169Y-66962463D01*
X123514002Y-67152337D01*
X123272337Y-67394002D01*
X123082463Y-67678169D01*
X122951675Y-67993919D01*
X122885000Y-68329117D01*
X116198072Y-68329117D01*
X116198072Y-67400000D01*
X116185812Y-67275518D01*
X116149502Y-67155820D01*
X116090537Y-67045506D01*
X116011185Y-66948815D01*
X115914494Y-66869463D01*
X115804180Y-66810498D01*
X115684482Y-66774188D01*
X115560000Y-66761928D01*
X113360000Y-66761928D01*
X113235518Y-66774188D01*
X113115820Y-66810498D01*
X113005506Y-66869463D01*
X112908815Y-66948815D01*
X112829463Y-67045506D01*
X112770498Y-67155820D01*
X112734188Y-67275518D01*
X112721928Y-67400000D01*
X102935314Y-67400000D01*
X102938072Y-66310000D01*
X102925812Y-66185518D01*
X102889502Y-66065820D01*
X102830537Y-65955506D01*
X102751185Y-65858815D01*
X102654494Y-65779463D01*
X102544180Y-65720498D01*
X102424482Y-65684188D01*
X102300000Y-65671928D01*
X101085750Y-65675000D01*
X100927000Y-65833750D01*
X100673000Y-65833750D01*
X100514250Y-65675000D01*
X99300000Y-65671928D01*
X99175518Y-65684188D01*
X99055820Y-65720498D01*
X98945506Y-65779463D01*
X98848815Y-65858815D01*
X98769463Y-65955506D01*
X98710498Y-66065820D01*
X98674188Y-66185518D01*
X98661928Y-66310000D01*
X74998072Y-66310000D01*
X74985812Y-66185518D01*
X74949502Y-66065820D01*
X74890537Y-65955506D01*
X74811185Y-65858815D01*
X74714494Y-65779463D01*
X74604180Y-65720498D01*
X74484482Y-65684188D01*
X74360000Y-65671928D01*
X73145750Y-65675000D01*
X72987000Y-65833750D01*
X72733000Y-65833750D01*
X72574250Y-65675000D01*
X71360000Y-65671928D01*
X71235518Y-65684188D01*
X71115820Y-65720498D01*
X71005506Y-65779463D01*
X70908815Y-65858815D01*
X70829463Y-65955506D01*
X70770498Y-66065820D01*
X70734188Y-66185518D01*
X70721928Y-66310000D01*
X55133339Y-66310000D01*
X54980631Y-65941331D01*
X54736038Y-65575271D01*
X54424729Y-65263962D01*
X54058669Y-65019369D01*
X53651925Y-64850890D01*
X53220128Y-64765000D01*
X52779872Y-64765000D01*
X52348075Y-64850890D01*
X51941331Y-65019369D01*
X51575271Y-65263962D01*
X51263962Y-65575271D01*
X51019369Y-65941331D01*
X50850890Y-66348075D01*
X50765000Y-66779872D01*
X50660000Y-66779872D01*
X50660000Y-64660000D01*
X149340000Y-64660000D01*
X149340001Y-124340000D01*
%TA.AperFunction,Conductor*%
D30*
G36*
X149340001Y-124340000D02*
G01*
X50660000Y-124340000D01*
X50660000Y-121779872D01*
X50765000Y-121779872D01*
X50765000Y-122220128D01*
X50850890Y-122651925D01*
X51019369Y-123058669D01*
X51263962Y-123424729D01*
X51575271Y-123736038D01*
X51941331Y-123980631D01*
X52348075Y-124149110D01*
X52779872Y-124235000D01*
X53220128Y-124235000D01*
X53651925Y-124149110D01*
X54058669Y-123980631D01*
X54424729Y-123736038D01*
X54736038Y-123424729D01*
X54980631Y-123058669D01*
X55149110Y-122651925D01*
X55235000Y-122220128D01*
X55235000Y-121779872D01*
X55149110Y-121348075D01*
X54980631Y-120941331D01*
X54736038Y-120575271D01*
X54424729Y-120263962D01*
X54058669Y-120019369D01*
X53770487Y-119900000D01*
X56261928Y-119900000D01*
X56261928Y-122100000D01*
X56274188Y-122224482D01*
X56310498Y-122344180D01*
X56369463Y-122454494D01*
X56448815Y-122551185D01*
X56545506Y-122630537D01*
X56655820Y-122689502D01*
X56775518Y-122725812D01*
X56900000Y-122738072D01*
X59100000Y-122738072D01*
X59224482Y-122725812D01*
X59344180Y-122689502D01*
X59454494Y-122630537D01*
X59551185Y-122551185D01*
X59630537Y-122454494D01*
X59689502Y-122344180D01*
X59725812Y-122224482D01*
X59738072Y-122100000D01*
X59738072Y-120829117D01*
X66425000Y-120829117D01*
X66425000Y-121170883D01*
X66491675Y-121506081D01*
X66622463Y-121821831D01*
X66812337Y-122105998D01*
X67054002Y-122347663D01*
X67338169Y-122537537D01*
X67653919Y-122668325D01*
X67989117Y-122735000D01*
X68330883Y-122735000D01*
X68666081Y-122668325D01*
X68821182Y-122604080D01*
X137575525Y-122604080D01*
X137659208Y-122858261D01*
X137931775Y-122989158D01*
X138224642Y-123064365D01*
X138526553Y-123080991D01*
X138825907Y-123038397D01*
X139111199Y-122938222D01*
X139260792Y-122858261D01*
X139344475Y-122604080D01*
X138460000Y-121719605D01*
X137575525Y-122604080D01*
X68821182Y-122604080D01*
X68981831Y-122537537D01*
X69265998Y-122347663D01*
X69507663Y-122105998D01*
X69697537Y-121821831D01*
X69786708Y-121606553D01*
X136919009Y-121606553D01*
X136961603Y-121905907D01*
X137061778Y-122191199D01*
X137141739Y-122340792D01*
X137395920Y-122424475D01*
X138280395Y-121540000D01*
X138266253Y-121525858D01*
X138445858Y-121346253D01*
X138460000Y-121360395D01*
X138474143Y-121346253D01*
X138653748Y-121525858D01*
X138639605Y-121540000D01*
X139524080Y-122424475D01*
X139778261Y-122340792D01*
X139909158Y-122068225D01*
X139983205Y-121779872D01*
X144765000Y-121779872D01*
X144765000Y-122220128D01*
X144850890Y-122651925D01*
X145019369Y-123058669D01*
X145263962Y-123424729D01*
X145575271Y-123736038D01*
X145941331Y-123980631D01*
X146348075Y-124149110D01*
X146779872Y-124235000D01*
X147220128Y-124235000D01*
X147651925Y-124149110D01*
X148058669Y-123980631D01*
X148424729Y-123736038D01*
X148736038Y-123424729D01*
X148980631Y-123058669D01*
X149149110Y-122651925D01*
X149235000Y-122220128D01*
X149235000Y-121779872D01*
X149149110Y-121348075D01*
X148980631Y-120941331D01*
X148736038Y-120575271D01*
X148424729Y-120263962D01*
X148058669Y-120019369D01*
X147651925Y-119850890D01*
X147220128Y-119765000D01*
X146779872Y-119765000D01*
X146348075Y-119850890D01*
X145941331Y-120019369D01*
X145575271Y-120263962D01*
X145263962Y-120575271D01*
X145019369Y-120941331D01*
X144850890Y-121348075D01*
X144765000Y-121779872D01*
X139983205Y-121779872D01*
X139984365Y-121775358D01*
X140000991Y-121473447D01*
X139958397Y-121174093D01*
X139858222Y-120888801D01*
X139778261Y-120739208D01*
X139524082Y-120655526D01*
X139640030Y-120539578D01*
X139593265Y-120492813D01*
X139604180Y-120489502D01*
X139714494Y-120430537D01*
X139811185Y-120351185D01*
X139890537Y-120254494D01*
X139949502Y-120144180D01*
X139985812Y-120024482D01*
X139998072Y-119900000D01*
X139998072Y-118100000D01*
X139985812Y-117975518D01*
X139949502Y-117855820D01*
X139890537Y-117745506D01*
X139811185Y-117648815D01*
X139714494Y-117569463D01*
X139604180Y-117510498D01*
X139484482Y-117474188D01*
X139360000Y-117461928D01*
X137560000Y-117461928D01*
X137435518Y-117474188D01*
X137315820Y-117510498D01*
X137205506Y-117569463D01*
X137108815Y-117648815D01*
X137029463Y-117745506D01*
X136970498Y-117855820D01*
X136934188Y-117975518D01*
X136921928Y-118100000D01*
X136921928Y-119900000D01*
X136934188Y-120024482D01*
X136970498Y-120144180D01*
X137029463Y-120254494D01*
X137108815Y-120351185D01*
X137205506Y-120430537D01*
X137315820Y-120489502D01*
X137326735Y-120492813D01*
X137279970Y-120539578D01*
X137395918Y-120655526D01*
X137141739Y-120739208D01*
X137010842Y-121011775D01*
X136935635Y-121304642D01*
X136919009Y-121606553D01*
X69786708Y-121606553D01*
X69828325Y-121506081D01*
X69895000Y-121170883D01*
X69895000Y-120829117D01*
X69828325Y-120493919D01*
X69697537Y-120178169D01*
X69507663Y-119894002D01*
X69265998Y-119652337D01*
X68981831Y-119462463D01*
X68666081Y-119331675D01*
X68330883Y-119265000D01*
X67989117Y-119265000D01*
X67653919Y-119331675D01*
X67338169Y-119462463D01*
X67054002Y-119652337D01*
X66812337Y-119894002D01*
X66622463Y-120178169D01*
X66491675Y-120493919D01*
X66425000Y-120829117D01*
X59738072Y-120829117D01*
X59738072Y-119900000D01*
X59725812Y-119775518D01*
X59689502Y-119655820D01*
X59630537Y-119545506D01*
X59551185Y-119448815D01*
X59454494Y-119369463D01*
X59344180Y-119310498D01*
X59224482Y-119274188D01*
X59100000Y-119261928D01*
X56900000Y-119261928D01*
X56775518Y-119274188D01*
X56655820Y-119310498D01*
X56545506Y-119369463D01*
X56448815Y-119448815D01*
X56369463Y-119545506D01*
X56310498Y-119655820D01*
X56274188Y-119775518D01*
X56261928Y-119900000D01*
X53770487Y-119900000D01*
X53651925Y-119850890D01*
X53220128Y-119765000D01*
X52779872Y-119765000D01*
X52348075Y-119850890D01*
X51941331Y-120019369D01*
X51575271Y-120263962D01*
X51263962Y-120575271D01*
X51019369Y-120941331D01*
X50850890Y-121348075D01*
X50765000Y-121779872D01*
X50660000Y-121779872D01*
X50660000Y-115600000D01*
X106981928Y-115600000D01*
X106994188Y-115724482D01*
X107030498Y-115844180D01*
X107089463Y-115954494D01*
X107168815Y-116051185D01*
X107265506Y-116130537D01*
X107375820Y-116189502D01*
X107471943Y-116218661D01*
X107305363Y-116385241D01*
X107148320Y-116620273D01*
X107040147Y-116881426D01*
X106985000Y-117158665D01*
X106985000Y-117441335D01*
X107040147Y-117718574D01*
X107148320Y-117979727D01*
X107305363Y-118214759D01*
X107505241Y-118414637D01*
X107740273Y-118571680D01*
X108001426Y-118679853D01*
X108278665Y-118735000D01*
X108561335Y-118735000D01*
X108838574Y-118679853D01*
X109099727Y-118571680D01*
X109334759Y-118414637D01*
X109534637Y-118214759D01*
X109691680Y-117979727D01*
X109799853Y-117718574D01*
X109855000Y-117441335D01*
X109855000Y-117400000D01*
X112721928Y-117400000D01*
X112721928Y-119600000D01*
X112734188Y-119724482D01*
X112770498Y-119844180D01*
X112829463Y-119954494D01*
X112908815Y-120051185D01*
X113005506Y-120130537D01*
X113115820Y-120189502D01*
X113235518Y-120225812D01*
X113360000Y-120238072D01*
X115560000Y-120238072D01*
X115684482Y-120225812D01*
X115804180Y-120189502D01*
X115914494Y-120130537D01*
X116011185Y-120051185D01*
X116090537Y-119954494D01*
X116149502Y-119844180D01*
X116185812Y-119724482D01*
X116198072Y-119600000D01*
X116198072Y-118329117D01*
X122885000Y-118329117D01*
X122885000Y-118670883D01*
X122951675Y-119006081D01*
X123082463Y-119321831D01*
X123272337Y-119605998D01*
X123514002Y-119847663D01*
X123798169Y-120037537D01*
X124113919Y-120168325D01*
X124449117Y-120235000D01*
X124790883Y-120235000D01*
X125126081Y-120168325D01*
X125441831Y-120037537D01*
X125725998Y-119847663D01*
X125967663Y-119605998D01*
X126157537Y-119321831D01*
X126288325Y-119006081D01*
X126355000Y-118670883D01*
X126355000Y-118329117D01*
X126288325Y-117993919D01*
X126157537Y-117678169D01*
X125967663Y-117394002D01*
X125725998Y-117152337D01*
X125441831Y-116962463D01*
X125126081Y-116831675D01*
X124790883Y-116765000D01*
X124449117Y-116765000D01*
X124113919Y-116831675D01*
X123798169Y-116962463D01*
X123514002Y-117152337D01*
X123272337Y-117394002D01*
X123082463Y-117678169D01*
X122951675Y-117993919D01*
X122885000Y-118329117D01*
X116198072Y-118329117D01*
X116198072Y-117400000D01*
X116185812Y-117275518D01*
X116149502Y-117155820D01*
X116090537Y-117045506D01*
X116011185Y-116948815D01*
X115914494Y-116869463D01*
X115804180Y-116810498D01*
X115684482Y-116774188D01*
X115560000Y-116761928D01*
X113360000Y-116761928D01*
X113235518Y-116774188D01*
X113115820Y-116810498D01*
X113005506Y-116869463D01*
X112908815Y-116948815D01*
X112829463Y-117045506D01*
X112770498Y-117155820D01*
X112734188Y-117275518D01*
X112721928Y-117400000D01*
X109855000Y-117400000D01*
X109855000Y-117158665D01*
X109799853Y-116881426D01*
X109691680Y-116620273D01*
X109534637Y-116385241D01*
X109368057Y-116218661D01*
X109464180Y-116189502D01*
X109574494Y-116130537D01*
X109671185Y-116051185D01*
X109750537Y-115954494D01*
X109809502Y-115844180D01*
X109845812Y-115724482D01*
X109858072Y-115600000D01*
X109855000Y-115085750D01*
X109696250Y-114927000D01*
X108547000Y-114927000D01*
X108547000Y-114947000D01*
X108293000Y-114947000D01*
X108293000Y-114927000D01*
X107143750Y-114927000D01*
X106985000Y-115085750D01*
X106981928Y-115600000D01*
X50660000Y-115600000D01*
X50660000Y-114000000D01*
X106981928Y-114000000D01*
X106985000Y-114514250D01*
X107143750Y-114673000D01*
X108293000Y-114673000D01*
X108293000Y-113523750D01*
X108547000Y-113523750D01*
X108547000Y-114673000D01*
X109696250Y-114673000D01*
X109855000Y-114514250D01*
X109858072Y-114000000D01*
X109845812Y-113875518D01*
X109840700Y-113858665D01*
X135665000Y-113858665D01*
X135665000Y-114141335D01*
X135720147Y-114418574D01*
X135828320Y-114679727D01*
X135985363Y-114914759D01*
X136185241Y-115114637D01*
X136420273Y-115271680D01*
X136681426Y-115379853D01*
X136958665Y-115435000D01*
X137241335Y-115435000D01*
X137518574Y-115379853D01*
X137779727Y-115271680D01*
X138014759Y-115114637D01*
X138214637Y-114914759D01*
X138371680Y-114679727D01*
X138479853Y-114418574D01*
X138535000Y-114141335D01*
X138535000Y-113858665D01*
X145825000Y-113858665D01*
X145825000Y-114141335D01*
X145880147Y-114418574D01*
X145988320Y-114679727D01*
X146145363Y-114914759D01*
X146345241Y-115114637D01*
X146580273Y-115271680D01*
X146841426Y-115379853D01*
X147118665Y-115435000D01*
X147401335Y-115435000D01*
X147678574Y-115379853D01*
X147939727Y-115271680D01*
X148174759Y-115114637D01*
X148374637Y-114914759D01*
X148531680Y-114679727D01*
X148639853Y-114418574D01*
X148695000Y-114141335D01*
X148695000Y-113858665D01*
X148639853Y-113581426D01*
X148531680Y-113320273D01*
X148374637Y-113085241D01*
X148174759Y-112885363D01*
X147939727Y-112728320D01*
X147678574Y-112620147D01*
X147401335Y-112565000D01*
X147118665Y-112565000D01*
X146841426Y-112620147D01*
X146580273Y-112728320D01*
X146345241Y-112885363D01*
X146145363Y-113085241D01*
X145988320Y-113320273D01*
X145880147Y-113581426D01*
X145825000Y-113858665D01*
X138535000Y-113858665D01*
X138479853Y-113581426D01*
X138371680Y-113320273D01*
X138214637Y-113085241D01*
X138014759Y-112885363D01*
X137779727Y-112728320D01*
X137518574Y-112620147D01*
X137241335Y-112565000D01*
X136958665Y-112565000D01*
X136681426Y-112620147D01*
X136420273Y-112728320D01*
X136185241Y-112885363D01*
X135985363Y-113085241D01*
X135828320Y-113320273D01*
X135720147Y-113581426D01*
X135665000Y-113858665D01*
X109840700Y-113858665D01*
X109809502Y-113755820D01*
X109750537Y-113645506D01*
X109671185Y-113548815D01*
X109574494Y-113469463D01*
X109464180Y-113410498D01*
X109344482Y-113374188D01*
X109220000Y-113361928D01*
X108705750Y-113365000D01*
X108547000Y-113523750D01*
X108293000Y-113523750D01*
X108134250Y-113365000D01*
X107620000Y-113361928D01*
X107495518Y-113374188D01*
X107375820Y-113410498D01*
X107265506Y-113469463D01*
X107168815Y-113548815D01*
X107089463Y-113645506D01*
X107030498Y-113755820D01*
X106994188Y-113875518D01*
X106981928Y-114000000D01*
X50660000Y-114000000D01*
X50660000Y-110819268D01*
X58245000Y-110819268D01*
X58245000Y-111180732D01*
X58315518Y-111535250D01*
X58453844Y-111869199D01*
X58654662Y-112169744D01*
X58910256Y-112425338D01*
X59210801Y-112626156D01*
X59544750Y-112764482D01*
X59899268Y-112835000D01*
X60260732Y-112835000D01*
X60615250Y-112764482D01*
X60949199Y-112626156D01*
X61249744Y-112425338D01*
X61505338Y-112169744D01*
X61706156Y-111869199D01*
X61844482Y-111535250D01*
X61915000Y-111180732D01*
X61915000Y-110819268D01*
X78165000Y-110819268D01*
X78165000Y-111180732D01*
X78235518Y-111535250D01*
X78373844Y-111869199D01*
X78574662Y-112169744D01*
X78830256Y-112425338D01*
X79130801Y-112626156D01*
X79464750Y-112764482D01*
X79819268Y-112835000D01*
X80180732Y-112835000D01*
X80535250Y-112764482D01*
X80869199Y-112626156D01*
X81169744Y-112425338D01*
X81425338Y-112169744D01*
X81626156Y-111869199D01*
X81764482Y-111535250D01*
X81835000Y-111180732D01*
X81835000Y-110819268D01*
X98165000Y-110819268D01*
X98165000Y-111180732D01*
X98235518Y-111535250D01*
X98373844Y-111869199D01*
X98574662Y-112169744D01*
X98830256Y-112425338D01*
X99130801Y-112626156D01*
X99464750Y-112764482D01*
X99819268Y-112835000D01*
X100180732Y-112835000D01*
X100535250Y-112764482D01*
X100869199Y-112626156D01*
X101169744Y-112425338D01*
X101425338Y-112169744D01*
X101626156Y-111869199D01*
X101764482Y-111535250D01*
X101835000Y-111180732D01*
X101835000Y-110819268D01*
X101764482Y-110464750D01*
X101626156Y-110130801D01*
X101425338Y-109830256D01*
X101169744Y-109574662D01*
X100869199Y-109373844D01*
X100535250Y-109235518D01*
X100180732Y-109165000D01*
X99819268Y-109165000D01*
X99464750Y-109235518D01*
X99130801Y-109373844D01*
X98830256Y-109574662D01*
X98574662Y-109830256D01*
X98373844Y-110130801D01*
X98235518Y-110464750D01*
X98165000Y-110819268D01*
X81835000Y-110819268D01*
X81764482Y-110464750D01*
X81626156Y-110130801D01*
X81425338Y-109830256D01*
X81169744Y-109574662D01*
X80869199Y-109373844D01*
X80535250Y-109235518D01*
X80180732Y-109165000D01*
X79819268Y-109165000D01*
X79464750Y-109235518D01*
X79130801Y-109373844D01*
X78830256Y-109574662D01*
X78574662Y-109830256D01*
X78373844Y-110130801D01*
X78235518Y-110464750D01*
X78165000Y-110819268D01*
X61915000Y-110819268D01*
X61844482Y-110464750D01*
X61706156Y-110130801D01*
X61505338Y-109830256D01*
X61249744Y-109574662D01*
X60949199Y-109373844D01*
X60615250Y-109235518D01*
X60260732Y-109165000D01*
X59899268Y-109165000D01*
X59544750Y-109235518D01*
X59210801Y-109373844D01*
X58910256Y-109574662D01*
X58654662Y-109830256D01*
X58453844Y-110130801D01*
X58315518Y-110464750D01*
X58245000Y-110819268D01*
X50660000Y-110819268D01*
X50660000Y-107500000D01*
X112817319Y-107500000D01*
X112847970Y-107811204D01*
X112938745Y-108110449D01*
X113086155Y-108386235D01*
X113284537Y-108627963D01*
X113457609Y-108770000D01*
X113284537Y-108912037D01*
X113086155Y-109153765D01*
X112938745Y-109429551D01*
X112847970Y-109728796D01*
X112817319Y-110040000D01*
X112847970Y-110351204D01*
X112938745Y-110650449D01*
X113086155Y-110926235D01*
X113284537Y-111167963D01*
X113526265Y-111366345D01*
X113802051Y-111513755D01*
X114101296Y-111604530D01*
X114334514Y-111627500D01*
X114585486Y-111627500D01*
X114818704Y-111604530D01*
X115117949Y-111513755D01*
X115393735Y-111366345D01*
X115635463Y-111167963D01*
X115833845Y-110926235D01*
X115981255Y-110650449D01*
X116072030Y-110351204D01*
X116102681Y-110040000D01*
X116072030Y-109728796D01*
X115981255Y-109429551D01*
X115833845Y-109153765D01*
X115635463Y-108912037D01*
X115462391Y-108770000D01*
X115635463Y-108627963D01*
X115833845Y-108386235D01*
X115891100Y-108279117D01*
X137800000Y-108279117D01*
X137800000Y-108620883D01*
X137866675Y-108956081D01*
X137997463Y-109271831D01*
X138187337Y-109555998D01*
X138429002Y-109797663D01*
X138713169Y-109987537D01*
X139028919Y-110118325D01*
X139364117Y-110185000D01*
X139705883Y-110185000D01*
X140041081Y-110118325D01*
X140356831Y-109987537D01*
X140640998Y-109797663D01*
X140882663Y-109555998D01*
X141072537Y-109271831D01*
X141203325Y-108956081D01*
X141270000Y-108620883D01*
X141270000Y-108279117D01*
X142800000Y-108279117D01*
X142800000Y-108620883D01*
X142866675Y-108956081D01*
X142997463Y-109271831D01*
X143187337Y-109555998D01*
X143429002Y-109797663D01*
X143713169Y-109987537D01*
X144028919Y-110118325D01*
X144364117Y-110185000D01*
X144705883Y-110185000D01*
X145041081Y-110118325D01*
X145356831Y-109987537D01*
X145640998Y-109797663D01*
X145882663Y-109555998D01*
X146072537Y-109271831D01*
X146203325Y-108956081D01*
X146270000Y-108620883D01*
X146270000Y-108279117D01*
X146203325Y-107943919D01*
X146072537Y-107628169D01*
X145882663Y-107344002D01*
X145640998Y-107102337D01*
X145356831Y-106912463D01*
X145041081Y-106781675D01*
X144705883Y-106715000D01*
X144364117Y-106715000D01*
X144028919Y-106781675D01*
X143713169Y-106912463D01*
X143429002Y-107102337D01*
X143187337Y-107344002D01*
X142997463Y-107628169D01*
X142866675Y-107943919D01*
X142800000Y-108279117D01*
X141270000Y-108279117D01*
X141203325Y-107943919D01*
X141072537Y-107628169D01*
X140882663Y-107344002D01*
X140640998Y-107102337D01*
X140356831Y-106912463D01*
X140041081Y-106781675D01*
X139705883Y-106715000D01*
X139364117Y-106715000D01*
X139028919Y-106781675D01*
X138713169Y-106912463D01*
X138429002Y-107102337D01*
X138187337Y-107344002D01*
X137997463Y-107628169D01*
X137866675Y-107943919D01*
X137800000Y-108279117D01*
X115891100Y-108279117D01*
X115981255Y-108110449D01*
X116072030Y-107811204D01*
X116102681Y-107500000D01*
X116072030Y-107188796D01*
X115981255Y-106889551D01*
X115833845Y-106613765D01*
X115730554Y-106487905D01*
X115814494Y-106443037D01*
X115911185Y-106363685D01*
X115990537Y-106266994D01*
X116049502Y-106156680D01*
X116085812Y-106036982D01*
X116098072Y-105912500D01*
X116095000Y-105245750D01*
X115936250Y-105087000D01*
X114587000Y-105087000D01*
X114587000Y-105107000D01*
X114333000Y-105107000D01*
X114333000Y-105087000D01*
X112983750Y-105087000D01*
X112825000Y-105245750D01*
X112821928Y-105912500D01*
X112834188Y-106036982D01*
X112870498Y-106156680D01*
X112929463Y-106266994D01*
X113008815Y-106363685D01*
X113105506Y-106443037D01*
X113189446Y-106487905D01*
X113086155Y-106613765D01*
X112938745Y-106889551D01*
X112847970Y-107188796D01*
X112817319Y-107500000D01*
X50660000Y-107500000D01*
X50660000Y-104700000D01*
X58241928Y-104700000D01*
X58254188Y-104824482D01*
X58290498Y-104944180D01*
X58349463Y-105054494D01*
X58428815Y-105151185D01*
X58525506Y-105230537D01*
X58635820Y-105289502D01*
X58755518Y-105325812D01*
X58880000Y-105338072D01*
X59794250Y-105335000D01*
X59953000Y-105176250D01*
X59953000Y-103627000D01*
X60207000Y-103627000D01*
X60207000Y-105176250D01*
X60365750Y-105335000D01*
X61280000Y-105338072D01*
X61404482Y-105325812D01*
X61524180Y-105289502D01*
X61634494Y-105230537D01*
X61731185Y-105151185D01*
X61810537Y-105054494D01*
X61869502Y-104944180D01*
X61905812Y-104824482D01*
X61918072Y-104700000D01*
X78161928Y-104700000D01*
X78174188Y-104824482D01*
X78210498Y-104944180D01*
X78269463Y-105054494D01*
X78348815Y-105151185D01*
X78445506Y-105230537D01*
X78555820Y-105289502D01*
X78675518Y-105325812D01*
X78800000Y-105338072D01*
X79714250Y-105335000D01*
X79873000Y-105176250D01*
X79873000Y-103627000D01*
X80127000Y-103627000D01*
X80127000Y-105176250D01*
X80285750Y-105335000D01*
X81200000Y-105338072D01*
X81324482Y-105325812D01*
X81444180Y-105289502D01*
X81554494Y-105230537D01*
X81651185Y-105151185D01*
X81730537Y-105054494D01*
X81789502Y-104944180D01*
X81825812Y-104824482D01*
X81838072Y-104700000D01*
X98161928Y-104700000D01*
X98174188Y-104824482D01*
X98210498Y-104944180D01*
X98269463Y-105054494D01*
X98348815Y-105151185D01*
X98445506Y-105230537D01*
X98555820Y-105289502D01*
X98675518Y-105325812D01*
X98800000Y-105338072D01*
X99714250Y-105335000D01*
X99873000Y-105176250D01*
X99873000Y-103627000D01*
X100127000Y-103627000D01*
X100127000Y-105176250D01*
X100285750Y-105335000D01*
X101200000Y-105338072D01*
X101324482Y-105325812D01*
X101444180Y-105289502D01*
X101554494Y-105230537D01*
X101651185Y-105151185D01*
X101730537Y-105054494D01*
X101789502Y-104944180D01*
X101825812Y-104824482D01*
X101838072Y-104700000D01*
X101835746Y-104007500D01*
X112821928Y-104007500D01*
X112825000Y-104674250D01*
X112983750Y-104833000D01*
X114333000Y-104833000D01*
X114333000Y-103531250D01*
X114587000Y-103531250D01*
X114587000Y-104833000D01*
X115936250Y-104833000D01*
X116095000Y-104674250D01*
X116098072Y-104007500D01*
X116085812Y-103883018D01*
X116049502Y-103763320D01*
X115990537Y-103653006D01*
X115911185Y-103556315D01*
X115814494Y-103476963D01*
X115704180Y-103417998D01*
X115584482Y-103381688D01*
X115460000Y-103369428D01*
X114745750Y-103372500D01*
X114587000Y-103531250D01*
X114333000Y-103531250D01*
X114174250Y-103372500D01*
X113460000Y-103369428D01*
X113335518Y-103381688D01*
X113215820Y-103417998D01*
X113105506Y-103476963D01*
X113008815Y-103556315D01*
X112929463Y-103653006D01*
X112870498Y-103763320D01*
X112834188Y-103883018D01*
X112821928Y-104007500D01*
X101835746Y-104007500D01*
X101835000Y-103785750D01*
X101676250Y-103627000D01*
X100127000Y-103627000D01*
X99873000Y-103627000D01*
X98323750Y-103627000D01*
X98165000Y-103785750D01*
X98161928Y-104700000D01*
X81838072Y-104700000D01*
X81835000Y-103785750D01*
X81676250Y-103627000D01*
X80127000Y-103627000D01*
X79873000Y-103627000D01*
X78323750Y-103627000D01*
X78165000Y-103785750D01*
X78161928Y-104700000D01*
X61918072Y-104700000D01*
X61915000Y-103785750D01*
X61756250Y-103627000D01*
X60207000Y-103627000D01*
X59953000Y-103627000D01*
X58403750Y-103627000D01*
X58245000Y-103785750D01*
X58241928Y-104700000D01*
X50660000Y-104700000D01*
X50660000Y-102300000D01*
X58241928Y-102300000D01*
X58245000Y-103214250D01*
X58403750Y-103373000D01*
X59953000Y-103373000D01*
X59953000Y-101823750D01*
X60207000Y-101823750D01*
X60207000Y-103373000D01*
X61756250Y-103373000D01*
X61915000Y-103214250D01*
X61918072Y-102300000D01*
X78161928Y-102300000D01*
X78165000Y-103214250D01*
X78323750Y-103373000D01*
X79873000Y-103373000D01*
X79873000Y-101823750D01*
X80127000Y-101823750D01*
X80127000Y-103373000D01*
X81676250Y-103373000D01*
X81835000Y-103214250D01*
X81838072Y-102300000D01*
X98161928Y-102300000D01*
X98165000Y-103214250D01*
X98323750Y-103373000D01*
X99873000Y-103373000D01*
X99873000Y-101823750D01*
X100127000Y-101823750D01*
X100127000Y-103373000D01*
X101676250Y-103373000D01*
X101835000Y-103214250D01*
X101838072Y-102300000D01*
X101825812Y-102175518D01*
X101789502Y-102055820D01*
X101730537Y-101945506D01*
X101651185Y-101848815D01*
X101554494Y-101769463D01*
X101444180Y-101710498D01*
X101324482Y-101674188D01*
X101200000Y-101661928D01*
X100285750Y-101665000D01*
X100127000Y-101823750D01*
X99873000Y-101823750D01*
X99714250Y-101665000D01*
X98800000Y-101661928D01*
X98675518Y-101674188D01*
X98555820Y-101710498D01*
X98445506Y-101769463D01*
X98348815Y-101848815D01*
X98269463Y-101945506D01*
X98210498Y-102055820D01*
X98174188Y-102175518D01*
X98161928Y-102300000D01*
X81838072Y-102300000D01*
X81825812Y-102175518D01*
X81789502Y-102055820D01*
X81730537Y-101945506D01*
X81651185Y-101848815D01*
X81554494Y-101769463D01*
X81444180Y-101710498D01*
X81324482Y-101674188D01*
X81200000Y-101661928D01*
X80285750Y-101665000D01*
X80127000Y-101823750D01*
X79873000Y-101823750D01*
X79714250Y-101665000D01*
X78800000Y-101661928D01*
X78675518Y-101674188D01*
X78555820Y-101710498D01*
X78445506Y-101769463D01*
X78348815Y-101848815D01*
X78269463Y-101945506D01*
X78210498Y-102055820D01*
X78174188Y-102175518D01*
X78161928Y-102300000D01*
X61918072Y-102300000D01*
X61905812Y-102175518D01*
X61869502Y-102055820D01*
X61810537Y-101945506D01*
X61731185Y-101848815D01*
X61634494Y-101769463D01*
X61524180Y-101710498D01*
X61404482Y-101674188D01*
X61280000Y-101661928D01*
X60365750Y-101665000D01*
X60207000Y-101823750D01*
X59953000Y-101823750D01*
X59794250Y-101665000D01*
X58880000Y-101661928D01*
X58755518Y-101674188D01*
X58635820Y-101710498D01*
X58525506Y-101769463D01*
X58428815Y-101848815D01*
X58349463Y-101945506D01*
X58290498Y-102055820D01*
X58254188Y-102175518D01*
X58241928Y-102300000D01*
X50660000Y-102300000D01*
X50660000Y-99814344D01*
X144635000Y-99814344D01*
X144635000Y-100185656D01*
X144707439Y-100549834D01*
X144849534Y-100892882D01*
X145055825Y-101201618D01*
X145318382Y-101464175D01*
X145627118Y-101670466D01*
X145970166Y-101812561D01*
X146334344Y-101885000D01*
X146705656Y-101885000D01*
X147069834Y-101812561D01*
X147412882Y-101670466D01*
X147721618Y-101464175D01*
X147984175Y-101201618D01*
X148190466Y-100892882D01*
X148332561Y-100549834D01*
X148405000Y-100185656D01*
X148405000Y-99814344D01*
X148332561Y-99450166D01*
X148190466Y-99107118D01*
X147984175Y-98798382D01*
X147721618Y-98535825D01*
X147412882Y-98329534D01*
X147069834Y-98187439D01*
X146705656Y-98115000D01*
X146334344Y-98115000D01*
X145970166Y-98187439D01*
X145627118Y-98329534D01*
X145318382Y-98535825D01*
X145055825Y-98798382D01*
X144849534Y-99107118D01*
X144707439Y-99450166D01*
X144635000Y-99814344D01*
X50660000Y-99814344D01*
X50660000Y-96300000D01*
X115561928Y-96300000D01*
X115574188Y-96424482D01*
X115610498Y-96544180D01*
X115669463Y-96654494D01*
X115748815Y-96751185D01*
X115845506Y-96830537D01*
X115955820Y-96889502D01*
X116051943Y-96918661D01*
X115885363Y-97085241D01*
X115728320Y-97320273D01*
X115620147Y-97581426D01*
X115565000Y-97858665D01*
X115565000Y-98141335D01*
X115620147Y-98418574D01*
X115728320Y-98679727D01*
X115885363Y-98914759D01*
X116085241Y-99114637D01*
X116320273Y-99271680D01*
X116581426Y-99379853D01*
X116858665Y-99435000D01*
X117141335Y-99435000D01*
X117418574Y-99379853D01*
X117679727Y-99271680D01*
X117914759Y-99114637D01*
X118114637Y-98914759D01*
X118271680Y-98679727D01*
X118379853Y-98418574D01*
X118435000Y-98141335D01*
X118435000Y-97858665D01*
X118379853Y-97581426D01*
X118271680Y-97320273D01*
X118114637Y-97085241D01*
X117948057Y-96918661D01*
X118044180Y-96889502D01*
X118066237Y-96877712D01*
X119721928Y-96877712D01*
X119734188Y-97002194D01*
X119770498Y-97121892D01*
X119829463Y-97232206D01*
X119908815Y-97328897D01*
X120005506Y-97408249D01*
X120115820Y-97467214D01*
X120235518Y-97503524D01*
X120360000Y-97515784D01*
X121174250Y-97512712D01*
X121333000Y-97353962D01*
X121333000Y-95904712D01*
X121587000Y-95904712D01*
X121587000Y-97353962D01*
X121745750Y-97512712D01*
X122560000Y-97515784D01*
X122684482Y-97503524D01*
X122804180Y-97467214D01*
X122914494Y-97408249D01*
X123011185Y-97328897D01*
X123090537Y-97232206D01*
X123149502Y-97121892D01*
X123185812Y-97002194D01*
X123198072Y-96877712D01*
X123195000Y-96063462D01*
X123036250Y-95904712D01*
X121587000Y-95904712D01*
X121333000Y-95904712D01*
X119883750Y-95904712D01*
X119725000Y-96063462D01*
X119721928Y-96877712D01*
X118066237Y-96877712D01*
X118154494Y-96830537D01*
X118251185Y-96751185D01*
X118330537Y-96654494D01*
X118389502Y-96544180D01*
X118425812Y-96424482D01*
X118438072Y-96300000D01*
X118435000Y-95785750D01*
X118276250Y-95627000D01*
X117127000Y-95627000D01*
X117127000Y-95647000D01*
X116873000Y-95647000D01*
X116873000Y-95627000D01*
X115723750Y-95627000D01*
X115565000Y-95785750D01*
X115561928Y-96300000D01*
X50660000Y-96300000D01*
X50660000Y-94700000D01*
X115561928Y-94700000D01*
X115565000Y-95214250D01*
X115723750Y-95373000D01*
X116873000Y-95373000D01*
X116873000Y-94223750D01*
X117127000Y-94223750D01*
X117127000Y-95373000D01*
X118276250Y-95373000D01*
X118435000Y-95214250D01*
X118438072Y-94700000D01*
X118435877Y-94677712D01*
X119721928Y-94677712D01*
X119725000Y-95491962D01*
X119883750Y-95650712D01*
X121333000Y-95650712D01*
X121333000Y-94201462D01*
X121587000Y-94201462D01*
X121587000Y-95650712D01*
X123036250Y-95650712D01*
X123080133Y-95606829D01*
X129885000Y-95606829D01*
X129885000Y-95948595D01*
X129951675Y-96283793D01*
X130082463Y-96599543D01*
X130272337Y-96883710D01*
X130514002Y-97125375D01*
X130798169Y-97315249D01*
X131113919Y-97446037D01*
X131449117Y-97512712D01*
X131790883Y-97512712D01*
X132126081Y-97446037D01*
X132441831Y-97315249D01*
X132725998Y-97125375D01*
X132967663Y-96883710D01*
X133157537Y-96599543D01*
X133275976Y-96313605D01*
X145386000Y-96313605D01*
X145511914Y-96603577D01*
X145844126Y-96769433D01*
X146202312Y-96867290D01*
X146572706Y-96893389D01*
X146941075Y-96846725D01*
X147293262Y-96729094D01*
X147528086Y-96603577D01*
X147654000Y-96313605D01*
X146520000Y-95179605D01*
X145386000Y-96313605D01*
X133275976Y-96313605D01*
X133288325Y-96283793D01*
X133355000Y-95948595D01*
X133355000Y-95606829D01*
X133288325Y-95271631D01*
X133197644Y-95052706D01*
X144626611Y-95052706D01*
X144673275Y-95421075D01*
X144790906Y-95773262D01*
X144916423Y-96008086D01*
X145206395Y-96134000D01*
X146340395Y-95000000D01*
X146699605Y-95000000D01*
X147833605Y-96134000D01*
X148123577Y-96008086D01*
X148289433Y-95675874D01*
X148387290Y-95317688D01*
X148413389Y-94947294D01*
X148366725Y-94578925D01*
X148249094Y-94226738D01*
X148123577Y-93991914D01*
X147833605Y-93866000D01*
X146699605Y-95000000D01*
X146340395Y-95000000D01*
X145206395Y-93866000D01*
X144916423Y-93991914D01*
X144750567Y-94324126D01*
X144652710Y-94682312D01*
X144626611Y-95052706D01*
X133197644Y-95052706D01*
X133157537Y-94955881D01*
X132967663Y-94671714D01*
X132725998Y-94430049D01*
X132441831Y-94240175D01*
X132126081Y-94109387D01*
X131790883Y-94042712D01*
X131449117Y-94042712D01*
X131113919Y-94109387D01*
X130798169Y-94240175D01*
X130514002Y-94430049D01*
X130272337Y-94671714D01*
X130082463Y-94955881D01*
X129951675Y-95271631D01*
X129885000Y-95606829D01*
X123080133Y-95606829D01*
X123195000Y-95491962D01*
X123198072Y-94677712D01*
X123185812Y-94553230D01*
X123149502Y-94433532D01*
X123090537Y-94323218D01*
X123011185Y-94226527D01*
X122914494Y-94147175D01*
X122804180Y-94088210D01*
X122684482Y-94051900D01*
X122560000Y-94039640D01*
X121745750Y-94042712D01*
X121587000Y-94201462D01*
X121333000Y-94201462D01*
X121174250Y-94042712D01*
X120360000Y-94039640D01*
X120235518Y-94051900D01*
X120115820Y-94088210D01*
X120005506Y-94147175D01*
X119908815Y-94226527D01*
X119829463Y-94323218D01*
X119770498Y-94433532D01*
X119734188Y-94553230D01*
X119721928Y-94677712D01*
X118435877Y-94677712D01*
X118425812Y-94575518D01*
X118389502Y-94455820D01*
X118330537Y-94345506D01*
X118251185Y-94248815D01*
X118154494Y-94169463D01*
X118044180Y-94110498D01*
X117924482Y-94074188D01*
X117800000Y-94061928D01*
X117285750Y-94065000D01*
X117127000Y-94223750D01*
X116873000Y-94223750D01*
X116714250Y-94065000D01*
X116200000Y-94061928D01*
X116075518Y-94074188D01*
X115955820Y-94110498D01*
X115845506Y-94169463D01*
X115748815Y-94248815D01*
X115669463Y-94345506D01*
X115610498Y-94455820D01*
X115574188Y-94575518D01*
X115561928Y-94700000D01*
X50660000Y-94700000D01*
X50660000Y-93686395D01*
X145386000Y-93686395D01*
X146520000Y-94820395D01*
X147654000Y-93686395D01*
X147528086Y-93396423D01*
X147195874Y-93230567D01*
X146837688Y-93132710D01*
X146467294Y-93106611D01*
X146098925Y-93153275D01*
X145746738Y-93270906D01*
X145511914Y-93396423D01*
X145386000Y-93686395D01*
X50660000Y-93686395D01*
X50660000Y-92492702D01*
X116186903Y-92492702D01*
X116258486Y-92736671D01*
X116513996Y-92857571D01*
X116788184Y-92926300D01*
X117070512Y-92940217D01*
X117350130Y-92898787D01*
X117616292Y-92803603D01*
X117741514Y-92736671D01*
X117813097Y-92492702D01*
X117000000Y-91679605D01*
X116186903Y-92492702D01*
X50660000Y-92492702D01*
X50660000Y-91777980D01*
X58981626Y-91777980D01*
X59101514Y-92062836D01*
X59425210Y-92223699D01*
X59774069Y-92318322D01*
X60134684Y-92343067D01*
X60493198Y-92296985D01*
X60835833Y-92181846D01*
X61058486Y-92062836D01*
X61178374Y-91777980D01*
X78901626Y-91777980D01*
X79021514Y-92062836D01*
X79345210Y-92223699D01*
X79694069Y-92318322D01*
X80054684Y-92343067D01*
X80413198Y-92296985D01*
X80755833Y-92181846D01*
X80978486Y-92062836D01*
X81098374Y-91777980D01*
X98901626Y-91777980D01*
X99021514Y-92062836D01*
X99345210Y-92223699D01*
X99694069Y-92318322D01*
X100054684Y-92343067D01*
X100413198Y-92296985D01*
X100755833Y-92181846D01*
X100978486Y-92062836D01*
X101098374Y-91777980D01*
X100000000Y-90679605D01*
X98901626Y-91777980D01*
X81098374Y-91777980D01*
X80000000Y-90679605D01*
X78901626Y-91777980D01*
X61178374Y-91777980D01*
X60080000Y-90679605D01*
X58981626Y-91777980D01*
X50660000Y-91777980D01*
X50660000Y-90554684D01*
X58236933Y-90554684D01*
X58283015Y-90913198D01*
X58398154Y-91255833D01*
X58517164Y-91478486D01*
X58802020Y-91598374D01*
X59900395Y-90500000D01*
X60259605Y-90500000D01*
X61357980Y-91598374D01*
X61642836Y-91478486D01*
X61803699Y-91154790D01*
X61898322Y-90805931D01*
X61915562Y-90554684D01*
X78156933Y-90554684D01*
X78203015Y-90913198D01*
X78318154Y-91255833D01*
X78437164Y-91478486D01*
X78722020Y-91598374D01*
X79820395Y-90500000D01*
X80179605Y-90500000D01*
X81277980Y-91598374D01*
X81562836Y-91478486D01*
X81723699Y-91154790D01*
X81818322Y-90805931D01*
X81835562Y-90554684D01*
X98156933Y-90554684D01*
X98203015Y-90913198D01*
X98318154Y-91255833D01*
X98437164Y-91478486D01*
X98722020Y-91598374D01*
X99820395Y-90500000D01*
X100179605Y-90500000D01*
X101277980Y-91598374D01*
X101344180Y-91570512D01*
X115559783Y-91570512D01*
X115601213Y-91850130D01*
X115696397Y-92116292D01*
X115763329Y-92241514D01*
X116007298Y-92313097D01*
X116820395Y-91500000D01*
X117179605Y-91500000D01*
X117992702Y-92313097D01*
X118236671Y-92241514D01*
X118357571Y-91986004D01*
X118426300Y-91711816D01*
X118440217Y-91429488D01*
X118398787Y-91149870D01*
X118303603Y-90883708D01*
X118236671Y-90758486D01*
X117992702Y-90686903D01*
X117179605Y-91500000D01*
X116820395Y-91500000D01*
X116007298Y-90686903D01*
X115763329Y-90758486D01*
X115642429Y-91013996D01*
X115573700Y-91288184D01*
X115559783Y-91570512D01*
X101344180Y-91570512D01*
X101562836Y-91478486D01*
X101723699Y-91154790D01*
X101818322Y-90805931D01*
X101843067Y-90445316D01*
X101796985Y-90086802D01*
X101681846Y-89744167D01*
X101562836Y-89521514D01*
X101277980Y-89401626D01*
X100179605Y-90500000D01*
X99820395Y-90500000D01*
X98722020Y-89401626D01*
X98437164Y-89521514D01*
X98276301Y-89845210D01*
X98181678Y-90194069D01*
X98156933Y-90554684D01*
X81835562Y-90554684D01*
X81843067Y-90445316D01*
X81796985Y-90086802D01*
X81681846Y-89744167D01*
X81562836Y-89521514D01*
X81277980Y-89401626D01*
X80179605Y-90500000D01*
X79820395Y-90500000D01*
X78722020Y-89401626D01*
X78437164Y-89521514D01*
X78276301Y-89845210D01*
X78181678Y-90194069D01*
X78156933Y-90554684D01*
X61915562Y-90554684D01*
X61923067Y-90445316D01*
X61876985Y-90086802D01*
X61761846Y-89744167D01*
X61642836Y-89521514D01*
X61357980Y-89401626D01*
X60259605Y-90500000D01*
X59900395Y-90500000D01*
X58802020Y-89401626D01*
X58517164Y-89521514D01*
X58356301Y-89845210D01*
X58261678Y-90194069D01*
X58236933Y-90554684D01*
X50660000Y-90554684D01*
X50660000Y-89222020D01*
X58981626Y-89222020D01*
X60080000Y-90320395D01*
X61178374Y-89222020D01*
X78901626Y-89222020D01*
X80000000Y-90320395D01*
X81098374Y-89222020D01*
X98901626Y-89222020D01*
X100000000Y-90320395D01*
X101098374Y-89222020D01*
X100978486Y-88937164D01*
X100654790Y-88776301D01*
X100305931Y-88681678D01*
X99945316Y-88656933D01*
X99586802Y-88703015D01*
X99244167Y-88818154D01*
X99021514Y-88937164D01*
X98901626Y-89222020D01*
X81098374Y-89222020D01*
X80978486Y-88937164D01*
X80654790Y-88776301D01*
X80305931Y-88681678D01*
X79945316Y-88656933D01*
X79586802Y-88703015D01*
X79244167Y-88818154D01*
X79021514Y-88937164D01*
X78901626Y-89222020D01*
X61178374Y-89222020D01*
X61058486Y-88937164D01*
X60734790Y-88776301D01*
X60385931Y-88681678D01*
X60025316Y-88656933D01*
X59666802Y-88703015D01*
X59324167Y-88818154D01*
X59101514Y-88937164D01*
X58981626Y-89222020D01*
X50660000Y-89222020D01*
X50660000Y-88200000D01*
X115561928Y-88200000D01*
X115561928Y-89800000D01*
X115574188Y-89924482D01*
X115610498Y-90044180D01*
X115669463Y-90154494D01*
X115748815Y-90251185D01*
X115845506Y-90330537D01*
X115955820Y-90389502D01*
X116075518Y-90425812D01*
X116200000Y-90438072D01*
X116207215Y-90438072D01*
X116186903Y-90507298D01*
X117000000Y-91320395D01*
X117813097Y-90507298D01*
X117792785Y-90438072D01*
X117800000Y-90438072D01*
X117924482Y-90425812D01*
X118044180Y-90389502D01*
X118154494Y-90330537D01*
X118251185Y-90251185D01*
X118330537Y-90154494D01*
X118370355Y-90080000D01*
X119721928Y-90080000D01*
X119721928Y-92280000D01*
X119734188Y-92404482D01*
X119770498Y-92524180D01*
X119829463Y-92634494D01*
X119908815Y-92731185D01*
X120005506Y-92810537D01*
X120115820Y-92869502D01*
X120235518Y-92905812D01*
X120360000Y-92918072D01*
X122560000Y-92918072D01*
X122684482Y-92905812D01*
X122804180Y-92869502D01*
X122914494Y-92810537D01*
X123011185Y-92731185D01*
X123090537Y-92634494D01*
X123149502Y-92524180D01*
X123185812Y-92404482D01*
X123198072Y-92280000D01*
X123198072Y-91576122D01*
X129930825Y-91576122D01*
X129995425Y-91789094D01*
X130145469Y-92094329D01*
X130352178Y-92364427D01*
X130607609Y-92589008D01*
X130901946Y-92759442D01*
X131223877Y-92869179D01*
X131493000Y-92751600D01*
X131493000Y-91307000D01*
X131747000Y-91307000D01*
X131747000Y-92751600D01*
X132016123Y-92869179D01*
X132338054Y-92759442D01*
X132632391Y-92589008D01*
X132887822Y-92364427D01*
X133094531Y-92094329D01*
X133244575Y-91789094D01*
X133309175Y-91576122D01*
X133191125Y-91307000D01*
X131747000Y-91307000D01*
X131493000Y-91307000D01*
X130048875Y-91307000D01*
X129930825Y-91576122D01*
X123198072Y-91576122D01*
X123198072Y-90783878D01*
X129930825Y-90783878D01*
X130048875Y-91053000D01*
X131493000Y-91053000D01*
X131493000Y-89608400D01*
X131747000Y-89608400D01*
X131747000Y-91053000D01*
X133191125Y-91053000D01*
X133309175Y-90783878D01*
X133244575Y-90570906D01*
X133094531Y-90265671D01*
X132887822Y-89995573D01*
X132632391Y-89770992D01*
X132338054Y-89600558D01*
X132016123Y-89490821D01*
X131747000Y-89608400D01*
X131493000Y-89608400D01*
X131223877Y-89490821D01*
X130901946Y-89600558D01*
X130607609Y-89770992D01*
X130352178Y-89995573D01*
X130145469Y-90265671D01*
X129995425Y-90570906D01*
X129930825Y-90783878D01*
X123198072Y-90783878D01*
X123198072Y-90080000D01*
X123185812Y-89955518D01*
X123149502Y-89835820D01*
X123090537Y-89725506D01*
X123011185Y-89628815D01*
X122914494Y-89549463D01*
X122804180Y-89490498D01*
X122684482Y-89454188D01*
X122560000Y-89441928D01*
X120360000Y-89441928D01*
X120235518Y-89454188D01*
X120115820Y-89490498D01*
X120005506Y-89549463D01*
X119908815Y-89628815D01*
X119829463Y-89725506D01*
X119770498Y-89835820D01*
X119734188Y-89955518D01*
X119721928Y-90080000D01*
X118370355Y-90080000D01*
X118389502Y-90044180D01*
X118425812Y-89924482D01*
X118438072Y-89800000D01*
X118438072Y-88750000D01*
X144631928Y-88750000D01*
X144631928Y-91250000D01*
X144644188Y-91374482D01*
X144680498Y-91494180D01*
X144739463Y-91604494D01*
X144818815Y-91701185D01*
X144915506Y-91780537D01*
X145025820Y-91839502D01*
X145145518Y-91875812D01*
X145270000Y-91888072D01*
X147770000Y-91888072D01*
X147894482Y-91875812D01*
X148014180Y-91839502D01*
X148124494Y-91780537D01*
X148221185Y-91701185D01*
X148300537Y-91604494D01*
X148359502Y-91494180D01*
X148395812Y-91374482D01*
X148408072Y-91250000D01*
X148408072Y-88750000D01*
X148395812Y-88625518D01*
X148359502Y-88505820D01*
X148300537Y-88395506D01*
X148221185Y-88298815D01*
X148124494Y-88219463D01*
X148014180Y-88160498D01*
X147894482Y-88124188D01*
X147770000Y-88111928D01*
X145270000Y-88111928D01*
X145145518Y-88124188D01*
X145025820Y-88160498D01*
X144915506Y-88219463D01*
X144818815Y-88298815D01*
X144739463Y-88395506D01*
X144680498Y-88505820D01*
X144644188Y-88625518D01*
X144631928Y-88750000D01*
X118438072Y-88750000D01*
X118438072Y-88200000D01*
X118425812Y-88075518D01*
X118389502Y-87955820D01*
X118330537Y-87845506D01*
X118251185Y-87748815D01*
X118154494Y-87669463D01*
X118044180Y-87610498D01*
X117924482Y-87574188D01*
X117800000Y-87561928D01*
X116200000Y-87561928D01*
X116075518Y-87574188D01*
X115955820Y-87610498D01*
X115845506Y-87669463D01*
X115748815Y-87748815D01*
X115669463Y-87845506D01*
X115610498Y-87955820D01*
X115574188Y-88075518D01*
X115561928Y-88200000D01*
X50660000Y-88200000D01*
X50660000Y-81800000D01*
X58241928Y-81800000D01*
X58241928Y-84200000D01*
X58254188Y-84324482D01*
X58290498Y-84444180D01*
X58349463Y-84554494D01*
X58428815Y-84651185D01*
X58525506Y-84730537D01*
X58635820Y-84789502D01*
X58755518Y-84825812D01*
X58880000Y-84838072D01*
X61280000Y-84838072D01*
X61404482Y-84825812D01*
X61524180Y-84789502D01*
X61634494Y-84730537D01*
X61731185Y-84651185D01*
X61810537Y-84554494D01*
X61869502Y-84444180D01*
X61905812Y-84324482D01*
X61918072Y-84200000D01*
X61918072Y-81800000D01*
X78161928Y-81800000D01*
X78161928Y-84200000D01*
X78174188Y-84324482D01*
X78210498Y-84444180D01*
X78269463Y-84554494D01*
X78348815Y-84651185D01*
X78445506Y-84730537D01*
X78555820Y-84789502D01*
X78675518Y-84825812D01*
X78800000Y-84838072D01*
X81200000Y-84838072D01*
X81324482Y-84825812D01*
X81444180Y-84789502D01*
X81554494Y-84730537D01*
X81651185Y-84651185D01*
X81730537Y-84554494D01*
X81789502Y-84444180D01*
X81825812Y-84324482D01*
X81838072Y-84200000D01*
X81838072Y-81800000D01*
X98161928Y-81800000D01*
X98161928Y-84200000D01*
X98174188Y-84324482D01*
X98210498Y-84444180D01*
X98269463Y-84554494D01*
X98348815Y-84651185D01*
X98445506Y-84730537D01*
X98555820Y-84789502D01*
X98675518Y-84825812D01*
X98800000Y-84838072D01*
X101200000Y-84838072D01*
X101324482Y-84825812D01*
X101444180Y-84789502D01*
X101554494Y-84730537D01*
X101651185Y-84651185D01*
X101730537Y-84554494D01*
X101789502Y-84444180D01*
X101825812Y-84324482D01*
X101838072Y-84200000D01*
X101838072Y-82040000D01*
X112817319Y-82040000D01*
X112847970Y-82351204D01*
X112938745Y-82650449D01*
X113086155Y-82926235D01*
X113284537Y-83167963D01*
X113526265Y-83366345D01*
X113802051Y-83513755D01*
X114101296Y-83604530D01*
X114334514Y-83627500D01*
X114585486Y-83627500D01*
X114818704Y-83604530D01*
X115117949Y-83513755D01*
X115393735Y-83366345D01*
X115635463Y-83167963D01*
X115833845Y-82926235D01*
X115981255Y-82650449D01*
X116072030Y-82351204D01*
X116102681Y-82040000D01*
X116072030Y-81728796D01*
X115981255Y-81429551D01*
X115833845Y-81153765D01*
X115686411Y-80974117D01*
X137800000Y-80974117D01*
X137800000Y-81315883D01*
X137866675Y-81651081D01*
X137997463Y-81966831D01*
X138187337Y-82250998D01*
X138429002Y-82492663D01*
X138713169Y-82682537D01*
X139028919Y-82813325D01*
X139364117Y-82880000D01*
X139705883Y-82880000D01*
X140041081Y-82813325D01*
X140356831Y-82682537D01*
X140640998Y-82492663D01*
X140882663Y-82250998D01*
X141072537Y-81966831D01*
X141203325Y-81651081D01*
X141270000Y-81315883D01*
X141270000Y-80974117D01*
X142800000Y-80974117D01*
X142800000Y-81315883D01*
X142866675Y-81651081D01*
X142997463Y-81966831D01*
X143187337Y-82250998D01*
X143429002Y-82492663D01*
X143713169Y-82682537D01*
X144028919Y-82813325D01*
X144364117Y-82880000D01*
X144705883Y-82880000D01*
X145041081Y-82813325D01*
X145356831Y-82682537D01*
X145640998Y-82492663D01*
X145882663Y-82250998D01*
X146072537Y-81966831D01*
X146203325Y-81651081D01*
X146270000Y-81315883D01*
X146270000Y-80974117D01*
X146203325Y-80638919D01*
X146072537Y-80323169D01*
X145882663Y-80039002D01*
X145640998Y-79797337D01*
X145356831Y-79607463D01*
X145041081Y-79476675D01*
X144705883Y-79410000D01*
X144364117Y-79410000D01*
X144028919Y-79476675D01*
X143713169Y-79607463D01*
X143429002Y-79797337D01*
X143187337Y-80039002D01*
X142997463Y-80323169D01*
X142866675Y-80638919D01*
X142800000Y-80974117D01*
X141270000Y-80974117D01*
X141203325Y-80638919D01*
X141072537Y-80323169D01*
X140882663Y-80039002D01*
X140640998Y-79797337D01*
X140356831Y-79607463D01*
X140041081Y-79476675D01*
X139705883Y-79410000D01*
X139364117Y-79410000D01*
X139028919Y-79476675D01*
X138713169Y-79607463D01*
X138429002Y-79797337D01*
X138187337Y-80039002D01*
X137997463Y-80323169D01*
X137866675Y-80638919D01*
X137800000Y-80974117D01*
X115686411Y-80974117D01*
X115635463Y-80912037D01*
X115456101Y-80764837D01*
X115641315Y-80609437D01*
X115835969Y-80366923D01*
X115979571Y-80091094D01*
X116050563Y-79872980D01*
X115930594Y-79627000D01*
X114587000Y-79627000D01*
X114587000Y-79647000D01*
X114333000Y-79647000D01*
X114333000Y-79627000D01*
X112989406Y-79627000D01*
X112869437Y-79872980D01*
X112940429Y-80091094D01*
X113084031Y-80366923D01*
X113278685Y-80609437D01*
X113463899Y-80764837D01*
X113284537Y-80912037D01*
X113086155Y-81153765D01*
X112938745Y-81429551D01*
X112847970Y-81728796D01*
X112817319Y-82040000D01*
X101838072Y-82040000D01*
X101838072Y-81800000D01*
X101825812Y-81675518D01*
X101789502Y-81555820D01*
X101730537Y-81445506D01*
X101651185Y-81348815D01*
X101554494Y-81269463D01*
X101444180Y-81210498D01*
X101324482Y-81174188D01*
X101200000Y-81161928D01*
X98800000Y-81161928D01*
X98675518Y-81174188D01*
X98555820Y-81210498D01*
X98445506Y-81269463D01*
X98348815Y-81348815D01*
X98269463Y-81445506D01*
X98210498Y-81555820D01*
X98174188Y-81675518D01*
X98161928Y-81800000D01*
X81838072Y-81800000D01*
X81825812Y-81675518D01*
X81789502Y-81555820D01*
X81730537Y-81445506D01*
X81651185Y-81348815D01*
X81554494Y-81269463D01*
X81444180Y-81210498D01*
X81324482Y-81174188D01*
X81200000Y-81161928D01*
X78800000Y-81161928D01*
X78675518Y-81174188D01*
X78555820Y-81210498D01*
X78445506Y-81269463D01*
X78348815Y-81348815D01*
X78269463Y-81445506D01*
X78210498Y-81555820D01*
X78174188Y-81675518D01*
X78161928Y-81800000D01*
X61918072Y-81800000D01*
X61905812Y-81675518D01*
X61869502Y-81555820D01*
X61810537Y-81445506D01*
X61731185Y-81348815D01*
X61634494Y-81269463D01*
X61524180Y-81210498D01*
X61404482Y-81174188D01*
X61280000Y-81161928D01*
X58880000Y-81161928D01*
X58755518Y-81174188D01*
X58635820Y-81210498D01*
X58525506Y-81269463D01*
X58428815Y-81348815D01*
X58349463Y-81445506D01*
X58290498Y-81555820D01*
X58254188Y-81675518D01*
X58241928Y-81800000D01*
X50660000Y-81800000D01*
X50660000Y-80192702D01*
X107606903Y-80192702D01*
X107678486Y-80436671D01*
X107933996Y-80557571D01*
X108208184Y-80626300D01*
X108490512Y-80640217D01*
X108770130Y-80598787D01*
X109036292Y-80503603D01*
X109161514Y-80436671D01*
X109233097Y-80192702D01*
X108420000Y-79379605D01*
X107606903Y-80192702D01*
X50660000Y-80192702D01*
X50660000Y-79270512D01*
X106979783Y-79270512D01*
X107021213Y-79550130D01*
X107116397Y-79816292D01*
X107183329Y-79941514D01*
X107427298Y-80013097D01*
X108240395Y-79200000D01*
X108599605Y-79200000D01*
X109412702Y-80013097D01*
X109656671Y-79941514D01*
X109777571Y-79686004D01*
X109846300Y-79411816D01*
X109860217Y-79129488D01*
X109818787Y-78849870D01*
X109723603Y-78583708D01*
X109656671Y-78458486D01*
X109412702Y-78386903D01*
X108599605Y-79200000D01*
X108240395Y-79200000D01*
X107427298Y-78386903D01*
X107183329Y-78458486D01*
X107062429Y-78713996D01*
X106993700Y-78988184D01*
X106979783Y-79270512D01*
X50660000Y-79270512D01*
X50660000Y-73060000D01*
X53341928Y-73060000D01*
X53341928Y-75260000D01*
X53354188Y-75384482D01*
X53390498Y-75504180D01*
X53449463Y-75614494D01*
X53528815Y-75711185D01*
X53625506Y-75790537D01*
X53735820Y-75849502D01*
X53855518Y-75885812D01*
X53980000Y-75898072D01*
X56180000Y-75898072D01*
X56304482Y-75885812D01*
X56424180Y-75849502D01*
X56534494Y-75790537D01*
X56631185Y-75711185D01*
X56710537Y-75614494D01*
X56769502Y-75504180D01*
X56805812Y-75384482D01*
X56818072Y-75260000D01*
X56818072Y-73989117D01*
X63505000Y-73989117D01*
X63505000Y-74330883D01*
X63571675Y-74666081D01*
X63702463Y-74981831D01*
X63892337Y-75265998D01*
X64134002Y-75507663D01*
X64418169Y-75697537D01*
X64733919Y-75828325D01*
X65069117Y-75895000D01*
X65410883Y-75895000D01*
X65737660Y-75830000D01*
X85308057Y-75830000D01*
X85335764Y-76111309D01*
X85417818Y-76381808D01*
X85551068Y-76631101D01*
X85730392Y-76849608D01*
X85948899Y-77028932D01*
X86198192Y-77162182D01*
X86468691Y-77244236D01*
X86679508Y-77265000D01*
X89520492Y-77265000D01*
X89731309Y-77244236D01*
X90001808Y-77162182D01*
X90251101Y-77028932D01*
X90469608Y-76849608D01*
X90648932Y-76631101D01*
X90782182Y-76381808D01*
X90864236Y-76111309D01*
X90885048Y-75900000D01*
X106981928Y-75900000D01*
X106981928Y-77500000D01*
X106994188Y-77624482D01*
X107030498Y-77744180D01*
X107089463Y-77854494D01*
X107168815Y-77951185D01*
X107265506Y-78030537D01*
X107375820Y-78089502D01*
X107495518Y-78125812D01*
X107620000Y-78138072D01*
X107627215Y-78138072D01*
X107606903Y-78207298D01*
X108420000Y-79020395D01*
X109233097Y-78207298D01*
X109212785Y-78138072D01*
X109220000Y-78138072D01*
X109344482Y-78125812D01*
X109464180Y-78089502D01*
X109574494Y-78030537D01*
X109671185Y-77951185D01*
X109750537Y-77854494D01*
X109809502Y-77744180D01*
X109845812Y-77624482D01*
X109858072Y-77500000D01*
X109858072Y-76007500D01*
X112821928Y-76007500D01*
X112821928Y-77912500D01*
X112834188Y-78036982D01*
X112870498Y-78156680D01*
X112929463Y-78266994D01*
X113008815Y-78363685D01*
X113105506Y-78443037D01*
X113197219Y-78492059D01*
X113084031Y-78633077D01*
X112940429Y-78908906D01*
X112869437Y-79127020D01*
X112989406Y-79373000D01*
X114333000Y-79373000D01*
X114333000Y-79353000D01*
X114587000Y-79353000D01*
X114587000Y-79373000D01*
X115930594Y-79373000D01*
X116050563Y-79127020D01*
X115979571Y-78908906D01*
X115835969Y-78633077D01*
X115722781Y-78492059D01*
X115814494Y-78443037D01*
X115911185Y-78363685D01*
X115990537Y-78266994D01*
X116049502Y-78156680D01*
X116085812Y-78036982D01*
X116098072Y-77912500D01*
X116098072Y-76058665D01*
X135565000Y-76058665D01*
X135565000Y-76341335D01*
X135620147Y-76618574D01*
X135728320Y-76879727D01*
X135885363Y-77114759D01*
X136085241Y-77314637D01*
X136320273Y-77471680D01*
X136581426Y-77579853D01*
X136858665Y-77635000D01*
X137141335Y-77635000D01*
X137418574Y-77579853D01*
X137679727Y-77471680D01*
X137914759Y-77314637D01*
X138114637Y-77114759D01*
X138271680Y-76879727D01*
X138379853Y-76618574D01*
X138435000Y-76341335D01*
X138435000Y-76058665D01*
X145725000Y-76058665D01*
X145725000Y-76341335D01*
X145780147Y-76618574D01*
X145888320Y-76879727D01*
X146045363Y-77114759D01*
X146245241Y-77314637D01*
X146480273Y-77471680D01*
X146741426Y-77579853D01*
X147018665Y-77635000D01*
X147301335Y-77635000D01*
X147578574Y-77579853D01*
X147839727Y-77471680D01*
X148074759Y-77314637D01*
X148274637Y-77114759D01*
X148431680Y-76879727D01*
X148539853Y-76618574D01*
X148595000Y-76341335D01*
X148595000Y-76058665D01*
X148539853Y-75781426D01*
X148431680Y-75520273D01*
X148274637Y-75285241D01*
X148074759Y-75085363D01*
X147839727Y-74928320D01*
X147578574Y-74820147D01*
X147301335Y-74765000D01*
X147018665Y-74765000D01*
X146741426Y-74820147D01*
X146480273Y-74928320D01*
X146245241Y-75085363D01*
X146045363Y-75285241D01*
X145888320Y-75520273D01*
X145780147Y-75781426D01*
X145725000Y-76058665D01*
X138435000Y-76058665D01*
X138379853Y-75781426D01*
X138271680Y-75520273D01*
X138114637Y-75285241D01*
X137914759Y-75085363D01*
X137679727Y-74928320D01*
X137418574Y-74820147D01*
X137141335Y-74765000D01*
X136858665Y-74765000D01*
X136581426Y-74820147D01*
X136320273Y-74928320D01*
X136085241Y-75085363D01*
X135885363Y-75285241D01*
X135728320Y-75520273D01*
X135620147Y-75781426D01*
X135565000Y-76058665D01*
X116098072Y-76058665D01*
X116098072Y-76007500D01*
X116085812Y-75883018D01*
X116049502Y-75763320D01*
X115990537Y-75653006D01*
X115911185Y-75556315D01*
X115814494Y-75476963D01*
X115704180Y-75417998D01*
X115584482Y-75381688D01*
X115460000Y-75369428D01*
X113460000Y-75369428D01*
X113335518Y-75381688D01*
X113215820Y-75417998D01*
X113105506Y-75476963D01*
X113008815Y-75556315D01*
X112929463Y-75653006D01*
X112870498Y-75763320D01*
X112834188Y-75883018D01*
X112821928Y-76007500D01*
X109858072Y-76007500D01*
X109858072Y-75900000D01*
X109845812Y-75775518D01*
X109809502Y-75655820D01*
X109750537Y-75545506D01*
X109671185Y-75448815D01*
X109574494Y-75369463D01*
X109464180Y-75310498D01*
X109344482Y-75274188D01*
X109220000Y-75261928D01*
X107620000Y-75261928D01*
X107495518Y-75274188D01*
X107375820Y-75310498D01*
X107265506Y-75369463D01*
X107168815Y-75448815D01*
X107089463Y-75545506D01*
X107030498Y-75655820D01*
X106994188Y-75775518D01*
X106981928Y-75900000D01*
X90885048Y-75900000D01*
X90891943Y-75830000D01*
X90864236Y-75548691D01*
X90782182Y-75278192D01*
X90648932Y-75028899D01*
X90469608Y-74810392D01*
X90251101Y-74631068D01*
X90001808Y-74497818D01*
X89731309Y-74415764D01*
X89520492Y-74395000D01*
X86679508Y-74395000D01*
X86468691Y-74415764D01*
X86198192Y-74497818D01*
X85948899Y-74631068D01*
X85730392Y-74810392D01*
X85551068Y-75028899D01*
X85417818Y-75278192D01*
X85335764Y-75548691D01*
X85308057Y-75830000D01*
X65737660Y-75830000D01*
X65746081Y-75828325D01*
X66061831Y-75697537D01*
X66345998Y-75507663D01*
X66587663Y-75265998D01*
X66777537Y-74981831D01*
X66908325Y-74666081D01*
X66975000Y-74330883D01*
X66975000Y-73989117D01*
X66908325Y-73653919D01*
X66777537Y-73338169D01*
X66587663Y-73054002D01*
X66345998Y-72812337D01*
X66061831Y-72622463D01*
X66006927Y-72599721D01*
X70725000Y-72599721D01*
X70725000Y-73020279D01*
X70807047Y-73432756D01*
X70967988Y-73821302D01*
X71201637Y-74170983D01*
X71499017Y-74468363D01*
X71848698Y-74702012D01*
X72237244Y-74862953D01*
X72649721Y-74945000D01*
X73070279Y-74945000D01*
X73482756Y-74862953D01*
X73871302Y-74702012D01*
X74220983Y-74468363D01*
X74518363Y-74170983D01*
X74752012Y-73821302D01*
X74902910Y-73457000D01*
X81865000Y-73457000D01*
X81865000Y-74557000D01*
X81917350Y-74834514D01*
X82022834Y-75096483D01*
X82177399Y-75332839D01*
X82375105Y-75534500D01*
X82608354Y-75693715D01*
X82868182Y-75804367D01*
X82950961Y-75821904D01*
X83173000Y-75699915D01*
X83173000Y-73457000D01*
X83427000Y-73457000D01*
X83427000Y-75699915D01*
X83649039Y-75821904D01*
X83731818Y-75804367D01*
X83991646Y-75693715D01*
X84224895Y-75534500D01*
X84422601Y-75332839D01*
X84577166Y-75096483D01*
X84682650Y-74834514D01*
X84735000Y-74557000D01*
X84735000Y-73457000D01*
X83427000Y-73457000D01*
X83173000Y-73457000D01*
X81865000Y-73457000D01*
X74902910Y-73457000D01*
X74912953Y-73432756D01*
X74995000Y-73020279D01*
X74995000Y-72599721D01*
X74912953Y-72187244D01*
X74878058Y-72103000D01*
X81865000Y-72103000D01*
X81865000Y-73203000D01*
X83173000Y-73203000D01*
X83173000Y-70960085D01*
X83427000Y-70960085D01*
X83427000Y-73203000D01*
X84735000Y-73203000D01*
X84735000Y-72599721D01*
X98665000Y-72599721D01*
X98665000Y-73020279D01*
X98747047Y-73432756D01*
X98907988Y-73821302D01*
X99141637Y-74170983D01*
X99439017Y-74468363D01*
X99788698Y-74702012D01*
X100177244Y-74862953D01*
X100589721Y-74945000D01*
X101010279Y-74945000D01*
X101422756Y-74862953D01*
X101811302Y-74702012D01*
X102160983Y-74468363D01*
X102458363Y-74170983D01*
X102692012Y-73821302D01*
X102852953Y-73432756D01*
X102935000Y-73020279D01*
X102935000Y-72599721D01*
X102852953Y-72187244D01*
X102692012Y-71798698D01*
X102458363Y-71449017D01*
X102160983Y-71151637D01*
X101811302Y-70917988D01*
X101422756Y-70757047D01*
X101010279Y-70675000D01*
X100589721Y-70675000D01*
X100177244Y-70757047D01*
X99788698Y-70917988D01*
X99439017Y-71151637D01*
X99141637Y-71449017D01*
X98907988Y-71798698D01*
X98747047Y-72187244D01*
X98665000Y-72599721D01*
X84735000Y-72599721D01*
X84735000Y-72103000D01*
X84682650Y-71825486D01*
X84577166Y-71563517D01*
X84422601Y-71327161D01*
X84224895Y-71125500D01*
X83991646Y-70966285D01*
X83731818Y-70855633D01*
X83649039Y-70838096D01*
X83427000Y-70960085D01*
X83173000Y-70960085D01*
X82950961Y-70838096D01*
X82868182Y-70855633D01*
X82608354Y-70966285D01*
X82375105Y-71125500D01*
X82177399Y-71327161D01*
X82022834Y-71563517D01*
X81917350Y-71825486D01*
X81865000Y-72103000D01*
X74878058Y-72103000D01*
X74752012Y-71798698D01*
X74518363Y-71449017D01*
X74220983Y-71151637D01*
X73871302Y-70917988D01*
X73482756Y-70757047D01*
X73070279Y-70675000D01*
X72649721Y-70675000D01*
X72237244Y-70757047D01*
X71848698Y-70917988D01*
X71499017Y-71151637D01*
X71201637Y-71449017D01*
X70967988Y-71798698D01*
X70807047Y-72187244D01*
X70725000Y-72599721D01*
X66006927Y-72599721D01*
X65746081Y-72491675D01*
X65410883Y-72425000D01*
X65069117Y-72425000D01*
X64733919Y-72491675D01*
X64418169Y-72622463D01*
X64134002Y-72812337D01*
X63892337Y-73054002D01*
X63702463Y-73338169D01*
X63571675Y-73653919D01*
X63505000Y-73989117D01*
X56818072Y-73989117D01*
X56818072Y-73060000D01*
X56805812Y-72935518D01*
X56769502Y-72815820D01*
X56710537Y-72705506D01*
X56631185Y-72608815D01*
X56534494Y-72529463D01*
X56424180Y-72470498D01*
X56304482Y-72434188D01*
X56180000Y-72421928D01*
X53980000Y-72421928D01*
X53855518Y-72434188D01*
X53735820Y-72470498D01*
X53625506Y-72529463D01*
X53528815Y-72608815D01*
X53449463Y-72705506D01*
X53390498Y-72815820D01*
X53354188Y-72935518D01*
X53341928Y-73060000D01*
X50660000Y-73060000D01*
X50660000Y-70179039D01*
X85608096Y-70179039D01*
X85625633Y-70261818D01*
X85736285Y-70521646D01*
X85895500Y-70754895D01*
X86097161Y-70952601D01*
X86333517Y-71107166D01*
X86595486Y-71212650D01*
X86873000Y-71265000D01*
X87973000Y-71265000D01*
X87973000Y-69957000D01*
X88227000Y-69957000D01*
X88227000Y-71265000D01*
X89327000Y-71265000D01*
X89604514Y-71212650D01*
X89866483Y-71107166D01*
X90102839Y-70952601D01*
X90304500Y-70754895D01*
X90463715Y-70521646D01*
X90574367Y-70261818D01*
X90591904Y-70179039D01*
X90469915Y-69957000D01*
X88227000Y-69957000D01*
X87973000Y-69957000D01*
X85730085Y-69957000D01*
X85608096Y-70179039D01*
X50660000Y-70179039D01*
X50660000Y-69310000D01*
X70721928Y-69310000D01*
X70734188Y-69434482D01*
X70770498Y-69554180D01*
X70829463Y-69664494D01*
X70908815Y-69761185D01*
X71005506Y-69840537D01*
X71115820Y-69899502D01*
X71235518Y-69935812D01*
X71360000Y-69948072D01*
X72574250Y-69945000D01*
X72733000Y-69786250D01*
X72733000Y-67937000D01*
X72987000Y-67937000D01*
X72987000Y-69786250D01*
X73145750Y-69945000D01*
X74360000Y-69948072D01*
X74484482Y-69935812D01*
X74604180Y-69899502D01*
X74714494Y-69840537D01*
X74811185Y-69761185D01*
X74890537Y-69664494D01*
X74949502Y-69554180D01*
X74971712Y-69480961D01*
X85608096Y-69480961D01*
X85730085Y-69703000D01*
X87973000Y-69703000D01*
X87973000Y-68395000D01*
X88227000Y-68395000D01*
X88227000Y-69703000D01*
X90469915Y-69703000D01*
X90591904Y-69480961D01*
X90574367Y-69398182D01*
X90536814Y-69310000D01*
X98661928Y-69310000D01*
X98674188Y-69434482D01*
X98710498Y-69554180D01*
X98769463Y-69664494D01*
X98848815Y-69761185D01*
X98945506Y-69840537D01*
X99055820Y-69899502D01*
X99175518Y-69935812D01*
X99300000Y-69948072D01*
X100514250Y-69945000D01*
X100673000Y-69786250D01*
X100673000Y-67937000D01*
X100927000Y-67937000D01*
X100927000Y-69786250D01*
X101085750Y-69945000D01*
X102300000Y-69948072D01*
X102424482Y-69935812D01*
X102544180Y-69899502D01*
X102654494Y-69840537D01*
X102751185Y-69761185D01*
X102830537Y-69664494D01*
X102889502Y-69554180D01*
X102925812Y-69434482D01*
X102938072Y-69310000D01*
X102935000Y-68095750D01*
X102776250Y-67937000D01*
X100927000Y-67937000D01*
X100673000Y-67937000D01*
X98823750Y-67937000D01*
X98665000Y-68095750D01*
X98661928Y-69310000D01*
X90536814Y-69310000D01*
X90463715Y-69138354D01*
X90304500Y-68905105D01*
X90102839Y-68707399D01*
X89866483Y-68552834D01*
X89604514Y-68447350D01*
X89327000Y-68395000D01*
X88227000Y-68395000D01*
X87973000Y-68395000D01*
X86873000Y-68395000D01*
X86595486Y-68447350D01*
X86333517Y-68552834D01*
X86097161Y-68707399D01*
X85895500Y-68905105D01*
X85736285Y-69138354D01*
X85625633Y-69398182D01*
X85608096Y-69480961D01*
X74971712Y-69480961D01*
X74985812Y-69434482D01*
X74998072Y-69310000D01*
X74995000Y-68095750D01*
X74836250Y-67937000D01*
X72987000Y-67937000D01*
X72733000Y-67937000D01*
X70883750Y-67937000D01*
X70725000Y-68095750D01*
X70721928Y-69310000D01*
X50660000Y-69310000D01*
X50660000Y-66779872D01*
X50765000Y-66779872D01*
X50765000Y-67220128D01*
X50850890Y-67651925D01*
X51019369Y-68058669D01*
X51263962Y-68424729D01*
X51575271Y-68736038D01*
X51941331Y-68980631D01*
X52348075Y-69149110D01*
X52779872Y-69235000D01*
X53220128Y-69235000D01*
X53651925Y-69149110D01*
X54058669Y-68980631D01*
X54424729Y-68736038D01*
X54736038Y-68424729D01*
X54980631Y-68058669D01*
X55149110Y-67651925D01*
X55235000Y-67220128D01*
X55235000Y-66779872D01*
X55149110Y-66348075D01*
X55133339Y-66310000D01*
X70721928Y-66310000D01*
X70725000Y-67524250D01*
X70883750Y-67683000D01*
X72733000Y-67683000D01*
X72733000Y-65833750D01*
X72987000Y-65833750D01*
X72987000Y-67683000D01*
X74836250Y-67683000D01*
X74995000Y-67524250D01*
X74998072Y-66310000D01*
X98661928Y-66310000D01*
X98665000Y-67524250D01*
X98823750Y-67683000D01*
X100673000Y-67683000D01*
X100673000Y-65833750D01*
X100927000Y-65833750D01*
X100927000Y-67683000D01*
X102776250Y-67683000D01*
X102935000Y-67524250D01*
X102935314Y-67400000D01*
X112721928Y-67400000D01*
X112721928Y-69600000D01*
X112734188Y-69724482D01*
X112770498Y-69844180D01*
X112829463Y-69954494D01*
X112908815Y-70051185D01*
X113005506Y-70130537D01*
X113115820Y-70189502D01*
X113235518Y-70225812D01*
X113360000Y-70238072D01*
X115560000Y-70238072D01*
X115684482Y-70225812D01*
X115804180Y-70189502D01*
X115914494Y-70130537D01*
X116011185Y-70051185D01*
X116090537Y-69954494D01*
X116149502Y-69844180D01*
X116185812Y-69724482D01*
X116198072Y-69600000D01*
X116198072Y-68329117D01*
X122885000Y-68329117D01*
X122885000Y-68670883D01*
X122951675Y-69006081D01*
X123082463Y-69321831D01*
X123272337Y-69605998D01*
X123514002Y-69847663D01*
X123798169Y-70037537D01*
X124113919Y-70168325D01*
X124449117Y-70235000D01*
X124790883Y-70235000D01*
X125126081Y-70168325D01*
X125441831Y-70037537D01*
X125725998Y-69847663D01*
X125967663Y-69605998D01*
X125971670Y-69600000D01*
X136921928Y-69600000D01*
X136934188Y-69724482D01*
X136970498Y-69844180D01*
X137029463Y-69954494D01*
X137108815Y-70051185D01*
X137205506Y-70130537D01*
X137315820Y-70189502D01*
X137334127Y-70195056D01*
X137267688Y-70261495D01*
X137099701Y-70512905D01*
X136983989Y-70792257D01*
X136925000Y-71088816D01*
X136925000Y-71391184D01*
X136983989Y-71687743D01*
X137099701Y-71967095D01*
X137267688Y-72218505D01*
X137481495Y-72432312D01*
X137732905Y-72600299D01*
X138012257Y-72716011D01*
X138308816Y-72775000D01*
X138611184Y-72775000D01*
X138907743Y-72716011D01*
X139187095Y-72600299D01*
X139438505Y-72432312D01*
X139652312Y-72218505D01*
X139820299Y-71967095D01*
X139936011Y-71687743D01*
X139995000Y-71391184D01*
X139995000Y-71088816D01*
X139936011Y-70792257D01*
X139820299Y-70512905D01*
X139652312Y-70261495D01*
X139585873Y-70195056D01*
X139604180Y-70189502D01*
X139714494Y-70130537D01*
X139811185Y-70051185D01*
X139890537Y-69954494D01*
X139949502Y-69844180D01*
X139985812Y-69724482D01*
X139998072Y-69600000D01*
X139995000Y-68985750D01*
X139836250Y-68827000D01*
X138587000Y-68827000D01*
X138587000Y-68847000D01*
X138333000Y-68847000D01*
X138333000Y-68827000D01*
X137083750Y-68827000D01*
X136925000Y-68985750D01*
X136921928Y-69600000D01*
X125971670Y-69600000D01*
X126157537Y-69321831D01*
X126288325Y-69006081D01*
X126355000Y-68670883D01*
X126355000Y-68329117D01*
X126288325Y-67993919D01*
X126208002Y-67800000D01*
X136921928Y-67800000D01*
X136925000Y-68414250D01*
X137083750Y-68573000D01*
X138333000Y-68573000D01*
X138333000Y-67323750D01*
X138587000Y-67323750D01*
X138587000Y-68573000D01*
X139836250Y-68573000D01*
X139995000Y-68414250D01*
X139998072Y-67800000D01*
X139985812Y-67675518D01*
X139949502Y-67555820D01*
X139890537Y-67445506D01*
X139811185Y-67348815D01*
X139714494Y-67269463D01*
X139604180Y-67210498D01*
X139484482Y-67174188D01*
X139360000Y-67161928D01*
X138745750Y-67165000D01*
X138587000Y-67323750D01*
X138333000Y-67323750D01*
X138174250Y-67165000D01*
X137560000Y-67161928D01*
X137435518Y-67174188D01*
X137315820Y-67210498D01*
X137205506Y-67269463D01*
X137108815Y-67348815D01*
X137029463Y-67445506D01*
X136970498Y-67555820D01*
X136934188Y-67675518D01*
X136921928Y-67800000D01*
X126208002Y-67800000D01*
X126157537Y-67678169D01*
X125967663Y-67394002D01*
X125725998Y-67152337D01*
X125441831Y-66962463D01*
X125126081Y-66831675D01*
X124865650Y-66779872D01*
X144765000Y-66779872D01*
X144765000Y-67220128D01*
X144850890Y-67651925D01*
X145019369Y-68058669D01*
X145263962Y-68424729D01*
X145575271Y-68736038D01*
X145941331Y-68980631D01*
X146348075Y-69149110D01*
X146779872Y-69235000D01*
X147220128Y-69235000D01*
X147651925Y-69149110D01*
X148058669Y-68980631D01*
X148424729Y-68736038D01*
X148736038Y-68424729D01*
X148980631Y-68058669D01*
X149149110Y-67651925D01*
X149235000Y-67220128D01*
X149235000Y-66779872D01*
X149149110Y-66348075D01*
X148980631Y-65941331D01*
X148736038Y-65575271D01*
X148424729Y-65263962D01*
X148058669Y-65019369D01*
X147651925Y-64850890D01*
X147220128Y-64765000D01*
X146779872Y-64765000D01*
X146348075Y-64850890D01*
X145941331Y-65019369D01*
X145575271Y-65263962D01*
X145263962Y-65575271D01*
X145019369Y-65941331D01*
X144850890Y-66348075D01*
X144765000Y-66779872D01*
X124865650Y-66779872D01*
X124790883Y-66765000D01*
X124449117Y-66765000D01*
X124113919Y-66831675D01*
X123798169Y-66962463D01*
X123514002Y-67152337D01*
X123272337Y-67394002D01*
X123082463Y-67678169D01*
X122951675Y-67993919D01*
X122885000Y-68329117D01*
X116198072Y-68329117D01*
X116198072Y-67400000D01*
X116185812Y-67275518D01*
X116149502Y-67155820D01*
X116090537Y-67045506D01*
X116011185Y-66948815D01*
X115914494Y-66869463D01*
X115804180Y-66810498D01*
X115684482Y-66774188D01*
X115560000Y-66761928D01*
X113360000Y-66761928D01*
X113235518Y-66774188D01*
X113115820Y-66810498D01*
X113005506Y-66869463D01*
X112908815Y-66948815D01*
X112829463Y-67045506D01*
X112770498Y-67155820D01*
X112734188Y-67275518D01*
X112721928Y-67400000D01*
X102935314Y-67400000D01*
X102938072Y-66310000D01*
X102925812Y-66185518D01*
X102889502Y-66065820D01*
X102830537Y-65955506D01*
X102751185Y-65858815D01*
X102654494Y-65779463D01*
X102544180Y-65720498D01*
X102424482Y-65684188D01*
X102300000Y-65671928D01*
X101085750Y-65675000D01*
X100927000Y-65833750D01*
X100673000Y-65833750D01*
X100514250Y-65675000D01*
X99300000Y-65671928D01*
X99175518Y-65684188D01*
X99055820Y-65720498D01*
X98945506Y-65779463D01*
X98848815Y-65858815D01*
X98769463Y-65955506D01*
X98710498Y-66065820D01*
X98674188Y-66185518D01*
X98661928Y-66310000D01*
X74998072Y-66310000D01*
X74985812Y-66185518D01*
X74949502Y-66065820D01*
X74890537Y-65955506D01*
X74811185Y-65858815D01*
X74714494Y-65779463D01*
X74604180Y-65720498D01*
X74484482Y-65684188D01*
X74360000Y-65671928D01*
X73145750Y-65675000D01*
X72987000Y-65833750D01*
X72733000Y-65833750D01*
X72574250Y-65675000D01*
X71360000Y-65671928D01*
X71235518Y-65684188D01*
X71115820Y-65720498D01*
X71005506Y-65779463D01*
X70908815Y-65858815D01*
X70829463Y-65955506D01*
X70770498Y-66065820D01*
X70734188Y-66185518D01*
X70721928Y-66310000D01*
X55133339Y-66310000D01*
X54980631Y-65941331D01*
X54736038Y-65575271D01*
X54424729Y-65263962D01*
X54058669Y-65019369D01*
X53651925Y-64850890D01*
X53220128Y-64765000D01*
X52779872Y-64765000D01*
X52348075Y-64850890D01*
X51941331Y-65019369D01*
X51575271Y-65263962D01*
X51263962Y-65575271D01*
X51019369Y-65941331D01*
X50850890Y-66348075D01*
X50765000Y-66779872D01*
X50660000Y-66779872D01*
X50660000Y-64660000D01*
X149340000Y-64660000D01*
X149340001Y-124340000D01*
G37*
%TD.AperFunction*%
%TD*%
M02*
