%TF.GenerationSoftware,KiCad,Pcbnew,5.1.8-db9833491~87~ubuntu20.04.1*%
%TF.CreationDate,2020-11-20T17:59:14-05:00*%
%TF.ProjectId,mfosish_ww_supply,6d666f73-6973-4685-9f77-775f73757070,rev?*%
%TF.SameCoordinates,Original*%
%TF.FileFunction,Soldermask,Top*%
%TF.FilePolarity,Negative*%
%FSLAX46Y46*%
G04 Gerber Fmt 4.6, Leading zero omitted, Abs format (unit mm)*
G04 Created by KiCad (PCBNEW 5.1.8-db9833491~87~ubuntu20.04.1) date 2020-11-20 17:59:14*
%MOMM*%
%LPD*%
G01*
G04 APERTURE LIST*
%ADD10O,1.600000X3.800000*%
%ADD11O,4.300000X1.600000*%
%ADD12O,3.800000X1.600000*%
%ADD13C,1.600000*%
%ADD14R,1.600000X1.600000*%
%ADD15C,3.000000*%
%ADD16R,3.000000X3.000000*%
%ADD17O,2.000000X1.905000*%
%ADD18R,2.000000X1.905000*%
%ADD19O,2.200000X2.200000*%
%ADD20R,2.200000X2.200000*%
%ADD21C,3.200000*%
%ADD22C,2.400000*%
%ADD23R,2.400000X2.400000*%
%ADD24O,1.600000X1.600000*%
%ADD25C,2.500000*%
%ADD26R,2.500000X2.500000*%
%ADD27C,1.270000*%
%ADD28C,1.800000*%
%ADD29R,1.800000X1.800000*%
G04 APERTURE END LIST*
D10*
%TO.C,J4*%
X81200000Y-72250000D03*
D11*
X86000000Y-74750000D03*
D12*
X86000000Y-68750000D03*
%TD*%
D13*
%TO.C,C7*%
X111000000Y-83000000D03*
D14*
X111000000Y-80500000D03*
%TD*%
D15*
%TO.C,J3*%
X97000000Y-72500000D03*
D16*
X97000000Y-67500000D03*
%TD*%
D15*
%TO.C,J1*%
X74000000Y-72500000D03*
D16*
X74000000Y-67500000D03*
%TD*%
D13*
%TO.C,C8*%
X111000000Y-102500000D03*
D14*
X111000000Y-100000000D03*
%TD*%
D17*
%TO.C,U2*%
X117000000Y-110040000D03*
X117000000Y-107500000D03*
D18*
X117000000Y-104960000D03*
%TD*%
D19*
%TO.C,D4*%
X127160000Y-118500000D03*
D20*
X117000000Y-118500000D03*
%TD*%
D21*
%TO.C,REF\u002A\u002A*%
X147000000Y-67000000D03*
%TD*%
%TO.C,REF\u002A\u002A*%
X147000000Y-122000000D03*
%TD*%
%TO.C,REF\u002A\u002A*%
X53000000Y-122000000D03*
%TD*%
%TO.C,REF\u002A\u002A*%
X53000000Y-67000000D03*
%TD*%
D22*
%TO.C,C1*%
X60080000Y-90500000D03*
D23*
X60080000Y-83000000D03*
%TD*%
D17*
%TO.C,U1*%
X117000000Y-82040000D03*
X117000000Y-79500000D03*
D18*
X117000000Y-76960000D03*
%TD*%
D24*
%TO.C,R2*%
X147260000Y-114000000D03*
D13*
X139640000Y-114000000D03*
%TD*%
D24*
%TO.C,R1*%
X147160000Y-76200000D03*
D13*
X139540000Y-76200000D03*
%TD*%
D25*
%TO.C,J2*%
X145250000Y-100000000D03*
X145250000Y-95000000D03*
D26*
X145250000Y-90000000D03*
%TD*%
D27*
%TO.C,F2*%
X146000000Y-109500000D03*
X140900000Y-107900000D03*
%TD*%
%TO.C,F1*%
X145900000Y-82200000D03*
X140800000Y-80600000D03*
%TD*%
D28*
%TO.C,D8*%
X141000000Y-121540000D03*
D29*
X141000000Y-119000000D03*
%TD*%
D28*
%TO.C,D7*%
X141000000Y-71240000D03*
D29*
X141000000Y-68700000D03*
%TD*%
D19*
%TO.C,D6*%
X134160000Y-95777712D03*
D20*
X124000000Y-95777712D03*
%TD*%
D19*
%TO.C,D5*%
X134160000Y-91180000D03*
D20*
X124000000Y-91180000D03*
%TD*%
D19*
%TO.C,D3*%
X127160000Y-68500000D03*
D20*
X117000000Y-68500000D03*
%TD*%
D19*
%TO.C,D2*%
X68160000Y-121000000D03*
D20*
X58000000Y-121000000D03*
%TD*%
D19*
%TO.C,D1*%
X68160000Y-72000000D03*
D20*
X58000000Y-72000000D03*
%TD*%
D13*
%TO.C,C10*%
X117000000Y-98000000D03*
D14*
X117000000Y-95500000D03*
%TD*%
D13*
%TO.C,C9*%
X117000000Y-91500000D03*
D14*
X117000000Y-89000000D03*
%TD*%
D22*
%TO.C,C6*%
X100000000Y-111000000D03*
D23*
X100000000Y-103500000D03*
%TD*%
D22*
%TO.C,C5*%
X100000000Y-90500000D03*
D23*
X100000000Y-83000000D03*
%TD*%
D22*
%TO.C,C4*%
X80000000Y-111000000D03*
D23*
X80000000Y-103500000D03*
%TD*%
D22*
%TO.C,C3*%
X80000000Y-90500000D03*
D23*
X80000000Y-83000000D03*
%TD*%
D22*
%TO.C,C2*%
X60080000Y-111000000D03*
D23*
X60080000Y-103500000D03*
%TD*%
M02*
