%TF.GenerationSoftware,KiCad,Pcbnew,5.1.8-db9833491~87~ubuntu20.04.1*%
%TF.CreationDate,2020-11-21T07:03:05-05:00*%
%TF.ProjectId,mfosish_ww_supply,6d666f73-6973-4685-9f77-775f73757070,rev?*%
%TF.SameCoordinates,Original*%
%TF.FileFunction,Copper,L1,Top*%
%TF.FilePolarity,Positive*%
%FSLAX46Y46*%
G04 Gerber Fmt 4.6, Leading zero omitted, Abs format (unit mm)*
G04 Created by KiCad (PCBNEW 5.1.8-db9833491~87~ubuntu20.04.1) date 2020-11-21 07:03:05*
%MOMM*%
%LPD*%
G01*
G04 APERTURE LIST*
%TA.AperFunction,ComponentPad*%
%ADD10O,1.600000X3.800000*%
%TD*%
%TA.AperFunction,ComponentPad*%
%ADD11O,4.300000X1.600000*%
%TD*%
%TA.AperFunction,ComponentPad*%
%ADD12O,3.800000X1.600000*%
%TD*%
%TA.AperFunction,ComponentPad*%
%ADD13C,1.600000*%
%TD*%
%TA.AperFunction,ComponentPad*%
%ADD14R,1.600000X1.600000*%
%TD*%
%TA.AperFunction,ComponentPad*%
%ADD15C,3.000000*%
%TD*%
%TA.AperFunction,ComponentPad*%
%ADD16R,3.000000X3.000000*%
%TD*%
%TA.AperFunction,ComponentPad*%
%ADD17O,2.000000X1.905000*%
%TD*%
%TA.AperFunction,ComponentPad*%
%ADD18R,2.000000X1.905000*%
%TD*%
%TA.AperFunction,ComponentPad*%
%ADD19O,2.200000X2.200000*%
%TD*%
%TA.AperFunction,ComponentPad*%
%ADD20R,2.200000X2.200000*%
%TD*%
%TA.AperFunction,ComponentPad*%
%ADD21C,2.400000*%
%TD*%
%TA.AperFunction,ComponentPad*%
%ADD22R,2.400000X2.400000*%
%TD*%
%TA.AperFunction,ComponentPad*%
%ADD23O,1.600000X1.600000*%
%TD*%
%TA.AperFunction,ComponentPad*%
%ADD24C,2.500000*%
%TD*%
%TA.AperFunction,ComponentPad*%
%ADD25R,2.500000X2.500000*%
%TD*%
%TA.AperFunction,ComponentPad*%
%ADD26C,1.270000*%
%TD*%
%TA.AperFunction,ComponentPad*%
%ADD27C,1.800000*%
%TD*%
%TA.AperFunction,ComponentPad*%
%ADD28R,1.800000X1.800000*%
%TD*%
%TA.AperFunction,Conductor*%
%ADD29C,2.000000*%
%TD*%
%TA.AperFunction,Conductor*%
%ADD30C,0.254000*%
%TD*%
%TA.AperFunction,Conductor*%
%ADD31C,0.100000*%
%TD*%
G04 APERTURE END LIST*
D10*
%TO.P,J4,1*%
%TO.N,GND*%
X81700000Y-72250000D03*
D11*
%TO.P,J4,3*%
%TO.N,N/C*%
X86500000Y-74750000D03*
D12*
%TO.P,J4,2*%
%TO.N,Net-(D1-Pad2)*%
X86500000Y-68750000D03*
%TD*%
D13*
%TO.P,C7,2*%
%TO.N,GND*%
X111000000Y-83000000D03*
D14*
%TO.P,C7,1*%
%TO.N,Net-(C1-Pad1)*%
X111000000Y-80500000D03*
%TD*%
D15*
%TO.P,J3,2*%
%TO.N,Net-(D1-Pad2)*%
X98000000Y-72500000D03*
D16*
%TO.P,J3,1*%
%TO.N,GND*%
X98000000Y-67500000D03*
%TD*%
D15*
%TO.P,J1,2*%
%TO.N,Net-(D1-Pad2)*%
X74000000Y-72500000D03*
D16*
%TO.P,J1,1*%
%TO.N,GND*%
X74000000Y-67500000D03*
%TD*%
D13*
%TO.P,C8,2*%
%TO.N,Net-(C2-Pad2)*%
X111000000Y-102500000D03*
D14*
%TO.P,C8,1*%
%TO.N,GND*%
X111000000Y-100000000D03*
%TD*%
D17*
%TO.P,U2,3*%
%TO.N,Net-(C10-Pad2)*%
X117000000Y-110040000D03*
%TO.P,U2,2*%
%TO.N,Net-(C2-Pad2)*%
X117000000Y-107500000D03*
D18*
%TO.P,U2,1*%
%TO.N,GND*%
X117000000Y-104960000D03*
%TD*%
D19*
%TO.P,D4,2*%
%TO.N,Net-(C2-Pad2)*%
X127160000Y-118500000D03*
D20*
%TO.P,D4,1*%
%TO.N,Net-(C10-Pad2)*%
X117000000Y-118500000D03*
%TD*%
D21*
%TO.P,C1,2*%
%TO.N,GND*%
X60080000Y-90500000D03*
D22*
%TO.P,C1,1*%
%TO.N,Net-(C1-Pad1)*%
X60080000Y-83000000D03*
%TD*%
D17*
%TO.P,U1,3*%
%TO.N,Net-(C9-Pad1)*%
X117000000Y-82040000D03*
%TO.P,U1,2*%
%TO.N,GND*%
X117000000Y-79500000D03*
D18*
%TO.P,U1,1*%
%TO.N,Net-(C1-Pad1)*%
X117000000Y-76960000D03*
%TD*%
D23*
%TO.P,R2,2*%
%TO.N,-12V*%
X147260000Y-114000000D03*
D13*
%TO.P,R2,1*%
%TO.N,Net-(D8-Pad1)*%
X139640000Y-114000000D03*
%TD*%
D23*
%TO.P,R1,2*%
%TO.N,+12V*%
X147160000Y-76200000D03*
D13*
%TO.P,R1,1*%
%TO.N,Net-(D7-Pad2)*%
X139540000Y-76200000D03*
%TD*%
D24*
%TO.P,J2,3*%
%TO.N,-12V*%
X145250000Y-100000000D03*
%TO.P,J2,2*%
%TO.N,GND*%
X145250000Y-95000000D03*
D25*
%TO.P,J2,1*%
%TO.N,+12V*%
X145250000Y-90000000D03*
%TD*%
D26*
%TO.P,F2,1*%
%TO.N,-12V*%
X146000000Y-109500000D03*
%TO.P,F2,2*%
%TO.N,Net-(C10-Pad2)*%
X140900000Y-107900000D03*
%TD*%
%TO.P,F1,1*%
%TO.N,+12V*%
X145900000Y-82200000D03*
%TO.P,F1,2*%
%TO.N,Net-(C9-Pad1)*%
X140800000Y-80600000D03*
%TD*%
D27*
%TO.P,D8,2*%
%TO.N,GND*%
X141000000Y-121540000D03*
D28*
%TO.P,D8,1*%
%TO.N,Net-(D8-Pad1)*%
X141000000Y-119000000D03*
%TD*%
D27*
%TO.P,D7,2*%
%TO.N,Net-(D7-Pad2)*%
X141000000Y-71240000D03*
D28*
%TO.P,D7,1*%
%TO.N,GND*%
X141000000Y-68700000D03*
%TD*%
D19*
%TO.P,D6,2*%
%TO.N,Net-(C10-Pad2)*%
X134160000Y-95777712D03*
D20*
%TO.P,D6,1*%
%TO.N,GND*%
X124000000Y-95777712D03*
%TD*%
D19*
%TO.P,D5,2*%
%TO.N,GND*%
X134160000Y-91180000D03*
D20*
%TO.P,D5,1*%
%TO.N,Net-(C9-Pad1)*%
X124000000Y-91180000D03*
%TD*%
D19*
%TO.P,D3,2*%
%TO.N,Net-(C9-Pad1)*%
X127160000Y-68500000D03*
D20*
%TO.P,D3,1*%
%TO.N,Net-(C1-Pad1)*%
X117000000Y-68500000D03*
%TD*%
D19*
%TO.P,D2,2*%
%TO.N,Net-(C2-Pad2)*%
X68160000Y-121000000D03*
D20*
%TO.P,D2,1*%
%TO.N,Net-(D1-Pad2)*%
X58000000Y-121000000D03*
%TD*%
D19*
%TO.P,D1,2*%
%TO.N,Net-(D1-Pad2)*%
X68160000Y-72000000D03*
D20*
%TO.P,D1,1*%
%TO.N,Net-(C1-Pad1)*%
X58000000Y-72000000D03*
%TD*%
D13*
%TO.P,C10,2*%
%TO.N,Net-(C10-Pad2)*%
X117000000Y-98000000D03*
D14*
%TO.P,C10,1*%
%TO.N,GND*%
X117000000Y-95500000D03*
%TD*%
D13*
%TO.P,C9,2*%
%TO.N,GND*%
X117000000Y-91500000D03*
D14*
%TO.P,C9,1*%
%TO.N,Net-(C9-Pad1)*%
X117000000Y-89000000D03*
%TD*%
D21*
%TO.P,C6,2*%
%TO.N,Net-(C2-Pad2)*%
X100000000Y-111000000D03*
D22*
%TO.P,C6,1*%
%TO.N,GND*%
X100000000Y-103500000D03*
%TD*%
D21*
%TO.P,C5,2*%
%TO.N,GND*%
X100000000Y-90500000D03*
D22*
%TO.P,C5,1*%
%TO.N,Net-(C1-Pad1)*%
X100000000Y-83000000D03*
%TD*%
D21*
%TO.P,C4,2*%
%TO.N,Net-(C2-Pad2)*%
X80000000Y-111000000D03*
D22*
%TO.P,C4,1*%
%TO.N,GND*%
X80000000Y-103500000D03*
%TD*%
D21*
%TO.P,C3,2*%
%TO.N,GND*%
X80000000Y-90500000D03*
D22*
%TO.P,C3,1*%
%TO.N,Net-(C1-Pad1)*%
X80000000Y-83000000D03*
%TD*%
D21*
%TO.P,C2,2*%
%TO.N,Net-(C2-Pad2)*%
X60080000Y-111000000D03*
D22*
%TO.P,C2,1*%
%TO.N,GND*%
X60080000Y-103500000D03*
%TD*%
D29*
%TO.N,Net-(C1-Pad1)*%
X60000000Y-83000000D02*
X80000000Y-83000000D01*
X80000000Y-83000000D02*
X100000000Y-83000000D01*
X117000000Y-68500000D02*
X117000000Y-76960000D01*
X114540000Y-76960000D02*
X117000000Y-76960000D01*
X111000000Y-80500000D02*
X114540000Y-76960000D01*
X102500000Y-80500000D02*
X111000000Y-80500000D01*
X100000000Y-83000000D02*
X102500000Y-80500000D01*
X60080000Y-74080000D02*
X60080000Y-83000000D01*
X58000000Y-72000000D02*
X60080000Y-74080000D01*
%TO.N,Net-(C2-Pad2)*%
X80000000Y-111000000D02*
X100000000Y-111000000D01*
X60080000Y-111000000D02*
X80000000Y-111000000D01*
X102500000Y-111000000D02*
X111000000Y-102500000D01*
X100000000Y-111000000D02*
X102500000Y-111000000D01*
X114868630Y-107500000D02*
X117000000Y-107500000D01*
X111000000Y-103631370D02*
X114868630Y-107500000D01*
X111000000Y-102500000D02*
X111000000Y-103631370D01*
X68160000Y-119500000D02*
X68160000Y-121000000D01*
X60080000Y-111420000D02*
X68160000Y-119500000D01*
X60080000Y-111000000D02*
X60080000Y-111420000D01*
X124660000Y-121000000D02*
X127160000Y-118500000D01*
X115139998Y-121000000D02*
X124660000Y-121000000D01*
X114500000Y-120360002D02*
X115139998Y-121000000D01*
X114500000Y-107868630D02*
X114500000Y-120360002D01*
X114868630Y-107500000D02*
X114500000Y-107868630D01*
%TO.N,Net-(C9-Pad1)*%
X127160000Y-74880000D02*
X120000000Y-82040000D01*
X120000000Y-82040000D02*
X117000000Y-82040000D01*
X127160000Y-68500000D02*
X127160000Y-74880000D01*
X117000000Y-82040000D02*
X117000000Y-89000000D01*
X121820000Y-89000000D02*
X124000000Y-91180000D01*
X117000000Y-89000000D02*
X121820000Y-89000000D01*
X134580000Y-80600000D02*
X124000000Y-91180000D01*
X140800000Y-80600000D02*
X134580000Y-80600000D01*
%TO.N,Net-(C10-Pad2)*%
X140900000Y-102517712D02*
X134160000Y-95777712D01*
X140900000Y-107900000D02*
X140900000Y-102517712D01*
X117799999Y-98799999D02*
X117000000Y-98000000D01*
X134160000Y-95777712D02*
X131137713Y-98799999D01*
X131137713Y-98799999D02*
X117799999Y-98799999D01*
X117000000Y-110059674D02*
X117000000Y-118500000D01*
X117019673Y-110040000D02*
X117009837Y-110049836D01*
X118960000Y-110040000D02*
X117019673Y-110040000D01*
X119500000Y-109500000D02*
X118960000Y-110040000D01*
X119500000Y-103500000D02*
X119500000Y-109500000D01*
X117000000Y-101000000D02*
X119500000Y-103500000D01*
X117000000Y-98000000D02*
X117000000Y-101000000D01*
%TO.N,Net-(D1-Pad2)*%
X55699999Y-113699999D02*
X58000000Y-116000000D01*
X55939999Y-69699999D02*
X55699999Y-69939999D01*
X65859999Y-69699999D02*
X55939999Y-69699999D01*
X58000000Y-116000000D02*
X58000000Y-121000000D01*
X55699999Y-69939999D02*
X55699999Y-113699999D01*
X68160000Y-72000000D02*
X65859999Y-69699999D01*
X73500000Y-72000000D02*
X74000000Y-72500000D01*
X68160000Y-72000000D02*
X73500000Y-72000000D01*
X77750000Y-68750000D02*
X86500000Y-68750000D01*
X74000000Y-72500000D02*
X77750000Y-68750000D01*
X94250000Y-68750000D02*
X98000000Y-72500000D01*
X86500000Y-68750000D02*
X94250000Y-68750000D01*
%TO.N,Net-(D7-Pad2)*%
X141000000Y-74740000D02*
X139540000Y-76200000D01*
X141000000Y-71240000D02*
X141000000Y-74740000D01*
%TO.N,Net-(D8-Pad1)*%
X141000000Y-115360000D02*
X139640000Y-114000000D01*
X141000000Y-119000000D02*
X141000000Y-115360000D01*
%TO.N,+12V*%
X147160000Y-80840000D02*
X146000000Y-82000000D01*
X147160000Y-76200000D02*
X147160000Y-80840000D01*
X145900000Y-89350000D02*
X145250000Y-90000000D01*
X145900000Y-82200000D02*
X145900000Y-89350000D01*
%TO.N,-12V*%
X145250000Y-108750000D02*
X146000000Y-109500000D01*
X145250000Y-100000000D02*
X145250000Y-108750000D01*
X146000000Y-112740000D02*
X147260000Y-114000000D01*
X146000000Y-109500000D02*
X146000000Y-112740000D01*
%TD*%
D30*
%TO.N,GND*%
X149340001Y-124340000D02*
X50660000Y-124340000D01*
X50660000Y-121779872D01*
X50765000Y-121779872D01*
X50765000Y-122220128D01*
X50850890Y-122651925D01*
X51019369Y-123058669D01*
X51263962Y-123424729D01*
X51575271Y-123736038D01*
X51941331Y-123980631D01*
X52348075Y-124149110D01*
X52779872Y-124235000D01*
X53220128Y-124235000D01*
X53651925Y-124149110D01*
X54058669Y-123980631D01*
X54424729Y-123736038D01*
X54736038Y-123424729D01*
X54980631Y-123058669D01*
X55149110Y-122651925D01*
X55235000Y-122220128D01*
X55235000Y-121779872D01*
X55149110Y-121348075D01*
X54980631Y-120941331D01*
X54736038Y-120575271D01*
X54424729Y-120263962D01*
X54058669Y-120019369D01*
X53651925Y-119850890D01*
X53220128Y-119765000D01*
X52779872Y-119765000D01*
X52348075Y-119850890D01*
X51941331Y-120019369D01*
X51575271Y-120263962D01*
X51263962Y-120575271D01*
X51019369Y-120941331D01*
X50850890Y-121348075D01*
X50765000Y-121779872D01*
X50660000Y-121779872D01*
X50660000Y-69939999D01*
X54057088Y-69939999D01*
X54064999Y-70020318D01*
X54065000Y-113619670D01*
X54057088Y-113699999D01*
X54088657Y-114020515D01*
X54182147Y-114328713D01*
X54264160Y-114482148D01*
X54333969Y-114612751D01*
X54538286Y-114861713D01*
X54600681Y-114912919D01*
X56365000Y-116677240D01*
X56365001Y-119553854D01*
X56310498Y-119655820D01*
X56274188Y-119775518D01*
X56261928Y-119900000D01*
X56261928Y-122100000D01*
X56274188Y-122224482D01*
X56310498Y-122344180D01*
X56369463Y-122454494D01*
X56448815Y-122551185D01*
X56545506Y-122630537D01*
X56655820Y-122689502D01*
X56775518Y-122725812D01*
X56900000Y-122738072D01*
X59100000Y-122738072D01*
X59224482Y-122725812D01*
X59344180Y-122689502D01*
X59454494Y-122630537D01*
X59551185Y-122551185D01*
X59630537Y-122454494D01*
X59689502Y-122344180D01*
X59725812Y-122224482D01*
X59738072Y-122100000D01*
X59738072Y-119900000D01*
X59725812Y-119775518D01*
X59689502Y-119655820D01*
X59635000Y-119553856D01*
X59635000Y-116080322D01*
X59642911Y-116000000D01*
X59611343Y-115679483D01*
X59517852Y-115371285D01*
X59515043Y-115366030D01*
X59366031Y-115087248D01*
X59161714Y-114838286D01*
X59099325Y-114787085D01*
X57334999Y-113022761D01*
X57334999Y-110819268D01*
X58245000Y-110819268D01*
X58245000Y-111180732D01*
X58315518Y-111535250D01*
X58453844Y-111869199D01*
X58552466Y-112016797D01*
X58562148Y-112048715D01*
X58713969Y-112332752D01*
X58918286Y-112581714D01*
X58980686Y-112632924D01*
X66525000Y-120177240D01*
X66525000Y-120413465D01*
X66491675Y-120493919D01*
X66425000Y-120829117D01*
X66425000Y-121170883D01*
X66491675Y-121506081D01*
X66622463Y-121821831D01*
X66812337Y-122105998D01*
X67054002Y-122347663D01*
X67338169Y-122537537D01*
X67653919Y-122668325D01*
X67989117Y-122735000D01*
X68330883Y-122735000D01*
X68666081Y-122668325D01*
X68981831Y-122537537D01*
X69265998Y-122347663D01*
X69507663Y-122105998D01*
X69697537Y-121821831D01*
X69828325Y-121506081D01*
X69895000Y-121170883D01*
X69895000Y-120829117D01*
X69828325Y-120493919D01*
X69795000Y-120413465D01*
X69795000Y-119580322D01*
X69802911Y-119500000D01*
X69771343Y-119179483D01*
X69677852Y-118871285D01*
X69650715Y-118820516D01*
X69526031Y-118587248D01*
X69321714Y-118338286D01*
X69259325Y-118287085D01*
X63607239Y-112635000D01*
X79152152Y-112635000D01*
X79464750Y-112764482D01*
X79819268Y-112835000D01*
X80180732Y-112835000D01*
X80535250Y-112764482D01*
X80847848Y-112635000D01*
X99152152Y-112635000D01*
X99464750Y-112764482D01*
X99819268Y-112835000D01*
X100180732Y-112835000D01*
X100535250Y-112764482D01*
X100847848Y-112635000D01*
X102419681Y-112635000D01*
X102500000Y-112642911D01*
X102580319Y-112635000D01*
X102580322Y-112635000D01*
X102820516Y-112611343D01*
X103128715Y-112517852D01*
X103412752Y-112366031D01*
X103661714Y-112161714D01*
X103712925Y-112099313D01*
X110434315Y-105377923D01*
X112863180Y-107806789D01*
X112857089Y-107868630D01*
X112865000Y-107948949D01*
X112865001Y-120279673D01*
X112857089Y-120360002D01*
X112888658Y-120680518D01*
X112982148Y-120988716D01*
X113133970Y-121272754D01*
X113338287Y-121521716D01*
X113400682Y-121572922D01*
X113927073Y-122099313D01*
X113978284Y-122161714D01*
X114227246Y-122366031D01*
X114392749Y-122454494D01*
X114511283Y-122517852D01*
X114819481Y-122611343D01*
X115139998Y-122642911D01*
X115220320Y-122635000D01*
X124579681Y-122635000D01*
X124660000Y-122642911D01*
X124740319Y-122635000D01*
X124740322Y-122635000D01*
X124980516Y-122611343D01*
X125004458Y-122604080D01*
X140115525Y-122604080D01*
X140199208Y-122858261D01*
X140471775Y-122989158D01*
X140764642Y-123064365D01*
X141066553Y-123080991D01*
X141365907Y-123038397D01*
X141651199Y-122938222D01*
X141800792Y-122858261D01*
X141884475Y-122604080D01*
X141000000Y-121719605D01*
X140115525Y-122604080D01*
X125004458Y-122604080D01*
X125288715Y-122517852D01*
X125572752Y-122366031D01*
X125821714Y-122161714D01*
X125872925Y-122099313D01*
X127901376Y-120070862D01*
X127981831Y-120037537D01*
X128265998Y-119847663D01*
X128507663Y-119605998D01*
X128697537Y-119321831D01*
X128828325Y-119006081D01*
X128895000Y-118670883D01*
X128895000Y-118329117D01*
X128828325Y-117993919D01*
X128697537Y-117678169D01*
X128507663Y-117394002D01*
X128265998Y-117152337D01*
X127981831Y-116962463D01*
X127666081Y-116831675D01*
X127330883Y-116765000D01*
X126989117Y-116765000D01*
X126653919Y-116831675D01*
X126338169Y-116962463D01*
X126054002Y-117152337D01*
X125812337Y-117394002D01*
X125622463Y-117678169D01*
X125589138Y-117758624D01*
X123982762Y-119365000D01*
X118738072Y-119365000D01*
X118738072Y-117400000D01*
X118725812Y-117275518D01*
X118689502Y-117155820D01*
X118635000Y-117053856D01*
X118635000Y-114000000D01*
X137997089Y-114000000D01*
X138028658Y-114320516D01*
X138122148Y-114628714D01*
X138273970Y-114912752D01*
X138427085Y-115099323D01*
X139365001Y-116037239D01*
X139365000Y-119080321D01*
X139388657Y-119320515D01*
X139461928Y-119562057D01*
X139461928Y-119900000D01*
X139474188Y-120024482D01*
X139510498Y-120144180D01*
X139569463Y-120254494D01*
X139648815Y-120351185D01*
X139745506Y-120430537D01*
X139855820Y-120489502D01*
X139866735Y-120492813D01*
X139819970Y-120539578D01*
X139935918Y-120655526D01*
X139681739Y-120739208D01*
X139550842Y-121011775D01*
X139475635Y-121304642D01*
X139459009Y-121606553D01*
X139501603Y-121905907D01*
X139601778Y-122191199D01*
X139681739Y-122340792D01*
X139935920Y-122424475D01*
X140820395Y-121540000D01*
X140806253Y-121525858D01*
X140985858Y-121346253D01*
X141000000Y-121360395D01*
X141014143Y-121346253D01*
X141193748Y-121525858D01*
X141179605Y-121540000D01*
X142064080Y-122424475D01*
X142318261Y-122340792D01*
X142449158Y-122068225D01*
X142523205Y-121779872D01*
X144765000Y-121779872D01*
X144765000Y-122220128D01*
X144850890Y-122651925D01*
X145019369Y-123058669D01*
X145263962Y-123424729D01*
X145575271Y-123736038D01*
X145941331Y-123980631D01*
X146348075Y-124149110D01*
X146779872Y-124235000D01*
X147220128Y-124235000D01*
X147651925Y-124149110D01*
X148058669Y-123980631D01*
X148424729Y-123736038D01*
X148736038Y-123424729D01*
X148980631Y-123058669D01*
X149149110Y-122651925D01*
X149235000Y-122220128D01*
X149235000Y-121779872D01*
X149149110Y-121348075D01*
X148980631Y-120941331D01*
X148736038Y-120575271D01*
X148424729Y-120263962D01*
X148058669Y-120019369D01*
X147651925Y-119850890D01*
X147220128Y-119765000D01*
X146779872Y-119765000D01*
X146348075Y-119850890D01*
X145941331Y-120019369D01*
X145575271Y-120263962D01*
X145263962Y-120575271D01*
X145019369Y-120941331D01*
X144850890Y-121348075D01*
X144765000Y-121779872D01*
X142523205Y-121779872D01*
X142524365Y-121775358D01*
X142540991Y-121473447D01*
X142498397Y-121174093D01*
X142398222Y-120888801D01*
X142318261Y-120739208D01*
X142064082Y-120655526D01*
X142180030Y-120539578D01*
X142133265Y-120492813D01*
X142144180Y-120489502D01*
X142254494Y-120430537D01*
X142351185Y-120351185D01*
X142430537Y-120254494D01*
X142489502Y-120144180D01*
X142525812Y-120024482D01*
X142538072Y-119900000D01*
X142538072Y-119562058D01*
X142611343Y-119320516D01*
X142635000Y-119080322D01*
X142635000Y-115440319D01*
X142642911Y-115359999D01*
X142634212Y-115271680D01*
X142611343Y-115039484D01*
X142517852Y-114731285D01*
X142366031Y-114447248D01*
X142161714Y-114198286D01*
X142099318Y-114147079D01*
X140739323Y-112787085D01*
X140552752Y-112633970D01*
X140268714Y-112482148D01*
X139960516Y-112388658D01*
X139640000Y-112357089D01*
X139319484Y-112388658D01*
X139011286Y-112482148D01*
X138727248Y-112633970D01*
X138478287Y-112838287D01*
X138273970Y-113087248D01*
X138122148Y-113371286D01*
X138028658Y-113679484D01*
X137997089Y-114000000D01*
X118635000Y-114000000D01*
X118635000Y-111675000D01*
X118879681Y-111675000D01*
X118960000Y-111682911D01*
X119040319Y-111675000D01*
X119040322Y-111675000D01*
X119280516Y-111651343D01*
X119588715Y-111557852D01*
X119872752Y-111406031D01*
X120121714Y-111201714D01*
X120172925Y-111139313D01*
X120599313Y-110712925D01*
X120661714Y-110661714D01*
X120866031Y-110412752D01*
X121017852Y-110128715D01*
X121111343Y-109820516D01*
X121135000Y-109580322D01*
X121135000Y-109580320D01*
X121142911Y-109500001D01*
X121135000Y-109419678D01*
X121135000Y-103580319D01*
X121142911Y-103500000D01*
X121135000Y-103419678D01*
X121111343Y-103179484D01*
X121017852Y-102871285D01*
X120866031Y-102587248D01*
X120661714Y-102338286D01*
X120599320Y-102287081D01*
X118747237Y-100434999D01*
X131057394Y-100434999D01*
X131137713Y-100442910D01*
X131218032Y-100434999D01*
X131218035Y-100434999D01*
X131458229Y-100411342D01*
X131766428Y-100317851D01*
X132050465Y-100166030D01*
X132299427Y-99961713D01*
X132350638Y-99899312D01*
X134160000Y-98089950D01*
X139265001Y-103194952D01*
X139265000Y-107980321D01*
X139288657Y-108220515D01*
X139382148Y-108528714D01*
X139533969Y-108812751D01*
X139738286Y-109061714D01*
X139987248Y-109266031D01*
X140271285Y-109417852D01*
X140579484Y-109511343D01*
X140900000Y-109542911D01*
X141220515Y-109511343D01*
X141528714Y-109417852D01*
X141812751Y-109266031D01*
X142061714Y-109061714D01*
X142266031Y-108812752D01*
X142417852Y-108528715D01*
X142511343Y-108220516D01*
X142535000Y-107980322D01*
X142535000Y-102598031D01*
X142542911Y-102517711D01*
X142535000Y-102437390D01*
X142511343Y-102197196D01*
X142417852Y-101888997D01*
X142266031Y-101604960D01*
X142061714Y-101355998D01*
X141999319Y-101304792D01*
X140508871Y-99814344D01*
X143365000Y-99814344D01*
X143365000Y-100185656D01*
X143437439Y-100549834D01*
X143579534Y-100892882D01*
X143615000Y-100945961D01*
X143615001Y-108669671D01*
X143607089Y-108750000D01*
X143638658Y-109070516D01*
X143732148Y-109378714D01*
X143836885Y-109574662D01*
X143883970Y-109662752D01*
X144088287Y-109911714D01*
X144150682Y-109962920D01*
X144365000Y-110177238D01*
X144365001Y-112659671D01*
X144357089Y-112740000D01*
X144388658Y-113060516D01*
X144482148Y-113368714D01*
X144595845Y-113581426D01*
X144633970Y-113652752D01*
X144838287Y-113901714D01*
X144900682Y-113952920D01*
X146160676Y-115212915D01*
X146347247Y-115366030D01*
X146631285Y-115517852D01*
X146939483Y-115611342D01*
X147259999Y-115642911D01*
X147580516Y-115611342D01*
X147888714Y-115517852D01*
X148172752Y-115366030D01*
X148421713Y-115161713D01*
X148626030Y-114912752D01*
X148777852Y-114628714D01*
X148871342Y-114320516D01*
X148902911Y-113999999D01*
X148871342Y-113679483D01*
X148777852Y-113371285D01*
X148626030Y-113087247D01*
X148472915Y-112900676D01*
X147635000Y-112062762D01*
X147635000Y-109580319D01*
X147642911Y-109499999D01*
X147634173Y-109411285D01*
X147611343Y-109179484D01*
X147517852Y-108871285D01*
X147366031Y-108587248D01*
X147161714Y-108338286D01*
X147099314Y-108287076D01*
X146885000Y-108072762D01*
X146885000Y-100945961D01*
X146920466Y-100892882D01*
X147062561Y-100549834D01*
X147135000Y-100185656D01*
X147135000Y-99814344D01*
X147062561Y-99450166D01*
X146920466Y-99107118D01*
X146714175Y-98798382D01*
X146451618Y-98535825D01*
X146142882Y-98329534D01*
X145799834Y-98187439D01*
X145435656Y-98115000D01*
X145064344Y-98115000D01*
X144700166Y-98187439D01*
X144357118Y-98329534D01*
X144048382Y-98535825D01*
X143785825Y-98798382D01*
X143579534Y-99107118D01*
X143437439Y-99450166D01*
X143365000Y-99814344D01*
X140508871Y-99814344D01*
X137008132Y-96313605D01*
X144116000Y-96313605D01*
X144241914Y-96603577D01*
X144574126Y-96769433D01*
X144932312Y-96867290D01*
X145302706Y-96893389D01*
X145671075Y-96846725D01*
X146023262Y-96729094D01*
X146258086Y-96603577D01*
X146384000Y-96313605D01*
X145250000Y-95179605D01*
X144116000Y-96313605D01*
X137008132Y-96313605D01*
X135747233Y-95052706D01*
X143356611Y-95052706D01*
X143403275Y-95421075D01*
X143520906Y-95773262D01*
X143646423Y-96008086D01*
X143936395Y-96134000D01*
X145070395Y-95000000D01*
X145429605Y-95000000D01*
X146563605Y-96134000D01*
X146853577Y-96008086D01*
X147019433Y-95675874D01*
X147117290Y-95317688D01*
X147143389Y-94947294D01*
X147096725Y-94578925D01*
X146979094Y-94226738D01*
X146853577Y-93991914D01*
X146563605Y-93866000D01*
X145429605Y-95000000D01*
X145070395Y-95000000D01*
X143936395Y-93866000D01*
X143646423Y-93991914D01*
X143480567Y-94324126D01*
X143382710Y-94682312D01*
X143356611Y-95052706D01*
X135747233Y-95052706D01*
X135730863Y-95036337D01*
X135697537Y-94955881D01*
X135507663Y-94671714D01*
X135265998Y-94430049D01*
X134981831Y-94240175D01*
X134666081Y-94109387D01*
X134330883Y-94042712D01*
X133989117Y-94042712D01*
X133653919Y-94109387D01*
X133338169Y-94240175D01*
X133054002Y-94430049D01*
X132812337Y-94671714D01*
X132622463Y-94955881D01*
X132589138Y-95036336D01*
X130460475Y-97164999D01*
X125666460Y-97164999D01*
X125689502Y-97121892D01*
X125725812Y-97002194D01*
X125738072Y-96877712D01*
X125735000Y-96063462D01*
X125576250Y-95904712D01*
X124127000Y-95904712D01*
X124127000Y-95924712D01*
X123873000Y-95924712D01*
X123873000Y-95904712D01*
X122423750Y-95904712D01*
X122265000Y-96063462D01*
X122261928Y-96877712D01*
X122274188Y-97002194D01*
X122310498Y-97121892D01*
X122333540Y-97164999D01*
X118477237Y-97164999D01*
X118212925Y-96900687D01*
X118161714Y-96838286D01*
X118153148Y-96831256D01*
X118154494Y-96830537D01*
X118251185Y-96751185D01*
X118330537Y-96654494D01*
X118389502Y-96544180D01*
X118425812Y-96424482D01*
X118438072Y-96300000D01*
X118435000Y-95785750D01*
X118276250Y-95627000D01*
X117127000Y-95627000D01*
X117127000Y-95647000D01*
X116873000Y-95647000D01*
X116873000Y-95627000D01*
X115723750Y-95627000D01*
X115565000Y-95785750D01*
X115561928Y-96300000D01*
X115574188Y-96424482D01*
X115610498Y-96544180D01*
X115669463Y-96654494D01*
X115748815Y-96751185D01*
X115845506Y-96830537D01*
X115846852Y-96831256D01*
X115838286Y-96838286D01*
X115633969Y-97087249D01*
X115482148Y-97371286D01*
X115388657Y-97679485D01*
X115365000Y-97919678D01*
X115357089Y-98000000D01*
X115365000Y-98080320D01*
X115365001Y-100919671D01*
X115357089Y-101000000D01*
X115388658Y-101320516D01*
X115482148Y-101628714D01*
X115525863Y-101710498D01*
X115633970Y-101912752D01*
X115838287Y-102161714D01*
X115900682Y-102212920D01*
X117173006Y-103485244D01*
X117127000Y-103531250D01*
X117127000Y-104833000D01*
X117147000Y-104833000D01*
X117147000Y-105087000D01*
X117127000Y-105087000D01*
X117127000Y-105107000D01*
X116873000Y-105107000D01*
X116873000Y-105087000D01*
X115523750Y-105087000D01*
X115365000Y-105245750D01*
X115362989Y-105682121D01*
X113688368Y-104007500D01*
X115361928Y-104007500D01*
X115365000Y-104674250D01*
X115523750Y-104833000D01*
X116873000Y-104833000D01*
X116873000Y-103531250D01*
X116714250Y-103372500D01*
X116000000Y-103369428D01*
X115875518Y-103381688D01*
X115755820Y-103417998D01*
X115645506Y-103476963D01*
X115548815Y-103556315D01*
X115469463Y-103653006D01*
X115410498Y-103763320D01*
X115374188Y-103883018D01*
X115361928Y-104007500D01*
X113688368Y-104007500D01*
X112635000Y-102954132D01*
X112635000Y-102580320D01*
X112642911Y-102500001D01*
X112635000Y-102419678D01*
X112611343Y-102179484D01*
X112517852Y-101871285D01*
X112366031Y-101587248D01*
X112161714Y-101338286D01*
X112153148Y-101331256D01*
X112154494Y-101330537D01*
X112251185Y-101251185D01*
X112330537Y-101154494D01*
X112389502Y-101044180D01*
X112425812Y-100924482D01*
X112438072Y-100800000D01*
X112435000Y-100285750D01*
X112276250Y-100127000D01*
X111127000Y-100127000D01*
X111127000Y-100147000D01*
X110873000Y-100147000D01*
X110873000Y-100127000D01*
X109723750Y-100127000D01*
X109565000Y-100285750D01*
X109561928Y-100800000D01*
X109574188Y-100924482D01*
X109610498Y-101044180D01*
X109669463Y-101154494D01*
X109748815Y-101251185D01*
X109845506Y-101330537D01*
X109846852Y-101331256D01*
X109838286Y-101338286D01*
X109787081Y-101400680D01*
X101822762Y-109365000D01*
X100847848Y-109365000D01*
X100535250Y-109235518D01*
X100180732Y-109165000D01*
X99819268Y-109165000D01*
X99464750Y-109235518D01*
X99152152Y-109365000D01*
X80847848Y-109365000D01*
X80535250Y-109235518D01*
X80180732Y-109165000D01*
X79819268Y-109165000D01*
X79464750Y-109235518D01*
X79152152Y-109365000D01*
X60927848Y-109365000D01*
X60615250Y-109235518D01*
X60260732Y-109165000D01*
X59899268Y-109165000D01*
X59544750Y-109235518D01*
X59210801Y-109373844D01*
X58910256Y-109574662D01*
X58654662Y-109830256D01*
X58453844Y-110130801D01*
X58315518Y-110464750D01*
X58245000Y-110819268D01*
X57334999Y-110819268D01*
X57334999Y-104700000D01*
X58241928Y-104700000D01*
X58254188Y-104824482D01*
X58290498Y-104944180D01*
X58349463Y-105054494D01*
X58428815Y-105151185D01*
X58525506Y-105230537D01*
X58635820Y-105289502D01*
X58755518Y-105325812D01*
X58880000Y-105338072D01*
X59794250Y-105335000D01*
X59953000Y-105176250D01*
X59953000Y-103627000D01*
X60207000Y-103627000D01*
X60207000Y-105176250D01*
X60365750Y-105335000D01*
X61280000Y-105338072D01*
X61404482Y-105325812D01*
X61524180Y-105289502D01*
X61634494Y-105230537D01*
X61731185Y-105151185D01*
X61810537Y-105054494D01*
X61869502Y-104944180D01*
X61905812Y-104824482D01*
X61918072Y-104700000D01*
X78161928Y-104700000D01*
X78174188Y-104824482D01*
X78210498Y-104944180D01*
X78269463Y-105054494D01*
X78348815Y-105151185D01*
X78445506Y-105230537D01*
X78555820Y-105289502D01*
X78675518Y-105325812D01*
X78800000Y-105338072D01*
X79714250Y-105335000D01*
X79873000Y-105176250D01*
X79873000Y-103627000D01*
X80127000Y-103627000D01*
X80127000Y-105176250D01*
X80285750Y-105335000D01*
X81200000Y-105338072D01*
X81324482Y-105325812D01*
X81444180Y-105289502D01*
X81554494Y-105230537D01*
X81651185Y-105151185D01*
X81730537Y-105054494D01*
X81789502Y-104944180D01*
X81825812Y-104824482D01*
X81838072Y-104700000D01*
X98161928Y-104700000D01*
X98174188Y-104824482D01*
X98210498Y-104944180D01*
X98269463Y-105054494D01*
X98348815Y-105151185D01*
X98445506Y-105230537D01*
X98555820Y-105289502D01*
X98675518Y-105325812D01*
X98800000Y-105338072D01*
X99714250Y-105335000D01*
X99873000Y-105176250D01*
X99873000Y-103627000D01*
X100127000Y-103627000D01*
X100127000Y-105176250D01*
X100285750Y-105335000D01*
X101200000Y-105338072D01*
X101324482Y-105325812D01*
X101444180Y-105289502D01*
X101554494Y-105230537D01*
X101651185Y-105151185D01*
X101730537Y-105054494D01*
X101789502Y-104944180D01*
X101825812Y-104824482D01*
X101838072Y-104700000D01*
X101835000Y-103785750D01*
X101676250Y-103627000D01*
X100127000Y-103627000D01*
X99873000Y-103627000D01*
X98323750Y-103627000D01*
X98165000Y-103785750D01*
X98161928Y-104700000D01*
X81838072Y-104700000D01*
X81835000Y-103785750D01*
X81676250Y-103627000D01*
X80127000Y-103627000D01*
X79873000Y-103627000D01*
X78323750Y-103627000D01*
X78165000Y-103785750D01*
X78161928Y-104700000D01*
X61918072Y-104700000D01*
X61915000Y-103785750D01*
X61756250Y-103627000D01*
X60207000Y-103627000D01*
X59953000Y-103627000D01*
X58403750Y-103627000D01*
X58245000Y-103785750D01*
X58241928Y-104700000D01*
X57334999Y-104700000D01*
X57334999Y-102300000D01*
X58241928Y-102300000D01*
X58245000Y-103214250D01*
X58403750Y-103373000D01*
X59953000Y-103373000D01*
X59953000Y-101823750D01*
X60207000Y-101823750D01*
X60207000Y-103373000D01*
X61756250Y-103373000D01*
X61915000Y-103214250D01*
X61918072Y-102300000D01*
X78161928Y-102300000D01*
X78165000Y-103214250D01*
X78323750Y-103373000D01*
X79873000Y-103373000D01*
X79873000Y-101823750D01*
X80127000Y-101823750D01*
X80127000Y-103373000D01*
X81676250Y-103373000D01*
X81835000Y-103214250D01*
X81838072Y-102300000D01*
X98161928Y-102300000D01*
X98165000Y-103214250D01*
X98323750Y-103373000D01*
X99873000Y-103373000D01*
X99873000Y-101823750D01*
X100127000Y-101823750D01*
X100127000Y-103373000D01*
X101676250Y-103373000D01*
X101835000Y-103214250D01*
X101838072Y-102300000D01*
X101825812Y-102175518D01*
X101789502Y-102055820D01*
X101730537Y-101945506D01*
X101651185Y-101848815D01*
X101554494Y-101769463D01*
X101444180Y-101710498D01*
X101324482Y-101674188D01*
X101200000Y-101661928D01*
X100285750Y-101665000D01*
X100127000Y-101823750D01*
X99873000Y-101823750D01*
X99714250Y-101665000D01*
X98800000Y-101661928D01*
X98675518Y-101674188D01*
X98555820Y-101710498D01*
X98445506Y-101769463D01*
X98348815Y-101848815D01*
X98269463Y-101945506D01*
X98210498Y-102055820D01*
X98174188Y-102175518D01*
X98161928Y-102300000D01*
X81838072Y-102300000D01*
X81825812Y-102175518D01*
X81789502Y-102055820D01*
X81730537Y-101945506D01*
X81651185Y-101848815D01*
X81554494Y-101769463D01*
X81444180Y-101710498D01*
X81324482Y-101674188D01*
X81200000Y-101661928D01*
X80285750Y-101665000D01*
X80127000Y-101823750D01*
X79873000Y-101823750D01*
X79714250Y-101665000D01*
X78800000Y-101661928D01*
X78675518Y-101674188D01*
X78555820Y-101710498D01*
X78445506Y-101769463D01*
X78348815Y-101848815D01*
X78269463Y-101945506D01*
X78210498Y-102055820D01*
X78174188Y-102175518D01*
X78161928Y-102300000D01*
X61918072Y-102300000D01*
X61905812Y-102175518D01*
X61869502Y-102055820D01*
X61810537Y-101945506D01*
X61731185Y-101848815D01*
X61634494Y-101769463D01*
X61524180Y-101710498D01*
X61404482Y-101674188D01*
X61280000Y-101661928D01*
X60365750Y-101665000D01*
X60207000Y-101823750D01*
X59953000Y-101823750D01*
X59794250Y-101665000D01*
X58880000Y-101661928D01*
X58755518Y-101674188D01*
X58635820Y-101710498D01*
X58525506Y-101769463D01*
X58428815Y-101848815D01*
X58349463Y-101945506D01*
X58290498Y-102055820D01*
X58254188Y-102175518D01*
X58241928Y-102300000D01*
X57334999Y-102300000D01*
X57334999Y-99200000D01*
X109561928Y-99200000D01*
X109565000Y-99714250D01*
X109723750Y-99873000D01*
X110873000Y-99873000D01*
X110873000Y-98723750D01*
X111127000Y-98723750D01*
X111127000Y-99873000D01*
X112276250Y-99873000D01*
X112435000Y-99714250D01*
X112438072Y-99200000D01*
X112425812Y-99075518D01*
X112389502Y-98955820D01*
X112330537Y-98845506D01*
X112251185Y-98748815D01*
X112154494Y-98669463D01*
X112044180Y-98610498D01*
X111924482Y-98574188D01*
X111800000Y-98561928D01*
X111285750Y-98565000D01*
X111127000Y-98723750D01*
X110873000Y-98723750D01*
X110714250Y-98565000D01*
X110200000Y-98561928D01*
X110075518Y-98574188D01*
X109955820Y-98610498D01*
X109845506Y-98669463D01*
X109748815Y-98748815D01*
X109669463Y-98845506D01*
X109610498Y-98955820D01*
X109574188Y-99075518D01*
X109561928Y-99200000D01*
X57334999Y-99200000D01*
X57334999Y-94700000D01*
X115561928Y-94700000D01*
X115565000Y-95214250D01*
X115723750Y-95373000D01*
X116873000Y-95373000D01*
X116873000Y-94223750D01*
X117127000Y-94223750D01*
X117127000Y-95373000D01*
X118276250Y-95373000D01*
X118435000Y-95214250D01*
X118438072Y-94700000D01*
X118435877Y-94677712D01*
X122261928Y-94677712D01*
X122265000Y-95491962D01*
X122423750Y-95650712D01*
X123873000Y-95650712D01*
X123873000Y-94201462D01*
X124127000Y-94201462D01*
X124127000Y-95650712D01*
X125576250Y-95650712D01*
X125735000Y-95491962D01*
X125738072Y-94677712D01*
X125725812Y-94553230D01*
X125689502Y-94433532D01*
X125630537Y-94323218D01*
X125551185Y-94226527D01*
X125454494Y-94147175D01*
X125344180Y-94088210D01*
X125224482Y-94051900D01*
X125100000Y-94039640D01*
X124285750Y-94042712D01*
X124127000Y-94201462D01*
X123873000Y-94201462D01*
X123714250Y-94042712D01*
X122900000Y-94039640D01*
X122775518Y-94051900D01*
X122655820Y-94088210D01*
X122545506Y-94147175D01*
X122448815Y-94226527D01*
X122369463Y-94323218D01*
X122310498Y-94433532D01*
X122274188Y-94553230D01*
X122261928Y-94677712D01*
X118435877Y-94677712D01*
X118425812Y-94575518D01*
X118389502Y-94455820D01*
X118330537Y-94345506D01*
X118251185Y-94248815D01*
X118154494Y-94169463D01*
X118044180Y-94110498D01*
X117924482Y-94074188D01*
X117800000Y-94061928D01*
X117285750Y-94065000D01*
X117127000Y-94223750D01*
X116873000Y-94223750D01*
X116714250Y-94065000D01*
X116200000Y-94061928D01*
X116075518Y-94074188D01*
X115955820Y-94110498D01*
X115845506Y-94169463D01*
X115748815Y-94248815D01*
X115669463Y-94345506D01*
X115610498Y-94455820D01*
X115574188Y-94575518D01*
X115561928Y-94700000D01*
X57334999Y-94700000D01*
X57334999Y-93686395D01*
X144116000Y-93686395D01*
X145250000Y-94820395D01*
X146384000Y-93686395D01*
X146258086Y-93396423D01*
X145925874Y-93230567D01*
X145567688Y-93132710D01*
X145197294Y-93106611D01*
X144828925Y-93153275D01*
X144476738Y-93270906D01*
X144241914Y-93396423D01*
X144116000Y-93686395D01*
X57334999Y-93686395D01*
X57334999Y-92492702D01*
X116186903Y-92492702D01*
X116258486Y-92736671D01*
X116513996Y-92857571D01*
X116788184Y-92926300D01*
X117070512Y-92940217D01*
X117350130Y-92898787D01*
X117616292Y-92803603D01*
X117741514Y-92736671D01*
X117813097Y-92492702D01*
X117000000Y-91679605D01*
X116186903Y-92492702D01*
X57334999Y-92492702D01*
X57334999Y-91777980D01*
X58981626Y-91777980D01*
X59101514Y-92062836D01*
X59425210Y-92223699D01*
X59774069Y-92318322D01*
X60134684Y-92343067D01*
X60493198Y-92296985D01*
X60835833Y-92181846D01*
X61058486Y-92062836D01*
X61178374Y-91777980D01*
X78901626Y-91777980D01*
X79021514Y-92062836D01*
X79345210Y-92223699D01*
X79694069Y-92318322D01*
X80054684Y-92343067D01*
X80413198Y-92296985D01*
X80755833Y-92181846D01*
X80978486Y-92062836D01*
X81098374Y-91777980D01*
X98901626Y-91777980D01*
X99021514Y-92062836D01*
X99345210Y-92223699D01*
X99694069Y-92318322D01*
X100054684Y-92343067D01*
X100413198Y-92296985D01*
X100755833Y-92181846D01*
X100978486Y-92062836D01*
X101098374Y-91777980D01*
X100000000Y-90679605D01*
X98901626Y-91777980D01*
X81098374Y-91777980D01*
X80000000Y-90679605D01*
X78901626Y-91777980D01*
X61178374Y-91777980D01*
X60080000Y-90679605D01*
X58981626Y-91777980D01*
X57334999Y-91777980D01*
X57334999Y-90554684D01*
X58236933Y-90554684D01*
X58283015Y-90913198D01*
X58398154Y-91255833D01*
X58517164Y-91478486D01*
X58802020Y-91598374D01*
X59900395Y-90500000D01*
X60259605Y-90500000D01*
X61357980Y-91598374D01*
X61642836Y-91478486D01*
X61803699Y-91154790D01*
X61898322Y-90805931D01*
X61915562Y-90554684D01*
X78156933Y-90554684D01*
X78203015Y-90913198D01*
X78318154Y-91255833D01*
X78437164Y-91478486D01*
X78722020Y-91598374D01*
X79820395Y-90500000D01*
X80179605Y-90500000D01*
X81277980Y-91598374D01*
X81562836Y-91478486D01*
X81723699Y-91154790D01*
X81818322Y-90805931D01*
X81835562Y-90554684D01*
X98156933Y-90554684D01*
X98203015Y-90913198D01*
X98318154Y-91255833D01*
X98437164Y-91478486D01*
X98722020Y-91598374D01*
X99820395Y-90500000D01*
X100179605Y-90500000D01*
X101277980Y-91598374D01*
X101344180Y-91570512D01*
X115559783Y-91570512D01*
X115601213Y-91850130D01*
X115696397Y-92116292D01*
X115763329Y-92241514D01*
X116007298Y-92313097D01*
X116820395Y-91500000D01*
X116007298Y-90686903D01*
X115763329Y-90758486D01*
X115642429Y-91013996D01*
X115573700Y-91288184D01*
X115559783Y-91570512D01*
X101344180Y-91570512D01*
X101562836Y-91478486D01*
X101723699Y-91154790D01*
X101818322Y-90805931D01*
X101843067Y-90445316D01*
X101796985Y-90086802D01*
X101681846Y-89744167D01*
X101562836Y-89521514D01*
X101277980Y-89401626D01*
X100179605Y-90500000D01*
X99820395Y-90500000D01*
X98722020Y-89401626D01*
X98437164Y-89521514D01*
X98276301Y-89845210D01*
X98181678Y-90194069D01*
X98156933Y-90554684D01*
X81835562Y-90554684D01*
X81843067Y-90445316D01*
X81796985Y-90086802D01*
X81681846Y-89744167D01*
X81562836Y-89521514D01*
X81277980Y-89401626D01*
X80179605Y-90500000D01*
X79820395Y-90500000D01*
X78722020Y-89401626D01*
X78437164Y-89521514D01*
X78276301Y-89845210D01*
X78181678Y-90194069D01*
X78156933Y-90554684D01*
X61915562Y-90554684D01*
X61923067Y-90445316D01*
X61876985Y-90086802D01*
X61761846Y-89744167D01*
X61642836Y-89521514D01*
X61357980Y-89401626D01*
X60259605Y-90500000D01*
X59900395Y-90500000D01*
X58802020Y-89401626D01*
X58517164Y-89521514D01*
X58356301Y-89845210D01*
X58261678Y-90194069D01*
X58236933Y-90554684D01*
X57334999Y-90554684D01*
X57334999Y-89222020D01*
X58981626Y-89222020D01*
X60080000Y-90320395D01*
X61178374Y-89222020D01*
X78901626Y-89222020D01*
X80000000Y-90320395D01*
X81098374Y-89222020D01*
X98901626Y-89222020D01*
X100000000Y-90320395D01*
X101098374Y-89222020D01*
X100978486Y-88937164D01*
X100654790Y-88776301D01*
X100305931Y-88681678D01*
X99945316Y-88656933D01*
X99586802Y-88703015D01*
X99244167Y-88818154D01*
X99021514Y-88937164D01*
X98901626Y-89222020D01*
X81098374Y-89222020D01*
X80978486Y-88937164D01*
X80654790Y-88776301D01*
X80305931Y-88681678D01*
X79945316Y-88656933D01*
X79586802Y-88703015D01*
X79244167Y-88818154D01*
X79021514Y-88937164D01*
X78901626Y-89222020D01*
X61178374Y-89222020D01*
X61058486Y-88937164D01*
X60734790Y-88776301D01*
X60385931Y-88681678D01*
X60025316Y-88656933D01*
X59666802Y-88703015D01*
X59324167Y-88818154D01*
X59101514Y-88937164D01*
X58981626Y-89222020D01*
X57334999Y-89222020D01*
X57334999Y-73738072D01*
X57425834Y-73738072D01*
X58445000Y-74757239D01*
X58445001Y-81335532D01*
X58428815Y-81348815D01*
X58349463Y-81445506D01*
X58290498Y-81555820D01*
X58254188Y-81675518D01*
X58241928Y-81800000D01*
X58241928Y-84200000D01*
X58254188Y-84324482D01*
X58290498Y-84444180D01*
X58349463Y-84554494D01*
X58428815Y-84651185D01*
X58525506Y-84730537D01*
X58635820Y-84789502D01*
X58755518Y-84825812D01*
X58880000Y-84838072D01*
X61280000Y-84838072D01*
X61404482Y-84825812D01*
X61524180Y-84789502D01*
X61634494Y-84730537D01*
X61731185Y-84651185D01*
X61744468Y-84635000D01*
X78335532Y-84635000D01*
X78348815Y-84651185D01*
X78445506Y-84730537D01*
X78555820Y-84789502D01*
X78675518Y-84825812D01*
X78800000Y-84838072D01*
X81200000Y-84838072D01*
X81324482Y-84825812D01*
X81444180Y-84789502D01*
X81554494Y-84730537D01*
X81651185Y-84651185D01*
X81664468Y-84635000D01*
X98335532Y-84635000D01*
X98348815Y-84651185D01*
X98445506Y-84730537D01*
X98555820Y-84789502D01*
X98675518Y-84825812D01*
X98800000Y-84838072D01*
X101200000Y-84838072D01*
X101324482Y-84825812D01*
X101444180Y-84789502D01*
X101554494Y-84730537D01*
X101651185Y-84651185D01*
X101730537Y-84554494D01*
X101789502Y-84444180D01*
X101825812Y-84324482D01*
X101838072Y-84200000D01*
X101838072Y-83992702D01*
X110186903Y-83992702D01*
X110258486Y-84236671D01*
X110513996Y-84357571D01*
X110788184Y-84426300D01*
X111070512Y-84440217D01*
X111350130Y-84398787D01*
X111616292Y-84303603D01*
X111741514Y-84236671D01*
X111813097Y-83992702D01*
X111000000Y-83179605D01*
X110186903Y-83992702D01*
X101838072Y-83992702D01*
X101838072Y-83474166D01*
X103177239Y-82135000D01*
X109955393Y-82135000D01*
X110007296Y-82186903D01*
X109763329Y-82258486D01*
X109642429Y-82513996D01*
X109573700Y-82788184D01*
X109559783Y-83070512D01*
X109601213Y-83350130D01*
X109696397Y-83616292D01*
X109763329Y-83741514D01*
X110007298Y-83813097D01*
X110820395Y-83000000D01*
X111179605Y-83000000D01*
X111992702Y-83813097D01*
X112236671Y-83741514D01*
X112357571Y-83486004D01*
X112426300Y-83211816D01*
X112440217Y-82929488D01*
X112398787Y-82649870D01*
X112303603Y-82383708D01*
X112236671Y-82258486D01*
X111992702Y-82186903D01*
X111179605Y-83000000D01*
X110820395Y-83000000D01*
X110806253Y-82985858D01*
X110985858Y-82806253D01*
X111000000Y-82820395D01*
X111780395Y-82040000D01*
X115357089Y-82040000D01*
X115365000Y-82120322D01*
X115365001Y-88919668D01*
X115357089Y-89000000D01*
X115388657Y-89320516D01*
X115482148Y-89628715D01*
X115561928Y-89777973D01*
X115561928Y-89800000D01*
X115574188Y-89924482D01*
X115610498Y-90044180D01*
X115669463Y-90154494D01*
X115748815Y-90251185D01*
X115845506Y-90330537D01*
X115955820Y-90389502D01*
X116075518Y-90425812D01*
X116200000Y-90438072D01*
X116207215Y-90438072D01*
X116186903Y-90507298D01*
X117000000Y-91320395D01*
X117014143Y-91306253D01*
X117193748Y-91485858D01*
X117179605Y-91500000D01*
X117992702Y-92313097D01*
X118236671Y-92241514D01*
X118357571Y-91986004D01*
X118426300Y-91711816D01*
X118440217Y-91429488D01*
X118398787Y-91149870D01*
X118303603Y-90883708D01*
X118236671Y-90758486D01*
X117992704Y-90686903D01*
X118044607Y-90635000D01*
X121142762Y-90635000D01*
X122261928Y-91754167D01*
X122261928Y-92280000D01*
X122274188Y-92404482D01*
X122310498Y-92524180D01*
X122369463Y-92634494D01*
X122448815Y-92731185D01*
X122545506Y-92810537D01*
X122655820Y-92869502D01*
X122775518Y-92905812D01*
X122900000Y-92918072D01*
X125100000Y-92918072D01*
X125224482Y-92905812D01*
X125344180Y-92869502D01*
X125454494Y-92810537D01*
X125551185Y-92731185D01*
X125630537Y-92634494D01*
X125689502Y-92524180D01*
X125725812Y-92404482D01*
X125738072Y-92280000D01*
X125738072Y-91754166D01*
X125916116Y-91576122D01*
X132470825Y-91576122D01*
X132535425Y-91789094D01*
X132685469Y-92094329D01*
X132892178Y-92364427D01*
X133147609Y-92589008D01*
X133441946Y-92759442D01*
X133763877Y-92869179D01*
X134033000Y-92751600D01*
X134033000Y-91307000D01*
X134287000Y-91307000D01*
X134287000Y-92751600D01*
X134556123Y-92869179D01*
X134878054Y-92759442D01*
X135172391Y-92589008D01*
X135427822Y-92364427D01*
X135634531Y-92094329D01*
X135784575Y-91789094D01*
X135849175Y-91576122D01*
X135731125Y-91307000D01*
X134287000Y-91307000D01*
X134033000Y-91307000D01*
X132588875Y-91307000D01*
X132470825Y-91576122D01*
X125916116Y-91576122D01*
X126708360Y-90783878D01*
X132470825Y-90783878D01*
X132588875Y-91053000D01*
X134033000Y-91053000D01*
X134033000Y-89608400D01*
X134287000Y-89608400D01*
X134287000Y-91053000D01*
X135731125Y-91053000D01*
X135849175Y-90783878D01*
X135784575Y-90570906D01*
X135634531Y-90265671D01*
X135427822Y-89995573D01*
X135172391Y-89770992D01*
X134878054Y-89600558D01*
X134556123Y-89490821D01*
X134287000Y-89608400D01*
X134033000Y-89608400D01*
X133763877Y-89490821D01*
X133441946Y-89600558D01*
X133147609Y-89770992D01*
X132892178Y-89995573D01*
X132685469Y-90265671D01*
X132535425Y-90570906D01*
X132470825Y-90783878D01*
X126708360Y-90783878D01*
X128742238Y-88750000D01*
X143361928Y-88750000D01*
X143361928Y-91250000D01*
X143374188Y-91374482D01*
X143410498Y-91494180D01*
X143469463Y-91604494D01*
X143548815Y-91701185D01*
X143645506Y-91780537D01*
X143755820Y-91839502D01*
X143875518Y-91875812D01*
X144000000Y-91888072D01*
X146500000Y-91888072D01*
X146624482Y-91875812D01*
X146744180Y-91839502D01*
X146854494Y-91780537D01*
X146951185Y-91701185D01*
X147030537Y-91604494D01*
X147089502Y-91494180D01*
X147125812Y-91374482D01*
X147138072Y-91250000D01*
X147138072Y-90418671D01*
X147266031Y-90262752D01*
X147417852Y-89978715D01*
X147511343Y-89670516D01*
X147535000Y-89430322D01*
X147542911Y-89350000D01*
X147535000Y-89269678D01*
X147535000Y-82777239D01*
X148259323Y-82052916D01*
X148321714Y-82001714D01*
X148526031Y-81752752D01*
X148677852Y-81468715D01*
X148732899Y-81287249D01*
X148771343Y-81160517D01*
X148802911Y-80840000D01*
X148795000Y-80759678D01*
X148795000Y-76119678D01*
X148771343Y-75879484D01*
X148677852Y-75571285D01*
X148526031Y-75287248D01*
X148321714Y-75038286D01*
X148072751Y-74833969D01*
X147788714Y-74682148D01*
X147480515Y-74588657D01*
X147160000Y-74557089D01*
X146839484Y-74588657D01*
X146531285Y-74682148D01*
X146247248Y-74833969D01*
X145998286Y-75038286D01*
X145793969Y-75287249D01*
X145642148Y-75571286D01*
X145548657Y-75879485D01*
X145525000Y-76119679D01*
X145525001Y-80162760D01*
X144787085Y-80900677D01*
X144633970Y-81087248D01*
X144482148Y-81371286D01*
X144473091Y-81401144D01*
X144382148Y-81571286D01*
X144288657Y-81879485D01*
X144265000Y-82119679D01*
X144265001Y-88111928D01*
X144000000Y-88111928D01*
X143875518Y-88124188D01*
X143755820Y-88160498D01*
X143645506Y-88219463D01*
X143548815Y-88298815D01*
X143469463Y-88395506D01*
X143410498Y-88505820D01*
X143374188Y-88625518D01*
X143361928Y-88750000D01*
X128742238Y-88750000D01*
X135257239Y-82235000D01*
X140880322Y-82235000D01*
X141120516Y-82211343D01*
X141428715Y-82117852D01*
X141712752Y-81966031D01*
X141961714Y-81761714D01*
X142166031Y-81512752D01*
X142317852Y-81228715D01*
X142411343Y-80920516D01*
X142442911Y-80600000D01*
X142411343Y-80279484D01*
X142317852Y-79971285D01*
X142166031Y-79687248D01*
X141961714Y-79438286D01*
X141712752Y-79233969D01*
X141428715Y-79082148D01*
X141120516Y-78988657D01*
X140880322Y-78965000D01*
X134660319Y-78965000D01*
X134579999Y-78957089D01*
X134499679Y-78965000D01*
X134499678Y-78965000D01*
X134259484Y-78988657D01*
X133951285Y-79082148D01*
X133667248Y-79233969D01*
X133418286Y-79438286D01*
X133367080Y-79500681D01*
X124000000Y-88867761D01*
X123032924Y-87900686D01*
X122981714Y-87838286D01*
X122732752Y-87633969D01*
X122448715Y-87482148D01*
X122140516Y-87388657D01*
X121900322Y-87365000D01*
X121900319Y-87365000D01*
X121820000Y-87357089D01*
X121739681Y-87365000D01*
X118635000Y-87365000D01*
X118635000Y-83675000D01*
X119919681Y-83675000D01*
X120000000Y-83682911D01*
X120080319Y-83675000D01*
X120080322Y-83675000D01*
X120320516Y-83651343D01*
X120628715Y-83557852D01*
X120912752Y-83406031D01*
X121161714Y-83201714D01*
X121212925Y-83139313D01*
X128152238Y-76200000D01*
X137897089Y-76200000D01*
X137928658Y-76520516D01*
X138022148Y-76828714D01*
X138173970Y-77112752D01*
X138378287Y-77361713D01*
X138627248Y-77566030D01*
X138911286Y-77717852D01*
X139219484Y-77811342D01*
X139540000Y-77842911D01*
X139860516Y-77811342D01*
X140168714Y-77717852D01*
X140452752Y-77566030D01*
X140639323Y-77412915D01*
X142099318Y-75952921D01*
X142161714Y-75901714D01*
X142366031Y-75652752D01*
X142517852Y-75368715D01*
X142568875Y-75200516D01*
X142611343Y-75060517D01*
X142642911Y-74740000D01*
X142635000Y-74659678D01*
X142635000Y-71159678D01*
X142611343Y-70919484D01*
X142517852Y-70611285D01*
X142366031Y-70327248D01*
X142219810Y-70149076D01*
X142254494Y-70130537D01*
X142351185Y-70051185D01*
X142430537Y-69954494D01*
X142489502Y-69844180D01*
X142525812Y-69724482D01*
X142538072Y-69600000D01*
X142535000Y-68985750D01*
X142376250Y-68827000D01*
X141127000Y-68827000D01*
X141127000Y-68847000D01*
X140873000Y-68847000D01*
X140873000Y-68827000D01*
X139623750Y-68827000D01*
X139465000Y-68985750D01*
X139461928Y-69600000D01*
X139474188Y-69724482D01*
X139510498Y-69844180D01*
X139569463Y-69954494D01*
X139648815Y-70051185D01*
X139745506Y-70130537D01*
X139780190Y-70149076D01*
X139633969Y-70327249D01*
X139482148Y-70611286D01*
X139388657Y-70919485D01*
X139365000Y-71159679D01*
X139365001Y-74062761D01*
X138327085Y-75100677D01*
X138173970Y-75287248D01*
X138022148Y-75571286D01*
X137928658Y-75879484D01*
X137897089Y-76200000D01*
X128152238Y-76200000D01*
X128259319Y-76092920D01*
X128321714Y-76041714D01*
X128526031Y-75792752D01*
X128677852Y-75508715D01*
X128771343Y-75200516D01*
X128795000Y-74960322D01*
X128795000Y-74960320D01*
X128802911Y-74880001D01*
X128795000Y-74799681D01*
X128795000Y-69086535D01*
X128828325Y-69006081D01*
X128895000Y-68670883D01*
X128895000Y-68329117D01*
X128828325Y-67993919D01*
X128748002Y-67800000D01*
X139461928Y-67800000D01*
X139465000Y-68414250D01*
X139623750Y-68573000D01*
X140873000Y-68573000D01*
X140873000Y-67323750D01*
X141127000Y-67323750D01*
X141127000Y-68573000D01*
X142376250Y-68573000D01*
X142535000Y-68414250D01*
X142538072Y-67800000D01*
X142525812Y-67675518D01*
X142489502Y-67555820D01*
X142430537Y-67445506D01*
X142351185Y-67348815D01*
X142254494Y-67269463D01*
X142144180Y-67210498D01*
X142024482Y-67174188D01*
X141900000Y-67161928D01*
X141285750Y-67165000D01*
X141127000Y-67323750D01*
X140873000Y-67323750D01*
X140714250Y-67165000D01*
X140100000Y-67161928D01*
X139975518Y-67174188D01*
X139855820Y-67210498D01*
X139745506Y-67269463D01*
X139648815Y-67348815D01*
X139569463Y-67445506D01*
X139510498Y-67555820D01*
X139474188Y-67675518D01*
X139461928Y-67800000D01*
X128748002Y-67800000D01*
X128697537Y-67678169D01*
X128507663Y-67394002D01*
X128265998Y-67152337D01*
X127981831Y-66962463D01*
X127666081Y-66831675D01*
X127405650Y-66779872D01*
X144765000Y-66779872D01*
X144765000Y-67220128D01*
X144850890Y-67651925D01*
X145019369Y-68058669D01*
X145263962Y-68424729D01*
X145575271Y-68736038D01*
X145941331Y-68980631D01*
X146348075Y-69149110D01*
X146779872Y-69235000D01*
X147220128Y-69235000D01*
X147651925Y-69149110D01*
X148058669Y-68980631D01*
X148424729Y-68736038D01*
X148736038Y-68424729D01*
X148980631Y-68058669D01*
X149149110Y-67651925D01*
X149235000Y-67220128D01*
X149235000Y-66779872D01*
X149149110Y-66348075D01*
X148980631Y-65941331D01*
X148736038Y-65575271D01*
X148424729Y-65263962D01*
X148058669Y-65019369D01*
X147651925Y-64850890D01*
X147220128Y-64765000D01*
X146779872Y-64765000D01*
X146348075Y-64850890D01*
X145941331Y-65019369D01*
X145575271Y-65263962D01*
X145263962Y-65575271D01*
X145019369Y-65941331D01*
X144850890Y-66348075D01*
X144765000Y-66779872D01*
X127405650Y-66779872D01*
X127330883Y-66765000D01*
X126989117Y-66765000D01*
X126653919Y-66831675D01*
X126338169Y-66962463D01*
X126054002Y-67152337D01*
X125812337Y-67394002D01*
X125622463Y-67678169D01*
X125491675Y-67993919D01*
X125425000Y-68329117D01*
X125425000Y-68670883D01*
X125491675Y-69006081D01*
X125525000Y-69086535D01*
X125525001Y-74202760D01*
X119322762Y-80405000D01*
X118345406Y-80405000D01*
X118375969Y-80366923D01*
X118519571Y-80091094D01*
X118590563Y-79872980D01*
X118470594Y-79627000D01*
X117127000Y-79627000D01*
X117127000Y-79647000D01*
X116873000Y-79647000D01*
X116873000Y-79627000D01*
X115529406Y-79627000D01*
X115409437Y-79872980D01*
X115480429Y-80091094D01*
X115624031Y-80366923D01*
X115818685Y-80609437D01*
X115990363Y-80753480D01*
X115838286Y-80878286D01*
X115633969Y-81127248D01*
X115482148Y-81411285D01*
X115388657Y-81719484D01*
X115357089Y-82040000D01*
X111780395Y-82040000D01*
X111813097Y-82007298D01*
X111792785Y-81938072D01*
X111800000Y-81938072D01*
X111924482Y-81925812D01*
X112044180Y-81889502D01*
X112154494Y-81830537D01*
X112251185Y-81751185D01*
X112330537Y-81654494D01*
X112389502Y-81544180D01*
X112425812Y-81424482D01*
X112429970Y-81382269D01*
X115217239Y-78595000D01*
X115654594Y-78595000D01*
X115624031Y-78633077D01*
X115480429Y-78908906D01*
X115409437Y-79127020D01*
X115529406Y-79373000D01*
X116873000Y-79373000D01*
X116873000Y-79353000D01*
X117127000Y-79353000D01*
X117127000Y-79373000D01*
X118470594Y-79373000D01*
X118590563Y-79127020D01*
X118519571Y-78908906D01*
X118375969Y-78633077D01*
X118262781Y-78492059D01*
X118354494Y-78443037D01*
X118451185Y-78363685D01*
X118530537Y-78266994D01*
X118589502Y-78156680D01*
X118625812Y-78036982D01*
X118638072Y-77912500D01*
X118638072Y-77009131D01*
X118642911Y-76960000D01*
X118638072Y-76910869D01*
X118638072Y-76007500D01*
X118635000Y-75976308D01*
X118635000Y-69946144D01*
X118689502Y-69844180D01*
X118725812Y-69724482D01*
X118738072Y-69600000D01*
X118738072Y-67400000D01*
X118725812Y-67275518D01*
X118689502Y-67155820D01*
X118630537Y-67045506D01*
X118551185Y-66948815D01*
X118454494Y-66869463D01*
X118344180Y-66810498D01*
X118224482Y-66774188D01*
X118100000Y-66761928D01*
X115900000Y-66761928D01*
X115775518Y-66774188D01*
X115655820Y-66810498D01*
X115545506Y-66869463D01*
X115448815Y-66948815D01*
X115369463Y-67045506D01*
X115310498Y-67155820D01*
X115274188Y-67275518D01*
X115261928Y-67400000D01*
X115261928Y-69600000D01*
X115274188Y-69724482D01*
X115310498Y-69844180D01*
X115365000Y-69946145D01*
X115365001Y-75325000D01*
X114620319Y-75325000D01*
X114539999Y-75317089D01*
X114459680Y-75325000D01*
X114459678Y-75325000D01*
X114219484Y-75348657D01*
X113911285Y-75442148D01*
X113627248Y-75593969D01*
X113378286Y-75798286D01*
X113327080Y-75860681D01*
X110322762Y-78865000D01*
X102580319Y-78865000D01*
X102500000Y-78857089D01*
X102419680Y-78865000D01*
X102419678Y-78865000D01*
X102179484Y-78888657D01*
X101871285Y-78982148D01*
X101587248Y-79133969D01*
X101338286Y-79338286D01*
X101287080Y-79400681D01*
X99525834Y-81161928D01*
X98800000Y-81161928D01*
X98675518Y-81174188D01*
X98555820Y-81210498D01*
X98445506Y-81269463D01*
X98348815Y-81348815D01*
X98335532Y-81365000D01*
X81664468Y-81365000D01*
X81651185Y-81348815D01*
X81554494Y-81269463D01*
X81444180Y-81210498D01*
X81324482Y-81174188D01*
X81200000Y-81161928D01*
X78800000Y-81161928D01*
X78675518Y-81174188D01*
X78555820Y-81210498D01*
X78445506Y-81269463D01*
X78348815Y-81348815D01*
X78335532Y-81365000D01*
X61744468Y-81365000D01*
X61731185Y-81348815D01*
X61715000Y-81335532D01*
X61715000Y-74750000D01*
X83708057Y-74750000D01*
X83735764Y-75031309D01*
X83817818Y-75301808D01*
X83951068Y-75551101D01*
X84130392Y-75769608D01*
X84348899Y-75948932D01*
X84598192Y-76082182D01*
X84868691Y-76164236D01*
X85079508Y-76185000D01*
X87920492Y-76185000D01*
X88131309Y-76164236D01*
X88401808Y-76082182D01*
X88651101Y-75948932D01*
X88869608Y-75769608D01*
X89048932Y-75551101D01*
X89182182Y-75301808D01*
X89264236Y-75031309D01*
X89291943Y-74750000D01*
X89264236Y-74468691D01*
X89182182Y-74198192D01*
X89048932Y-73948899D01*
X88869608Y-73730392D01*
X88651101Y-73551068D01*
X88401808Y-73417818D01*
X88131309Y-73335764D01*
X87920492Y-73315000D01*
X85079508Y-73315000D01*
X84868691Y-73335764D01*
X84598192Y-73417818D01*
X84348899Y-73551068D01*
X84130392Y-73730392D01*
X83951068Y-73948899D01*
X83817818Y-74198192D01*
X83735764Y-74468691D01*
X83708057Y-74750000D01*
X61715000Y-74750000D01*
X61715000Y-74160319D01*
X61722911Y-74079999D01*
X61711806Y-73967248D01*
X61691343Y-73759484D01*
X61597852Y-73451285D01*
X61446031Y-73167248D01*
X61241714Y-72918286D01*
X61179320Y-72867081D01*
X59738072Y-71425834D01*
X59738072Y-71334999D01*
X65182761Y-71334999D01*
X66589138Y-72741378D01*
X66622463Y-72821831D01*
X66812337Y-73105998D01*
X67054002Y-73347663D01*
X67338169Y-73537537D01*
X67653919Y-73668325D01*
X67989117Y-73735000D01*
X68330883Y-73735000D01*
X68666081Y-73668325D01*
X68746535Y-73635000D01*
X72190640Y-73635000D01*
X72341637Y-73860983D01*
X72639017Y-74158363D01*
X72988698Y-74392012D01*
X73377244Y-74552953D01*
X73789721Y-74635000D01*
X74210279Y-74635000D01*
X74622756Y-74552953D01*
X75011302Y-74392012D01*
X75360983Y-74158363D01*
X75658363Y-73860983D01*
X75892012Y-73511302D01*
X76052953Y-73122756D01*
X76135000Y-72710279D01*
X76135000Y-72677238D01*
X76435238Y-72377000D01*
X80265000Y-72377000D01*
X80265000Y-73477000D01*
X80317350Y-73754514D01*
X80422834Y-74016483D01*
X80577399Y-74252839D01*
X80775105Y-74454500D01*
X81008354Y-74613715D01*
X81268182Y-74724367D01*
X81350961Y-74741904D01*
X81573000Y-74619915D01*
X81573000Y-72377000D01*
X81827000Y-72377000D01*
X81827000Y-74619915D01*
X82049039Y-74741904D01*
X82131818Y-74724367D01*
X82391646Y-74613715D01*
X82624895Y-74454500D01*
X82822601Y-74252839D01*
X82977166Y-74016483D01*
X83082650Y-73754514D01*
X83135000Y-73477000D01*
X83135000Y-72377000D01*
X81827000Y-72377000D01*
X81573000Y-72377000D01*
X80265000Y-72377000D01*
X76435238Y-72377000D01*
X78427239Y-70385000D01*
X80487259Y-70385000D01*
X80422834Y-70483517D01*
X80317350Y-70745486D01*
X80265000Y-71023000D01*
X80265000Y-72123000D01*
X81573000Y-72123000D01*
X81573000Y-72103000D01*
X81827000Y-72103000D01*
X81827000Y-72123000D01*
X83135000Y-72123000D01*
X83135000Y-71023000D01*
X83082650Y-70745486D01*
X82977166Y-70483517D01*
X82912741Y-70385000D01*
X93572762Y-70385000D01*
X95865000Y-72677239D01*
X95865000Y-72710279D01*
X95947047Y-73122756D01*
X96107988Y-73511302D01*
X96341637Y-73860983D01*
X96639017Y-74158363D01*
X96988698Y-74392012D01*
X97377244Y-74552953D01*
X97789721Y-74635000D01*
X98210279Y-74635000D01*
X98622756Y-74552953D01*
X99011302Y-74392012D01*
X99360983Y-74158363D01*
X99658363Y-73860983D01*
X99892012Y-73511302D01*
X100052953Y-73122756D01*
X100135000Y-72710279D01*
X100135000Y-72289721D01*
X100052953Y-71877244D01*
X99892012Y-71488698D01*
X99658363Y-71139017D01*
X99360983Y-70841637D01*
X99011302Y-70607988D01*
X98622756Y-70447047D01*
X98210279Y-70365000D01*
X98177239Y-70365000D01*
X97447912Y-69635674D01*
X97714250Y-69635000D01*
X97873000Y-69476250D01*
X97873000Y-67627000D01*
X98127000Y-67627000D01*
X98127000Y-69476250D01*
X98285750Y-69635000D01*
X99500000Y-69638072D01*
X99624482Y-69625812D01*
X99744180Y-69589502D01*
X99854494Y-69530537D01*
X99951185Y-69451185D01*
X100030537Y-69354494D01*
X100089502Y-69244180D01*
X100125812Y-69124482D01*
X100138072Y-69000000D01*
X100135000Y-67785750D01*
X99976250Y-67627000D01*
X98127000Y-67627000D01*
X97873000Y-67627000D01*
X96023750Y-67627000D01*
X95865000Y-67785750D01*
X95864326Y-68052088D01*
X95462925Y-67650687D01*
X95411714Y-67588286D01*
X95162752Y-67383969D01*
X94878715Y-67232148D01*
X94570516Y-67138657D01*
X94330322Y-67115000D01*
X94330319Y-67115000D01*
X94250000Y-67107089D01*
X94169681Y-67115000D01*
X77830322Y-67115000D01*
X77750000Y-67107089D01*
X77429483Y-67138657D01*
X77180287Y-67214250D01*
X77121285Y-67232148D01*
X76837248Y-67383969D01*
X76588286Y-67588286D01*
X76537080Y-67650681D01*
X76135674Y-68052087D01*
X76135000Y-67785750D01*
X75976250Y-67627000D01*
X74127000Y-67627000D01*
X74127000Y-69476250D01*
X74285750Y-69635000D01*
X74552088Y-69635674D01*
X73822762Y-70365000D01*
X73789721Y-70365000D01*
X73720374Y-70378794D01*
X73580322Y-70365000D01*
X73580319Y-70365000D01*
X73500000Y-70357089D01*
X73419681Y-70365000D01*
X68837240Y-70365000D01*
X67472239Y-69000000D01*
X71861928Y-69000000D01*
X71874188Y-69124482D01*
X71910498Y-69244180D01*
X71969463Y-69354494D01*
X72048815Y-69451185D01*
X72145506Y-69530537D01*
X72255820Y-69589502D01*
X72375518Y-69625812D01*
X72500000Y-69638072D01*
X73714250Y-69635000D01*
X73873000Y-69476250D01*
X73873000Y-67627000D01*
X72023750Y-67627000D01*
X71865000Y-67785750D01*
X71861928Y-69000000D01*
X67472239Y-69000000D01*
X67072923Y-68600685D01*
X67021713Y-68538285D01*
X66772751Y-68333968D01*
X66488714Y-68182147D01*
X66180515Y-68088656D01*
X65940321Y-68064999D01*
X65940318Y-68064999D01*
X65859999Y-68057088D01*
X65779680Y-68064999D01*
X56020318Y-68064999D01*
X55939998Y-68057088D01*
X55859679Y-68064999D01*
X55859677Y-68064999D01*
X55619483Y-68088656D01*
X55311284Y-68182147D01*
X55027247Y-68333968D01*
X54778285Y-68538285D01*
X54727074Y-68600686D01*
X54600686Y-68727074D01*
X54538285Y-68778285D01*
X54333968Y-69027248D01*
X54182147Y-69311285D01*
X54088656Y-69619484D01*
X54066019Y-69849323D01*
X54057088Y-69939999D01*
X50660000Y-69939999D01*
X50660000Y-66779872D01*
X50765000Y-66779872D01*
X50765000Y-67220128D01*
X50850890Y-67651925D01*
X51019369Y-68058669D01*
X51263962Y-68424729D01*
X51575271Y-68736038D01*
X51941331Y-68980631D01*
X52348075Y-69149110D01*
X52779872Y-69235000D01*
X53220128Y-69235000D01*
X53651925Y-69149110D01*
X54058669Y-68980631D01*
X54424729Y-68736038D01*
X54736038Y-68424729D01*
X54980631Y-68058669D01*
X55149110Y-67651925D01*
X55235000Y-67220128D01*
X55235000Y-66779872D01*
X55149110Y-66348075D01*
X55004933Y-66000000D01*
X71861928Y-66000000D01*
X71865000Y-67214250D01*
X72023750Y-67373000D01*
X73873000Y-67373000D01*
X73873000Y-65523750D01*
X74127000Y-65523750D01*
X74127000Y-67373000D01*
X75976250Y-67373000D01*
X76135000Y-67214250D01*
X76138072Y-66000000D01*
X95861928Y-66000000D01*
X95865000Y-67214250D01*
X96023750Y-67373000D01*
X97873000Y-67373000D01*
X97873000Y-65523750D01*
X98127000Y-65523750D01*
X98127000Y-67373000D01*
X99976250Y-67373000D01*
X100135000Y-67214250D01*
X100138072Y-66000000D01*
X100125812Y-65875518D01*
X100089502Y-65755820D01*
X100030537Y-65645506D01*
X99951185Y-65548815D01*
X99854494Y-65469463D01*
X99744180Y-65410498D01*
X99624482Y-65374188D01*
X99500000Y-65361928D01*
X98285750Y-65365000D01*
X98127000Y-65523750D01*
X97873000Y-65523750D01*
X97714250Y-65365000D01*
X96500000Y-65361928D01*
X96375518Y-65374188D01*
X96255820Y-65410498D01*
X96145506Y-65469463D01*
X96048815Y-65548815D01*
X95969463Y-65645506D01*
X95910498Y-65755820D01*
X95874188Y-65875518D01*
X95861928Y-66000000D01*
X76138072Y-66000000D01*
X76125812Y-65875518D01*
X76089502Y-65755820D01*
X76030537Y-65645506D01*
X75951185Y-65548815D01*
X75854494Y-65469463D01*
X75744180Y-65410498D01*
X75624482Y-65374188D01*
X75500000Y-65361928D01*
X74285750Y-65365000D01*
X74127000Y-65523750D01*
X73873000Y-65523750D01*
X73714250Y-65365000D01*
X72500000Y-65361928D01*
X72375518Y-65374188D01*
X72255820Y-65410498D01*
X72145506Y-65469463D01*
X72048815Y-65548815D01*
X71969463Y-65645506D01*
X71910498Y-65755820D01*
X71874188Y-65875518D01*
X71861928Y-66000000D01*
X55004933Y-66000000D01*
X54980631Y-65941331D01*
X54736038Y-65575271D01*
X54424729Y-65263962D01*
X54058669Y-65019369D01*
X53651925Y-64850890D01*
X53220128Y-64765000D01*
X52779872Y-64765000D01*
X52348075Y-64850890D01*
X51941331Y-65019369D01*
X51575271Y-65263962D01*
X51263962Y-65575271D01*
X51019369Y-65941331D01*
X50850890Y-66348075D01*
X50765000Y-66779872D01*
X50660000Y-66779872D01*
X50660000Y-64660000D01*
X149340000Y-64660000D01*
X149340001Y-124340000D01*
%TA.AperFunction,Conductor*%
D31*
G36*
X149340001Y-124340000D02*
G01*
X50660000Y-124340000D01*
X50660000Y-121779872D01*
X50765000Y-121779872D01*
X50765000Y-122220128D01*
X50850890Y-122651925D01*
X51019369Y-123058669D01*
X51263962Y-123424729D01*
X51575271Y-123736038D01*
X51941331Y-123980631D01*
X52348075Y-124149110D01*
X52779872Y-124235000D01*
X53220128Y-124235000D01*
X53651925Y-124149110D01*
X54058669Y-123980631D01*
X54424729Y-123736038D01*
X54736038Y-123424729D01*
X54980631Y-123058669D01*
X55149110Y-122651925D01*
X55235000Y-122220128D01*
X55235000Y-121779872D01*
X55149110Y-121348075D01*
X54980631Y-120941331D01*
X54736038Y-120575271D01*
X54424729Y-120263962D01*
X54058669Y-120019369D01*
X53651925Y-119850890D01*
X53220128Y-119765000D01*
X52779872Y-119765000D01*
X52348075Y-119850890D01*
X51941331Y-120019369D01*
X51575271Y-120263962D01*
X51263962Y-120575271D01*
X51019369Y-120941331D01*
X50850890Y-121348075D01*
X50765000Y-121779872D01*
X50660000Y-121779872D01*
X50660000Y-69939999D01*
X54057088Y-69939999D01*
X54064999Y-70020318D01*
X54065000Y-113619670D01*
X54057088Y-113699999D01*
X54088657Y-114020515D01*
X54182147Y-114328713D01*
X54264160Y-114482148D01*
X54333969Y-114612751D01*
X54538286Y-114861713D01*
X54600681Y-114912919D01*
X56365000Y-116677240D01*
X56365001Y-119553854D01*
X56310498Y-119655820D01*
X56274188Y-119775518D01*
X56261928Y-119900000D01*
X56261928Y-122100000D01*
X56274188Y-122224482D01*
X56310498Y-122344180D01*
X56369463Y-122454494D01*
X56448815Y-122551185D01*
X56545506Y-122630537D01*
X56655820Y-122689502D01*
X56775518Y-122725812D01*
X56900000Y-122738072D01*
X59100000Y-122738072D01*
X59224482Y-122725812D01*
X59344180Y-122689502D01*
X59454494Y-122630537D01*
X59551185Y-122551185D01*
X59630537Y-122454494D01*
X59689502Y-122344180D01*
X59725812Y-122224482D01*
X59738072Y-122100000D01*
X59738072Y-119900000D01*
X59725812Y-119775518D01*
X59689502Y-119655820D01*
X59635000Y-119553856D01*
X59635000Y-116080322D01*
X59642911Y-116000000D01*
X59611343Y-115679483D01*
X59517852Y-115371285D01*
X59515043Y-115366030D01*
X59366031Y-115087248D01*
X59161714Y-114838286D01*
X59099325Y-114787085D01*
X57334999Y-113022761D01*
X57334999Y-110819268D01*
X58245000Y-110819268D01*
X58245000Y-111180732D01*
X58315518Y-111535250D01*
X58453844Y-111869199D01*
X58552466Y-112016797D01*
X58562148Y-112048715D01*
X58713969Y-112332752D01*
X58918286Y-112581714D01*
X58980686Y-112632924D01*
X66525000Y-120177240D01*
X66525000Y-120413465D01*
X66491675Y-120493919D01*
X66425000Y-120829117D01*
X66425000Y-121170883D01*
X66491675Y-121506081D01*
X66622463Y-121821831D01*
X66812337Y-122105998D01*
X67054002Y-122347663D01*
X67338169Y-122537537D01*
X67653919Y-122668325D01*
X67989117Y-122735000D01*
X68330883Y-122735000D01*
X68666081Y-122668325D01*
X68981831Y-122537537D01*
X69265998Y-122347663D01*
X69507663Y-122105998D01*
X69697537Y-121821831D01*
X69828325Y-121506081D01*
X69895000Y-121170883D01*
X69895000Y-120829117D01*
X69828325Y-120493919D01*
X69795000Y-120413465D01*
X69795000Y-119580322D01*
X69802911Y-119500000D01*
X69771343Y-119179483D01*
X69677852Y-118871285D01*
X69650715Y-118820516D01*
X69526031Y-118587248D01*
X69321714Y-118338286D01*
X69259325Y-118287085D01*
X63607239Y-112635000D01*
X79152152Y-112635000D01*
X79464750Y-112764482D01*
X79819268Y-112835000D01*
X80180732Y-112835000D01*
X80535250Y-112764482D01*
X80847848Y-112635000D01*
X99152152Y-112635000D01*
X99464750Y-112764482D01*
X99819268Y-112835000D01*
X100180732Y-112835000D01*
X100535250Y-112764482D01*
X100847848Y-112635000D01*
X102419681Y-112635000D01*
X102500000Y-112642911D01*
X102580319Y-112635000D01*
X102580322Y-112635000D01*
X102820516Y-112611343D01*
X103128715Y-112517852D01*
X103412752Y-112366031D01*
X103661714Y-112161714D01*
X103712925Y-112099313D01*
X110434315Y-105377923D01*
X112863180Y-107806789D01*
X112857089Y-107868630D01*
X112865000Y-107948949D01*
X112865001Y-120279673D01*
X112857089Y-120360002D01*
X112888658Y-120680518D01*
X112982148Y-120988716D01*
X113133970Y-121272754D01*
X113338287Y-121521716D01*
X113400682Y-121572922D01*
X113927073Y-122099313D01*
X113978284Y-122161714D01*
X114227246Y-122366031D01*
X114392749Y-122454494D01*
X114511283Y-122517852D01*
X114819481Y-122611343D01*
X115139998Y-122642911D01*
X115220320Y-122635000D01*
X124579681Y-122635000D01*
X124660000Y-122642911D01*
X124740319Y-122635000D01*
X124740322Y-122635000D01*
X124980516Y-122611343D01*
X125004458Y-122604080D01*
X140115525Y-122604080D01*
X140199208Y-122858261D01*
X140471775Y-122989158D01*
X140764642Y-123064365D01*
X141066553Y-123080991D01*
X141365907Y-123038397D01*
X141651199Y-122938222D01*
X141800792Y-122858261D01*
X141884475Y-122604080D01*
X141000000Y-121719605D01*
X140115525Y-122604080D01*
X125004458Y-122604080D01*
X125288715Y-122517852D01*
X125572752Y-122366031D01*
X125821714Y-122161714D01*
X125872925Y-122099313D01*
X127901376Y-120070862D01*
X127981831Y-120037537D01*
X128265998Y-119847663D01*
X128507663Y-119605998D01*
X128697537Y-119321831D01*
X128828325Y-119006081D01*
X128895000Y-118670883D01*
X128895000Y-118329117D01*
X128828325Y-117993919D01*
X128697537Y-117678169D01*
X128507663Y-117394002D01*
X128265998Y-117152337D01*
X127981831Y-116962463D01*
X127666081Y-116831675D01*
X127330883Y-116765000D01*
X126989117Y-116765000D01*
X126653919Y-116831675D01*
X126338169Y-116962463D01*
X126054002Y-117152337D01*
X125812337Y-117394002D01*
X125622463Y-117678169D01*
X125589138Y-117758624D01*
X123982762Y-119365000D01*
X118738072Y-119365000D01*
X118738072Y-117400000D01*
X118725812Y-117275518D01*
X118689502Y-117155820D01*
X118635000Y-117053856D01*
X118635000Y-114000000D01*
X137997089Y-114000000D01*
X138028658Y-114320516D01*
X138122148Y-114628714D01*
X138273970Y-114912752D01*
X138427085Y-115099323D01*
X139365001Y-116037239D01*
X139365000Y-119080321D01*
X139388657Y-119320515D01*
X139461928Y-119562057D01*
X139461928Y-119900000D01*
X139474188Y-120024482D01*
X139510498Y-120144180D01*
X139569463Y-120254494D01*
X139648815Y-120351185D01*
X139745506Y-120430537D01*
X139855820Y-120489502D01*
X139866735Y-120492813D01*
X139819970Y-120539578D01*
X139935918Y-120655526D01*
X139681739Y-120739208D01*
X139550842Y-121011775D01*
X139475635Y-121304642D01*
X139459009Y-121606553D01*
X139501603Y-121905907D01*
X139601778Y-122191199D01*
X139681739Y-122340792D01*
X139935920Y-122424475D01*
X140820395Y-121540000D01*
X140806253Y-121525858D01*
X140985858Y-121346253D01*
X141000000Y-121360395D01*
X141014143Y-121346253D01*
X141193748Y-121525858D01*
X141179605Y-121540000D01*
X142064080Y-122424475D01*
X142318261Y-122340792D01*
X142449158Y-122068225D01*
X142523205Y-121779872D01*
X144765000Y-121779872D01*
X144765000Y-122220128D01*
X144850890Y-122651925D01*
X145019369Y-123058669D01*
X145263962Y-123424729D01*
X145575271Y-123736038D01*
X145941331Y-123980631D01*
X146348075Y-124149110D01*
X146779872Y-124235000D01*
X147220128Y-124235000D01*
X147651925Y-124149110D01*
X148058669Y-123980631D01*
X148424729Y-123736038D01*
X148736038Y-123424729D01*
X148980631Y-123058669D01*
X149149110Y-122651925D01*
X149235000Y-122220128D01*
X149235000Y-121779872D01*
X149149110Y-121348075D01*
X148980631Y-120941331D01*
X148736038Y-120575271D01*
X148424729Y-120263962D01*
X148058669Y-120019369D01*
X147651925Y-119850890D01*
X147220128Y-119765000D01*
X146779872Y-119765000D01*
X146348075Y-119850890D01*
X145941331Y-120019369D01*
X145575271Y-120263962D01*
X145263962Y-120575271D01*
X145019369Y-120941331D01*
X144850890Y-121348075D01*
X144765000Y-121779872D01*
X142523205Y-121779872D01*
X142524365Y-121775358D01*
X142540991Y-121473447D01*
X142498397Y-121174093D01*
X142398222Y-120888801D01*
X142318261Y-120739208D01*
X142064082Y-120655526D01*
X142180030Y-120539578D01*
X142133265Y-120492813D01*
X142144180Y-120489502D01*
X142254494Y-120430537D01*
X142351185Y-120351185D01*
X142430537Y-120254494D01*
X142489502Y-120144180D01*
X142525812Y-120024482D01*
X142538072Y-119900000D01*
X142538072Y-119562058D01*
X142611343Y-119320516D01*
X142635000Y-119080322D01*
X142635000Y-115440319D01*
X142642911Y-115359999D01*
X142634212Y-115271680D01*
X142611343Y-115039484D01*
X142517852Y-114731285D01*
X142366031Y-114447248D01*
X142161714Y-114198286D01*
X142099318Y-114147079D01*
X140739323Y-112787085D01*
X140552752Y-112633970D01*
X140268714Y-112482148D01*
X139960516Y-112388658D01*
X139640000Y-112357089D01*
X139319484Y-112388658D01*
X139011286Y-112482148D01*
X138727248Y-112633970D01*
X138478287Y-112838287D01*
X138273970Y-113087248D01*
X138122148Y-113371286D01*
X138028658Y-113679484D01*
X137997089Y-114000000D01*
X118635000Y-114000000D01*
X118635000Y-111675000D01*
X118879681Y-111675000D01*
X118960000Y-111682911D01*
X119040319Y-111675000D01*
X119040322Y-111675000D01*
X119280516Y-111651343D01*
X119588715Y-111557852D01*
X119872752Y-111406031D01*
X120121714Y-111201714D01*
X120172925Y-111139313D01*
X120599313Y-110712925D01*
X120661714Y-110661714D01*
X120866031Y-110412752D01*
X121017852Y-110128715D01*
X121111343Y-109820516D01*
X121135000Y-109580322D01*
X121135000Y-109580320D01*
X121142911Y-109500001D01*
X121135000Y-109419678D01*
X121135000Y-103580319D01*
X121142911Y-103500000D01*
X121135000Y-103419678D01*
X121111343Y-103179484D01*
X121017852Y-102871285D01*
X120866031Y-102587248D01*
X120661714Y-102338286D01*
X120599320Y-102287081D01*
X118747237Y-100434999D01*
X131057394Y-100434999D01*
X131137713Y-100442910D01*
X131218032Y-100434999D01*
X131218035Y-100434999D01*
X131458229Y-100411342D01*
X131766428Y-100317851D01*
X132050465Y-100166030D01*
X132299427Y-99961713D01*
X132350638Y-99899312D01*
X134160000Y-98089950D01*
X139265001Y-103194952D01*
X139265000Y-107980321D01*
X139288657Y-108220515D01*
X139382148Y-108528714D01*
X139533969Y-108812751D01*
X139738286Y-109061714D01*
X139987248Y-109266031D01*
X140271285Y-109417852D01*
X140579484Y-109511343D01*
X140900000Y-109542911D01*
X141220515Y-109511343D01*
X141528714Y-109417852D01*
X141812751Y-109266031D01*
X142061714Y-109061714D01*
X142266031Y-108812752D01*
X142417852Y-108528715D01*
X142511343Y-108220516D01*
X142535000Y-107980322D01*
X142535000Y-102598031D01*
X142542911Y-102517711D01*
X142535000Y-102437390D01*
X142511343Y-102197196D01*
X142417852Y-101888997D01*
X142266031Y-101604960D01*
X142061714Y-101355998D01*
X141999319Y-101304792D01*
X140508871Y-99814344D01*
X143365000Y-99814344D01*
X143365000Y-100185656D01*
X143437439Y-100549834D01*
X143579534Y-100892882D01*
X143615000Y-100945961D01*
X143615001Y-108669671D01*
X143607089Y-108750000D01*
X143638658Y-109070516D01*
X143732148Y-109378714D01*
X143836885Y-109574662D01*
X143883970Y-109662752D01*
X144088287Y-109911714D01*
X144150682Y-109962920D01*
X144365000Y-110177238D01*
X144365001Y-112659671D01*
X144357089Y-112740000D01*
X144388658Y-113060516D01*
X144482148Y-113368714D01*
X144595845Y-113581426D01*
X144633970Y-113652752D01*
X144838287Y-113901714D01*
X144900682Y-113952920D01*
X146160676Y-115212915D01*
X146347247Y-115366030D01*
X146631285Y-115517852D01*
X146939483Y-115611342D01*
X147259999Y-115642911D01*
X147580516Y-115611342D01*
X147888714Y-115517852D01*
X148172752Y-115366030D01*
X148421713Y-115161713D01*
X148626030Y-114912752D01*
X148777852Y-114628714D01*
X148871342Y-114320516D01*
X148902911Y-113999999D01*
X148871342Y-113679483D01*
X148777852Y-113371285D01*
X148626030Y-113087247D01*
X148472915Y-112900676D01*
X147635000Y-112062762D01*
X147635000Y-109580319D01*
X147642911Y-109499999D01*
X147634173Y-109411285D01*
X147611343Y-109179484D01*
X147517852Y-108871285D01*
X147366031Y-108587248D01*
X147161714Y-108338286D01*
X147099314Y-108287076D01*
X146885000Y-108072762D01*
X146885000Y-100945961D01*
X146920466Y-100892882D01*
X147062561Y-100549834D01*
X147135000Y-100185656D01*
X147135000Y-99814344D01*
X147062561Y-99450166D01*
X146920466Y-99107118D01*
X146714175Y-98798382D01*
X146451618Y-98535825D01*
X146142882Y-98329534D01*
X145799834Y-98187439D01*
X145435656Y-98115000D01*
X145064344Y-98115000D01*
X144700166Y-98187439D01*
X144357118Y-98329534D01*
X144048382Y-98535825D01*
X143785825Y-98798382D01*
X143579534Y-99107118D01*
X143437439Y-99450166D01*
X143365000Y-99814344D01*
X140508871Y-99814344D01*
X137008132Y-96313605D01*
X144116000Y-96313605D01*
X144241914Y-96603577D01*
X144574126Y-96769433D01*
X144932312Y-96867290D01*
X145302706Y-96893389D01*
X145671075Y-96846725D01*
X146023262Y-96729094D01*
X146258086Y-96603577D01*
X146384000Y-96313605D01*
X145250000Y-95179605D01*
X144116000Y-96313605D01*
X137008132Y-96313605D01*
X135747233Y-95052706D01*
X143356611Y-95052706D01*
X143403275Y-95421075D01*
X143520906Y-95773262D01*
X143646423Y-96008086D01*
X143936395Y-96134000D01*
X145070395Y-95000000D01*
X145429605Y-95000000D01*
X146563605Y-96134000D01*
X146853577Y-96008086D01*
X147019433Y-95675874D01*
X147117290Y-95317688D01*
X147143389Y-94947294D01*
X147096725Y-94578925D01*
X146979094Y-94226738D01*
X146853577Y-93991914D01*
X146563605Y-93866000D01*
X145429605Y-95000000D01*
X145070395Y-95000000D01*
X143936395Y-93866000D01*
X143646423Y-93991914D01*
X143480567Y-94324126D01*
X143382710Y-94682312D01*
X143356611Y-95052706D01*
X135747233Y-95052706D01*
X135730863Y-95036337D01*
X135697537Y-94955881D01*
X135507663Y-94671714D01*
X135265998Y-94430049D01*
X134981831Y-94240175D01*
X134666081Y-94109387D01*
X134330883Y-94042712D01*
X133989117Y-94042712D01*
X133653919Y-94109387D01*
X133338169Y-94240175D01*
X133054002Y-94430049D01*
X132812337Y-94671714D01*
X132622463Y-94955881D01*
X132589138Y-95036336D01*
X130460475Y-97164999D01*
X125666460Y-97164999D01*
X125689502Y-97121892D01*
X125725812Y-97002194D01*
X125738072Y-96877712D01*
X125735000Y-96063462D01*
X125576250Y-95904712D01*
X124127000Y-95904712D01*
X124127000Y-95924712D01*
X123873000Y-95924712D01*
X123873000Y-95904712D01*
X122423750Y-95904712D01*
X122265000Y-96063462D01*
X122261928Y-96877712D01*
X122274188Y-97002194D01*
X122310498Y-97121892D01*
X122333540Y-97164999D01*
X118477237Y-97164999D01*
X118212925Y-96900687D01*
X118161714Y-96838286D01*
X118153148Y-96831256D01*
X118154494Y-96830537D01*
X118251185Y-96751185D01*
X118330537Y-96654494D01*
X118389502Y-96544180D01*
X118425812Y-96424482D01*
X118438072Y-96300000D01*
X118435000Y-95785750D01*
X118276250Y-95627000D01*
X117127000Y-95627000D01*
X117127000Y-95647000D01*
X116873000Y-95647000D01*
X116873000Y-95627000D01*
X115723750Y-95627000D01*
X115565000Y-95785750D01*
X115561928Y-96300000D01*
X115574188Y-96424482D01*
X115610498Y-96544180D01*
X115669463Y-96654494D01*
X115748815Y-96751185D01*
X115845506Y-96830537D01*
X115846852Y-96831256D01*
X115838286Y-96838286D01*
X115633969Y-97087249D01*
X115482148Y-97371286D01*
X115388657Y-97679485D01*
X115365000Y-97919678D01*
X115357089Y-98000000D01*
X115365000Y-98080320D01*
X115365001Y-100919671D01*
X115357089Y-101000000D01*
X115388658Y-101320516D01*
X115482148Y-101628714D01*
X115525863Y-101710498D01*
X115633970Y-101912752D01*
X115838287Y-102161714D01*
X115900682Y-102212920D01*
X117173006Y-103485244D01*
X117127000Y-103531250D01*
X117127000Y-104833000D01*
X117147000Y-104833000D01*
X117147000Y-105087000D01*
X117127000Y-105087000D01*
X117127000Y-105107000D01*
X116873000Y-105107000D01*
X116873000Y-105087000D01*
X115523750Y-105087000D01*
X115365000Y-105245750D01*
X115362989Y-105682121D01*
X113688368Y-104007500D01*
X115361928Y-104007500D01*
X115365000Y-104674250D01*
X115523750Y-104833000D01*
X116873000Y-104833000D01*
X116873000Y-103531250D01*
X116714250Y-103372500D01*
X116000000Y-103369428D01*
X115875518Y-103381688D01*
X115755820Y-103417998D01*
X115645506Y-103476963D01*
X115548815Y-103556315D01*
X115469463Y-103653006D01*
X115410498Y-103763320D01*
X115374188Y-103883018D01*
X115361928Y-104007500D01*
X113688368Y-104007500D01*
X112635000Y-102954132D01*
X112635000Y-102580320D01*
X112642911Y-102500001D01*
X112635000Y-102419678D01*
X112611343Y-102179484D01*
X112517852Y-101871285D01*
X112366031Y-101587248D01*
X112161714Y-101338286D01*
X112153148Y-101331256D01*
X112154494Y-101330537D01*
X112251185Y-101251185D01*
X112330537Y-101154494D01*
X112389502Y-101044180D01*
X112425812Y-100924482D01*
X112438072Y-100800000D01*
X112435000Y-100285750D01*
X112276250Y-100127000D01*
X111127000Y-100127000D01*
X111127000Y-100147000D01*
X110873000Y-100147000D01*
X110873000Y-100127000D01*
X109723750Y-100127000D01*
X109565000Y-100285750D01*
X109561928Y-100800000D01*
X109574188Y-100924482D01*
X109610498Y-101044180D01*
X109669463Y-101154494D01*
X109748815Y-101251185D01*
X109845506Y-101330537D01*
X109846852Y-101331256D01*
X109838286Y-101338286D01*
X109787081Y-101400680D01*
X101822762Y-109365000D01*
X100847848Y-109365000D01*
X100535250Y-109235518D01*
X100180732Y-109165000D01*
X99819268Y-109165000D01*
X99464750Y-109235518D01*
X99152152Y-109365000D01*
X80847848Y-109365000D01*
X80535250Y-109235518D01*
X80180732Y-109165000D01*
X79819268Y-109165000D01*
X79464750Y-109235518D01*
X79152152Y-109365000D01*
X60927848Y-109365000D01*
X60615250Y-109235518D01*
X60260732Y-109165000D01*
X59899268Y-109165000D01*
X59544750Y-109235518D01*
X59210801Y-109373844D01*
X58910256Y-109574662D01*
X58654662Y-109830256D01*
X58453844Y-110130801D01*
X58315518Y-110464750D01*
X58245000Y-110819268D01*
X57334999Y-110819268D01*
X57334999Y-104700000D01*
X58241928Y-104700000D01*
X58254188Y-104824482D01*
X58290498Y-104944180D01*
X58349463Y-105054494D01*
X58428815Y-105151185D01*
X58525506Y-105230537D01*
X58635820Y-105289502D01*
X58755518Y-105325812D01*
X58880000Y-105338072D01*
X59794250Y-105335000D01*
X59953000Y-105176250D01*
X59953000Y-103627000D01*
X60207000Y-103627000D01*
X60207000Y-105176250D01*
X60365750Y-105335000D01*
X61280000Y-105338072D01*
X61404482Y-105325812D01*
X61524180Y-105289502D01*
X61634494Y-105230537D01*
X61731185Y-105151185D01*
X61810537Y-105054494D01*
X61869502Y-104944180D01*
X61905812Y-104824482D01*
X61918072Y-104700000D01*
X78161928Y-104700000D01*
X78174188Y-104824482D01*
X78210498Y-104944180D01*
X78269463Y-105054494D01*
X78348815Y-105151185D01*
X78445506Y-105230537D01*
X78555820Y-105289502D01*
X78675518Y-105325812D01*
X78800000Y-105338072D01*
X79714250Y-105335000D01*
X79873000Y-105176250D01*
X79873000Y-103627000D01*
X80127000Y-103627000D01*
X80127000Y-105176250D01*
X80285750Y-105335000D01*
X81200000Y-105338072D01*
X81324482Y-105325812D01*
X81444180Y-105289502D01*
X81554494Y-105230537D01*
X81651185Y-105151185D01*
X81730537Y-105054494D01*
X81789502Y-104944180D01*
X81825812Y-104824482D01*
X81838072Y-104700000D01*
X98161928Y-104700000D01*
X98174188Y-104824482D01*
X98210498Y-104944180D01*
X98269463Y-105054494D01*
X98348815Y-105151185D01*
X98445506Y-105230537D01*
X98555820Y-105289502D01*
X98675518Y-105325812D01*
X98800000Y-105338072D01*
X99714250Y-105335000D01*
X99873000Y-105176250D01*
X99873000Y-103627000D01*
X100127000Y-103627000D01*
X100127000Y-105176250D01*
X100285750Y-105335000D01*
X101200000Y-105338072D01*
X101324482Y-105325812D01*
X101444180Y-105289502D01*
X101554494Y-105230537D01*
X101651185Y-105151185D01*
X101730537Y-105054494D01*
X101789502Y-104944180D01*
X101825812Y-104824482D01*
X101838072Y-104700000D01*
X101835000Y-103785750D01*
X101676250Y-103627000D01*
X100127000Y-103627000D01*
X99873000Y-103627000D01*
X98323750Y-103627000D01*
X98165000Y-103785750D01*
X98161928Y-104700000D01*
X81838072Y-104700000D01*
X81835000Y-103785750D01*
X81676250Y-103627000D01*
X80127000Y-103627000D01*
X79873000Y-103627000D01*
X78323750Y-103627000D01*
X78165000Y-103785750D01*
X78161928Y-104700000D01*
X61918072Y-104700000D01*
X61915000Y-103785750D01*
X61756250Y-103627000D01*
X60207000Y-103627000D01*
X59953000Y-103627000D01*
X58403750Y-103627000D01*
X58245000Y-103785750D01*
X58241928Y-104700000D01*
X57334999Y-104700000D01*
X57334999Y-102300000D01*
X58241928Y-102300000D01*
X58245000Y-103214250D01*
X58403750Y-103373000D01*
X59953000Y-103373000D01*
X59953000Y-101823750D01*
X60207000Y-101823750D01*
X60207000Y-103373000D01*
X61756250Y-103373000D01*
X61915000Y-103214250D01*
X61918072Y-102300000D01*
X78161928Y-102300000D01*
X78165000Y-103214250D01*
X78323750Y-103373000D01*
X79873000Y-103373000D01*
X79873000Y-101823750D01*
X80127000Y-101823750D01*
X80127000Y-103373000D01*
X81676250Y-103373000D01*
X81835000Y-103214250D01*
X81838072Y-102300000D01*
X98161928Y-102300000D01*
X98165000Y-103214250D01*
X98323750Y-103373000D01*
X99873000Y-103373000D01*
X99873000Y-101823750D01*
X100127000Y-101823750D01*
X100127000Y-103373000D01*
X101676250Y-103373000D01*
X101835000Y-103214250D01*
X101838072Y-102300000D01*
X101825812Y-102175518D01*
X101789502Y-102055820D01*
X101730537Y-101945506D01*
X101651185Y-101848815D01*
X101554494Y-101769463D01*
X101444180Y-101710498D01*
X101324482Y-101674188D01*
X101200000Y-101661928D01*
X100285750Y-101665000D01*
X100127000Y-101823750D01*
X99873000Y-101823750D01*
X99714250Y-101665000D01*
X98800000Y-101661928D01*
X98675518Y-101674188D01*
X98555820Y-101710498D01*
X98445506Y-101769463D01*
X98348815Y-101848815D01*
X98269463Y-101945506D01*
X98210498Y-102055820D01*
X98174188Y-102175518D01*
X98161928Y-102300000D01*
X81838072Y-102300000D01*
X81825812Y-102175518D01*
X81789502Y-102055820D01*
X81730537Y-101945506D01*
X81651185Y-101848815D01*
X81554494Y-101769463D01*
X81444180Y-101710498D01*
X81324482Y-101674188D01*
X81200000Y-101661928D01*
X80285750Y-101665000D01*
X80127000Y-101823750D01*
X79873000Y-101823750D01*
X79714250Y-101665000D01*
X78800000Y-101661928D01*
X78675518Y-101674188D01*
X78555820Y-101710498D01*
X78445506Y-101769463D01*
X78348815Y-101848815D01*
X78269463Y-101945506D01*
X78210498Y-102055820D01*
X78174188Y-102175518D01*
X78161928Y-102300000D01*
X61918072Y-102300000D01*
X61905812Y-102175518D01*
X61869502Y-102055820D01*
X61810537Y-101945506D01*
X61731185Y-101848815D01*
X61634494Y-101769463D01*
X61524180Y-101710498D01*
X61404482Y-101674188D01*
X61280000Y-101661928D01*
X60365750Y-101665000D01*
X60207000Y-101823750D01*
X59953000Y-101823750D01*
X59794250Y-101665000D01*
X58880000Y-101661928D01*
X58755518Y-101674188D01*
X58635820Y-101710498D01*
X58525506Y-101769463D01*
X58428815Y-101848815D01*
X58349463Y-101945506D01*
X58290498Y-102055820D01*
X58254188Y-102175518D01*
X58241928Y-102300000D01*
X57334999Y-102300000D01*
X57334999Y-99200000D01*
X109561928Y-99200000D01*
X109565000Y-99714250D01*
X109723750Y-99873000D01*
X110873000Y-99873000D01*
X110873000Y-98723750D01*
X111127000Y-98723750D01*
X111127000Y-99873000D01*
X112276250Y-99873000D01*
X112435000Y-99714250D01*
X112438072Y-99200000D01*
X112425812Y-99075518D01*
X112389502Y-98955820D01*
X112330537Y-98845506D01*
X112251185Y-98748815D01*
X112154494Y-98669463D01*
X112044180Y-98610498D01*
X111924482Y-98574188D01*
X111800000Y-98561928D01*
X111285750Y-98565000D01*
X111127000Y-98723750D01*
X110873000Y-98723750D01*
X110714250Y-98565000D01*
X110200000Y-98561928D01*
X110075518Y-98574188D01*
X109955820Y-98610498D01*
X109845506Y-98669463D01*
X109748815Y-98748815D01*
X109669463Y-98845506D01*
X109610498Y-98955820D01*
X109574188Y-99075518D01*
X109561928Y-99200000D01*
X57334999Y-99200000D01*
X57334999Y-94700000D01*
X115561928Y-94700000D01*
X115565000Y-95214250D01*
X115723750Y-95373000D01*
X116873000Y-95373000D01*
X116873000Y-94223750D01*
X117127000Y-94223750D01*
X117127000Y-95373000D01*
X118276250Y-95373000D01*
X118435000Y-95214250D01*
X118438072Y-94700000D01*
X118435877Y-94677712D01*
X122261928Y-94677712D01*
X122265000Y-95491962D01*
X122423750Y-95650712D01*
X123873000Y-95650712D01*
X123873000Y-94201462D01*
X124127000Y-94201462D01*
X124127000Y-95650712D01*
X125576250Y-95650712D01*
X125735000Y-95491962D01*
X125738072Y-94677712D01*
X125725812Y-94553230D01*
X125689502Y-94433532D01*
X125630537Y-94323218D01*
X125551185Y-94226527D01*
X125454494Y-94147175D01*
X125344180Y-94088210D01*
X125224482Y-94051900D01*
X125100000Y-94039640D01*
X124285750Y-94042712D01*
X124127000Y-94201462D01*
X123873000Y-94201462D01*
X123714250Y-94042712D01*
X122900000Y-94039640D01*
X122775518Y-94051900D01*
X122655820Y-94088210D01*
X122545506Y-94147175D01*
X122448815Y-94226527D01*
X122369463Y-94323218D01*
X122310498Y-94433532D01*
X122274188Y-94553230D01*
X122261928Y-94677712D01*
X118435877Y-94677712D01*
X118425812Y-94575518D01*
X118389502Y-94455820D01*
X118330537Y-94345506D01*
X118251185Y-94248815D01*
X118154494Y-94169463D01*
X118044180Y-94110498D01*
X117924482Y-94074188D01*
X117800000Y-94061928D01*
X117285750Y-94065000D01*
X117127000Y-94223750D01*
X116873000Y-94223750D01*
X116714250Y-94065000D01*
X116200000Y-94061928D01*
X116075518Y-94074188D01*
X115955820Y-94110498D01*
X115845506Y-94169463D01*
X115748815Y-94248815D01*
X115669463Y-94345506D01*
X115610498Y-94455820D01*
X115574188Y-94575518D01*
X115561928Y-94700000D01*
X57334999Y-94700000D01*
X57334999Y-93686395D01*
X144116000Y-93686395D01*
X145250000Y-94820395D01*
X146384000Y-93686395D01*
X146258086Y-93396423D01*
X145925874Y-93230567D01*
X145567688Y-93132710D01*
X145197294Y-93106611D01*
X144828925Y-93153275D01*
X144476738Y-93270906D01*
X144241914Y-93396423D01*
X144116000Y-93686395D01*
X57334999Y-93686395D01*
X57334999Y-92492702D01*
X116186903Y-92492702D01*
X116258486Y-92736671D01*
X116513996Y-92857571D01*
X116788184Y-92926300D01*
X117070512Y-92940217D01*
X117350130Y-92898787D01*
X117616292Y-92803603D01*
X117741514Y-92736671D01*
X117813097Y-92492702D01*
X117000000Y-91679605D01*
X116186903Y-92492702D01*
X57334999Y-92492702D01*
X57334999Y-91777980D01*
X58981626Y-91777980D01*
X59101514Y-92062836D01*
X59425210Y-92223699D01*
X59774069Y-92318322D01*
X60134684Y-92343067D01*
X60493198Y-92296985D01*
X60835833Y-92181846D01*
X61058486Y-92062836D01*
X61178374Y-91777980D01*
X78901626Y-91777980D01*
X79021514Y-92062836D01*
X79345210Y-92223699D01*
X79694069Y-92318322D01*
X80054684Y-92343067D01*
X80413198Y-92296985D01*
X80755833Y-92181846D01*
X80978486Y-92062836D01*
X81098374Y-91777980D01*
X98901626Y-91777980D01*
X99021514Y-92062836D01*
X99345210Y-92223699D01*
X99694069Y-92318322D01*
X100054684Y-92343067D01*
X100413198Y-92296985D01*
X100755833Y-92181846D01*
X100978486Y-92062836D01*
X101098374Y-91777980D01*
X100000000Y-90679605D01*
X98901626Y-91777980D01*
X81098374Y-91777980D01*
X80000000Y-90679605D01*
X78901626Y-91777980D01*
X61178374Y-91777980D01*
X60080000Y-90679605D01*
X58981626Y-91777980D01*
X57334999Y-91777980D01*
X57334999Y-90554684D01*
X58236933Y-90554684D01*
X58283015Y-90913198D01*
X58398154Y-91255833D01*
X58517164Y-91478486D01*
X58802020Y-91598374D01*
X59900395Y-90500000D01*
X60259605Y-90500000D01*
X61357980Y-91598374D01*
X61642836Y-91478486D01*
X61803699Y-91154790D01*
X61898322Y-90805931D01*
X61915562Y-90554684D01*
X78156933Y-90554684D01*
X78203015Y-90913198D01*
X78318154Y-91255833D01*
X78437164Y-91478486D01*
X78722020Y-91598374D01*
X79820395Y-90500000D01*
X80179605Y-90500000D01*
X81277980Y-91598374D01*
X81562836Y-91478486D01*
X81723699Y-91154790D01*
X81818322Y-90805931D01*
X81835562Y-90554684D01*
X98156933Y-90554684D01*
X98203015Y-90913198D01*
X98318154Y-91255833D01*
X98437164Y-91478486D01*
X98722020Y-91598374D01*
X99820395Y-90500000D01*
X100179605Y-90500000D01*
X101277980Y-91598374D01*
X101344180Y-91570512D01*
X115559783Y-91570512D01*
X115601213Y-91850130D01*
X115696397Y-92116292D01*
X115763329Y-92241514D01*
X116007298Y-92313097D01*
X116820395Y-91500000D01*
X116007298Y-90686903D01*
X115763329Y-90758486D01*
X115642429Y-91013996D01*
X115573700Y-91288184D01*
X115559783Y-91570512D01*
X101344180Y-91570512D01*
X101562836Y-91478486D01*
X101723699Y-91154790D01*
X101818322Y-90805931D01*
X101843067Y-90445316D01*
X101796985Y-90086802D01*
X101681846Y-89744167D01*
X101562836Y-89521514D01*
X101277980Y-89401626D01*
X100179605Y-90500000D01*
X99820395Y-90500000D01*
X98722020Y-89401626D01*
X98437164Y-89521514D01*
X98276301Y-89845210D01*
X98181678Y-90194069D01*
X98156933Y-90554684D01*
X81835562Y-90554684D01*
X81843067Y-90445316D01*
X81796985Y-90086802D01*
X81681846Y-89744167D01*
X81562836Y-89521514D01*
X81277980Y-89401626D01*
X80179605Y-90500000D01*
X79820395Y-90500000D01*
X78722020Y-89401626D01*
X78437164Y-89521514D01*
X78276301Y-89845210D01*
X78181678Y-90194069D01*
X78156933Y-90554684D01*
X61915562Y-90554684D01*
X61923067Y-90445316D01*
X61876985Y-90086802D01*
X61761846Y-89744167D01*
X61642836Y-89521514D01*
X61357980Y-89401626D01*
X60259605Y-90500000D01*
X59900395Y-90500000D01*
X58802020Y-89401626D01*
X58517164Y-89521514D01*
X58356301Y-89845210D01*
X58261678Y-90194069D01*
X58236933Y-90554684D01*
X57334999Y-90554684D01*
X57334999Y-89222020D01*
X58981626Y-89222020D01*
X60080000Y-90320395D01*
X61178374Y-89222020D01*
X78901626Y-89222020D01*
X80000000Y-90320395D01*
X81098374Y-89222020D01*
X98901626Y-89222020D01*
X100000000Y-90320395D01*
X101098374Y-89222020D01*
X100978486Y-88937164D01*
X100654790Y-88776301D01*
X100305931Y-88681678D01*
X99945316Y-88656933D01*
X99586802Y-88703015D01*
X99244167Y-88818154D01*
X99021514Y-88937164D01*
X98901626Y-89222020D01*
X81098374Y-89222020D01*
X80978486Y-88937164D01*
X80654790Y-88776301D01*
X80305931Y-88681678D01*
X79945316Y-88656933D01*
X79586802Y-88703015D01*
X79244167Y-88818154D01*
X79021514Y-88937164D01*
X78901626Y-89222020D01*
X61178374Y-89222020D01*
X61058486Y-88937164D01*
X60734790Y-88776301D01*
X60385931Y-88681678D01*
X60025316Y-88656933D01*
X59666802Y-88703015D01*
X59324167Y-88818154D01*
X59101514Y-88937164D01*
X58981626Y-89222020D01*
X57334999Y-89222020D01*
X57334999Y-73738072D01*
X57425834Y-73738072D01*
X58445000Y-74757239D01*
X58445001Y-81335532D01*
X58428815Y-81348815D01*
X58349463Y-81445506D01*
X58290498Y-81555820D01*
X58254188Y-81675518D01*
X58241928Y-81800000D01*
X58241928Y-84200000D01*
X58254188Y-84324482D01*
X58290498Y-84444180D01*
X58349463Y-84554494D01*
X58428815Y-84651185D01*
X58525506Y-84730537D01*
X58635820Y-84789502D01*
X58755518Y-84825812D01*
X58880000Y-84838072D01*
X61280000Y-84838072D01*
X61404482Y-84825812D01*
X61524180Y-84789502D01*
X61634494Y-84730537D01*
X61731185Y-84651185D01*
X61744468Y-84635000D01*
X78335532Y-84635000D01*
X78348815Y-84651185D01*
X78445506Y-84730537D01*
X78555820Y-84789502D01*
X78675518Y-84825812D01*
X78800000Y-84838072D01*
X81200000Y-84838072D01*
X81324482Y-84825812D01*
X81444180Y-84789502D01*
X81554494Y-84730537D01*
X81651185Y-84651185D01*
X81664468Y-84635000D01*
X98335532Y-84635000D01*
X98348815Y-84651185D01*
X98445506Y-84730537D01*
X98555820Y-84789502D01*
X98675518Y-84825812D01*
X98800000Y-84838072D01*
X101200000Y-84838072D01*
X101324482Y-84825812D01*
X101444180Y-84789502D01*
X101554494Y-84730537D01*
X101651185Y-84651185D01*
X101730537Y-84554494D01*
X101789502Y-84444180D01*
X101825812Y-84324482D01*
X101838072Y-84200000D01*
X101838072Y-83992702D01*
X110186903Y-83992702D01*
X110258486Y-84236671D01*
X110513996Y-84357571D01*
X110788184Y-84426300D01*
X111070512Y-84440217D01*
X111350130Y-84398787D01*
X111616292Y-84303603D01*
X111741514Y-84236671D01*
X111813097Y-83992702D01*
X111000000Y-83179605D01*
X110186903Y-83992702D01*
X101838072Y-83992702D01*
X101838072Y-83474166D01*
X103177239Y-82135000D01*
X109955393Y-82135000D01*
X110007296Y-82186903D01*
X109763329Y-82258486D01*
X109642429Y-82513996D01*
X109573700Y-82788184D01*
X109559783Y-83070512D01*
X109601213Y-83350130D01*
X109696397Y-83616292D01*
X109763329Y-83741514D01*
X110007298Y-83813097D01*
X110820395Y-83000000D01*
X111179605Y-83000000D01*
X111992702Y-83813097D01*
X112236671Y-83741514D01*
X112357571Y-83486004D01*
X112426300Y-83211816D01*
X112440217Y-82929488D01*
X112398787Y-82649870D01*
X112303603Y-82383708D01*
X112236671Y-82258486D01*
X111992702Y-82186903D01*
X111179605Y-83000000D01*
X110820395Y-83000000D01*
X110806253Y-82985858D01*
X110985858Y-82806253D01*
X111000000Y-82820395D01*
X111780395Y-82040000D01*
X115357089Y-82040000D01*
X115365000Y-82120322D01*
X115365001Y-88919668D01*
X115357089Y-89000000D01*
X115388657Y-89320516D01*
X115482148Y-89628715D01*
X115561928Y-89777973D01*
X115561928Y-89800000D01*
X115574188Y-89924482D01*
X115610498Y-90044180D01*
X115669463Y-90154494D01*
X115748815Y-90251185D01*
X115845506Y-90330537D01*
X115955820Y-90389502D01*
X116075518Y-90425812D01*
X116200000Y-90438072D01*
X116207215Y-90438072D01*
X116186903Y-90507298D01*
X117000000Y-91320395D01*
X117014143Y-91306253D01*
X117193748Y-91485858D01*
X117179605Y-91500000D01*
X117992702Y-92313097D01*
X118236671Y-92241514D01*
X118357571Y-91986004D01*
X118426300Y-91711816D01*
X118440217Y-91429488D01*
X118398787Y-91149870D01*
X118303603Y-90883708D01*
X118236671Y-90758486D01*
X117992704Y-90686903D01*
X118044607Y-90635000D01*
X121142762Y-90635000D01*
X122261928Y-91754167D01*
X122261928Y-92280000D01*
X122274188Y-92404482D01*
X122310498Y-92524180D01*
X122369463Y-92634494D01*
X122448815Y-92731185D01*
X122545506Y-92810537D01*
X122655820Y-92869502D01*
X122775518Y-92905812D01*
X122900000Y-92918072D01*
X125100000Y-92918072D01*
X125224482Y-92905812D01*
X125344180Y-92869502D01*
X125454494Y-92810537D01*
X125551185Y-92731185D01*
X125630537Y-92634494D01*
X125689502Y-92524180D01*
X125725812Y-92404482D01*
X125738072Y-92280000D01*
X125738072Y-91754166D01*
X125916116Y-91576122D01*
X132470825Y-91576122D01*
X132535425Y-91789094D01*
X132685469Y-92094329D01*
X132892178Y-92364427D01*
X133147609Y-92589008D01*
X133441946Y-92759442D01*
X133763877Y-92869179D01*
X134033000Y-92751600D01*
X134033000Y-91307000D01*
X134287000Y-91307000D01*
X134287000Y-92751600D01*
X134556123Y-92869179D01*
X134878054Y-92759442D01*
X135172391Y-92589008D01*
X135427822Y-92364427D01*
X135634531Y-92094329D01*
X135784575Y-91789094D01*
X135849175Y-91576122D01*
X135731125Y-91307000D01*
X134287000Y-91307000D01*
X134033000Y-91307000D01*
X132588875Y-91307000D01*
X132470825Y-91576122D01*
X125916116Y-91576122D01*
X126708360Y-90783878D01*
X132470825Y-90783878D01*
X132588875Y-91053000D01*
X134033000Y-91053000D01*
X134033000Y-89608400D01*
X134287000Y-89608400D01*
X134287000Y-91053000D01*
X135731125Y-91053000D01*
X135849175Y-90783878D01*
X135784575Y-90570906D01*
X135634531Y-90265671D01*
X135427822Y-89995573D01*
X135172391Y-89770992D01*
X134878054Y-89600558D01*
X134556123Y-89490821D01*
X134287000Y-89608400D01*
X134033000Y-89608400D01*
X133763877Y-89490821D01*
X133441946Y-89600558D01*
X133147609Y-89770992D01*
X132892178Y-89995573D01*
X132685469Y-90265671D01*
X132535425Y-90570906D01*
X132470825Y-90783878D01*
X126708360Y-90783878D01*
X128742238Y-88750000D01*
X143361928Y-88750000D01*
X143361928Y-91250000D01*
X143374188Y-91374482D01*
X143410498Y-91494180D01*
X143469463Y-91604494D01*
X143548815Y-91701185D01*
X143645506Y-91780537D01*
X143755820Y-91839502D01*
X143875518Y-91875812D01*
X144000000Y-91888072D01*
X146500000Y-91888072D01*
X146624482Y-91875812D01*
X146744180Y-91839502D01*
X146854494Y-91780537D01*
X146951185Y-91701185D01*
X147030537Y-91604494D01*
X147089502Y-91494180D01*
X147125812Y-91374482D01*
X147138072Y-91250000D01*
X147138072Y-90418671D01*
X147266031Y-90262752D01*
X147417852Y-89978715D01*
X147511343Y-89670516D01*
X147535000Y-89430322D01*
X147542911Y-89350000D01*
X147535000Y-89269678D01*
X147535000Y-82777239D01*
X148259323Y-82052916D01*
X148321714Y-82001714D01*
X148526031Y-81752752D01*
X148677852Y-81468715D01*
X148732899Y-81287249D01*
X148771343Y-81160517D01*
X148802911Y-80840000D01*
X148795000Y-80759678D01*
X148795000Y-76119678D01*
X148771343Y-75879484D01*
X148677852Y-75571285D01*
X148526031Y-75287248D01*
X148321714Y-75038286D01*
X148072751Y-74833969D01*
X147788714Y-74682148D01*
X147480515Y-74588657D01*
X147160000Y-74557089D01*
X146839484Y-74588657D01*
X146531285Y-74682148D01*
X146247248Y-74833969D01*
X145998286Y-75038286D01*
X145793969Y-75287249D01*
X145642148Y-75571286D01*
X145548657Y-75879485D01*
X145525000Y-76119679D01*
X145525001Y-80162760D01*
X144787085Y-80900677D01*
X144633970Y-81087248D01*
X144482148Y-81371286D01*
X144473091Y-81401144D01*
X144382148Y-81571286D01*
X144288657Y-81879485D01*
X144265000Y-82119679D01*
X144265001Y-88111928D01*
X144000000Y-88111928D01*
X143875518Y-88124188D01*
X143755820Y-88160498D01*
X143645506Y-88219463D01*
X143548815Y-88298815D01*
X143469463Y-88395506D01*
X143410498Y-88505820D01*
X143374188Y-88625518D01*
X143361928Y-88750000D01*
X128742238Y-88750000D01*
X135257239Y-82235000D01*
X140880322Y-82235000D01*
X141120516Y-82211343D01*
X141428715Y-82117852D01*
X141712752Y-81966031D01*
X141961714Y-81761714D01*
X142166031Y-81512752D01*
X142317852Y-81228715D01*
X142411343Y-80920516D01*
X142442911Y-80600000D01*
X142411343Y-80279484D01*
X142317852Y-79971285D01*
X142166031Y-79687248D01*
X141961714Y-79438286D01*
X141712752Y-79233969D01*
X141428715Y-79082148D01*
X141120516Y-78988657D01*
X140880322Y-78965000D01*
X134660319Y-78965000D01*
X134579999Y-78957089D01*
X134499679Y-78965000D01*
X134499678Y-78965000D01*
X134259484Y-78988657D01*
X133951285Y-79082148D01*
X133667248Y-79233969D01*
X133418286Y-79438286D01*
X133367080Y-79500681D01*
X124000000Y-88867761D01*
X123032924Y-87900686D01*
X122981714Y-87838286D01*
X122732752Y-87633969D01*
X122448715Y-87482148D01*
X122140516Y-87388657D01*
X121900322Y-87365000D01*
X121900319Y-87365000D01*
X121820000Y-87357089D01*
X121739681Y-87365000D01*
X118635000Y-87365000D01*
X118635000Y-83675000D01*
X119919681Y-83675000D01*
X120000000Y-83682911D01*
X120080319Y-83675000D01*
X120080322Y-83675000D01*
X120320516Y-83651343D01*
X120628715Y-83557852D01*
X120912752Y-83406031D01*
X121161714Y-83201714D01*
X121212925Y-83139313D01*
X128152238Y-76200000D01*
X137897089Y-76200000D01*
X137928658Y-76520516D01*
X138022148Y-76828714D01*
X138173970Y-77112752D01*
X138378287Y-77361713D01*
X138627248Y-77566030D01*
X138911286Y-77717852D01*
X139219484Y-77811342D01*
X139540000Y-77842911D01*
X139860516Y-77811342D01*
X140168714Y-77717852D01*
X140452752Y-77566030D01*
X140639323Y-77412915D01*
X142099318Y-75952921D01*
X142161714Y-75901714D01*
X142366031Y-75652752D01*
X142517852Y-75368715D01*
X142568875Y-75200516D01*
X142611343Y-75060517D01*
X142642911Y-74740000D01*
X142635000Y-74659678D01*
X142635000Y-71159678D01*
X142611343Y-70919484D01*
X142517852Y-70611285D01*
X142366031Y-70327248D01*
X142219810Y-70149076D01*
X142254494Y-70130537D01*
X142351185Y-70051185D01*
X142430537Y-69954494D01*
X142489502Y-69844180D01*
X142525812Y-69724482D01*
X142538072Y-69600000D01*
X142535000Y-68985750D01*
X142376250Y-68827000D01*
X141127000Y-68827000D01*
X141127000Y-68847000D01*
X140873000Y-68847000D01*
X140873000Y-68827000D01*
X139623750Y-68827000D01*
X139465000Y-68985750D01*
X139461928Y-69600000D01*
X139474188Y-69724482D01*
X139510498Y-69844180D01*
X139569463Y-69954494D01*
X139648815Y-70051185D01*
X139745506Y-70130537D01*
X139780190Y-70149076D01*
X139633969Y-70327249D01*
X139482148Y-70611286D01*
X139388657Y-70919485D01*
X139365000Y-71159679D01*
X139365001Y-74062761D01*
X138327085Y-75100677D01*
X138173970Y-75287248D01*
X138022148Y-75571286D01*
X137928658Y-75879484D01*
X137897089Y-76200000D01*
X128152238Y-76200000D01*
X128259319Y-76092920D01*
X128321714Y-76041714D01*
X128526031Y-75792752D01*
X128677852Y-75508715D01*
X128771343Y-75200516D01*
X128795000Y-74960322D01*
X128795000Y-74960320D01*
X128802911Y-74880001D01*
X128795000Y-74799681D01*
X128795000Y-69086535D01*
X128828325Y-69006081D01*
X128895000Y-68670883D01*
X128895000Y-68329117D01*
X128828325Y-67993919D01*
X128748002Y-67800000D01*
X139461928Y-67800000D01*
X139465000Y-68414250D01*
X139623750Y-68573000D01*
X140873000Y-68573000D01*
X140873000Y-67323750D01*
X141127000Y-67323750D01*
X141127000Y-68573000D01*
X142376250Y-68573000D01*
X142535000Y-68414250D01*
X142538072Y-67800000D01*
X142525812Y-67675518D01*
X142489502Y-67555820D01*
X142430537Y-67445506D01*
X142351185Y-67348815D01*
X142254494Y-67269463D01*
X142144180Y-67210498D01*
X142024482Y-67174188D01*
X141900000Y-67161928D01*
X141285750Y-67165000D01*
X141127000Y-67323750D01*
X140873000Y-67323750D01*
X140714250Y-67165000D01*
X140100000Y-67161928D01*
X139975518Y-67174188D01*
X139855820Y-67210498D01*
X139745506Y-67269463D01*
X139648815Y-67348815D01*
X139569463Y-67445506D01*
X139510498Y-67555820D01*
X139474188Y-67675518D01*
X139461928Y-67800000D01*
X128748002Y-67800000D01*
X128697537Y-67678169D01*
X128507663Y-67394002D01*
X128265998Y-67152337D01*
X127981831Y-66962463D01*
X127666081Y-66831675D01*
X127405650Y-66779872D01*
X144765000Y-66779872D01*
X144765000Y-67220128D01*
X144850890Y-67651925D01*
X145019369Y-68058669D01*
X145263962Y-68424729D01*
X145575271Y-68736038D01*
X145941331Y-68980631D01*
X146348075Y-69149110D01*
X146779872Y-69235000D01*
X147220128Y-69235000D01*
X147651925Y-69149110D01*
X148058669Y-68980631D01*
X148424729Y-68736038D01*
X148736038Y-68424729D01*
X148980631Y-68058669D01*
X149149110Y-67651925D01*
X149235000Y-67220128D01*
X149235000Y-66779872D01*
X149149110Y-66348075D01*
X148980631Y-65941331D01*
X148736038Y-65575271D01*
X148424729Y-65263962D01*
X148058669Y-65019369D01*
X147651925Y-64850890D01*
X147220128Y-64765000D01*
X146779872Y-64765000D01*
X146348075Y-64850890D01*
X145941331Y-65019369D01*
X145575271Y-65263962D01*
X145263962Y-65575271D01*
X145019369Y-65941331D01*
X144850890Y-66348075D01*
X144765000Y-66779872D01*
X127405650Y-66779872D01*
X127330883Y-66765000D01*
X126989117Y-66765000D01*
X126653919Y-66831675D01*
X126338169Y-66962463D01*
X126054002Y-67152337D01*
X125812337Y-67394002D01*
X125622463Y-67678169D01*
X125491675Y-67993919D01*
X125425000Y-68329117D01*
X125425000Y-68670883D01*
X125491675Y-69006081D01*
X125525000Y-69086535D01*
X125525001Y-74202760D01*
X119322762Y-80405000D01*
X118345406Y-80405000D01*
X118375969Y-80366923D01*
X118519571Y-80091094D01*
X118590563Y-79872980D01*
X118470594Y-79627000D01*
X117127000Y-79627000D01*
X117127000Y-79647000D01*
X116873000Y-79647000D01*
X116873000Y-79627000D01*
X115529406Y-79627000D01*
X115409437Y-79872980D01*
X115480429Y-80091094D01*
X115624031Y-80366923D01*
X115818685Y-80609437D01*
X115990363Y-80753480D01*
X115838286Y-80878286D01*
X115633969Y-81127248D01*
X115482148Y-81411285D01*
X115388657Y-81719484D01*
X115357089Y-82040000D01*
X111780395Y-82040000D01*
X111813097Y-82007298D01*
X111792785Y-81938072D01*
X111800000Y-81938072D01*
X111924482Y-81925812D01*
X112044180Y-81889502D01*
X112154494Y-81830537D01*
X112251185Y-81751185D01*
X112330537Y-81654494D01*
X112389502Y-81544180D01*
X112425812Y-81424482D01*
X112429970Y-81382269D01*
X115217239Y-78595000D01*
X115654594Y-78595000D01*
X115624031Y-78633077D01*
X115480429Y-78908906D01*
X115409437Y-79127020D01*
X115529406Y-79373000D01*
X116873000Y-79373000D01*
X116873000Y-79353000D01*
X117127000Y-79353000D01*
X117127000Y-79373000D01*
X118470594Y-79373000D01*
X118590563Y-79127020D01*
X118519571Y-78908906D01*
X118375969Y-78633077D01*
X118262781Y-78492059D01*
X118354494Y-78443037D01*
X118451185Y-78363685D01*
X118530537Y-78266994D01*
X118589502Y-78156680D01*
X118625812Y-78036982D01*
X118638072Y-77912500D01*
X118638072Y-77009131D01*
X118642911Y-76960000D01*
X118638072Y-76910869D01*
X118638072Y-76007500D01*
X118635000Y-75976308D01*
X118635000Y-69946144D01*
X118689502Y-69844180D01*
X118725812Y-69724482D01*
X118738072Y-69600000D01*
X118738072Y-67400000D01*
X118725812Y-67275518D01*
X118689502Y-67155820D01*
X118630537Y-67045506D01*
X118551185Y-66948815D01*
X118454494Y-66869463D01*
X118344180Y-66810498D01*
X118224482Y-66774188D01*
X118100000Y-66761928D01*
X115900000Y-66761928D01*
X115775518Y-66774188D01*
X115655820Y-66810498D01*
X115545506Y-66869463D01*
X115448815Y-66948815D01*
X115369463Y-67045506D01*
X115310498Y-67155820D01*
X115274188Y-67275518D01*
X115261928Y-67400000D01*
X115261928Y-69600000D01*
X115274188Y-69724482D01*
X115310498Y-69844180D01*
X115365000Y-69946145D01*
X115365001Y-75325000D01*
X114620319Y-75325000D01*
X114539999Y-75317089D01*
X114459680Y-75325000D01*
X114459678Y-75325000D01*
X114219484Y-75348657D01*
X113911285Y-75442148D01*
X113627248Y-75593969D01*
X113378286Y-75798286D01*
X113327080Y-75860681D01*
X110322762Y-78865000D01*
X102580319Y-78865000D01*
X102500000Y-78857089D01*
X102419680Y-78865000D01*
X102419678Y-78865000D01*
X102179484Y-78888657D01*
X101871285Y-78982148D01*
X101587248Y-79133969D01*
X101338286Y-79338286D01*
X101287080Y-79400681D01*
X99525834Y-81161928D01*
X98800000Y-81161928D01*
X98675518Y-81174188D01*
X98555820Y-81210498D01*
X98445506Y-81269463D01*
X98348815Y-81348815D01*
X98335532Y-81365000D01*
X81664468Y-81365000D01*
X81651185Y-81348815D01*
X81554494Y-81269463D01*
X81444180Y-81210498D01*
X81324482Y-81174188D01*
X81200000Y-81161928D01*
X78800000Y-81161928D01*
X78675518Y-81174188D01*
X78555820Y-81210498D01*
X78445506Y-81269463D01*
X78348815Y-81348815D01*
X78335532Y-81365000D01*
X61744468Y-81365000D01*
X61731185Y-81348815D01*
X61715000Y-81335532D01*
X61715000Y-74750000D01*
X83708057Y-74750000D01*
X83735764Y-75031309D01*
X83817818Y-75301808D01*
X83951068Y-75551101D01*
X84130392Y-75769608D01*
X84348899Y-75948932D01*
X84598192Y-76082182D01*
X84868691Y-76164236D01*
X85079508Y-76185000D01*
X87920492Y-76185000D01*
X88131309Y-76164236D01*
X88401808Y-76082182D01*
X88651101Y-75948932D01*
X88869608Y-75769608D01*
X89048932Y-75551101D01*
X89182182Y-75301808D01*
X89264236Y-75031309D01*
X89291943Y-74750000D01*
X89264236Y-74468691D01*
X89182182Y-74198192D01*
X89048932Y-73948899D01*
X88869608Y-73730392D01*
X88651101Y-73551068D01*
X88401808Y-73417818D01*
X88131309Y-73335764D01*
X87920492Y-73315000D01*
X85079508Y-73315000D01*
X84868691Y-73335764D01*
X84598192Y-73417818D01*
X84348899Y-73551068D01*
X84130392Y-73730392D01*
X83951068Y-73948899D01*
X83817818Y-74198192D01*
X83735764Y-74468691D01*
X83708057Y-74750000D01*
X61715000Y-74750000D01*
X61715000Y-74160319D01*
X61722911Y-74079999D01*
X61711806Y-73967248D01*
X61691343Y-73759484D01*
X61597852Y-73451285D01*
X61446031Y-73167248D01*
X61241714Y-72918286D01*
X61179320Y-72867081D01*
X59738072Y-71425834D01*
X59738072Y-71334999D01*
X65182761Y-71334999D01*
X66589138Y-72741378D01*
X66622463Y-72821831D01*
X66812337Y-73105998D01*
X67054002Y-73347663D01*
X67338169Y-73537537D01*
X67653919Y-73668325D01*
X67989117Y-73735000D01*
X68330883Y-73735000D01*
X68666081Y-73668325D01*
X68746535Y-73635000D01*
X72190640Y-73635000D01*
X72341637Y-73860983D01*
X72639017Y-74158363D01*
X72988698Y-74392012D01*
X73377244Y-74552953D01*
X73789721Y-74635000D01*
X74210279Y-74635000D01*
X74622756Y-74552953D01*
X75011302Y-74392012D01*
X75360983Y-74158363D01*
X75658363Y-73860983D01*
X75892012Y-73511302D01*
X76052953Y-73122756D01*
X76135000Y-72710279D01*
X76135000Y-72677238D01*
X76435238Y-72377000D01*
X80265000Y-72377000D01*
X80265000Y-73477000D01*
X80317350Y-73754514D01*
X80422834Y-74016483D01*
X80577399Y-74252839D01*
X80775105Y-74454500D01*
X81008354Y-74613715D01*
X81268182Y-74724367D01*
X81350961Y-74741904D01*
X81573000Y-74619915D01*
X81573000Y-72377000D01*
X81827000Y-72377000D01*
X81827000Y-74619915D01*
X82049039Y-74741904D01*
X82131818Y-74724367D01*
X82391646Y-74613715D01*
X82624895Y-74454500D01*
X82822601Y-74252839D01*
X82977166Y-74016483D01*
X83082650Y-73754514D01*
X83135000Y-73477000D01*
X83135000Y-72377000D01*
X81827000Y-72377000D01*
X81573000Y-72377000D01*
X80265000Y-72377000D01*
X76435238Y-72377000D01*
X78427239Y-70385000D01*
X80487259Y-70385000D01*
X80422834Y-70483517D01*
X80317350Y-70745486D01*
X80265000Y-71023000D01*
X80265000Y-72123000D01*
X81573000Y-72123000D01*
X81573000Y-72103000D01*
X81827000Y-72103000D01*
X81827000Y-72123000D01*
X83135000Y-72123000D01*
X83135000Y-71023000D01*
X83082650Y-70745486D01*
X82977166Y-70483517D01*
X82912741Y-70385000D01*
X93572762Y-70385000D01*
X95865000Y-72677239D01*
X95865000Y-72710279D01*
X95947047Y-73122756D01*
X96107988Y-73511302D01*
X96341637Y-73860983D01*
X96639017Y-74158363D01*
X96988698Y-74392012D01*
X97377244Y-74552953D01*
X97789721Y-74635000D01*
X98210279Y-74635000D01*
X98622756Y-74552953D01*
X99011302Y-74392012D01*
X99360983Y-74158363D01*
X99658363Y-73860983D01*
X99892012Y-73511302D01*
X100052953Y-73122756D01*
X100135000Y-72710279D01*
X100135000Y-72289721D01*
X100052953Y-71877244D01*
X99892012Y-71488698D01*
X99658363Y-71139017D01*
X99360983Y-70841637D01*
X99011302Y-70607988D01*
X98622756Y-70447047D01*
X98210279Y-70365000D01*
X98177239Y-70365000D01*
X97447912Y-69635674D01*
X97714250Y-69635000D01*
X97873000Y-69476250D01*
X97873000Y-67627000D01*
X98127000Y-67627000D01*
X98127000Y-69476250D01*
X98285750Y-69635000D01*
X99500000Y-69638072D01*
X99624482Y-69625812D01*
X99744180Y-69589502D01*
X99854494Y-69530537D01*
X99951185Y-69451185D01*
X100030537Y-69354494D01*
X100089502Y-69244180D01*
X100125812Y-69124482D01*
X100138072Y-69000000D01*
X100135000Y-67785750D01*
X99976250Y-67627000D01*
X98127000Y-67627000D01*
X97873000Y-67627000D01*
X96023750Y-67627000D01*
X95865000Y-67785750D01*
X95864326Y-68052088D01*
X95462925Y-67650687D01*
X95411714Y-67588286D01*
X95162752Y-67383969D01*
X94878715Y-67232148D01*
X94570516Y-67138657D01*
X94330322Y-67115000D01*
X94330319Y-67115000D01*
X94250000Y-67107089D01*
X94169681Y-67115000D01*
X77830322Y-67115000D01*
X77750000Y-67107089D01*
X77429483Y-67138657D01*
X77180287Y-67214250D01*
X77121285Y-67232148D01*
X76837248Y-67383969D01*
X76588286Y-67588286D01*
X76537080Y-67650681D01*
X76135674Y-68052087D01*
X76135000Y-67785750D01*
X75976250Y-67627000D01*
X74127000Y-67627000D01*
X74127000Y-69476250D01*
X74285750Y-69635000D01*
X74552088Y-69635674D01*
X73822762Y-70365000D01*
X73789721Y-70365000D01*
X73720374Y-70378794D01*
X73580322Y-70365000D01*
X73580319Y-70365000D01*
X73500000Y-70357089D01*
X73419681Y-70365000D01*
X68837240Y-70365000D01*
X67472239Y-69000000D01*
X71861928Y-69000000D01*
X71874188Y-69124482D01*
X71910498Y-69244180D01*
X71969463Y-69354494D01*
X72048815Y-69451185D01*
X72145506Y-69530537D01*
X72255820Y-69589502D01*
X72375518Y-69625812D01*
X72500000Y-69638072D01*
X73714250Y-69635000D01*
X73873000Y-69476250D01*
X73873000Y-67627000D01*
X72023750Y-67627000D01*
X71865000Y-67785750D01*
X71861928Y-69000000D01*
X67472239Y-69000000D01*
X67072923Y-68600685D01*
X67021713Y-68538285D01*
X66772751Y-68333968D01*
X66488714Y-68182147D01*
X66180515Y-68088656D01*
X65940321Y-68064999D01*
X65940318Y-68064999D01*
X65859999Y-68057088D01*
X65779680Y-68064999D01*
X56020318Y-68064999D01*
X55939998Y-68057088D01*
X55859679Y-68064999D01*
X55859677Y-68064999D01*
X55619483Y-68088656D01*
X55311284Y-68182147D01*
X55027247Y-68333968D01*
X54778285Y-68538285D01*
X54727074Y-68600686D01*
X54600686Y-68727074D01*
X54538285Y-68778285D01*
X54333968Y-69027248D01*
X54182147Y-69311285D01*
X54088656Y-69619484D01*
X54066019Y-69849323D01*
X54057088Y-69939999D01*
X50660000Y-69939999D01*
X50660000Y-66779872D01*
X50765000Y-66779872D01*
X50765000Y-67220128D01*
X50850890Y-67651925D01*
X51019369Y-68058669D01*
X51263962Y-68424729D01*
X51575271Y-68736038D01*
X51941331Y-68980631D01*
X52348075Y-69149110D01*
X52779872Y-69235000D01*
X53220128Y-69235000D01*
X53651925Y-69149110D01*
X54058669Y-68980631D01*
X54424729Y-68736038D01*
X54736038Y-68424729D01*
X54980631Y-68058669D01*
X55149110Y-67651925D01*
X55235000Y-67220128D01*
X55235000Y-66779872D01*
X55149110Y-66348075D01*
X55004933Y-66000000D01*
X71861928Y-66000000D01*
X71865000Y-67214250D01*
X72023750Y-67373000D01*
X73873000Y-67373000D01*
X73873000Y-65523750D01*
X74127000Y-65523750D01*
X74127000Y-67373000D01*
X75976250Y-67373000D01*
X76135000Y-67214250D01*
X76138072Y-66000000D01*
X95861928Y-66000000D01*
X95865000Y-67214250D01*
X96023750Y-67373000D01*
X97873000Y-67373000D01*
X97873000Y-65523750D01*
X98127000Y-65523750D01*
X98127000Y-67373000D01*
X99976250Y-67373000D01*
X100135000Y-67214250D01*
X100138072Y-66000000D01*
X100125812Y-65875518D01*
X100089502Y-65755820D01*
X100030537Y-65645506D01*
X99951185Y-65548815D01*
X99854494Y-65469463D01*
X99744180Y-65410498D01*
X99624482Y-65374188D01*
X99500000Y-65361928D01*
X98285750Y-65365000D01*
X98127000Y-65523750D01*
X97873000Y-65523750D01*
X97714250Y-65365000D01*
X96500000Y-65361928D01*
X96375518Y-65374188D01*
X96255820Y-65410498D01*
X96145506Y-65469463D01*
X96048815Y-65548815D01*
X95969463Y-65645506D01*
X95910498Y-65755820D01*
X95874188Y-65875518D01*
X95861928Y-66000000D01*
X76138072Y-66000000D01*
X76125812Y-65875518D01*
X76089502Y-65755820D01*
X76030537Y-65645506D01*
X75951185Y-65548815D01*
X75854494Y-65469463D01*
X75744180Y-65410498D01*
X75624482Y-65374188D01*
X75500000Y-65361928D01*
X74285750Y-65365000D01*
X74127000Y-65523750D01*
X73873000Y-65523750D01*
X73714250Y-65365000D01*
X72500000Y-65361928D01*
X72375518Y-65374188D01*
X72255820Y-65410498D01*
X72145506Y-65469463D01*
X72048815Y-65548815D01*
X71969463Y-65645506D01*
X71910498Y-65755820D01*
X71874188Y-65875518D01*
X71861928Y-66000000D01*
X55004933Y-66000000D01*
X54980631Y-65941331D01*
X54736038Y-65575271D01*
X54424729Y-65263962D01*
X54058669Y-65019369D01*
X53651925Y-64850890D01*
X53220128Y-64765000D01*
X52779872Y-64765000D01*
X52348075Y-64850890D01*
X51941331Y-65019369D01*
X51575271Y-65263962D01*
X51263962Y-65575271D01*
X51019369Y-65941331D01*
X50850890Y-66348075D01*
X50765000Y-66779872D01*
X50660000Y-66779872D01*
X50660000Y-64660000D01*
X149340000Y-64660000D01*
X149340001Y-124340000D01*
G37*
%TD.AperFunction*%
%TD*%
M02*
