%TF.GenerationSoftware,KiCad,Pcbnew,(5.1.9)-1*%
%TF.CreationDate,2021-07-14T17:47:05+01:00*%
%TF.ProjectId,mfosish_ww_supply,6d666f73-6973-4685-9f77-775f73757070,rev?*%
%TF.SameCoordinates,Original*%
%TF.FileFunction,Profile,NP*%
%FSLAX46Y46*%
G04 Gerber Fmt 4.6, Leading zero omitted, Abs format (unit mm)*
G04 Created by KiCad (PCBNEW (5.1.9)-1) date 2021-07-14 17:47:05*
%MOMM*%
%LPD*%
G01*
G04 APERTURE LIST*
%TA.AperFunction,Profile*%
%ADD10C,0.050000*%
%TD*%
G04 APERTURE END LIST*
D10*
X151000000Y-125000000D02*
X50000000Y-125000000D01*
X153000000Y-65000000D02*
X300000000Y-65000000D01*
X151000000Y-68000000D02*
X151000000Y-65000000D01*
X153000000Y-68000000D02*
X151000000Y-68000000D01*
X153000000Y-65000000D02*
X153000000Y-68000000D01*
X153000000Y-122000000D02*
X153000000Y-125000000D01*
X151000000Y-122000000D02*
X153000000Y-122000000D01*
X151000000Y-125000000D02*
X151000000Y-122000000D01*
X151000000Y-104000000D02*
X153000000Y-104000000D01*
X151000000Y-118000000D02*
X151000000Y-104000000D01*
X153000000Y-118000000D02*
X151000000Y-118000000D01*
X153000000Y-104000000D02*
X153000000Y-118000000D01*
X153000000Y-72000000D02*
X151000000Y-72000000D01*
X153000000Y-86000000D02*
X153000000Y-72000000D01*
X151000000Y-86000000D02*
X153000000Y-86000000D01*
X151000000Y-72000000D02*
X151000000Y-86000000D01*
X300000000Y-65000000D02*
X300000000Y-125000000D01*
X50000000Y-125000000D02*
X50000000Y-65000000D01*
X300000000Y-125000000D02*
X153000000Y-125000000D01*
X50000000Y-65000000D02*
X151000000Y-65000000D01*
M02*
