%TF.GenerationSoftware,KiCad,Pcbnew,(5.1.9)-1*%
%TF.CreationDate,2021-07-14T17:47:04+01:00*%
%TF.ProjectId,mfosish_ww_supply,6d666f73-6973-4685-9f77-775f73757070,rev?*%
%TF.SameCoordinates,Original*%
%TF.FileFunction,Soldermask,Bot*%
%TF.FilePolarity,Negative*%
%FSLAX46Y46*%
G04 Gerber Fmt 4.6, Leading zero omitted, Abs format (unit mm)*
G04 Created by KiCad (PCBNEW (5.1.9)-1) date 2021-07-14 17:47:04*
%MOMM*%
%LPD*%
G01*
G04 APERTURE LIST*
%ADD10C,3.200000*%
%ADD11R,2.500000X2.500000*%
%ADD12C,2.500000*%
%ADD13O,1.727200X1.727200*%
%ADD14R,1.727200X1.727200*%
%ADD15O,2.200000X2.200000*%
%ADD16R,2.200000X2.200000*%
%ADD17C,1.600000*%
%ADD18O,1.600000X1.600000*%
%ADD19C,2.200000*%
%ADD20O,1.600000X3.800000*%
%ADD21O,4.300000X1.600000*%
%ADD22O,3.800000X1.600000*%
%ADD23R,1.600000X1.600000*%
%ADD24C,3.000000*%
%ADD25R,3.000000X3.000000*%
%ADD26O,2.000000X1.905000*%
%ADD27R,2.000000X1.905000*%
%ADD28C,2.400000*%
%ADD29R,2.400000X2.400000*%
%ADD30C,1.800000*%
%ADD31R,1.800000X1.800000*%
G04 APERTURE END LIST*
D10*
%TO.C,H4*%
X157000000Y-68000000D03*
%TD*%
%TO.C,H4*%
X296000000Y-68000000D03*
%TD*%
%TO.C,H4*%
X296000000Y-122000000D03*
%TD*%
%TO.C,H4*%
X157000000Y-122000000D03*
%TD*%
D11*
%TO.C,J4*%
X157000000Y-100000000D03*
D12*
X157000000Y-95000000D03*
X157000000Y-90000000D03*
%TD*%
D13*
%TO.C,J16*%
X293540000Y-114160000D03*
X291000000Y-114160000D03*
X293540000Y-111620000D03*
X291000000Y-111620000D03*
X293540000Y-109080000D03*
X291000000Y-109080000D03*
X293540000Y-106540000D03*
X291000000Y-106540000D03*
X293540000Y-104000000D03*
D14*
X291000000Y-104000000D03*
%TD*%
D13*
%TO.C,J15*%
X270085448Y-114160000D03*
X267545448Y-114160000D03*
X270085448Y-111620000D03*
X267545448Y-111620000D03*
X270085448Y-109080000D03*
X267545448Y-109080000D03*
X270085448Y-106540000D03*
X267545448Y-106540000D03*
X270085448Y-104000000D03*
D14*
X267545448Y-104000000D03*
%TD*%
D13*
%TO.C,J14*%
X281812720Y-84160000D03*
X279272720Y-84160000D03*
X281812720Y-81620000D03*
X279272720Y-81620000D03*
X281812720Y-79080000D03*
X279272720Y-79080000D03*
X281812720Y-76540000D03*
X279272720Y-76540000D03*
X281812720Y-74000000D03*
D14*
X279272720Y-74000000D03*
%TD*%
D13*
%TO.C,J13*%
X246630904Y-114000000D03*
X244090904Y-114000000D03*
X246630904Y-111460000D03*
X244090904Y-111460000D03*
X246630904Y-108920000D03*
X244090904Y-108920000D03*
X246630904Y-106380000D03*
X244090904Y-106380000D03*
X246630904Y-103840000D03*
D14*
X244090904Y-103840000D03*
%TD*%
D13*
%TO.C,J12*%
X223176360Y-114160000D03*
X220636360Y-114160000D03*
X223176360Y-111620000D03*
X220636360Y-111620000D03*
X223176360Y-109080000D03*
X220636360Y-109080000D03*
X223176360Y-106540000D03*
X220636360Y-106540000D03*
X223176360Y-104000000D03*
D14*
X220636360Y-104000000D03*
%TD*%
D13*
%TO.C,J11*%
X187994544Y-84160000D03*
X185454544Y-84160000D03*
X187994544Y-81620000D03*
X185454544Y-81620000D03*
X187994544Y-79080000D03*
X185454544Y-79080000D03*
X187994544Y-76540000D03*
X185454544Y-76540000D03*
X187994544Y-74000000D03*
D14*
X185454544Y-74000000D03*
%TD*%
D13*
%TO.C,J10*%
X258358176Y-84160000D03*
X255818176Y-84160000D03*
X258358176Y-81620000D03*
X255818176Y-81620000D03*
X258358176Y-79080000D03*
X255818176Y-79080000D03*
X258358176Y-76540000D03*
X255818176Y-76540000D03*
X258358176Y-74000000D03*
D14*
X255818176Y-74000000D03*
%TD*%
D13*
%TO.C,J9*%
X234903632Y-84160000D03*
X232363632Y-84160000D03*
X234903632Y-81620000D03*
X232363632Y-81620000D03*
X234903632Y-79080000D03*
X232363632Y-79080000D03*
X234903632Y-76540000D03*
X232363632Y-76540000D03*
X234903632Y-74000000D03*
D14*
X232363632Y-74000000D03*
%TD*%
D13*
%TO.C,J8*%
X211449088Y-84080000D03*
X208909088Y-84080000D03*
X211449088Y-81540000D03*
X208909088Y-81540000D03*
X211449088Y-79000000D03*
X208909088Y-79000000D03*
X211449088Y-76460000D03*
X208909088Y-76460000D03*
X211449088Y-73920000D03*
D14*
X208909088Y-73920000D03*
%TD*%
D13*
%TO.C,J7*%
X199721816Y-114160000D03*
X197181816Y-114160000D03*
X199721816Y-111620000D03*
X197181816Y-111620000D03*
X199721816Y-109080000D03*
X197181816Y-109080000D03*
X199721816Y-106540000D03*
X197181816Y-106540000D03*
X199721816Y-104000000D03*
D14*
X197181816Y-104000000D03*
%TD*%
D13*
%TO.C,J6*%
X176267272Y-114160000D03*
X173727272Y-114160000D03*
X176267272Y-111620000D03*
X173727272Y-111620000D03*
X176267272Y-109080000D03*
X173727272Y-109080000D03*
X176267272Y-106540000D03*
X173727272Y-106540000D03*
X176267272Y-104000000D03*
D14*
X173727272Y-104000000D03*
%TD*%
D13*
%TO.C,J5*%
X172000000Y-84080000D03*
X169460000Y-84080000D03*
X172000000Y-81540000D03*
X169460000Y-81540000D03*
X172000000Y-79000000D03*
X169460000Y-79000000D03*
X172000000Y-76460000D03*
X169460000Y-76460000D03*
X172000000Y-73920000D03*
D14*
X169460000Y-73920000D03*
%TD*%
D10*
%TO.C,H4*%
X146950000Y-122000000D03*
%TD*%
%TO.C,H2*%
X147000000Y-68000000D03*
%TD*%
D15*
%TO.C,D6*%
X131620000Y-95777712D03*
D16*
X121460000Y-95777712D03*
%TD*%
D15*
%TO.C,D5*%
X131620000Y-91180000D03*
D16*
X121460000Y-91180000D03*
%TD*%
D15*
%TO.C,D4*%
X124620000Y-118500000D03*
D16*
X114460000Y-118500000D03*
%TD*%
D15*
%TO.C,D3*%
X124620000Y-68500000D03*
D16*
X114460000Y-68500000D03*
%TD*%
D15*
%TO.C,D2*%
X68160000Y-121000000D03*
D16*
X58000000Y-121000000D03*
%TD*%
D15*
%TO.C,D1*%
X65240000Y-74160000D03*
D16*
X55080000Y-74160000D03*
%TD*%
D17*
%TO.C,R2*%
X137100000Y-114000000D03*
D18*
X147260000Y-114000000D03*
%TD*%
D17*
%TO.C,R1*%
X137000000Y-76200000D03*
D18*
X147160000Y-76200000D03*
%TD*%
D10*
%TO.C,H3*%
X53000000Y-122000000D03*
%TD*%
%TO.C,H1*%
X53000000Y-68000000D03*
%TD*%
D19*
%TO.C,F2*%
X144535000Y-108450000D03*
X139535000Y-108450000D03*
%TD*%
%TO.C,F1*%
X144535000Y-81145000D03*
X139535000Y-81145000D03*
%TD*%
D20*
%TO.C,J1*%
X83300000Y-73330000D03*
D21*
X88100000Y-75830000D03*
D22*
X88100000Y-69830000D03*
%TD*%
D17*
%TO.C,C7*%
X108420000Y-79200000D03*
D23*
X108420000Y-76700000D03*
%TD*%
D24*
%TO.C,J3*%
X100800000Y-72810000D03*
D25*
X100800000Y-67810000D03*
%TD*%
D24*
%TO.C,J2*%
X72860000Y-72810000D03*
D25*
X72860000Y-67810000D03*
%TD*%
D17*
%TO.C,C8*%
X108420000Y-117300000D03*
D23*
X108420000Y-114800000D03*
%TD*%
D26*
%TO.C,U2*%
X114460000Y-110040000D03*
X114460000Y-107500000D03*
D27*
X114460000Y-104960000D03*
%TD*%
D28*
%TO.C,C1*%
X60080000Y-90500000D03*
D29*
X60080000Y-83000000D03*
%TD*%
D26*
%TO.C,U1*%
X114460000Y-82040000D03*
X114460000Y-79500000D03*
D27*
X114460000Y-76960000D03*
%TD*%
D12*
%TO.C,J4*%
X146520000Y-100000000D03*
X146520000Y-95000000D03*
D11*
X146520000Y-90000000D03*
%TD*%
D30*
%TO.C,D8*%
X138460000Y-121540000D03*
D31*
X138460000Y-119000000D03*
%TD*%
D30*
%TO.C,D7*%
X138460000Y-71240000D03*
D31*
X138460000Y-68700000D03*
%TD*%
D17*
%TO.C,C10*%
X117000000Y-98000000D03*
D23*
X117000000Y-95500000D03*
%TD*%
D17*
%TO.C,C9*%
X117000000Y-91500000D03*
D23*
X117000000Y-89000000D03*
%TD*%
D28*
%TO.C,C6*%
X100000000Y-111000000D03*
D29*
X100000000Y-103500000D03*
%TD*%
D28*
%TO.C,C5*%
X100000000Y-90500000D03*
D29*
X100000000Y-83000000D03*
%TD*%
D28*
%TO.C,C4*%
X80000000Y-111000000D03*
D29*
X80000000Y-103500000D03*
%TD*%
D28*
%TO.C,C3*%
X80000000Y-90500000D03*
D29*
X80000000Y-83000000D03*
%TD*%
D28*
%TO.C,C2*%
X60080000Y-111000000D03*
D29*
X60080000Y-103500000D03*
%TD*%
M02*
